<svg width="60" height="60" viewBox="0 0 60 60" fill="none" xmlns="http://www.w3.org/2000/svg">
<g clip-path="url(#clip0_165_10340)">
<path d="M18.7843 37.5611C13.7707 37.5611 9.04844 35.6035 5.50677 32.0618C1.95763 28.5127 0 23.7979 0 18.7843C0 13.7707 1.95763 9.04844 5.50677 5.4993C9.04844 1.95016 13.7707 0 18.7843 0C23.7979 0 28.5201 1.95016 32.0618 5.4993C39.3843 12.8217 39.3843 24.7394 32.0618 32.0618C28.5127 35.611 23.7979 37.5611 18.7843 37.5611ZM18.7843 0.971344C14.0247 0.971344 9.55653 2.82437 6.19418 6.18671C2.82437 9.54906 0.971344 14.0247 0.971344 18.7843C0.971344 23.5439 2.82437 28.0121 6.18671 31.3744C9.54906 34.7367 14.0247 36.5898 18.7768 36.5898C23.5289 36.5898 28.0046 34.7367 31.3669 31.3744C38.3083 24.433 38.3083 13.1281 31.3669 6.18671C28.0121 2.82437 23.5439 0.971344 18.7843 0.971344Z" fill="#FDCF6F"/>
<path d="M18.7841 34.692C14.5326 34.692 10.5426 33.0332 7.53891 30.0295C4.53522 27.0258 2.87646 23.0358 2.87646 18.7843C2.87646 14.5328 4.52775 10.5429 7.53891 7.53916C10.5426 4.53547 14.5401 2.87671 18.7841 2.87671C23.0281 2.87671 27.0256 4.53547 30.0367 7.53916C33.0404 10.5429 34.6992 14.5403 34.6992 18.7843C34.6992 23.0284 33.0404 27.0258 30.0367 30.0295C27.033 33.0332 23.0356 34.692 18.7916 34.692H18.7841ZM18.7841 3.84805C14.7941 3.84805 11.0432 5.4022 8.22633 8.22657C5.40196 11.0509 3.84781 14.8018 3.84781 18.7918C3.84781 22.7818 5.40196 26.5327 8.22633 29.3496C11.0507 32.1739 14.8016 33.7281 18.7841 33.7281C22.7666 33.7281 26.5249 32.1739 29.3493 29.3496C32.1737 26.5327 33.7278 22.7818 33.7278 18.7918C33.7278 14.8018 32.1737 11.0509 29.3493 8.23404C26.5249 5.40968 22.7741 3.85552 18.7841 3.85552V3.84805Z" fill="#FDCF6F"/>
<path d="M37.2623 37.748C37.1353 37.748 37.0157 37.7032 36.9186 37.606L31.3745 32.0619C31.1877 31.8751 31.1877 31.5613 31.3745 31.3745C31.5613 31.1877 31.8751 31.1877 32.0619 31.3745L37.606 36.9186C37.7928 37.1054 37.7928 37.4192 37.606 37.606C37.5089 37.7032 37.3893 37.748 37.2623 37.748Z" fill="#FDCF6F"/>
<path d="M55.7476 59.1101C54.851 59.1101 54.0066 58.7589 53.3715 58.1238L34.8861 39.6384C34.7964 39.5487 34.7441 39.4217 34.7441 39.2947C34.7441 39.1677 34.7964 39.0407 34.8861 38.951L38.9508 34.8938C39.1376 34.707 39.4439 34.707 39.6382 34.8938L58.1236 53.3717C59.4312 54.6868 59.4312 56.8162 58.1236 58.1238C57.4885 58.7589 56.6442 59.1026 55.7476 59.1026V59.1101ZM35.9172 39.2947L54.0589 57.4364C54.9556 58.3405 56.5396 58.333 57.4362 57.4364C58.3702 56.5024 58.3702 54.9856 57.4362 54.0516L39.2945 35.9174L35.9172 39.2872V39.2947Z" fill="#FDCF6F"/>
<path d="M9.24251 24.3808C8.97352 24.3808 8.75684 24.1641 8.75684 23.8951V19.7557C8.75684 19.4867 8.97352 19.27 9.24251 19.27C9.51149 19.27 9.72818 19.4867 9.72818 19.7557V23.8951C9.72818 24.1641 9.51149 24.3808 9.24251 24.3808Z" fill="white"/>
<path d="M14.0096 24.3807C13.7406 24.3807 13.5239 24.164 13.5239 23.895V14.869C13.5239 14.6 13.7406 14.3833 14.0096 14.3833C14.2786 14.3833 14.4953 14.6 14.4953 14.869V23.895C14.4953 24.164 14.2786 24.3807 14.0096 24.3807Z" fill="white"/>
<path d="M18.7845 24.3806C18.5155 24.3806 18.2988 24.1639 18.2988 23.8949V17.7008C18.2988 17.4318 18.5155 17.2151 18.7845 17.2151C19.0535 17.2151 19.2702 17.4318 19.2702 17.7008V23.8949C19.2702 24.1639 19.0535 24.3806 18.7845 24.3806Z" fill="white"/>
<path d="M23.5516 24.3807C23.2826 24.3807 23.0659 24.164 23.0659 23.895V19.6361C23.0659 19.3671 23.2826 19.1504 23.5516 19.1504C23.8206 19.1504 24.0373 19.3671 24.0373 19.6361V23.895C24.0373 24.164 23.8206 24.3807 23.5516 24.3807Z" fill="white"/>
<path d="M28.3182 24.3806C28.0492 24.3806 27.8325 24.1639 27.8325 23.8949V13.6734C27.8325 13.4044 28.0492 13.1877 28.3182 13.1877C28.5872 13.1877 28.8039 13.4044 28.8039 13.6734V23.8949C28.8039 24.1639 28.5872 24.3806 28.3182 24.3806Z" fill="white"/>
</g>
<defs>
<clipPath id="clip0_165_10340">
<rect width="59.11" height="59.11" fill="white"/>
</clipPath>
</defs>
</svg>
