<svg width="50" height="44" viewBox="0 0 50 44" fill="none" xmlns="http://www.w3.org/2000/svg">
<g clip-path="url(#clip0_165_9324)">
<path d="M35.974 42.4782L37.1029 42.7089C37.1029 42.7089 41.2667 33.1329 34.6726 21.5659C28.1184 10.5155 18.6416 9.47708 18.6416 9.47708L19.798 5.44315C19.8982 5.09178 19.5821 4.76419 19.2318 4.85184L8.26291 7.62078C7.90917 7.7105 7.78527 8.15596 8.04571 8.41349L16.2038 16.5859C16.4684 16.8503 16.918 16.7172 16.9956 16.3513L17.9831 11.8593C17.9831 11.8593 26.1359 12.4878 32.4853 22.5942C37.359 31.1128 35.97 42.4712 35.97 42.4712L35.974 42.4782Z" fill="#0C756F"/>
</g>
<defs>
<clipPath id="clip0_165_9324">
<rect width="44" height="23" fill="white" transform="translate(12.9404 0.152344) rotate(33.8584)"/>
</clipPath>
</defs>
</svg>
