<svg width="50" height="43" viewBox="0 0 50 43" fill="none" xmlns="http://www.w3.org/2000/svg">
<g clip-path="url(#clip0_69_1052)">
<path d="M48.3419 20.5114L49.0464 19.5996C49.0464 19.5996 42.2845 11.6427 28.9954 12.466C16.1877 13.481 11.0801 21.5309 11.0801 21.5309L7.96828 18.7155C7.697 18.4707 7.26367 18.6101 7.18801 18.9632L4.8409 30.03C4.76559 30.3871 5.1109 30.6946 5.45683 30.5743L16.3876 26.8514C16.7416 26.7304 16.8202 26.2681 16.5259 26.0373L12.9285 23.1716C12.9285 23.1716 17.0847 16.1297 28.9548 14.8825C38.7494 14.2606 48.3339 20.512 48.3339 20.512L48.3419 20.5114Z" fill="#0C756F"/>
</g>
<defs>
<clipPath id="clip0_69_1052">
<rect width="44" height="23" fill="white" transform="translate(0.197266 22.5407) rotate(-30)"/>
</clipPath>
</defs>
</svg>
