<svg width="109" height="108" viewBox="0 0 109 108" fill="none" xmlns="http://www.w3.org/2000/svg">
<path d="M101.041 80.8336C86.223 106.674 53.1781 115.592 27.2512 100.746C1.3242 85.9154 -7.68953 52.9334 7.14489 27.0926C21.9627 1.25179 55.0075 -7.66628 80.9345 7.18057C106.861 22.0108 115.875 54.9927 101.041 80.8336Z" fill="#F5F5F5"/>
<path d="M89.8651 74.4398C78.573 94.1194 53.3944 100.928 33.6207 89.6188C13.8636 78.3093 6.99522 53.1826 18.2873 33.503C29.5795 13.8068 54.7581 7.01449 74.5317 18.324C94.2888 29.6335 101.157 54.7603 89.8651 74.4398Z" fill="#DED5BB"/>
<path d="M90.497 73.3105C90.2808 73.1942 91.0292 71.5335 92.0104 68.4778C92.9749 65.4221 94.1557 60.8717 94.1723 55.1588C94.1723 52.319 93.8896 49.2134 93.1579 45.9584C92.4095 42.72 91.2454 39.3321 89.4992 36.0273C88.6344 34.3666 87.6532 32.7391 86.489 31.1614C85.3415 29.5837 84.0942 28.0226 82.664 26.5944C81.2504 25.1496 79.7204 23.7546 78.0241 22.509C76.3444 21.2635 74.5483 20.1176 72.6525 19.0879C70.7399 18.0915 68.7942 17.2445 66.8151 16.547C64.8361 15.8495 62.8238 15.3679 60.8282 14.986C58.8325 14.604 56.8368 14.4379 54.8911 14.3715C52.9453 14.2885 51.0162 14.4047 49.1702 14.604C45.4616 15.0026 41.9858 15.9326 38.8759 17.1283C35.766 18.3406 33.0219 19.8519 30.6604 21.4296C25.9373 24.6181 22.8108 28.1389 20.8151 30.6632C18.8195 33.2041 17.8715 34.7485 17.6553 34.6323C17.489 34.5493 18.0711 32.8055 19.8173 29.9657C21.5635 27.159 24.557 23.2397 29.3632 19.636C31.7747 17.8424 34.6185 16.1319 37.8781 14.7202C41.1543 13.3418 44.8296 12.2458 48.8043 11.7309C50.7833 11.4652 52.8455 11.3158 54.941 11.3656C57.0364 11.3988 59.1984 11.5649 61.3437 11.9468C63.5057 12.3288 65.6676 12.8436 67.813 13.5743C69.9583 14.3051 72.0704 15.2185 74.1159 16.2979C76.1615 17.394 78.0906 18.6395 79.9034 20.0013C81.7161 21.3631 83.3459 22.8744 84.8759 24.4521C86.4059 26.0132 87.7363 27.7071 88.9337 29.4342C90.1478 31.1448 91.1788 32.9384 92.0769 34.7319C93.873 38.3191 95.0205 41.9727 95.7023 45.4436C96.3676 48.9311 96.5339 52.2359 96.3842 55.2418C96.0682 61.2537 94.505 65.9203 93.1412 68.9262C91.7609 71.9487 90.63 73.4101 90.4804 73.3271L90.497 73.3105Z" fill="white"/>
<g clip-path="url(#clip0_165_10250)">
<path d="M31.1484 65.6865L31.5814 65.9365L31.8314 65.5035L49.7136 34.5306L59.8476 40.3815C62.2243 41.7536 63.0473 44.7995 61.6786 47.1701L54.0032 60.4643L53.7532 60.8974L54.1862 61.1474L58.435 63.6004L58.868 63.8504L59.118 63.4174L66.7935 50.1231C69.7878 44.9367 67.9921 38.2809 62.7933 35.2794L47.9775 26.7255L47.5445 26.4755L47.2945 26.9085L26.7166 62.5505L26.4666 62.9835L26.8996 63.2335L31.1484 65.6865Z" fill="white" stroke="white"/>
<path d="M59.8594 83.1524L60.2925 83.4024L60.5425 82.9693L81.1204 47.3274L81.3704 46.8944L80.9373 46.6444L76.6886 44.1913L76.2555 43.9413L76.0055 44.3743L58.1233 75.3472L47.9894 69.4964C45.6127 68.1242 44.7897 65.0783 46.1583 62.7078L53.8338 49.4135L54.0838 48.9805L53.6508 48.7305L49.402 46.2775L48.969 46.0275L48.719 46.4605L41.0435 59.7547C38.0492 64.9411 39.8448 71.5969 45.0437 74.5985L59.8594 83.1524Z" fill="white" stroke="white"/>
</g>
<defs>
<clipPath id="clip0_165_10250">
<rect width="38.5036" height="41.9261" fill="white" transform="translate(47.7275 27.1585) rotate(30)"/>
</clipPath>
</defs>
</svg>
