<svg width="133" height="238" viewBox="0 0 133 238" fill="none" xmlns="http://www.w3.org/2000/svg">
<path d="M67.2047 190.564C67.2047 190.564 60.3581 143.49 60.9199 116.109C61.4992 88.7283 60.8848 57.9248 60.8848 57.9248H64.0447C64.0447 57.9248 61.903 112.283 64.2379 145.07C66.5552 177.822 72.6821 190.582 72.6821 190.582H67.2047" fill="#0F0F14"/>
<path d="M87.6039 4.97104C86.9719 3.35627 86.1819 1.68883 84.7248 0.758579C82.7234 -0.505154 80.1077 0.0213992 77.8606 0.811233C68.3279 4.18119 59.8837 21.9612 56.0215 31.2988L68.6791 73.9323C91.5188 52.7472 95.4863 24.9451 87.6039 4.97104Z" fill="#0C756F"/>
<path d="M83.9876 2.49609C83.9876 2.49609 83.9349 2.68915 83.8121 3.05774C83.6541 3.46143 83.4434 3.98799 83.1976 4.61985C82.6358 5.95379 81.8634 7.91962 80.9329 10.3418C79.072 15.1861 76.7021 21.9611 74.5778 29.5786C72.4712 37.2137 71.0141 44.2344 70.1012 49.342C69.6448 51.9045 69.3112 53.9757 69.1005 55.3974C68.9952 56.0644 68.9074 56.6085 68.8372 57.0473C68.767 57.4159 68.7319 57.6264 68.7143 57.6264C68.6967 57.6264 68.7143 57.4159 68.7319 57.0473C68.7845 56.6085 68.8372 56.0643 68.9074 55.3798C69.0654 53.9406 69.3463 51.8519 69.7501 49.2893C70.5576 44.1466 71.9621 37.0908 74.0863 29.4382C76.2105 21.7856 78.6507 15.0281 80.5994 10.2014C81.5825 7.79675 82.4076 5.86605 83.022 4.54966C83.3029 3.93534 83.5487 3.42634 83.7243 3.0402C83.8998 2.68916 83.9876 2.51365 84.0051 2.5312L83.9876 2.49609Z" fill="#0F0F14"/>
<path d="M63.0613 84.1651C51.1937 77.6182 44.2067 65.2793 43.5571 51.7468C43.1007 42.2864 46.0149 33.0014 49.2977 24.1202C49.5786 23.3479 49.9298 22.523 50.632 22.1193C51.6326 21.5577 52.8791 22.0491 53.8622 22.6283C62.4819 27.5428 67.7135 36.898 70.4873 46.4111C72.3306 52.7473 73.2961 59.4345 72.4359 65.9638C71.5757 72.5107 67.8363 79.6192 63.0437 84.1651" fill="#0C756F"/>
<path d="M63.062 84.165C63.062 84.165 63.0269 83.9719 63.0094 83.5858C63.0094 83.147 62.9918 82.6205 62.9743 81.9535C62.9743 80.5318 62.9216 78.4782 62.7987 75.9507C62.5705 70.8782 61.9034 63.8926 60.6043 56.2575C59.2876 48.6225 57.69 41.7773 56.5138 36.8452C55.9345 34.423 55.4605 32.4397 55.1094 31.0005C54.9689 30.351 54.8461 29.8245 54.7407 29.4032C54.6705 29.0346 54.6354 28.8416 54.6529 28.8416C54.6529 28.8416 54.7407 29.0171 54.846 29.3857C54.9689 29.8069 55.1269 30.3159 55.3025 30.9653C55.6887 32.3344 56.2329 34.3177 56.8649 36.775C58.1289 41.707 59.7967 48.5348 61.1134 56.1874C62.43 63.84 63.0269 70.8782 63.1673 75.9507C63.2376 78.4957 63.2376 80.5493 63.1673 81.971C63.1322 82.638 63.1147 83.1821 63.0971 83.6034C63.0796 83.972 63.062 84.165 63.0444 84.165H63.062Z" fill="#0F0F14"/>
<g opacity="0.3">
<path d="M63.0632 84.1651C51.1957 77.6182 44.2086 65.2793 43.5591 51.7468C43.1026 42.2864 46.0168 33.0014 49.2997 24.1202C49.5806 23.3479 49.9317 22.523 50.6339 22.1193C51.6346 21.5577 52.881 22.0491 53.8641 22.6283C62.4839 27.5428 67.7154 36.898 70.4892 46.4111C72.3325 52.7473 73.2981 59.4345 72.4379 65.9638C71.5776 72.5107 67.8383 79.6192 63.0456 84.1651" fill="#0F0F14"/>
</g>
<path d="M76.4395 156.18C88.1139 158.743 97.7343 166.975 108.987 170.977C116.449 173.627 124.875 174.557 130.826 179.77C129.404 176.172 126.016 173.767 122.733 171.714C113.464 165.922 103.545 161.2 93.2225 157.637C87.9208 155.812 82.1801 154.285 76.773 155.794" fill="#0C756F"/>
<path d="M59.5501 166.589C44.9263 166.361 29.5301 153.899 14.9766 153.162C30.2148 148.247 52.0187 152.266 59.5501 166.589Z" fill="#0C756F"/>
<path d="M65.2734 131.502C72.6994 128.834 80.8451 128.694 88.6574 129.905C96.452 131.116 103.983 133.626 111.48 136.101C110.725 131.028 106.617 127.22 102.754 123.832C99.8578 121.287 96.9261 118.742 93.5905 116.794C90.255 114.846 86.4629 113.529 82.6007 113.687C77.9485 113.88 73.5245 116.285 70.4699 119.795C67.4152 123.306 65.7825 126.851 65.2734 131.485" fill="#0C756F"/>
<path d="M35.2535 115.372C26.0544 107.509 12.0977 108.281 0.00195312 108.562C18.6108 117.461 38.6417 129.642 54.6699 142.613C55.1614 134.065 46.8752 125.289 35.2535 115.372Z" fill="#0C756F"/>
<g opacity="0.3">
<path d="M35.2535 115.372C26.0544 107.509 12.0977 108.282 0.00195312 108.562C18.6108 117.461 38.6417 129.642 54.6699 142.613C55.1614 134.065 46.8752 125.289 35.2535 115.372Z" fill="#0F0F14"/>
</g>
<path d="M69.4164 104.525C74.0511 101.436 78.7208 98.5049 83.5662 96.2934C88.4115 94.0994 92.9232 90.589 97.6106 88.0616C103.685 84.7794 108.934 80.2159 114.499 76.1439C120.064 72.0719 126.191 68.4035 133.003 67.3153C127.437 66.1745 121.644 66.7888 116.167 68.2807C110.689 69.7726 105.493 72.107 100.314 74.4414C93.1339 77.6709 85.8308 80.9882 79.9497 86.2362C74.0862 91.4842 68.7668 96.662 69.3988 104.525" fill="#0C756F"/>
<path d="M108.724 166.588C108.724 166.588 108.549 166.536 108.268 166.395C107.917 166.22 107.495 165.992 106.986 165.728C105.88 165.149 104.3 164.271 102.316 163.271C101.333 162.744 100.245 162.2 99.0511 161.656C97.8748 161.077 96.6108 160.498 95.2591 159.919C92.5555 158.76 89.5359 157.567 86.2531 156.777C82.9702 155.969 79.7049 155.794 76.8784 156.549C75.4564 156.9 74.1046 157.233 72.9109 157.742C71.7171 158.234 70.6287 158.795 69.6982 159.392C67.8198 160.568 66.5207 161.814 65.6605 162.727C64.8178 163.64 64.3964 164.184 64.3613 164.166C64.3613 164.166 64.4316 164.008 64.6247 163.727C64.8003 163.447 65.0987 163.06 65.5025 162.586C66.31 161.639 67.6091 160.322 69.4876 159.076C70.418 158.462 71.5065 157.847 72.7353 157.338C73.9467 156.812 75.3335 156.443 76.7555 156.092C79.6522 155.302 83.0404 155.46 86.3584 156.285C89.6939 157.075 92.7311 158.304 95.4346 159.497C96.7864 160.094 98.068 160.691 99.2266 161.288C100.403 161.867 101.491 162.429 102.474 162.973C104.441 164.026 106.003 164.938 107.074 165.57C107.565 165.869 107.969 166.114 108.303 166.325C108.584 166.501 108.724 166.606 108.707 166.623L108.724 166.588Z" fill="#0F0F14"/>
<path d="M48.6492 159.34C48.6492 159.34 48.9827 159.41 49.562 159.603C50.1414 159.796 50.9665 160.147 51.9496 160.638C53.9158 161.604 56.514 163.271 58.9367 165.588C61.3593 167.922 63.1149 170.45 64.1682 172.363C64.6949 173.328 65.0811 174.136 65.2918 174.697C65.52 175.259 65.6253 175.593 65.5902 175.61C65.5024 175.645 64.9582 174.417 63.8347 172.556C62.7111 170.696 60.938 168.256 58.568 165.957C56.1805 163.675 53.67 161.99 51.774 160.954C49.878 159.901 48.614 159.41 48.6492 159.322V159.34Z" fill="#0F0F14"/>
<path d="M16.293 114.635C16.293 114.635 16.5212 114.688 16.9074 114.811C17.3639 114.968 17.9432 115.179 18.663 115.442C19.4354 115.723 20.3659 116.074 21.4368 116.46C22.5077 116.864 23.6838 117.461 25.0181 118.04C30.2847 120.427 37.2894 124.446 44.0483 130.168C47.3839 133.064 50.4034 136.031 52.9314 138.909C55.4418 141.805 57.566 144.526 59.2338 146.895C60.9016 149.265 62.1656 151.231 63.0433 152.6C63.4471 153.249 63.7807 153.758 64.044 154.162C64.2722 154.53 64.3776 154.723 64.36 154.723C64.36 154.723 64.202 154.565 63.9563 154.214C63.6929 153.881 63.3243 153.372 62.8678 152.705C61.9549 151.371 60.6382 149.44 58.9354 147.106C57.25 144.772 55.0907 142.086 52.5803 139.225C50.0523 136.382 47.0327 133.451 43.7323 130.555C37.0085 124.868 30.0741 120.831 24.8776 118.356C23.561 117.759 22.4199 117.145 21.349 116.724C20.2956 116.302 19.3828 115.934 18.6279 115.618C17.9257 115.32 17.3463 115.091 16.9074 114.898C16.5212 114.723 16.3106 114.635 16.3281 114.617L16.293 114.635Z" fill="#0F0F14"/>
<path d="M87.217 123.288C87.217 123.288 86.7957 123.271 86.0583 123.13C85.6545 123.06 85.2156 122.972 84.7065 122.884C84.1799 122.779 83.5654 122.779 82.9159 122.709C80.2825 122.516 76.4554 122.726 72.8741 124.692C71.0659 125.605 69.5385 126.851 68.3097 128.08C67.0457 129.308 66.0977 130.59 65.3779 131.713C63.9033 133.96 63.4643 135.574 63.3766 135.557C63.3415 135.557 63.4293 135.136 63.675 134.416C63.9384 133.714 64.3597 132.678 65.0795 131.52C65.7817 130.361 66.7121 129.028 67.9937 127.746C69.2401 126.465 70.8026 125.166 72.6635 124.236C76.3677 122.217 80.3352 122.059 82.9861 122.34C83.6532 122.428 84.2677 122.463 84.7943 122.586C85.2859 122.709 85.7248 122.814 86.1286 122.919C86.8659 123.113 87.2521 123.235 87.2521 123.27L87.217 123.288Z" fill="#0F0F14"/>
<path d="M101.912 77.706C101.912 77.706 101.737 77.8464 101.351 78.0395C100.929 78.2676 100.385 78.566 99.7179 78.9171C98.2959 79.6893 96.2595 80.8127 93.7842 82.2695C91.3088 83.7438 88.4122 85.5692 85.3049 87.7808C82.2151 89.9923 78.8971 92.5724 75.8424 95.6966C74.3326 97.2763 72.9457 98.9086 71.9802 100.699C71.0146 102.542 70.1018 104.315 69.2591 106.017C67.5738 109.422 66.1869 112.564 65.2038 115.267C64.2207 117.97 63.5887 120.217 63.22 121.779C62.8513 123.341 62.7109 124.218 62.6582 124.218C62.6582 124.218 62.6582 123.99 62.7109 123.569C62.7635 123.148 62.8513 122.533 63.0093 121.726C63.3253 120.146 63.8871 117.865 64.8351 115.127C65.7831 112.388 67.1349 109.229 68.8202 105.789C69.6453 104.069 70.5582 102.279 71.5062 100.436C72.5069 98.5576 73.9289 96.8902 75.4562 95.293C78.546 92.1336 81.8991 89.5535 85.0064 87.342C88.1313 85.148 91.0631 83.3577 93.5735 81.9009C96.0839 80.4792 98.1555 79.3909 99.6126 78.6889C100.297 78.3554 100.859 78.0921 101.298 77.8815C101.684 77.706 101.895 77.6182 101.895 77.6357L101.912 77.706Z" fill="#0F0F14"/>
<path d="M60.902 121.972C60.902 121.972 60.7616 121.533 60.6036 120.743C60.428 119.848 60.2173 118.707 59.9716 117.373C59.4098 114.53 58.5672 110.616 57.2154 106.403C55.8636 102.191 54.2309 98.5226 53.0372 95.8898C52.4754 94.6436 51.9838 93.5905 51.6152 92.7656C51.2816 92.0284 51.106 91.6072 51.1411 91.5896C51.1762 91.5896 51.4045 91.9582 51.7907 92.6778C52.1769 93.3974 52.7212 94.433 53.3707 95.7319C54.6523 98.3471 56.3552 101.998 57.7069 106.245C59.0763 110.475 59.8663 114.442 60.3403 117.303C60.5685 118.742 60.7265 119.901 60.8142 120.708C60.902 121.516 60.9371 121.972 60.902 121.972Z" fill="#0F0F14"/>
<path d="M59.8488 88.7109C59.4802 83.1821 57.6894 77.8288 55.0912 72.9318C47.9988 59.5222 34.6566 49.5703 19.7695 46.604C30.6715 62.8395 41.5735 79.0925 52.4755 95.328L56.7064 104.034C59.5855 99.3122 60.235 94.2397 59.8663 88.7285L59.8488 88.7109Z" fill="#0C756F"/>
<path d="M106.758 184.755H30.7246V198.235H106.758V184.755Z" fill="#525150"/>
<path d="M36.3965 195.549L42.8745 237.358H93.3466L101.089 195.549H36.3965Z" fill="#525150"/>
<path d="M106.724 198.234C106.724 198.375 89.5718 198.498 68.4174 198.498C47.263 198.498 30.1113 198.375 30.1113 198.234C30.1113 198.094 47.263 197.971 68.4174 197.971C89.5718 197.971 106.724 198.094 106.724 198.234Z" fill="#0F0F14"/>
</svg>
