<?xml version="1.0" encoding="utf-8"?>
<!-- Generator: Adobe Illustrator 28.3.0, SVG Export Plug-In . SVG Version: 6.00 Build 0)  -->
<svg version="1.1" id="Layer_1" xmlns="http://www.w3.org/2000/svg" xmlns:xlink="http://www.w3.org/1999/xlink" x="0px" y="0px"
	 viewBox="0 0 546 560.4" style="enable-background:new 0 0 546 560.4;" xml:space="preserve">
<style type="text/css">
	.st0{clip-path:url(#SVGID_00000163053441617060074330000018170859367302793146_);}
	.st1{fill:#DED5BB;}
	.st2{fill:#EFEADC;}
	.st3{fill:#FFFFFF;}
	.st4{fill:#0F0F14;}
	.st5{fill:#525150;}
	.st6{fill:#FDCF6F;}
	.st7{opacity:0.3;}
	.st8{fill:#0C756F;}
	.st9{fill:#043633;}
	.st10{fill:#DBA68F;}
	.st11{fill:#B48D7D;}
	.st12{fill:#07524E;}
	.st13{opacity:0.2;fill:#0F0F14;enable-background:new    ;}
</style>
<g>
	<defs>
		<rect id="SVGID_1_" x="0.6" y="32.2" width="545" height="507.3"/>
	</defs>
	<clipPath id="SVGID_00000125577556435694502860000017270267952518582686_">
		<use xlink:href="#SVGID_1_"  style="overflow:visible;"/>
	</clipPath>
	<g style="clip-path:url(#SVGID_00000125577556435694502860000017270267952518582686_);">
		<path class="st1" d="M312.9,43v81.5h105.3l3.8-80.9L312.9,43z"/>
		<path class="st2" d="M422.1,43.5v81H316.7v-81H422.1z"/>
		<path class="st1" d="M316.3,124.8h106.1V43H316.3V124.8z M421.7,124H317.1V43.8h104.5V124z"/>
		<path class="st1" d="M422.1,43.3c0,0-0.7,0.4-1.8,1.1c-1.1,0.7-2.5,1.7-4.1,2.9c-1.6,1.2-3,2.3-4,3.1c-1,0.8-1.6,1.4-1.5,1.4
			c0,0,0.7-0.4,1.7-1.2c1.1-0.9,2.5-1.9,4-3c1.5-1.1,2.9-2.1,4-3C421.5,43.8,422.1,43.3,422.1,43.3L422.1,43.3z"/>
		<path class="st1" d="M316.7,43.4c-0.1,0.1,2.4,2,5.6,4.3s5.8,4.1,5.8,4c0.1-0.1-2.4-2-5.6-4.3C319.4,45.1,316.8,43.4,316.7,43.4z"
			/>
		<path class="st1" d="M422.1,124.4c0.1-0.1-2.4-2.4-5.5-5.3c-3.1-2.8-5.7-5-5.8-4.9c-0.1,0.1,2.4,2.4,5.5,5.3
			C419.4,122.3,422,124.5,422.1,124.4z"/>
		<path class="st1" d="M328.6,113.8c-0.1-0.1-2.8,2.2-6.1,5.2c-3.3,2.9-5.9,5.4-5.8,5.5c0.1,0.1,2.8-2.2,6.1-5.2
			C326.1,116.3,328.6,113.9,328.6,113.8z"/>
		<path class="st3" d="M328.1,51.8h82.5v62h-82.5V51.8z"/>
		<path class="st1" d="M328.1,51.8c0,0,0.1,0,0.4,0c0.3,0,0.7,0,1.2,0c1,0,2.5,0,4.5,0c3.9,0,9.7,0,16.9,0c14.5,0,35.1,0,59.5,0.1
			l-0.2-0.2c0,18.6,0,39.7,0,62l0.2-0.2c-30.7,0-59.2,0-82.5,0l0.2,0.2c0-18.7-0.1-34.2-0.1-45c0-5.4,0-9.6,0-12.5
			c0-1.4,0-2.5,0-3.3C328.2,52.2,328.1,51.8,328.1,51.8c0,0,0,0.4,0,1.1c0,0.7,0,1.8,0,3.3c0,2.9,0,7.1-0.1,12.5
			c0,10.8,0,26.3-0.1,45.1v0.2h0.2c23.3,0,51.8,0,82.5,0h0.2v-0.2c0-22.3,0-43.4,0-62v-0.2h-0.2c-24.5,0-45.1,0.1-59.7,0.1
			c-7.2,0-13,0-16.9,0c-1.9,0-3.4,0-4.5,0c-0.5,0-0.9,0-1.1,0C328.3,51.8,328.1,51.8,328.1,51.8L328.1,51.8z"/>
		<path class="st1" d="M350.3,63.2c0,0.1,8.2,0.2,18.2,0.2c10.1,0,18.2-0.1,18.2-0.2s-8.2-0.2-18.2-0.2S350.3,63.1,350.3,63.2z"/>
		<path class="st1" d="M342.1,83.7c0,0.1,12.2,0.2,27.3,0.2s27.3-0.1,27.3-0.2s-12.2-0.2-27.3-0.2S342.1,83.6,342.1,83.7z"/>
		<path class="st1" d="M342.1,73.3c0,0.1,12.2,0.2,27.3,0.2s27.3-0.1,27.3-0.2s-12.2-0.2-27.3-0.2S342.1,73.2,342.1,73.3z"/>
		<path class="st1" d="M342.1,88.8c0,0.1,12.2,0.2,27.3,0.2s27.3-0.1,27.3-0.2s-12.2-0.2-27.3-0.2S342.1,88.7,342.1,88.8z"/>
		<path class="st1" d="M362.2,101.4c0,3.5,2.8,6.3,6.4,6.3s6.4-2.8,6.4-6.3s-2.8-6.3-6.4-6.3S362.2,97.9,362.2,101.4z"/>
		<path class="st1" d="M368.6,107.7c3.5,0,6.4-2.9,6.4-6.4s-2.9-6.4-6.4-6.4s-6.4,2.9-6.4,6.4S365.1,107.7,368.6,107.7z M368.6,95
			c3.5,0,6.3,2.8,6.3,6.3c0,3.5-2.8,6.3-6.3,6.3c-3.5,0-6.3-2.8-6.3-6.3C362.3,97.9,365.1,95,368.6,95z"/>
		<path class="st1" d="M381.5,101.4c0,0.1,3.4,0.2,7.7,0.2c4.2,0,7.7-0.1,7.7-0.2s-3.4-0.2-7.7-0.2
			C385,101.2,381.5,101.3,381.5,101.4z"/>
		<path class="st1" d="M339.5,101.4c0,0.1,3.8,0.2,8.6,0.2c4.7,0,8.6-0.1,8.6-0.2s-3.8-0.2-8.6-0.2
			C343.4,101.2,339.5,101.3,339.5,101.4z"/>
		<path class="st1" d="M385.5,100.2c0,0,0.1-0.2,0.1-0.5c0-0.3,0-0.9-0.1-1.5c-0.1-0.6-0.4-1.4-1-2.2c-0.2-0.2-0.4-0.4-0.6-0.4
			c-0.3-0.1-0.6,0-0.8,0.2c-0.5,0.3-0.7,1-0.5,1.7c0.2,0.6,0.5,1.1,0.9,1.7c0.4,0.5,0.8,1,1.4,1.5c0.6,0.4,1.2,0.8,2,0.9
			c0.8,0.1,1.6,0,2.3-0.5c0.7-0.5,1.1-1.4,1-2.3c-0.1-0.9-0.3-1.7-0.7-2.5c-0.2-0.4-0.4-0.8-0.8-1.1c-0.4-0.3-0.9-0.4-1.4-0.3
			c-0.5,0.1-0.9,0.5-1,1c-0.1,0.5,0,1,0.1,1.4c0.3,0.9,0.7,1.7,1.3,2.4c0.5,0.7,1.2,1.4,2,1.7c0.8,0.4,1.7,0.5,2.6,0.3
			c0.9-0.2,1.6-0.7,2-1.4c0.4-0.7,0.6-1.5,0.5-2.3c0-0.8-0.3-1.5-0.6-2.1c-0.3-0.6-0.6-1.3-1.4-1.5c-0.4-0.1-0.8,0.1-1,0.4
			c-0.2,0.3-0.2,0.6-0.2,0.9c0,1.2,0.3,2.3,0.8,3.1c0.4,0.8,1,1.5,1.5,1.9c0.5,0.4,1,0.7,1.3,0.8c0.3,0.1,0.5,0.2,0.5,0.2
			c0,0-0.7-0.3-1.7-1.1c-0.5-0.4-1-1-1.4-1.9c-0.4-0.8-0.7-1.9-0.7-3c0-0.3,0.1-0.6,0.2-0.8c0.1-0.2,0.4-0.3,0.6-0.3
			c0.2,0,0.5,0.3,0.7,0.5c0.2,0.2,0.3,0.5,0.5,0.9c0.5,1.2,0.8,2.8,0,4.1c-0.4,0.6-1,1.1-1.8,1.2c-0.7,0.1-1.6,0-2.3-0.3
			c-1.5-0.7-2.5-2.3-3-3.9c-0.1-0.4-0.2-0.8-0.1-1.2c0.1-0.4,0.4-0.7,0.7-0.7c0.3-0.1,0.8,0,1.1,0.3c0.3,0.2,0.5,0.6,0.7,0.9
			c0.3,0.7,0.6,1.5,0.7,2.3c0,0.8-0.2,1.5-0.8,1.9c-0.6,0.4-1.3,0.5-2,0.5c-0.7-0.1-1.3-0.4-1.8-0.8c-0.5-0.4-1-0.9-1.4-1.4
			c-0.4-0.5-0.8-1-0.9-1.5c-0.2-0.5,0-1.1,0.4-1.4c0.4-0.3,0.9-0.1,1.1,0.2c0.6,0.7,0.8,1.5,1,2.1
			C385.6,99.4,385.4,100.1,385.5,100.2L385.5,100.2z"/>
		<path class="st1" d="M341.5,99.1c0,0,0.1,0,0.2,0.1c0.1,0,0.3,0.1,0.5,0.2c0.4,0.2,1.1,0.4,2,0.7c0.9,0.2,2,0.5,3.4,0.6
			c0.7,0.1,1.4,0.1,2.1,0.1c0.8,0,1.6-0.1,2.4-0.1c0.4,0,0.8,0.2,1,0.5c0.3,0.3,0.3,0.7,0.1,1.1c-0.2,0.4-0.5,0.7-0.8,1.1
			c-0.3,0.4-0.6,0.7-0.9,1.1c-0.3,0.4-0.7,0.7-1,1.1c-0.4,0.4-0.7,0.7-1.2,0.9c-0.4,0.2-0.9,0-1.2-0.4c-0.3-0.4-0.4-0.9-0.4-1.5
			c0.5-4.4,0.1-9.5-1.6-14.5l-0.2-0.5l-0.2,0.5c-0.5,1.2-0.8,2.5-0.9,3.8c-0.1,1.8,0.2,3.6,0.9,5.3c0.3,0.8,0.7,1.6,1.2,2.3
			c0.5,0.7,1.1,1.4,2,1.7c0.5,0.1,1,0,1.3-0.5c0.3-0.4,0.3-0.9,0.3-1.3c0-0.8,0-1.6-0.1-2.4c-0.2-1.6-0.7-3-1.3-4.4l-0.1-0.3
			l-0.2,0.2c-1,1.4-0.6,3.5,0.8,4.3c1.4,0.8,3.2,0.3,3.9-0.9c0.8-1.2,0.5-2.7-0.3-3.6c-0.2-0.2-0.4-0.4-0.7-0.5
			c-0.3-0.1-0.7,0-0.9,0.2s-0.2,0.5-0.2,0.8c0,0.3,0.1,0.5,0.2,0.7c0.6,1.8,1.6,3,2.4,3.7c0.4,0.3,0.7,0.6,0.9,0.7
			c0.2,0.1,0.3,0.2,0.3,0.2c0,0-0.1-0.1-0.3-0.3c-0.2-0.2-0.5-0.4-0.8-0.8c-0.7-0.7-1.6-1.9-2.2-3.7c-0.1-0.4-0.2-1,0-1.3
			c0.3-0.4,0.9-0.1,1.2,0.3c0.7,0.8,0.9,2.2,0.2,3.2c-0.7,1-2.3,1.4-3.5,0.7c-1.2-0.7-1.6-2.6-0.7-3.8l-0.3,0
			c0.6,1.3,1.1,2.7,1.3,4.2c0.1,0.8,0.1,1.5,0.1,2.3c0,0.4-0.1,0.8-0.3,1.1c-0.2,0.3-0.5,0.4-0.9,0.3c-0.3-0.1-0.7-0.3-1-0.6
			c-0.3-0.3-0.5-0.6-0.8-0.9c-0.5-0.7-0.9-1.4-1.2-2.2c-0.6-1.6-0.9-3.3-0.8-5.1c0.1-1.3,0.4-2.5,0.8-3.6h-0.4
			c1.7,4.9,2.1,9.9,1.6,14.4c0,0.6,0.1,1.2,0.4,1.7c0.2,0.2,0.4,0.4,0.7,0.5c0.3,0.1,0.6,0.1,0.9,0c0.6-0.2,0.9-0.6,1.3-1
			c0.4-0.4,0.7-0.7,1-1.1c0.3-0.4,0.6-0.7,0.9-1.1c0.3-0.4,0.6-0.7,0.8-1.2c0.2-0.4,0.2-1.1-0.2-1.4c-0.3-0.4-0.8-0.6-1.2-0.6
			c-0.4-0.1-0.9,0-1.3,0c-0.4,0-0.8,0.1-1.2,0.1c-0.7,0-1.5,0-2.1,0c-1.3-0.1-2.4-0.3-3.3-0.5c-0.9-0.2-1.6-0.5-2-0.6
			C341.8,99.2,341.5,99.1,341.5,99.1L341.5,99.1z"/>
		<path class="st1" d="M47.2,63v61.6h79.6l2.9-61.1L47.2,63z"/>
		<path class="st2" d="M129.6,63.3v61.2H50V63.3H129.6z"/>
		<path class="st1" d="M49.7,124.8h80.2V63H49.7V124.8L49.7,124.8z M129.3,124.2h-79V63.6h79V124.2z"/>
		<path class="st1" d="M129.6,63.2c0,0-0.5,0.3-1.3,0.8c-0.8,0.5-1.9,1.3-3.1,2.2c-1.2,0.9-2.3,1.7-3,2.3c-0.7,0.6-1.2,1-1.2,1.1
			c0,0,0.5-0.3,1.3-0.9c0.9-0.6,1.9-1.4,3.1-2.3c1.1-0.8,2.2-1.6,3.1-2.3C129.2,63.6,129.6,63.2,129.6,63.2L129.6,63.2z"/>
		<path class="st1" d="M50,63.3c0,0.1,1.8,1.5,4.2,3.3c2.4,1.7,4.3,3.1,4.4,3c0-0.1-1.8-1.5-4.2-3.3C52,64.6,50.1,63.3,50,63.3z"/>
		<path class="st1" d="M129.6,124.5c0.1-0.1-1.8-1.8-4.2-4c-2.4-2.1-4.3-3.8-4.4-3.7c-0.1,0.1,1.8,1.8,4.2,4
			C127.6,122.9,129.5,124.6,129.6,124.5L129.6,124.5z"/>
		<path class="st1" d="M58.9,116.5c-0.1-0.1-2.1,1.7-4.6,3.9c-2.5,2.2-4.4,4.1-4.4,4.1c0.1,0.1,2.1-1.7,4.6-3.9
			C57.1,118.4,59,116.5,58.9,116.5z"/>
		<path class="st3" d="M58.6,69.6H121v46.9H58.6V69.6z"/>
		<path class="st1" d="M58.6,69.6c0,0,0.1,0,0.3,0c0.2,0,0.5,0,0.9,0c0.8,0,1.9,0,3.4,0c3,0,7.3,0,12.8,0c11,0,26.5,0,45,0.1
			l-0.1-0.1c0,14.1,0,30,0,46.8l0.2-0.1c-23.2,0-44.7,0-62.4,0l0.1,0.1c0-14.2,0-25.9-0.1-34c0-4.1,0-7.3,0-9.5c0-1.1,0-1.9,0-2.5
			C58.6,69.9,58.6,69.6,58.6,69.6c0,0,0,0.3,0,0.8c0,0.6,0,1.4,0,2.5c0,2.2,0,5.4,0,9.4c0,8.2,0,19.9-0.1,34.1v0.1h0.1
			c17.6,0,39.1,0,62.4,0h0.2v-0.2c0-16.9,0-32.8,0-46.9v-0.1H121c-18.5,0-34.1,0-45.1,0.1c-5.5,0-9.8,0-12.8,0c-1.5,0-2.6,0-3.4,0
			c-0.4,0-0.7,0-0.9,0C58.8,69.6,58.7,69.6,58.6,69.6L58.6,69.6z"/>
		<path class="st1" d="M75.4,78.3c0,0.1,6.2,0.2,13.8,0.2c7.6,0,13.8-0.1,13.8-0.2s-6.2-0.2-13.8-0.2C81.5,78.1,75.4,78.2,75.4,78.3
			z"/>
		<path class="st1" d="M69.2,93.8c0,0.1,9.2,0.2,20.6,0.2c11.4,0,20.6-0.1,20.6-0.2c0-0.1-9.2-0.2-20.6-0.2
			C78.4,93.6,69.2,93.7,69.2,93.8z"/>
		<path class="st1" d="M69.2,86.4c0,0.1,9.2,0.2,20.6,0.2c11.4,0,20.6-0.1,20.6-0.2s-9.2-0.2-20.6-0.2
			C78.4,86.3,69.2,86.4,69.2,86.4z"/>
		<path class="st1" d="M69.2,97.6c0,0.1,9.2,0.2,20.6,0.2c11.4,0,20.6-0.1,20.6-0.2c0-0.1-9.2-0.2-20.6-0.2
			C78.4,97.4,69.2,97.5,69.2,97.6z"/>
		<path class="st1" d="M89.2,111.9c-2.7,0-4.8-2.2-4.8-4.8s2.2-4.8,4.8-4.8c2.7,0,4.8,2.2,4.8,4.8S91.9,111.9,89.2,111.9z"/>
		<path class="st1" d="M89.2,111.9c2.7,0,4.8-2.2,4.8-4.8c0-2.7-2.2-4.8-4.8-4.8c-2.7,0-4.8,2.2-4.8,4.8
			C84.4,109.8,86.5,111.9,89.2,111.9z M89.2,102.3c2.6,0,4.8,2.1,4.8,4.8c0,2.6-2.1,4.8-4.8,4.8c-2.6,0-4.8-2.1-4.8-4.8
			C84.4,104.5,86.6,102.3,89.2,102.3z"/>
		<path class="st1" d="M99,107.1c0,0.1,2.6,0.2,5.8,0.2c3.2,0,5.8-0.1,5.8-0.2c0-0.1-2.6-0.2-5.8-0.2C101.6,106.9,99,107,99,107.1z"
			/>
		<path class="st1" d="M67.2,107.1c0,0.1,2.9,0.2,6.5,0.2c3.6,0,6.5-0.1,6.5-0.2c0-0.1-2.9-0.2-6.5-0.2
			C70.1,106.9,67.2,107,67.2,107.1z"/>
		<path class="st1" d="M102,106.2c0,0,0-0.1,0.1-0.4s0-0.7-0.1-1.2c-0.1-0.5-0.3-1.1-0.7-1.7c-0.1-0.1-0.3-0.3-0.5-0.3
			c-0.2-0.1-0.5,0-0.6,0.1c-0.4,0.3-0.5,0.8-0.4,1.3c0.1,0.5,0.4,0.9,0.7,1.2c0.3,0.4,0.6,0.8,1.1,1.1c0.4,0.3,0.9,0.6,1.5,0.7
			c0.6,0.1,1.2,0,1.7-0.4c0.5-0.4,0.8-1.1,0.8-1.7c0-0.7-0.2-1.3-0.5-1.9c-0.1-0.3-0.3-0.6-0.6-0.8c-0.3-0.2-0.7-0.3-1.1-0.3
			c-0.4,0.1-0.7,0.4-0.8,0.8c-0.1,0.4,0,0.7,0.1,1.1c0.2,0.7,0.5,1.3,0.9,1.8c0.4,0.5,0.9,1,1.5,1.3c0.6,0.3,1.3,0.4,1.9,0.2
			c0.6-0.1,1.2-0.5,1.5-1.1c0.3-0.5,0.4-1.2,0.4-1.7c0-0.6-0.2-1.1-0.4-1.6c-0.2-0.5-0.5-1-1.1-1.2c-0.3-0.1-0.6,0.1-0.7,0.3
			c-0.1,0.2-0.2,0.5-0.2,0.7c0,0.9,0.2,1.7,0.6,2.4c0.3,0.6,0.8,1.1,1.1,1.4c0.4,0.3,0.7,0.5,1,0.6c0.2,0.1,0.4,0.1,0.4,0.1
			c0,0-0.5-0.2-1.3-0.9c-0.4-0.3-0.8-0.8-1.1-1.4c-0.3-0.6-0.5-1.4-0.5-2.3c0-0.2,0.1-0.4,0.2-0.6c0.1-0.2,0.3-0.3,0.5-0.2
			c0.2,0,0.4,0.2,0.5,0.4c0.1,0.2,0.2,0.4,0.3,0.6c0.4,0.9,0.6,2.1,0,3.1c-0.3,0.5-0.8,0.8-1.3,0.9c-0.6,0.1-1.2,0-1.7-0.2
			c-1.1-0.5-1.9-1.7-2.3-2.9c-0.1-0.3-0.1-0.6-0.1-0.9c0.1-0.3,0.3-0.5,0.5-0.5c0.3,0,0.6,0,0.8,0.2c0.2,0.2,0.4,0.4,0.5,0.7
			c0.2,0.6,0.5,1.2,0.5,1.7c0,0.6-0.2,1.1-0.6,1.4c-0.4,0.3-1,0.4-1.5,0.3c-0.5-0.1-1-0.3-1.4-0.6c-0.4-0.3-0.7-0.7-1-1.1
			c-0.3-0.4-0.6-0.7-0.7-1.2c-0.1-0.4,0-0.8,0.3-1c0.3-0.2,0.7-0.1,0.9,0.1c0.4,0.5,0.6,1.1,0.7,1.6
			C102,105.6,101.9,106.2,102,106.2L102,106.2z"/>
		<path class="st1" d="M68.8,105.4c0,0,0,0,0.1,0.1c0.1,0,0.2,0.1,0.4,0.2c0.3,0.1,0.9,0.3,1.5,0.5c0.7,0.2,1.5,0.4,2.5,0.5
			c0.5,0,1,0.1,1.6,0.1c0.6,0,1.2-0.1,1.8,0c0.3,0,0.6,0.2,0.8,0.4c0.2,0.2,0.2,0.5,0.1,0.8c-0.1,0.3-0.4,0.6-0.6,0.8
			c-0.2,0.3-0.5,0.6-0.7,0.8c-0.2,0.3-0.5,0.5-0.8,0.8c-0.3,0.3-0.5,0.6-0.9,0.7c-0.3,0.1-0.7,0-0.9-0.3c-0.2-0.3-0.3-0.7-0.3-1.1
			c0.3-3.4,0.1-7.2-1.2-11l-0.1-0.4L72,98.7c-0.4,0.9-0.6,1.9-0.6,2.9c-0.1,1.4,0.1,2.8,0.7,4c0.2,0.6,0.6,1.2,0.9,1.7
			c0.4,0.5,0.8,1.1,1.5,1.3c0.3,0.1,0.8,0,1-0.3c0.2-0.3,0.2-0.6,0.3-1c0-0.6,0-1.2-0.1-1.8c-0.1-1.2-0.5-2.3-1-3.3l-0.1-0.2
			l-0.1,0.2c-0.8,1.1-0.4,2.7,0.6,3.2c1,0.6,2.4,0.2,3-0.6c0.6-0.9,0.4-2-0.2-2.7c-0.1-0.2-0.3-0.3-0.5-0.4c-0.2-0.1-0.5,0-0.6,0.2
			c-0.1,0.2-0.2,0.4-0.1,0.6c0,0.2,0.1,0.4,0.1,0.6c0.5,1.4,1.2,2.2,1.8,2.8c0.3,0.3,0.5,0.4,0.7,0.6c0.2,0.1,0.2,0.2,0.2,0.2
			s-0.1-0.1-0.2-0.2c-0.1-0.1-0.4-0.3-0.6-0.6c-0.5-0.5-1.2-1.4-1.7-2.8c-0.1-0.3-0.2-0.7,0-1c0.2-0.3,0.7-0.1,0.9,0.2
			c0.5,0.6,0.7,1.7,0.1,2.4c-0.5,0.8-1.7,1.1-2.6,0.5c-0.9-0.5-1.2-1.9-0.5-2.8l-0.2,0c0.5,1,0.8,2.1,1,3.2c0.1,0.6,0.1,1.2,0,1.8
			c0,0.3-0.1,0.6-0.2,0.8c-0.1,0.2-0.4,0.3-0.7,0.2c-0.3-0.1-0.5-0.2-0.7-0.4c-0.2-0.2-0.4-0.5-0.6-0.7c-0.3-0.5-0.7-1.1-0.9-1.7
			c-0.5-1.2-0.7-2.5-0.6-3.9c0.1-1,0.3-1.9,0.6-2.8H72c1.3,3.7,1.5,7.5,1.2,10.9c0,0.4,0,0.9,0.3,1.3c0.1,0.2,0.3,0.3,0.5,0.4
			c0.2,0.1,0.5,0.1,0.7,0c0.4-0.2,0.7-0.5,1-0.7c0.3-0.3,0.5-0.6,0.8-0.8c0.2-0.3,0.5-0.6,0.7-0.8c0.2-0.3,0.5-0.5,0.6-0.9
			c0.2-0.3,0.1-0.8-0.1-1.1c-0.2-0.3-0.6-0.4-0.9-0.5c-0.3,0-0.6,0-0.9,0c-0.3,0-0.6,0-0.9,0c-0.6,0-1.1,0-1.6,0
			c-1-0.1-1.8-0.2-2.5-0.4c-0.7-0.2-1.2-0.3-1.5-0.5C69,105.5,68.8,105.4,68.8,105.4L68.8,105.4z"/>
		<path class="st1" d="M167.3,43v81.5h105.3l3.8-80.9L167.3,43z"/>
		<path class="st2" d="M276.4,43.4v81H171.1v-81H276.4z"/>
		<path class="st1" d="M170.7,124.8h106.1V43H170.7V124.8z M276,124H171.5V43.8H276V124z"/>
		<path class="st1" d="M276.4,43.3c0,0-0.7,0.4-1.8,1.1c-1.1,0.7-2.5,1.7-4.1,2.9c-1.6,1.2-3,2.3-4,3.1c-1,0.8-1.6,1.4-1.5,1.4
			c0,0,0.7-0.4,1.7-1.2c1.1-0.9,2.5-1.9,4-3c1.5-1.1,2.9-2.1,4-3C275.8,43.8,276.5,43.3,276.4,43.3L276.4,43.3z"/>
		<path class="st1" d="M171.1,43.4c-0.1,0.1,2.4,2,5.6,4.3c3.2,2.3,5.8,4.1,5.8,4c0.1-0.1-2.4-2-5.6-4.3
			C173.8,45.1,171.2,43.4,171.1,43.4z"/>
		<path class="st1" d="M276.4,124.4c0.1-0.1-2.4-2.4-5.5-5.3c-3.1-2.8-5.7-5-5.8-4.9c-0.1,0.1,2.4,2.4,5.5,5.3
			C273.8,122.3,276.4,124.5,276.4,124.4z"/>
		<path class="st1" d="M182.9,113.8c-0.1-0.1-2.8,2.2-6.1,5.2c-3.3,2.9-5.9,5.4-5.8,5.5c0.1,0.1,2.8-2.2,6.1-5.2
			C180.4,116.3,183,113.9,182.9,113.8z"/>
		<path class="st3" d="M182.5,51.8H265v62h-82.5V51.8z"/>
		<path class="st1" d="M182.5,51.8c0,0,0.1,0,0.4,0c0.3,0,0.7,0,1.2,0c1,0,2.5,0,4.5,0c3.9,0,9.7,0,16.9,0c14.5,0,35.1,0,59.5,0.1
			l-0.2-0.2c0,18.6,0,39.7,0,62l0.2-0.2c-30.7,0-59.2,0-82.5,0l0.2,0.2c0-18.7-0.1-34.2-0.1-45c0-5.4,0-9.6,0-12.5
			c0-1.4,0-2.6,0-3.3C182.5,52.2,182.5,51.8,182.5,51.8c0,0,0,0.4,0,1.1c0,0.7,0,1.8,0,3.3c0,2.9,0,7.1-0.1,12.5
			c0,10.8,0,26.3-0.1,45.1v0.2h0.2c23.3,0,51.8,0,82.5,0h0.2v-0.2c0-22.3,0-43.4,0-62v-0.2H265c-24.5,0-45.1,0.1-59.7,0.1
			c-7.2,0-13,0-16.9,0c-1.9,0-3.4,0-4.5,0c-0.5,0-0.9,0-1.1,0C182.6,51.8,182.5,51.8,182.5,51.8L182.5,51.8z"/>
		<path class="st1" d="M204.7,63.2c0,0.1,8.2,0.2,18.2,0.2c10.1,0,18.2-0.1,18.2-0.2S233,63,222.9,63
			C212.8,63,204.7,63.1,204.7,63.2z"/>
		<path class="st1" d="M196.5,83.7c0,0.1,12.2,0.2,27.3,0.2s27.3-0.1,27.3-0.2s-12.2-0.2-27.3-0.2S196.5,83.6,196.5,83.7z"/>
		<path class="st1" d="M196.5,73.3c0,0.1,12.2,0.2,27.3,0.2s27.3-0.1,27.3-0.2s-12.2-0.2-27.3-0.2S196.5,73.2,196.5,73.3z"/>
		<path class="st1" d="M196.5,88.8c0,0.1,12.2,0.2,27.3,0.2s27.3-0.1,27.3-0.2s-12.2-0.2-27.3-0.2S196.5,88.7,196.5,88.8z"/>
		<path class="st1" d="M216.6,101.4c0,3.5,2.8,6.3,6.4,6.3s6.4-2.8,6.4-6.3S226.5,95,223,95S216.6,97.9,216.6,101.4z"/>
		<path class="st1" d="M223,107.7c3.5,0,6.4-2.9,6.4-6.4S226.5,95,223,95c-3.5,0-6.4,2.9-6.4,6.4S219.4,107.7,223,107.7z M223,95
			c3.5,0,6.3,2.8,6.3,6.3c0,3.5-2.8,6.3-6.3,6.3c-3.5,0-6.3-2.8-6.3-6.3C216.6,97.9,219.5,95,223,95z"/>
		<path class="st1" d="M235.9,101.4c0,0.1,3.4,0.2,7.7,0.2c4.2,0,7.7-0.1,7.7-0.2s-3.4-0.2-7.7-0.2
			C239.3,101.2,235.9,101.3,235.9,101.4z"/>
		<path class="st1" d="M193.9,101.4c0,0.1,3.8,0.2,8.6,0.2c4.7,0,8.6-0.1,8.6-0.2s-3.8-0.2-8.6-0.2
			C197.7,101.2,193.9,101.3,193.9,101.4z"/>
		<path class="st1" d="M239.8,100.2c0,0,0.1-0.2,0.1-0.5c0-0.3,0-0.9-0.1-1.5c-0.1-0.6-0.4-1.4-1-2.2c-0.2-0.2-0.4-0.4-0.6-0.4
			c-0.3-0.1-0.6,0-0.8,0.2c-0.5,0.3-0.7,1-0.5,1.7c0.2,0.6,0.5,1.1,0.9,1.7c0.4,0.5,0.8,1,1.4,1.5c0.6,0.4,1.2,0.8,2,0.9
			c0.8,0.1,1.6,0,2.3-0.5c0.7-0.5,1.1-1.4,1-2.3c-0.1-0.9-0.3-1.7-0.7-2.5c-0.2-0.4-0.4-0.8-0.8-1.1c-0.4-0.3-0.9-0.4-1.4-0.3
			c-0.5,0.1-0.9,0.5-1,1c-0.1,0.5,0,1,0.1,1.4c0.3,0.9,0.7,1.7,1.3,2.4c0.5,0.7,1.2,1.4,2,1.7c0.8,0.4,1.7,0.5,2.6,0.3
			c0.9-0.2,1.6-0.7,2-1.4c0.4-0.7,0.6-1.5,0.5-2.3c-0.1-0.8-0.3-1.5-0.6-2.1c-0.3-0.6-0.6-1.3-1.4-1.5c-0.4-0.1-0.8,0.1-1,0.4
			c-0.2,0.3-0.2,0.6-0.2,0.9c0,1.2,0.3,2.3,0.8,3.1c0.4,0.8,1,1.5,1.5,1.9c0.5,0.4,1,0.7,1.3,0.8c0.3,0.1,0.5,0.2,0.5,0.2
			c0,0-0.7-0.3-1.7-1.1c-0.5-0.4-1-1-1.4-1.9c-0.4-0.8-0.7-1.9-0.7-3c0-0.3,0.1-0.6,0.2-0.8c0.1-0.2,0.4-0.3,0.6-0.3
			c0.2,0,0.5,0.3,0.7,0.5c0.2,0.2,0.3,0.5,0.5,0.9c0.5,1.2,0.8,2.8,0,4.1c-0.4,0.6-1,1.1-1.8,1.2c-0.7,0.1-1.6,0-2.3-0.3
			c-1.5-0.7-2.5-2.3-3-3.9c-0.1-0.4-0.2-0.8-0.1-1.2c0.1-0.4,0.4-0.7,0.7-0.7c0.3-0.1,0.8,0,1.1,0.3c0.3,0.2,0.5,0.6,0.7,0.9
			c0.3,0.7,0.6,1.5,0.7,2.3c0,0.8-0.2,1.5-0.8,1.9c-0.6,0.4-1.3,0.5-2,0.5c-0.7-0.1-1.3-0.4-1.8-0.8c-0.5-0.4-1-0.9-1.4-1.4
			c-0.4-0.5-0.8-1-0.9-1.5c-0.2-0.5,0-1.1,0.4-1.4c0.4-0.3,0.9-0.1,1.1,0.2c0.6,0.7,0.8,1.5,1,2.1C240,99.4,239.8,100.2,239.8,100.2
			L239.8,100.2z"/>
		<path class="st1" d="M195.9,99.1c0,0,0.1,0,0.2,0.1c0.1,0,0.3,0.1,0.5,0.2c0.4,0.2,1.1,0.4,2,0.7c0.9,0.2,2,0.5,3.4,0.6
			c0.7,0.1,1.4,0.1,2.1,0.1c0.8,0,1.6-0.1,2.4-0.1c0.4,0,0.8,0.2,1,0.5c0.3,0.3,0.3,0.7,0.1,1.1c-0.2,0.4-0.5,0.7-0.8,1.1
			c-0.3,0.4-0.6,0.7-0.9,1.1c-0.3,0.4-0.7,0.7-1,1.1c-0.4,0.4-0.7,0.7-1.2,0.9c-0.4,0.2-0.9,0-1.2-0.4c-0.3-0.4-0.4-0.9-0.4-1.5
			c0.5-4.4,0.1-9.5-1.6-14.5l-0.2-0.5l-0.2,0.5c-0.5,1.2-0.8,2.5-0.9,3.8c-0.1,1.8,0.2,3.6,0.9,5.3c0.3,0.8,0.7,1.6,1.2,2.3
			c0.5,0.7,1.1,1.4,2,1.7c0.5,0.1,1,0,1.3-0.5c0.3-0.4,0.3-0.9,0.3-1.3c0.1-0.8,0-1.6-0.1-2.4c-0.2-1.6-0.7-3-1.3-4.4l-0.1-0.3
			l-0.2,0.2c-1,1.4-0.6,3.5,0.8,4.3c1.4,0.8,3.2,0.3,3.9-0.9c0.8-1.2,0.5-2.7-0.3-3.6c-0.2-0.2-0.4-0.4-0.7-0.5
			c-0.3-0.1-0.7,0-0.9,0.2c-0.2,0.2-0.2,0.5-0.2,0.8c0,0.3,0.1,0.5,0.2,0.7c0.6,1.8,1.6,3,2.4,3.7c0.4,0.3,0.7,0.6,0.9,0.7
			c0.2,0.1,0.3,0.2,0.3,0.2c0,0-0.1-0.1-0.3-0.3c-0.2-0.2-0.5-0.4-0.8-0.8c-0.7-0.7-1.6-1.9-2.2-3.7c-0.1-0.4-0.2-1,0-1.3
			c0.3-0.4,0.9-0.1,1.2,0.3c0.7,0.8,0.9,2.2,0.2,3.2c-0.7,1-2.3,1.4-3.5,0.7c-1.2-0.7-1.6-2.6-0.7-3.8l-0.3,0
			c0.6,1.3,1.1,2.7,1.3,4.2c0.1,0.8,0.1,1.5,0.1,2.3c0,0.4-0.1,0.8-0.3,1.1c-0.2,0.3-0.5,0.4-0.9,0.3c-0.3-0.1-0.7-0.3-1-0.6
			c-0.3-0.3-0.5-0.6-0.8-0.9c-0.5-0.7-0.9-1.4-1.2-2.2c-0.6-1.6-0.9-3.3-0.8-5.1c0.1-1.3,0.4-2.5,0.8-3.6h-0.4
			c1.7,4.9,2.1,9.9,1.6,14.4c0,0.6,0.1,1.2,0.4,1.7c0.2,0.2,0.4,0.4,0.7,0.5c0.3,0.1,0.6,0.1,0.9,0c0.6-0.2,0.9-0.6,1.3-1
			c0.4-0.4,0.7-0.7,1-1.1c0.3-0.4,0.6-0.7,0.9-1.1c0.3-0.4,0.6-0.7,0.8-1.2c0.2-0.4,0.2-1.1-0.2-1.4c-0.3-0.4-0.8-0.6-1.2-0.6
			c-0.4-0.1-0.9,0-1.3,0c-0.4,0-0.8,0.1-1.2,0.1c-0.7,0-1.5,0-2.1,0c-1.3-0.1-2.4-0.3-3.3-0.5c-0.9-0.2-1.6-0.5-2-0.6
			C196.1,99.2,195.9,99.1,195.9,99.1L195.9,99.1z"/>
		<path class="st4" d="M545.6,508.5c0-0.2-122-0.3-272.5-0.3c-150.5,0-272.5,0.1-272.5,0.3c0,0.2,122,0.3,272.5,0.3
			C423.7,508.9,545.6,508.7,545.6,508.5z"/>
		<path class="st4" d="M258.6,321.4h-69.9c-7,0-12.6,5.6-12.6,12.6v1.3h82.5V321.4z"/>
		<path class="st5" d="M247.1,392.4l31.5-1l0.5-0.2c3.4-1.6,6.6-7.6,4.3-60.4c-0.2-3.8-3.3-6.8-7.1-6.8h-18.4v4.9h18.4
			c1.2,0,2.1,0.9,2.2,2.1c0.7,15.2,1.8,50.3-1.4,55.6l-30,0.9L247.1,392.4z"/>
		<path class="st5" d="M281,470.3h-13.4v-71.6H281V470.3z"/>
		<path class="st5" d="M226.4,387.2c0.2,0,41.2,12.9,41.2,12.9H281l47-12.9H226.4L226.4,387.2z"/>
		<path class="st5" d="M217.4,495.8c0,0,6.2-18.9,14.8-23.5c13.7-7.4,45.4-10.9,45.4-10.9l3.5,8.9c0,0-42.2,1.7-48.9,10.2
			c-6.1,7.9-10.6,15.2-10.6,15.2L217.4,495.8L217.4,495.8z"/>
		<path class="st4" d="M231.6,499.3c0,5-4,9-9,9c-5,0-9-4-9-9s4-9,9-9C227.6,490.3,231.6,494.3,231.6,499.3z"/>
		<path class="st5" d="M331.9,495.4c0,0-6.2-18.9-14.8-23.5c-13.7-7.4-45.4-10.9-45.4-10.9l-3.5,8.9c0,0,42.2,1.7,48.9,10.2
			c6.1,7.9,10.6,15.2,10.6,15.2L331.9,495.4L331.9,495.4z"/>
		<path class="st4" d="M320.5,499.3c0,5,4,9,9,9c5,0,9-4,9-9s-4-9-9-9C324.5,490.3,320.5,494.3,320.5,499.3z"/>
		<path class="st5" d="M269.7,466.2l2,24.3l5.5,1.1v-25.4"/>
		<path class="st4" d="M265.9,499.3c0,5,4,9,9,9s9-4,9-9s-4-9-9-9S265.9,494.3,265.9,499.3z"/>
		<path class="st4" d="M280.7,400.3c0,0.2-2.9,0.3-6.4,0.3c-3.5,0-6.4-0.1-6.4-0.3c0-0.2,2.9-0.3,6.4-0.3
			C277.9,400,280.7,400.2,280.7,400.3z"/>
		<path class="st4" d="M281,462.9c0.1,0.1-2.6,1.7-6.4,1.8c-3.8,0.1-6.6-1.3-6.5-1.4c0-0.2,2.9,1,6.5,0.9
			C278.2,464,280.9,462.7,281,462.9L281,462.9z"/>
		<path class="st6" d="M234.8,373.2H354V206.1c0-7.6-6.2-13.8-13.8-13.8h-91.5c-7.6,0-13.8,6.2-13.8,13.8L234.8,373.2L234.8,373.2z"
			/>
		<path class="st6" d="M207.1,387.2h138.3c4.7,0,8.6-3.8,8.6-8.6c0-4.7-3.8-8.6-8.6-8.6H207.1c-4.7,0-8.6,3.8-8.6,8.6
			C198.5,383.4,202.3,387.2,207.1,387.2z"/>
		<path class="st4" d="M341.5,361.8c0.2,0,0.3-34.3,0.3-76.7s-0.1-76.7-0.3-76.7c-0.2,0-0.3,34.3-0.3,76.7S341.3,361.8,341.5,361.8z
			"/>
		<path class="st4" d="M217.4,370.3c0,0,0.1,0,0.3,0c0.3,0,0.6,0,1,0c0.9,0,2.2-0.1,3.8-0.1c3.4-0.1,8.1-0.3,14-0.5
			c11.8-0.4,28.2-0.7,46.2-0.6c18.1,0.1,34.4,0.5,46.2,1c5.9,0.2,10.6,0.4,14,0.6c1.6,0.1,2.9,0.1,3.8,0.1c0.4,0,0.7,0,1,0
			c0.2,0,0.3,0,0.3,0c0,0-0.1,0-0.3,0c-0.3,0-0.6-0.1-1-0.1c-0.9-0.1-2.2-0.2-3.8-0.3c-3.3-0.2-8.1-0.5-14-0.8
			c-11.8-0.6-28.2-1.1-46.2-1.2c-18.1-0.1-34.4,0.3-46.2,0.8c-5.9,0.2-10.7,0.5-14,0.7c-1.6,0.1-2.9,0.2-3.8,0.2
			c-0.4,0-0.7,0.1-1,0.1C217.5,370.2,217.4,370.2,217.4,370.3L217.4,370.3z"/>
		<path class="st4" d="M312.6,242.4c0.1,0.1,1.9-1.7,4.6-3.1c2.7-1.4,5.2-1.8,5.1-2c0-0.2-2.6,0-5.4,1.5
			C314,240.1,312.4,242.3,312.6,242.4z"/>
		<path class="st4" d="M302.6,235.4c-0.1,0.2,2.2,1.1,4.6,3c2.4,1.9,3.9,3.9,4,3.8c0.1-0.1-1.1-2.3-3.6-4.3
			C305.1,236,302.6,235.3,302.6,235.4L302.6,235.4z"/>
		<path class="st4" d="M313,245.4c-0.1,0.2,1.7,0.9,3.7,2.2c2,1.3,3.3,2.7,3.5,2.5c0.1-0.1-1-1.7-3.1-3.1
			C315,245.7,313,245.2,313,245.4L313,245.4z"/>
		<path class="st4" d="M302,249.3c0.1,0.1,2-1.1,4.5-2.4c2.5-1.3,4.5-2.2,4.5-2.4c0-0.2-2.3,0.5-4.8,1.8
			C303.6,247.6,301.9,249.1,302,249.3z"/>
		<path class="st6" d="M309.1,243.7c0,1.5,1.2,2.8,2.8,2.8c1.5,0,2.8-1.2,2.8-2.8c0-1.5-1.2-2.8-2.8-2.8
			C310.3,240.9,309.1,242.2,309.1,243.7z"/>
		<path class="st4" d="M309.1,243.7c0,0,0.1-0.2,0.2-0.6s0.4-0.9,1-1.4c0.6-0.4,1.5-0.6,2.4-0.3c0.9,0.3,1.6,1.2,1.6,2.3
			c0,1.1-0.7,2-1.6,2.3c-0.9,0.3-1.8,0.1-2.4-0.3c-0.6-0.4-0.9-1-1-1.4C309.2,243.9,309.2,243.7,309.1,243.7c0,0-0.1,0.2,0,0.7
			c0.1,0.4,0.3,1.1,1,1.7c0.6,0.5,1.7,0.9,2.8,0.5c1.1-0.3,2-1.5,2-2.8c0-1.4-0.9-2.5-2-2.9c-1.1-0.4-2.2-0.1-2.8,0.5
			c-0.7,0.5-0.9,1.2-1,1.7C309,243.5,309.1,243.7,309.1,243.7z"/>
		<path class="st4" d="M264.9,242c0.1,0.1,1.9-1.7,4.6-3.1c2.7-1.4,5.2-1.8,5.1-2c0-0.2-2.6,0-5.4,1.5
			C266.3,239.8,264.7,241.9,264.9,242z"/>
		<path class="st4" d="M254.9,235c-0.1,0.2,2.2,1.1,4.6,3c2.4,1.9,3.9,3.9,4,3.8c0.1-0.1-1.1-2.3-3.6-4.3
			C257.4,235.6,254.9,234.9,254.9,235L254.9,235z"/>
		<path class="st4" d="M265.3,245c-0.1,0.2,1.7,0.9,3.7,2.2c2,1.3,3.3,2.6,3.5,2.5c0.1-0.1-1-1.7-3.1-3.1
			C267.3,245.3,265.3,244.9,265.3,245L265.3,245z"/>
		<path class="st4" d="M254.3,248.9c0.1,0.2,2-1.1,4.5-2.4c2.5-1.3,4.5-2.2,4.5-2.4c0-0.2-2.3,0.5-4.8,1.8
			C256,247.2,254.2,248.7,254.3,248.9z"/>
		<path class="st6" d="M261.4,243.3c0,1.5,1.2,2.8,2.8,2.8c1.5,0,2.8-1.2,2.8-2.8c0-1.5-1.2-2.8-2.8-2.8
			C262.7,240.5,261.4,241.8,261.4,243.3z"/>
		<path class="st4" d="M261.4,243.3c0,0,0.1-0.2,0.2-0.6s0.4-0.9,1-1.4c0.6-0.4,1.5-0.6,2.4-0.3c0.9,0.3,1.6,1.2,1.6,2.3
			c0,1.1-0.7,2-1.6,2.3c-0.9,0.3-1.8,0.1-2.4-0.3c-0.6-0.4-0.9-1-1-1.4S261.5,243.3,261.4,243.3c0,0-0.1,0.2,0,0.7
			c0.1,0.4,0.3,1.1,1,1.7c0.6,0.5,1.7,0.9,2.8,0.5c1.1-0.3,2-1.5,2-2.8c0-1.4-0.9-2.5-2-2.8c-1.1-0.4-2.2-0.1-2.8,0.5
			c-0.7,0.5-0.9,1.2-1,1.7C261.3,243.1,261.4,243.3,261.4,243.3z"/>
		<path class="st4" d="M312.6,303.3c0.1,0.1,1.9-1.7,4.6-3.1c2.7-1.4,5.2-1.8,5.1-2c0-0.2-2.6,0-5.4,1.5
			C314,301.1,312.4,303.2,312.6,303.3z"/>
		<path class="st4" d="M302.6,296.3c-0.1,0.2,2.2,1.1,4.6,3c2.4,1.9,3.9,3.9,4,3.8c0.1-0.1-1.1-2.3-3.6-4.3
			C305.1,296.9,302.6,296.2,302.6,296.3L302.6,296.3z"/>
		<path class="st4" d="M313,306.3c-0.1,0.2,1.7,0.9,3.7,2.2c2,1.3,3.3,2.7,3.5,2.5c0.1-0.1-1-1.7-3.1-3.1
			C315,306.6,313,306.2,313,306.3L313,306.3z"/>
		<path class="st4" d="M302,310.1c0.1,0.1,2-1.1,4.5-2.4c2.5-1.3,4.5-2.2,4.5-2.4c0-0.2-2.3,0.5-4.8,1.8
			C303.6,308.5,301.9,310,302,310.1z"/>
		<path class="st6" d="M309.1,304.6c0,1.5,1.2,2.8,2.8,2.8c1.5,0,2.8-1.2,2.8-2.8s-1.2-2.8-2.8-2.8
			C310.3,301.8,309.1,303.1,309.1,304.6z"/>
		<path class="st4" d="M309.1,304.6c0,0,0.1-0.2,0.2-0.6c0.1-0.4,0.4-0.9,1-1.4c0.6-0.4,1.5-0.6,2.4-0.3c0.9,0.3,1.6,1.2,1.6,2.3
			c0,1.1-0.7,2-1.6,2.3c-0.9,0.3-1.8,0.1-2.4-0.3c-0.6-0.4-0.9-1-1-1.4C309.2,304.8,309.2,304.6,309.1,304.6c0,0-0.1,0.2,0,0.7
			c0.1,0.4,0.3,1.1,1,1.7c0.6,0.5,1.7,0.9,2.8,0.5c1.1-0.3,2-1.5,2-2.9c0-1.4-0.9-2.5-2-2.9c-1.1-0.4-2.2,0-2.8,0.5
			c-0.7,0.5-0.9,1.2-1,1.7C309,304.4,309.1,304.6,309.1,304.6z"/>
		<path class="st4" d="M265.3,302.9c0.1,0.1,1.9-1.7,4.6-3.1c2.7-1.4,5.2-1.8,5.1-2c0-0.2-2.6,0-5.4,1.5
			C266.8,300.7,265.2,302.8,265.3,302.9z"/>
		<path class="st4" d="M255.3,295.9c-0.1,0.2,2.2,1.1,4.6,3c2.4,1.9,3.9,3.9,4,3.8c0.1-0.1-1.1-2.3-3.6-4.3
			C257.8,296.5,255.3,295.8,255.3,295.9L255.3,295.9z"/>
		<path class="st4" d="M265.7,305.9c-0.1,0.2,1.7,0.9,3.7,2.2c2,1.3,3.3,2.7,3.5,2.5c0.1-0.1-1-1.7-3.1-3.1
			C267.7,306.2,265.8,305.8,265.7,305.9L265.7,305.9z"/>
		<path class="st4" d="M254.7,309.8c0.1,0.1,2-1.1,4.5-2.4c2.5-1.3,4.5-2.2,4.5-2.4c0-0.2-2.3,0.5-4.8,1.8
			C256.4,308.1,254.6,309.6,254.7,309.8z"/>
		<path class="st6" d="M261.9,304.2c0,1.5,1.2,2.8,2.8,2.8c1.5,0,2.8-1.2,2.8-2.8c0-1.5-1.2-2.8-2.8-2.8
			C263.1,301.5,261.9,302.7,261.9,304.2z"/>
		<path class="st4" d="M261.9,304.2c0,0,0.1-0.2,0.2-0.6c0.1-0.4,0.4-0.9,1-1.4c0.6-0.4,1.5-0.6,2.4-0.3c0.9,0.3,1.6,1.2,1.6,2.3
			c0,1.1-0.7,2-1.6,2.3c-0.9,0.3-1.8,0.1-2.4-0.3c-0.6-0.4-0.9-1-1-1.4C261.9,304.4,261.9,304.2,261.9,304.2c0,0-0.1,0.2,0,0.7
			c0.1,0.4,0.3,1.1,1,1.7c0.6,0.5,1.7,0.9,2.8,0.5c1.1-0.3,2-1.5,2-2.9c0-1.4-0.9-2.5-2-2.8c-1.1-0.4-2.2-0.1-2.8,0.5
			c-0.7,0.5-0.9,1.2-1,1.7C261.8,304,261.8,304.2,261.9,304.2z"/>
		<path class="st4" d="M347.7,321.4h-69.9c-7,0-12.6,5.6-12.6,12.6v1.3h82.5V321.4z"/>
		<path class="st5" d="M297.9,392.4l60.8-0.8c6.1-0.1,11-4.7,11.4-10.8c1-14.4,2.7-40,2.3-50c-0.2-3.8-3.3-6.8-7.1-6.8H347v4.9h18.4
			c1.2,0,2.1,0.9,2.2,2.1c0.4,9.7-1.2,35.1-2.3,49.4c-0.2,3.5-3.1,6.2-6.6,6.3l-60.8,0.8L297.9,392.4L297.9,392.4z"/>
		<path class="st1" d="M82,310.2h10.7v204.4H82V310.2z"/>
		<path class="st4" d="M82,514.7c0,0,0-0.4,0-1.1c0-0.7,0-1.7,0-3.1c0-2.7,0-6.7,0-11.8c0-10.3,0.1-25.2,0.1-43.6
			c0-36.8,0.1-87.9,0.1-144.8l-0.3,0.3c3.4,0,7,0,10.7,0l-0.3-0.3c0,96.5,0.1,178.1,0.2,204.4l0.1-0.1c-3.6,0-6.3,0-8.1,0.1
			c-0.9,0-1.5,0-2,0C82.3,514.6,82,514.6,82,514.7c0,0,0.2,0,0.6,0c0.4,0,1.1,0,2,0c1.8,0,4.5,0,8.1,0h0.1v-0.1
			c0.1-26.3,0.2-108,0.2-204.4v-0.3h-0.3c-3.7,0-7.3,0-10.7,0h-0.3v0.3c0,57,0.1,108.2,0.1,145.1c0,18.4,0.1,33.3,0.1,43.5
			c0,5.1,0,9.1,0,11.8c0,1.3,0,2.3,0,3C82,514.3,82.1,514.6,82,514.7L82,514.7z"/>
		<path class="st1" d="M391.2,311.4H402v203.3h-10.7V311.4z"/>
		<path class="st4" d="M391.2,514.7c0,0,0-0.4,0-1.1c0-0.7,0-1.7,0-3.1c0-2.7,0-6.7,0-11.8c0-10.2,0.1-25,0.1-43.4
			c0-36.6,0.1-87.4,0.1-144l-0.3,0.3c3.4,0,7,0,10.7,0l-0.3-0.3c0,95.9,0.1,177,0.2,203.3l0.1-0.1c-3.6,0-6.3,0.1-8.1,0.1
			c-0.9,0-1.5,0-2,0C391.5,514.6,391.2,514.7,391.2,514.7c0,0,0.2,0,0.6,0c0.4,0,1.1,0,2,0c1.8,0,4.5,0,8.1,0.1h0.1v-0.1
			c0.1-26.3,0.2-107.4,0.2-203.3v-0.3H402c-3.7,0-7.3,0-10.7,0h-0.3v0.3c0,56.7,0.1,107.5,0.1,144.2c0,18.3,0.1,33.1,0.1,43.3
			c0,5.1,0,9,0,11.7c0,1.3,0,2.3,0,3C391.2,514.3,391.3,514.7,391.2,514.7L391.2,514.7z"/>
		<path class="st4" d="M52.3,302.3H440v23.2H52.3V302.3z"/>
		<path class="st5" d="M318.1,292.6h88.2v9.9h-88.2V292.6z"/>
		<path class="st2" d="M319.6,293.8h86.8v7.4h-86.8V293.8z"/>
		<g class="st7">
			<path class="st4" d="M318.2,292.6h17.1v9.9h-17.1V292.6z"/>
		</g>
		<path class="st4" d="M319.8,295.5c0.2,0,0.4,0,0.7,0c0.6,0,1.4,0,2.5,0c2.2,0,5.4,0,9.3,0c7.9,0,18.7,0,30.7,0c12,0,22.9,0,30.7,0
			c3.9,0,7.1,0,9.3,0c1.1,0,2,0,2.5,0c-0.6,0-1.4,0-2.5,0c-2.2,0-5.4,0-9.3,0c-7.9,0-18.7,0-30.7,0c-12,0-22.9,0-30.7,0
			c-3.9,0-7.1,0-9.3,0c-1.1,0-2,0-2.5,0C320.2,295.5,320,295.5,319.8,295.5z"/>
		<path class="st4" d="M319.8,297.4c0.2,0,0.4,0,0.7,0c0.6,0,1.4,0,2.5,0c2.2,0,5.4,0,9.3,0c7.9,0,18.7,0,30.7,0c12,0,22.9,0,30.7,0
			c3.9,0,7.1,0,9.3,0c1.1,0,2,0,2.5,0c-0.6,0-1.4,0-2.5,0c-2.2,0-5.4,0-9.3,0c-7.9,0-18.7,0-30.7,0c-12,0-22.9,0-30.7,0
			c-3.9,0-7.1,0-9.3,0c-1.1,0-2,0-2.5,0C320.2,297.4,320,297.4,319.8,297.4z"/>
		<path class="st4" d="M319.8,299.4c0.2,0,0.4,0,0.7,0c0.6,0,1.4,0,2.5,0c2.2,0,5.4,0,9.3,0c7.9,0,18.7,0,30.7,0c12,0,22.9,0,30.7,0
			c3.9,0,7.1,0,9.3,0c1.1,0,2,0,2.5,0c-0.6,0-1.4,0-2.5,0c-2.2,0-5.4,0-9.3,0c-7.9,0-18.7,0-30.7,0c-12,0-22.9,0-30.7,0
			c-3.9,0-7.1,0-9.3,0c-1.1,0-2,0-2.5,0C320.2,299.4,320,299.4,319.8,299.4z"/>
		<path class="st4" d="M335.2,302.4c0,0,0.1-2.2,0.1-4.8s0-4.8-0.1-4.8s0,2.2,0,4.8S335.2,302.4,335.2,302.4z"/>
		<path class="st1" d="M340.1,278.2h-27.9v-9.8h27.9V278.2z"/>
		<path class="st5" d="M398.7,268.8h-87.6v-2.1h87.6V268.8z"/>
		<path class="st5" d="M398.7,279.8h-87.2v-2.1h87.2V279.8z"/>
		<path class="st5" d="M340.1,267.2l0.1,12.2h58.4v-12.2H340.1z"/>
		<path class="st4" d="M354.3,273.3c0,1.7-1.4,3-3.2,3c-1.7,0-3.2-1.4-3.2-3s1.4-3,3.2-3C352.9,270.3,354.3,271.6,354.3,273.3z"/>
		<path class="st1" d="M354.8,273.3c0-1.9-1.6-3.5-3.6-3.5s-3.6,1.6-3.6,3.5c0,1.9,1.6,3.5,3.6,3.5S354.8,275.2,354.8,273.3z
			 M353.8,273.3c0,1.4-1.2,2.6-2.7,2.6s-2.7-1.2-2.7-2.6c0-1.4,1.2-2.6,2.7-2.6S353.8,271.9,353.8,273.3z"/>
		<path class="st4" d="M338,275.8c0,0.1-5.7,0.2-12.8,0.2s-12.8-0.1-12.8-0.2c0-0.1,5.7-0.2,12.8-0.2S338,275.7,338,275.8z"/>
		<path class="st4" d="M338,274.1c0,0.1-5.7,0.2-12.8,0.2s-12.8-0.1-12.8-0.2c0-0.1,5.7-0.2,12.8-0.2S338,274,338,274.1z"/>
		<path class="st4" d="M338,272.4c0,0.1-5.7,0.2-12.8,0.2s-12.8-0.1-12.8-0.2c0-0.1,5.7-0.2,12.8-0.2S338,272.3,338,272.4z"/>
		<path class="st4" d="M338,270.7c0,0.1-5.7,0.2-12.8,0.2s-12.8-0.1-12.8-0.2c0-0.1,5.7-0.2,12.8-0.2S338,270.6,338,270.7z"/>
		<path class="st3" d="M392.2,276.3h-26.3v-6.5h26.3V276.3z"/>
		<path class="st1" d="M370,275.7c-0.1,0-0.2-1.2-0.2-2.6c0-1.4,0.1-2.6,0.2-2.6s0.2,1.2,0.2,2.6C370.2,274.5,370.1,275.7,370,275.7
			z"/>
		<path class="st1" d="M373.5,275.7c-0.1,0-0.2-1.2-0.2-2.6c0-1.4,0.1-2.6,0.2-2.6s0.2,1.2,0.2,2.6
			C373.7,274.5,373.6,275.7,373.5,275.7z"/>
		<path class="st1" d="M377,275.7c-0.1,0-0.2-1.2-0.2-2.6c0-1.4,0.1-2.6,0.2-2.6s0.2,1.2,0.2,2.6C377.2,274.5,377.1,275.7,377,275.7
			z"/>
		<path class="st1" d="M380.4,275.7c-0.1,0-0.2-1.2-0.2-2.6c0-1.4,0.1-2.6,0.2-2.6s0.2,1.2,0.2,2.6
			C380.7,274.5,380.6,275.7,380.4,275.7z"/>
		<path class="st1" d="M383.9,275.7c-0.1,0-0.2-1.2-0.2-2.6c0-1.4,0.1-2.6,0.2-2.6s0.2,1.2,0.2,2.6
			C384.2,274.5,384.1,275.7,383.9,275.7z"/>
		<path class="st1" d="M387.4,275.7c-0.1,0-0.2-1.2-0.2-2.6c0-1.4,0.1-2.6,0.2-2.6c0.1,0,0.2,1.2,0.2,2.6
			C387.7,274.5,387.5,275.7,387.4,275.7z"/>
		<path class="st4" d="M340.5,279.8c-0.1,0-0.2-2.9-0.2-6.5c0-3.6,0.1-6.5,0.2-6.5s0.2,2.9,0.2,6.5
			C340.8,276.9,340.7,279.8,340.5,279.8z"/>
		<path class="st2" d="M395.7,247.7v-3.2l-74.9,0.1h-4.3v3.1h4.3v19.1h80.9v-19.1H395.7z"/>
		<path class="st1" d="M377.4,266.8v-22.3h18.4v3.2h6v19.1H377.4z"/>
		<path class="st1" d="M395.7,244.5c0,0.1-17.6,0.2-39.3,0.2c-21.7,0-39.3-0.1-39.3-0.2c0-0.1,17.6-0.2,39.3-0.2
			C378.2,244.3,395.7,244.4,395.7,244.5z"/>
		<path class="st1" d="M401.1,254.5c0,0.1-17.9,0.2-40,0.2c-22.1,0-40-0.1-40-0.2c0-0.1,17.9-0.2,40-0.2
			C383.2,254.3,401.1,254.4,401.1,254.5z"/>
		<path class="st1" d="M401.7,261.4c0,0.1-18,0.2-40.3,0.2s-40.3-0.1-40.3-0.2c0-0.1,18-0.2,40.3-0.2S401.7,261.3,401.7,261.4z"/>
		<path class="st1" d="M317.2,247.7c0-0.1,17.6-0.2,39.3-0.2c21.7,0,39.3,0.1,39.3,0.2c0,0.1-17.6,0.2-39.3,0.2
			C334.8,247.9,317.2,247.8,317.2,247.7z"/>
		<path class="st1" d="M343.8,290.9h-27.9v-9.8h27.9V290.9z"/>
		<path class="st8" d="M402.4,281.5h-87.6v-2.1h87.6V281.5z"/>
		<path class="st8" d="M402.4,292.5h-87.2v-2.1h87.2V292.5z"/>
		<path class="st8" d="M343.8,279.9l0.1,12.2h58.5v-12.2H343.8z"/>
		<path class="st8" d="M358,286c0,1.7-1.4,3-3.2,3c-1.7,0-3.2-1.4-3.2-3c0-1.7,1.4-3,3.2-3C356.6,283,358,284.3,358,286z"/>
		<path class="st1" d="M358.5,286c0-1.9-1.6-3.5-3.6-3.5c-2,0-3.7,1.6-3.7,3.5c0,1.9,1.6,3.5,3.7,3.5
			C356.9,289.5,358.5,287.9,358.5,286z M357.6,286c0,1.4-1.2,2.6-2.7,2.6c-1.5,0-2.7-1.2-2.7-2.6c0-1.4,1.2-2.6,2.7-2.6
			C356.4,283.4,357.6,284.6,357.6,286z"/>
		<path class="st8" d="M341.7,288.5c0,0.1-5.7,0.2-12.8,0.2c-7.1,0-12.8-0.1-12.8-0.2c0-0.1,5.7-0.2,12.8-0.2
			C336,288.3,341.7,288.4,341.7,288.5z"/>
		<path class="st8" d="M341.7,286.8c0,0.1-5.7,0.2-12.8,0.2c-7.1,0-12.8-0.1-12.8-0.2c0-0.1,5.7-0.2,12.8-0.2
			C336,286.6,341.7,286.7,341.7,286.8z"/>
		<path class="st8" d="M341.7,285.1c0,0.1-5.7,0.2-12.8,0.2c-7.1,0-12.8-0.1-12.8-0.2c0-0.1,5.7-0.2,12.8-0.2
			C336,284.9,341.7,285,341.7,285.1z"/>
		<path class="st8" d="M341.7,283.4c0,0.1-5.7,0.2-12.8,0.2c-7.1,0-12.8-0.1-12.8-0.2c0-0.1,5.7-0.2,12.8-0.2
			C336,283.2,341.7,283.3,341.7,283.4z"/>
		<path class="st3" d="M395.9,289.1h-26.3v-6.5h26.3V289.1z"/>
		<path class="st1" d="M373.7,288.4c-0.1,0-0.2-1.2-0.2-2.6c0-1.4,0.1-2.6,0.2-2.6c0.1,0,0.2,1.2,0.2,2.6
			C373.9,287.2,373.8,288.4,373.7,288.4z"/>
		<path class="st1" d="M377.2,288.4c-0.1,0-0.2-1.2-0.2-2.6c0-1.4,0.1-2.6,0.2-2.6s0.2,1.2,0.2,2.6
			C377.4,287.2,377.3,288.4,377.2,288.4z"/>
		<path class="st1" d="M380.7,288.4c-0.1,0-0.3-1.2-0.3-2.6c0-1.4,0.1-2.6,0.3-2.6c0.1,0,0.2,1.2,0.2,2.6
			C380.9,287.2,380.8,288.4,380.7,288.4z"/>
		<path class="st1" d="M384.1,288.4c-0.1,0-0.2-1.2-0.2-2.6c0-1.4,0.1-2.6,0.2-2.6c0.1,0,0.2,1.2,0.2,2.6
			C384.4,287.2,384.3,288.4,384.1,288.4z"/>
		<path class="st1" d="M387.6,288.4c-0.1,0-0.2-1.2-0.2-2.6c0-1.4,0.1-2.6,0.2-2.6c0.1,0,0.2,1.2,0.2,2.6
			C387.9,287.2,387.8,288.4,387.6,288.4z"/>
		<path class="st1" d="M391.1,288.4c-0.1,0-0.2-1.2-0.2-2.6c0-1.4,0.1-2.6,0.2-2.6s0.2,1.2,0.2,2.6
			C391.4,287.2,391.2,288.4,391.1,288.4z"/>
		<path class="st8" d="M344.2,292.5c-0.1,0-0.2-2.9-0.2-6.5c0-3.6,0.1-6.5,0.2-6.5c0.1,0,0.2,2.9,0.2,6.5
			C344.5,289.6,344.4,292.5,344.2,292.5z"/>
		<path class="st1" d="M145.3,196.1H245c3.1,0,5.6,2.5,5.6,5.6v72.5c0,3.1-2.5,5.6-5.6,5.6h-99.7c-3.1,0-5.6-2.5-5.6-5.6v-72.5
			C139.6,198.6,142.2,196.1,145.3,196.1z"/>
		<path class="st4" d="M245,279.8c0,0,0.3,0,1-0.1c0.6-0.1,1.6-0.4,2.6-1.2c0.9-0.8,1.9-2.2,2-4c0-1.8,0-4,0-6.4
			c0-9.6-0.1-23.5-0.1-40.7c0-4.3,0-8.8,0-13.5c0-2.3,0-4.7,0-7.2c0-1.2,0-2.5,0-3.7c0-0.6,0-1.3,0-1.9s-0.2-1.2-0.4-1.7
			c-0.5-1.1-1.4-2-2.5-2.6c-0.5-0.3-1.1-0.5-1.8-0.5c-0.6-0.1-1.3-0.1-1.9-0.1c-2.6,0-5.3,0-8,0c-5.4,0-10.9,0-16.6,0
			c-22.7,0-47.7,0-73.9,0c-1.6,0-3.1,0.7-4.1,1.9c-0.5,0.6-0.9,1.3-1.1,2c-0.2,0.7-0.2,1.5-0.2,2.3c0,3.2,0,6.4,0,9.6
			c0,6.4,0,12.7,0,18.8c0,12.4,0,24.3,0,35.6c0,1.4,0,2.8,0,4.2c0,0.7,0,1.4,0,2.1c0,0.7,0,1.4,0.1,2c0.2,1.3,0.9,2.5,2,3.3
			c1,0.8,2.3,1.2,3.7,1.2c5.4,0,10.6,0,15.7,0c10.1,0,19.5,0,28.1,0c17.2,0,31.1,0.1,40.7,0.1c4.8,0,8.5,0,11.1,0c1.3,0,2.2,0,2.9,0
			C244.7,279.8,245,279.8,245,279.8c0,0-0.3,0-1,0c-0.7,0-1.6,0-2.9,0c-2.5,0-6.3,0-11.1,0c-9.6,0-23.5,0-40.7,0.1
			c-8.6,0-18,0-28.1,0c-5.1,0-10.3,0-15.7,0c-1.4,0-2.8-0.4-3.9-1.3c-1.1-0.9-1.9-2.2-2.2-3.6c-0.1-0.7-0.1-1.4-0.1-2.1
			c0-0.7,0-1.4,0-2.1c0-1.4,0-2.8,0-4.2c0-11.3,0-23.3,0-35.6c0-6.2,0-12.5,0-18.8c0-3.2,0-6.4,0-9.6c0-0.8,0-1.7,0.2-2.5
			c0.2-0.8,0.6-1.6,1.2-2.2c1.1-1.3,2.8-2.1,4.5-2.1c26.2,0,51.2,0,73.9,0c5.7,0,11.2,0,16.6,0c2.7,0,5.3,0,8,0c0.6,0,1.3,0,2,0.1
			c0.7,0.1,1.3,0.3,1.9,0.6c1.2,0.6,2.2,1.6,2.7,2.8c0.3,0.6,0.4,1.2,0.5,1.9c0,0.7,0,1.3,0,1.9c0,1.2,0,2.5,0,3.7
			c0,2.4,0,4.8,0,7.2c0,4.7,0,9.2,0,13.5c0,17.2-0.1,31-0.1,40.7c0,2.4,0,4.5,0,6.4c-0.1,1.9-1.1,3.3-2.1,4.1c-1,0.8-2,1.1-2.6,1.2
			c-0.3,0.1-0.6,0.1-0.7,0.1C245.1,279.8,245.1,279.8,245,279.8L245,279.8z"/>
		<path class="st1" d="M208.2,256.7l-6.5,42.1H227v3.5h-59.9l8.9-45.6H208.2z"/>
		<path class="st4" d="M208.2,256.7c0,0-0.2,0-0.6,0c-0.4,0-1,0-1.7,0c-1.5,0-3.7,0-6.4,0c-5.6,0-13.6,0.1-23.5,0.1l0.2-0.1
			c-2.4,12.5-5.4,28.1-8.8,45.6l-0.2-0.3c8.3,0,17.2,0,26.3,0c11.7,0,23,0,33.5,0l-0.2,0.2c0-1.2,0-2.3,0-3.5l0.2,0.2
			c-9.2,0-17.7,0-25.4,0h-0.2l0-0.2c2-12.8,3.7-23.3,4.9-30.6c0.6-3.6,1-6.5,1.4-8.5c0.2-1,0.3-1.7,0.4-2.2
			C208.2,257,208.2,256.7,208.2,256.7s0,0.2-0.1,0.7c-0.1,0.5-0.2,1.2-0.3,2.2c-0.3,2-0.7,4.8-1.3,8.4c-1.1,7.4-2.7,17.9-4.7,30.8
			l-0.2-0.2c7.6,0,16.2,0,25.4,0h0.2v0.2c0,1.2,0,2.3,0,3.5v0.2H227c-10.5,0-21.8,0-33.5,0c-9.2,0-18,0-26.3,0h-0.3l0.1-0.3
			c3.4-17.5,6.5-33.1,9-45.6l0-0.1h0.2c10,0,18,0.1,23.6,0.1c2.8,0,4.9,0,6.4,0c0.7,0,1.2,0,1.6,0
			C208,256.7,208.2,256.7,208.2,256.7L208.2,256.7z"/>
		<g class="st7">
			<path class="st4" d="M201.3,302.3l0.3-3.5H227v3.5H201.3z"/>
		</g>
		<g class="st7">
			<path class="st4" d="M208.2,256.7l6.5,23.1h-10.1L208.2,256.7z"/>
		</g>
		<path class="st9" d="M100.4,262.9l14.6-47.5l16.7,47.3l0.2-0.1L115,214.7l-14.7,48.1L100.4,262.9z"/>
		<path class="st8" d="M131.7,262.7c0,0-3.8,4.3-10.3,4.3c-6.5,0-12.1,0-12.1,0s-6.2-0.4-9-4.1L131.7,262.7z"/>
		<path class="st9" d="M37.8,262.9l14.6-47.5L69,262.7l0.2-0.1l-16.9-47.9l-14.7,48.1L37.8,262.9z"/>
		<path class="st8" d="M69.1,262.7c0,0-3.8,4.3-10.3,4.3s-12.1,0-12.1,0s-6.2-0.4-9-4.1L69.1,262.7z"/>
		<path class="st8" d="M121.5,214.4H45.2c-0.5,0-0.8,0.4-0.8,0.8v0.3c0,0.5,0.4,0.8,0.8,0.8h76.3c0.5,0,0.8-0.4,0.8-0.8v-0.3
			C122.4,214.7,122,214.4,121.5,214.4z"/>
		<path class="st8" d="M103.9,302.3v-2c0,0-5.4-0.7-7.3-5.6c-0.1,0.3-8.4-3.8-8.8-9h-3.2v16.6L103.9,302.3L103.9,302.3z"/>
		<path class="st8" d="M66,302.3v-2c0,0,5.4-0.7,7.3-5.6c0.1,0.3,8.4-3.8,8.8-9h3.2v16.6L66,302.3L66,302.3z"/>
		<g class="st7">
			<path class="st9" d="M81.6,286.6l6.6,0.7c0.1,0.5-0.2,1-0.6,1.4c-0.4,0.3-0.9,0.5-1.3,0.6c-1,0.3-2.2,0.3-3.1-0.1
				C82.2,288.8,81.5,287.7,81.6,286.6L81.6,286.6z"/>
		</g>
		<path class="st8" d="M80.8,284.4c0,2.4,1.9,4.4,4.3,4.4s4.3-2,4.3-4.4c0-2.4-1.9-4.4-4.3-4.4S80.8,281.9,80.8,284.4z"/>
		<path class="st8" d="M83.3,267l-1.6-2.5l1.6-45.9l1.2-14.2c0-0.6,0.9-0.6,0.9,0l1.2,14.2l1.6,45.9l-1.6,2.5l4.8,6.8l-6.6,8.8
			l-6.6-8.8L83.3,267L83.3,267z"/>
		<path class="st8" d="M81.6,215.6c0,2,1.6,3.6,3.5,3.6s3.5-1.6,3.5-3.6c0-2-1.6-3.6-3.5-3.6S81.6,213.6,81.6,215.6z"/>
		<path class="st9" d="M81.6,215.6c0,0,0-0.3,0.1-0.9c0.1-0.5,0.5-1.3,1.2-1.9c0.4-0.3,0.9-0.6,1.4-0.7c0.6-0.1,1.2-0.1,1.8,0.2
			c0.3,0.1,0.6,0.3,0.9,0.5c0.3,0.2,0.5,0.5,0.7,0.8c0.2,0.3,0.4,0.6,0.5,1c0.1,0.3,0.2,0.7,0.2,1.1c0,0.4-0.1,0.7-0.2,1.1
			c-0.1,0.3-0.3,0.7-0.5,1c-0.2,0.3-0.4,0.5-0.7,0.8c-0.3,0.2-0.6,0.4-0.9,0.5c-0.6,0.2-1.2,0.3-1.8,0.2c-0.6-0.1-1.1-0.4-1.4-0.7
			c-0.8-0.6-1.1-1.4-1.2-1.9C81.5,215.9,81.6,215.6,81.6,215.6c0,0,0,0.1,0,0.2c0,0.1,0,0.2,0,0.3c0,0.1,0,0.2,0.1,0.4
			c0,0.3,0.2,0.6,0.4,1c0.2,0.3,0.5,0.7,0.9,1c0.4,0.3,0.9,0.6,1.5,0.7c0.6,0.1,1.3,0.1,1.9-0.2c0.3-0.1,0.6-0.3,0.9-0.5
			c0.3-0.2,0.5-0.5,0.7-0.8c0.2-0.3,0.4-0.6,0.5-1c0.1-0.4,0.2-0.7,0.2-1.1s-0.1-0.8-0.2-1.1c-0.1-0.4-0.3-0.7-0.5-1
			c-0.2-0.3-0.5-0.6-0.7-0.8c-0.3-0.2-0.6-0.4-0.9-0.5c-0.6-0.2-1.3-0.3-1.9-0.2c-0.6,0.1-1.1,0.4-1.5,0.7c-0.4,0.3-0.7,0.7-0.9,1
			c-0.2,0.3-0.3,0.7-0.4,1c0,0.1,0,0.3-0.1,0.4c0,0.1,0,0.2,0,0.3C81.6,215.5,81.6,215.6,81.6,215.6L81.6,215.6z"/>
		<g class="st7">
			<path class="st9" d="M88.3,264.5h-6.6l1.6,2.5h3.5L88.3,264.5z"/>
		</g>
		<path class="st9" d="M81.9,264.5c0,0,0,0-0.2,0v0c0.4,0,1.7,0,3.2,0c0.9,0,1.8,0,2.4,0c0.3,0,0.5,0,0.7,0c0.2,0,0.3,0,0.3,0
			c0,0-0.1,0-0.3,0c-0.2,0-0.4,0-0.7,0c-0.6,0-1.4,0-2.4,0c-1.5,0-2.8,0-3.2,0.1v0C81.8,264.5,81.9,264.5,81.9,264.5L81.9,264.5z"/>
		<path class="st9" d="M83.4,267C83.4,267,83.4,267,83.4,267L83.4,267c0.1,0,0.8,0.1,1.6,0.1c1,0,1.8,0,1.8-0.1c0,0-0.8-0.1-1.8-0.1
			C84.2,266.9,83.5,266.9,83.4,267L83.4,267C83.3,267,83.4,267,83.4,267z"/>
		<g class="st7">
			<path class="st9" d="M91.6,273.8l-4.9,6.5c-1.2-0.4-2.3-0.4-3.5,0l-4.8-6.5H91.6L91.6,273.8z"/>
		</g>
		<path class="st9" d="M78.5,273.9c0,0,2.9,0.1,6.6,0.1c3.6,0,6.6,0,6.6-0.1c0,0-2.9-0.1-6.6-0.1C81.4,273.8,78.5,273.8,78.5,273.9z
			"/>
		<path class="st9" d="M83.2,280.4c0,0,0.8-0.3,1.8-0.2c1,0,1.8,0.3,1.8,0.2c0,0-0.2-0.1-0.5-0.2c-0.3-0.1-0.8-0.2-1.3-0.2
			c-0.5,0-1,0.1-1.3,0.1C83.4,280.2,83.2,280.3,83.2,280.4L83.2,280.4z"/>
		<path class="st9" d="M81.2,286.4c0,0,0,0.1,0.1,0.3c0.1,0.2,0.3,0.5,0.5,0.8c0.3,0.3,0.6,0.6,1.1,0.9c0.5,0.3,1,0.5,1.6,0.5
			c0.6,0.1,1.2,0,1.7-0.2c0.5-0.2,0.9-0.4,1.3-0.6c0.3-0.2,0.5-0.5,0.7-0.6c0.1-0.2,0.2-0.3,0.2-0.3c0,0-0.3,0.4-1,0.8
			c-0.6,0.4-1.7,0.9-2.9,0.7c-1.2-0.1-2.1-0.8-2.6-1.4C81.4,286.8,81.2,286.3,81.2,286.4L81.2,286.4z"/>
		<path class="st9" d="M73.3,294.6c0,0,5.2,0.1,11.6,0.1s11.6,0,11.6-0.1c0,0-5.2-0.1-11.6-0.1C78.5,294.6,73.3,294.6,73.3,294.6z"
			/>
		<path class="st9" d="M66.1,300.3c0,0,8.5,0.1,19,0.1s19,0,19-0.1c0,0-8.5-0.1-19-0.1S66.1,300.3,66.1,300.3z"/>
		<path class="st8" d="M112.9,214.2c-0.3,1.4,0.6,2.7,2,2.9s2.7-0.6,3-2c0.3-1.4-0.6-2.7-2-2.9S113.1,212.9,112.9,214.2z"/>
		<path class="st9" d="M112.9,214.2c0,0,0-0.2,0.2-0.6c0.2-0.3,0.5-0.8,1.2-1.1c0.3-0.1,0.7-0.2,1.1-0.2c0.4,0,0.8,0.1,1.2,0.4
			c0.2,0.1,0.4,0.3,0.5,0.4c0.2,0.2,0.3,0.4,0.4,0.6c0.2,0.4,0.3,1,0.2,1.5c-0.1,0.5-0.4,1-0.7,1.3c-0.2,0.2-0.4,0.3-0.6,0.4
			c-0.2,0.1-0.4,0.2-0.7,0.2c-0.4,0.1-0.9,0-1.3-0.1c-0.4-0.1-0.7-0.4-0.9-0.6c-0.5-0.5-0.6-1.1-0.6-1.5
			C112.8,214.5,112.9,214.2,112.9,214.2c0,0-0.1,0.2-0.1,0.6c0,0.4,0.1,1,0.6,1.6c0.2,0.3,0.6,0.5,1,0.7c0.4,0.2,0.9,0.2,1.3,0.2
			c0.2,0,0.5-0.1,0.7-0.2c0.2-0.1,0.4-0.2,0.6-0.4c0.4-0.3,0.7-0.8,0.8-1.4c0.1-0.5,0-1.1-0.2-1.6c-0.1-0.2-0.3-0.5-0.4-0.6
			c-0.2-0.2-0.4-0.3-0.6-0.5c-0.4-0.3-0.9-0.4-1.3-0.4c-0.4,0-0.8,0.1-1.1,0.3c-0.7,0.3-1,0.8-1.2,1.2
			C112.9,214,112.8,214.2,112.9,214.2L112.9,214.2z"/>
		<path class="st8" d="M50.2,215.6c-0.3,1.4,0.6,2.7,2,2.9c1.4,0.3,2.7-0.6,3-2c0.3-1.4-0.6-2.7-2-2.9
			C51.7,213.4,50.4,214.2,50.2,215.6z"/>
		<path class="st9" d="M50.2,215.6c0,0,0-0.2,0.2-0.6c0.2-0.3,0.5-0.8,1.2-1.1c0.3-0.1,0.7-0.2,1.1-0.2c0.4,0,0.8,0.1,1.2,0.4
			c0.2,0.1,0.4,0.3,0.5,0.4c0.2,0.2,0.3,0.4,0.4,0.6c0.2,0.4,0.3,1,0.2,1.5c-0.1,0.5-0.4,1-0.7,1.3c-0.2,0.2-0.4,0.3-0.6,0.4
			c-0.2,0.1-0.4,0.2-0.7,0.2c-0.4,0.1-0.9,0-1.3-0.1c-0.4-0.1-0.7-0.4-0.9-0.6c-0.5-0.5-0.6-1.1-0.6-1.5
			C50.1,215.8,50.2,215.6,50.2,215.6c0,0-0.1,0.2-0.1,0.6c0,0.4,0.1,1,0.6,1.6c0.2,0.3,0.6,0.5,1,0.7c0.4,0.2,0.9,0.2,1.3,0.2
			c0.2,0,0.5-0.1,0.7-0.2c0.2-0.1,0.4-0.2,0.6-0.4c0.4-0.3,0.7-0.8,0.8-1.4c0.1-0.5,0-1.1-0.2-1.6c-0.1-0.2-0.3-0.5-0.4-0.6
			c-0.2-0.2-0.4-0.3-0.6-0.5c-0.4-0.3-0.9-0.4-1.3-0.4c-0.4,0-0.8,0.1-1.1,0.3c-0.7,0.3-1,0.8-1.2,1.2
			C50.2,215.4,50.1,215.6,50.2,215.6L50.2,215.6z"/>
		<path class="st10" d="M455.7,124.1l0.1-56.8c0.5-14.1-7.3-26.2-21.5-26.3l-1.3,0.1c-13.2,0.7-23.6,11.3-24,24.5
			c-0.4,12.2-0.6,25.8-0.2,32.3c0.9,13.5,14.5,15,14.5,15c0,0,0.2,8.2,0.2,12.2l-3.1,9.3l11.1-2.8L455.7,124.1L455.7,124.1z"/>
		<path class="st11" d="M423.4,112.8c0,0,8.6,0.1,17.4-6.1c0,0-3.7,10.4-17.3,9.9L423.4,112.8L423.4,112.8z"/>
		<path class="st4" d="M415.4,76.7c0,1,0.9,1.9,2,1.9c1.1,0,1.9-0.8,1.9-1.8c0-1-0.9-1.9-2-1.9C416.2,74.9,415.3,75.7,415.4,76.7z"
			/>
		<path class="st4" d="M412.3,71.4c0.2,0.2,1.7-0.9,3.8-1c2.1-0.1,3.7,0.9,3.9,0.6c0.1-0.1-0.2-0.6-0.8-1s-1.8-0.9-3.1-0.8
			c-1.3,0.1-2.4,0.6-3,1.1C412.4,70.8,412.2,71.3,412.3,71.4L412.3,71.4z"/>
		<path class="st4" d="M434.5,76.8c0,1,0.9,1.9,2,1.9c1.1,0,1.9-0.8,1.9-1.8c0-1-0.9-1.9-2-1.9C435.4,75,434.5,75.8,434.5,76.8z"/>
		<path class="st4" d="M432.7,70.8c0.2,0.2,1.7-0.9,3.8-1c2.1-0.1,3.7,0.9,3.9,0.6c0.1-0.1-0.2-0.6-0.9-1c-0.7-0.4-1.8-0.9-3.1-0.8
			c-1.3,0.1-2.4,0.6-3,1.1C432.8,70.3,432.6,70.7,432.7,70.8z"/>
		<path class="st4" d="M426.1,87.2c0-0.1-1.3-0.3-3.4-0.4c-0.5,0-1-0.1-1.1-0.5c-0.2-0.4,0-1,0.3-1.6c0.4-1.3,0.9-2.7,1.4-4.1
			c1.9-5.9,3.2-10.7,3-10.8c-0.2-0.1-2,4.6-3.8,10.5c-0.4,1.4-0.9,2.8-1.3,4.1c-0.2,0.6-0.5,1.3-0.2,2.1c0.2,0.4,0.6,0.7,0.9,0.7
			c0.3,0.1,0.6,0.1,0.9,0.1C424.8,87.4,426.1,87.3,426.1,87.2z"/>
		<path class="st4" d="M431.7,64.4c0.3,0.5,2.3-0.1,4.8-0.3c2.5-0.2,4.5,0.1,4.7-0.5c0.1-0.3-0.3-0.7-1.2-1.1
			c-0.9-0.4-2.2-0.7-3.7-0.5c-1.5,0.1-2.8,0.6-3.6,1.1C432,63.6,431.6,64.1,431.7,64.4z"/>
		<path class="st4" d="M411.9,65.3c0.4,0.5,2.1-0.1,4.2-0.2c2-0.2,3.8,0.2,4.2-0.3c0.2-0.2-0.1-0.7-0.9-1.1c-0.8-0.4-2-0.7-3.4-0.7
			c-1.4,0.1-2.6,0.6-3.3,1.1C411.9,64.6,411.7,65.1,411.9,65.3z"/>
		<path class="st10" d="M455.3,77.4c0.2-0.1,9.2-3.2,9.4,6c0.2,9.3-9.2,7.5-9.2,7.3C455.4,90.5,455.3,77.4,455.3,77.4z"/>
		<path class="st11" d="M458.2,87.1c0,0,0.2,0.1,0.4,0.2c0.3,0.1,0.7,0.2,1.2,0c1-0.4,1.8-2,1.8-3.6c0-0.8-0.2-1.6-0.5-2.3
			c-0.3-0.7-0.7-1.1-1.2-1.2c-0.5-0.1-0.8,0.2-0.9,0.5c-0.1,0.3-0.1,0.4-0.1,0.5c0,0-0.2-0.1-0.1-0.5c0-0.2,0.1-0.4,0.3-0.6
			c0.2-0.2,0.5-0.3,0.9-0.2c0.7,0,1.4,0.7,1.7,1.4c0.4,0.7,0.6,1.6,0.6,2.6c0,1.9-0.9,3.6-2.3,4c-0.6,0.2-1.2,0-1.5-0.2
			C458.2,87.4,458.1,87.2,458.2,87.1L458.2,87.1z"/>
		<path class="st4" d="M432.6,88.4c-0.3,0-0.3,2.1-2.1,3.6c-1.8,1.5-4.1,1.3-4.1,1.6c0,0.1,0.5,0.4,1.5,0.4c0.9,0,2.3-0.3,3.4-1.2
			c1.1-0.9,1.6-2.2,1.6-3C433,88.9,432.8,88.4,432.6,88.4z"/>
		<path class="st4" d="M400.3,46.4c3.3-4.2,9.1-3.8,9.1-3.8c0,0,0.1-0.1,0.1-0.1c0.5-0.5,0.9-1,1.4-1.5c7.7-6.9,16.3-9.7,25.7-8.4
			c11.8,1.5,17.7,14.7,17.7,14.7c13.6,2,7.9,17.6,7.9,17.6c-0.7,3.4-1.3,9.6-2.2,12c-2.5,0.1-2.9,0-4.1,0.5c-1.6,0.6-0.9,3.4-3,2.6
			c-1.1-0.4-2.7-4.4-3.2-5.5c-9.3-18.3,0.3-18.3-5.2-24.4c-8.4-3.3-13.5,1.3-16.2,4c-4.2,4.2-12.9,7.6-18.8,7.9l-0.7,5.6
			c-11.4-2.9-8.5-11.6-8.5-11.6S398.6,48.6,400.3,46.4L400.3,46.4z"/>
		<path class="st3" d="M459.3,184.1c0.1-3.3,5.2-26.7,5.2-27.1c0-0.4-2.8-37.5-2.8-37.5l-5.1-10.4l-22.3,16.8c0,0-10.9-8.7-10.7-9.1
			l-7.6,11.5l-9,130.2c0,0,4,9.8,19.1,12c18.8,2.8,46-12,46-12S459.1,187.4,459.3,184.1z"/>
		<path class="st4" d="M428.1,134.9l1.8,4.8l6.7-0.1l1.9-3.9l-4.1-9l-0.3-0.9L428.1,134.9z"/>
		<path class="st4" d="M457.6,125.9c0,0-0.4,0.3-1.1,0.8c-0.8,0.5-1.8,1.2-3,2c-2.6,1.7-6.2,4-10.1,6.4c-1.3,0.8-2.6,1.6-3.7,2.3
			l-0.3,0.2l-0.1-0.2c-1.9-3.1-3.1-6.1-3.9-8.2c-0.4-1-0.7-1.9-0.9-2.5c-0.2-0.6-0.3-0.9-0.3-0.9c0.1,0,0.6,1.2,1.6,3.2
			c0.9,2,2.1,4.9,4.1,8l-0.4-0.1c1.2-0.7,2.4-1.5,3.7-2.3c4-2.5,7.6-4.7,10.2-6.3c1.2-0.7,2.3-1.3,3.1-1.8
			C457.2,126.1,457.6,125.9,457.6,125.9L457.6,125.9z"/>
		<path class="st4" d="M422.9,130.4c0,0,0.5,0.5,1.3,1.6c0.8,1,1.8,2.5,3,4.2h-0.5c0.5-0.7,1-1.4,1.5-2.2c1.5-2.3,2.9-4.4,3.9-5.8
			c1-1.5,1.8-2.3,1.8-2.3c0.1,0-0.5,1-1.5,2.5c-1,1.5-2.3,3.6-3.8,5.9c-0.5,0.8-1,1.5-1.6,2.2l-0.2,0.3l-0.2-0.3
			c-1.2-1.7-2.2-3.2-2.9-4.3C423.2,131.1,422.9,130.5,422.9,130.4z"/>
		<path class="st4" d="M429.9,139.8l-4.4,27.5l-5.2,78.9l10,14l18.9-19l-12.8-101.4L429.9,139.8z"/>
		<path class="st4" d="M424,478.6l1.5,26.7c0,0-26.7,10.5-26.9,15.4l51.9-1L450,478L424,478.6z"/>
		<path class="st4" d="M485.2,477.3l2.8,32.2l-5.1,26.1c-0.4,1.9,0.9,3.7,2.8,3.9c1.1,0.1,2.1-0.2,2.9-1c4.6-5,21.6-23.7,21.2-26
			c-0.4-2.7-0.7-34.2-0.7-34.2L485.2,477.3L485.2,477.3z"/>
		<path class="st5" d="M396.1,258.8c0,0-4,15.2-2.6,33.8c0.6,7.2,25.5,205.7,25.5,205.7c12,1.3,23.2,1.4,33.7,0l-8.9-178.1l1.1,0.2
			c0,0,16.5,75.9,19.8,87.9c3.1,11.2,18,92.1,18,92.1c10.1,2.9,20.4,3,30.8,0.3l-9.8-111.3l-11.4-106.8l-4.3-31.1L396.1,258.8
			L396.1,258.8z"/>
		<path class="st5" d="M450.5,519.7l-0.2-4.2l-49.7,2.5c0,0-2.3,1-2,2.7L450.5,519.7L450.5,519.7z"/>
		<path class="st3" d="M424.7,505c0,0.2,1.3,0.3,2.5,1.1c1.3,0.8,1.9,1.8,2.2,1.7c0.2,0-0.2-1.6-1.7-2.5
			C426.1,504.4,424.6,504.8,424.7,505z"/>
		<path class="st3" d="M419.3,507.3c-0.1,0.2,1,0.7,1.9,1.7c0.9,1,1.1,2.2,1.4,2.2c0.2,0,0.4-1.5-0.7-2.7
			C420.8,507.2,419.3,507.1,419.3,507.3L419.3,507.3z"/>
		<path class="st3" d="M417.4,513.3c0.2,0,0.5-1.2-0.1-2.5c-0.6-1.3-1.8-1.9-1.9-1.6c-0.1,0.2,0.6,0.9,1.1,2
			C417,512.3,417.1,513.3,417.4,513.3L417.4,513.3z"/>
		<path class="st5" d="M485.8,539.5l23.9-29.2l0.1,1.4c0.1,1.2-0.3,2.4-1,3.3c-1.9,2.5-7.3,9.4-20.1,23.5
			C488,539.3,486.9,539.7,485.8,539.5L485.8,539.5z"/>
		<path class="st3" d="M492.3,525c-0.2,0.1-1-1.5-3-2.3c-2-0.8-3.7-0.3-3.8-0.5c0-0.1,0.4-0.3,1.1-0.5c0.7-0.2,1.8-0.1,2.9,0.3
			c1.1,0.4,1.9,1.2,2.3,1.8S492.3,524.9,492.3,525L492.3,525z"/>
		<path class="st3" d="M490.2,529.4c-0.1,0.1-1.2-0.8-3-1.2c-1.7-0.4-3.1,0-3.2-0.2c-0.1-0.2,1.4-0.9,3.3-0.5
			C489.4,528,490.4,529.3,490.2,529.4z"/>
		<path class="st3" d="M496.2,519.1c-0.1,0.2-1.8-1.4-4.4-2.2c-2.6-0.8-4.8-0.6-4.9-0.8c-0.1-0.2,2.3-0.8,5.1,0.1
			C494.8,517.2,496.3,519,496.2,519.1L496.2,519.1z"/>
		<path class="st3" d="M496.1,509.3c-0.1,0.2-1.9-0.4-4.2-0.4c-2.3,0-4.1,0.7-4.2,0.5c-0.1-0.1,1.7-1.2,4.2-1.3
			C494.4,508.1,496.2,509.1,496.1,509.3L496.1,509.3z"/>
		<path class="st4" d="M492.9,127.7l-26.5-8.3l-7.9-7.6L430,201c0,0-7.7-71.9-7.7-72.7c0-0.8,0.6-11.2,0.6-11.2l-4.3,4.5
			c0,0-20.5,4.2-20.3,4.1l2.7,98.9l-14.8,73.2c0,0,35.9,13.3,41.6,9.1c5.8-4.2,7.4-33.8,7.4-33.8s9.6,31,12.6,32.5
			c8.4,4.2,54.6-11.1,54.6-11.1l-21-66.8L492.9,127.7L492.9,127.7z"/>
		<path class="st5" d="M494.7,146.7c0.2,0-0.4,8.2-1.3,18.3c-0.9,10.1-1.8,18.2-2,18.2c-0.2,0,0.4-8.2,1.3-18.3
			C493.7,154.8,494.6,146.7,494.7,146.7z"/>
		<path class="st4" d="M492.9,127.7c0,0,9.6,2.5,13,14.6c1.8,6.5,14.8,74.7,10.4,82.8c-4.4,8.1-40.1,26.5-40.1,26.5L469,221
			l16.2-7.5l1.1-44.8L492.9,127.7z"/>
		<path class="st4" d="M398.3,125.7l3.1,44.6c-0.3,0,1,34.9,1,34.9l1.3,6l-1.2,26.6c0,0-29-13.8-30.7-21.9
			c-2.7-12.5,10.1-64.1,11-67.9C388.4,127.3,398.3,125.7,398.3,125.7L398.3,125.7z"/>
		<path class="st4" d="M376.6,207c0,0.1,1.4-0.6,3.6-1.4c1.1-0.4,2.4-0.9,3.9-1.4c0.7-0.2,1.5-0.4,2.3-0.4c0.8,0,1.7,0.1,2.5,0.4
			c3.5,0.9,6.2,2.9,8.1,4.2c1.9,1.4,3.2,2.2,3.2,2.1c0,0-0.2-0.3-0.8-0.7c-0.5-0.4-1.2-1-2.2-1.8c-0.9-0.7-2.1-1.6-3.5-2.4
			c-1.4-0.8-3-1.6-4.8-2.1c-0.9-0.2-1.8-0.3-2.7-0.4c-0.9,0-1.7,0.2-2.5,0.4c-1.5,0.4-2.8,1-3.9,1.5
			C377.8,206.1,376.5,206.9,376.6,207z"/>
		<path class="st4" d="M383.2,200c-0.1,0.2,3.2,1.3,7.2,2.7c1.9,0.6,3.6,1.2,5.2,1.7c1.3,0.4,2.1,0.7,2.2,0.7c0.1-0.3-3.1-1.7-7.1-3
			C386.6,200.8,383.2,199.9,383.2,200z"/>
		<path class="st4" d="M509.3,212.1c0,0-0.3-0.2-0.8-0.6c-0.5-0.4-1.4-0.8-2.5-1.3c-1.1-0.5-2.4-0.9-4-1.2c-1.5-0.3-3.3-0.4-5-0.3
			c-1.8,0.1-3.5,0.5-5,0.9c-1.5,0.5-2.8,1-3.8,1.6c-1,0.6-1.8,1.1-2.3,1.5c-0.5,0.4-0.8,0.7-0.7,0.7c0.1,0.1,1.2-0.8,3.3-1.8
			c1-0.5,2.3-1,3.8-1.5c1.5-0.4,3.1-0.7,4.8-0.8c1.7-0.1,3.4,0,4.9,0.2c1.5,0.2,2.8,0.6,3.9,1C508,211.4,509.2,212.2,509.3,212.1
			L509.3,212.1z"/>
		<path class="st4" d="M508,223.5c0,0-0.1-0.4-0.3-1c-0.3-0.6-0.7-1.5-1.4-2.5c-1.3-2-3.7-4.5-7-6c-3.3-1.6-6.8-1.8-9.1-1.5
			c-1.2,0.2-2.1,0.4-2.8,0.6c-0.6,0.2-1,0.4-0.9,0.4c0,0.1,1.4-0.4,3.8-0.5c2.3-0.2,5.6,0.1,8.8,1.6c3.2,1.5,5.5,3.8,6.9,5.7
			C507.3,222.1,507.8,223.5,508,223.5L508,223.5z"/>
		<g class="st7">
			<path class="st4" d="M472.9,223.4c2.4,0.7,4.3,3.7,5.2,7.1c0.8,3.4,0.7,7.2,0.2,10.8c-0.3,2.4-0.9,4.9-2.4,6
				c-1.5,1.2-3.5,0.4-4.8-1.3c-1.3-1.7-2.7-5.4-3.2-7.7L472.9,223.4z"/>
		</g>
		<path class="st4" d="M429.5,201.7c0,0-0.1-0.3-0.2-0.9c-0.2-0.6-0.4-1.5-0.7-2.6c-0.6-2.3-1.6-5.5-2.7-9.5
			c-2.3-8.1-5.6-19.1-9.1-31.3c-2.1-7.1-4.1-13.9-5.9-19.8l-0.1,0.3c2-1.7,3.8-3.4,5.6-4.9l0.1-0.1l-0.1-0.2
			c-0.8-1.8-1.5-3.5-2.1-5.1l0,0.2c2.4-3,4.2-5.5,5.6-7.3c0.6-0.8,1.1-1.5,1.5-2c0.3-0.4,0.5-0.7,0.5-0.7c0,0-0.2,0.2-0.6,0.6
			c-0.4,0.4-0.9,1.1-1.6,1.9c-1.4,1.7-3.3,4.1-5.8,7.2l-0.1,0.1l0.1,0.1c0.6,1.6,1.3,3.3,2.1,5.1l0.1-0.3c-1.7,1.5-3.6,3.1-5.6,4.8
			l-0.1,0.1l0,0.2c1.7,5.9,3.7,12.7,5.8,19.8c3.6,12.2,6.9,23.2,9.3,31.2c1.2,3.9,2.2,7.1,2.9,9.4c0.3,1.1,0.6,1.9,0.8,2.6
			C429.4,201.4,429.5,201.7,429.5,201.7L429.5,201.7z"/>
		<path class="st4" d="M432.1,201c0,0,0.2-0.3,0.5-0.8c0.3-0.6,0.8-1.4,1.4-2.4c1.2-2.1,2.9-5.1,5-8.7c4.2-7.4,10-17.6,16.5-28.9
			c3-5.3,5.9-10.3,8.5-14.9c1.3-2.3,2.6-4.5,3.8-6.5l0.5-0.7l0.1-0.1l0,0c0,0-0.2,0.1-0.2,0.1c0,0,0,0,0,0c0,0,0.1,0,0.1,0
			c0.1,0,0.1,0,0.2-0.1c0.1-0.1,0.1-0.1,0.1-0.2c0-0.1,0-0.1,0-0.1l0-0.1c-0.1-0.1-0.1-0.3-0.2-0.4c-0.3-0.5-0.5-1-0.8-1.5
			c-0.6-1-1.1-1.9-1.6-2.8l-0.1,0.3c1-0.7,1.9-1.4,2.7-2.1c0.2-0.2,0.4-0.3,0.6-0.5c0.1-0.1,0.2-0.1,0.3-0.3
			c0.1-0.1,0.1-0.2,0.1-0.2c0,0,0-0.1,0-0.1c0-0.1,0-0.1,0-0.2c-0.1-0.5-0.2-1-0.3-1.5c-0.5-1.9-1-3.4-1.4-4.7
			c-0.4-1.2-0.7-2.2-0.9-3c-0.1-0.3-0.2-0.5-0.3-0.8c-0.1-0.2-0.1-0.3-0.1-0.3c0,0,0.1,0.4,0.2,1.1c0.2,0.7,0.5,1.7,0.8,3
			c0.3,1.3,0.8,2.9,1.2,4.7c0.1,0.5,0.2,0.9,0.3,1.4c0,0.1,0,0.1,0,0.2c0,0,0,0.1,0,0.1c0,0,0,0,0.1,0c0,0,0,0,0,0v0
			c-0.2-0.3-0.1-0.1-0.1-0.1h0l0,0l-0.1,0.1l-0.2,0.1c-0.2,0.2-0.4,0.3-0.6,0.5c-0.9,0.6-1.8,1.3-2.8,2l-0.2,0.1l0.1,0.2
			c0.5,0.9,1.1,1.8,1.6,2.8c0.3,0.5,0.5,1,0.8,1.5c0.1,0.1,0.1,0.2,0.2,0.4l0,0.1c0,0,0.2,0,0.2,0c0,0,0.1,0,0.1,0v0
			c0.1-0.4,0-0.1,0-0.2c-0.1,0-0.3,0.1-0.3,0.1l0,0.1l-0.1,0.1l-0.5,0.8c-1.2,2-2.5,4.2-3.8,6.5c-2.6,4.6-5.5,9.6-8.5,14.9
			c-6.4,11.3-12.2,21.5-16.3,29c-2,3.7-3.7,6.7-4.9,8.8c-0.5,1-1,1.8-1.3,2.4C432.2,200.7,432,201,432.1,201L432.1,201z"/>
		<path class="st4" d="M400.3,210.5c0,0,0-0.2,0-0.7c0-0.5-0.1-1.1-0.1-1.9c-0.1-1.6-0.4-4-0.7-6.8c-0.7-5.8-1.6-13.8-2.6-22.5
			c-1-8.8-1.7-16.8-2.1-22.6c-0.2-2.9-0.3-5.2-0.4-6.9c0-0.7-0.1-1.4-0.1-1.9c0-0.4-0.1-0.6-0.1-0.6c0,0,0,0.2,0,0.6
			c0,0.5,0,1.1,0,1.9c0,1.6,0.1,4,0.2,6.9c0.3,5.8,1,13.8,2,22.6c1,8.8,2,16.8,2.8,22.5c0.4,2.8,0.7,5.1,0.9,6.8
			c0.1,0.7,0.2,1.4,0.3,1.9C400.2,210.3,400.3,210.5,400.3,210.5L400.3,210.5z"/>
		<path class="st4" d="M470.5,220.3c0,0,0.4-0.1,1.1-0.4c0.8-0.3,1.8-0.8,3-1.3c2.7-1.2,6.3-2.9,10.7-4.8l0.2-0.1v-0.2
			c0.1-4.2,0.2-9.1,0.4-14.3c0.2-8.4,0.3-16.1,0.4-21.6c0-2.7,0-4.9,0-6.5c0-0.7,0-1.3,0-1.8c0-0.4,0-0.6,0-0.6s0,0.2-0.1,0.6
			c0,0.5-0.1,1.1-0.1,1.8c-0.1,1.6-0.1,3.8-0.3,6.5c-0.2,5.5-0.4,13.1-0.6,21.6c-0.1,5.2-0.2,10.1-0.3,14.3l0.2-0.2
			c-4.3,2.1-7.9,3.8-10.6,5c-1.2,0.6-2.2,1.1-3,1.5C470.8,220.1,470.5,220.3,470.5,220.3L470.5,220.3z"/>
		<path class="st4" d="M466.3,241.1c0,0,0,0.4,0.2,1.1c0.2,0.7,0.6,1.7,1.3,2.8c1.3,2.2,3.9,4.8,7.4,6.8c0.1,0.1,0.3,0.1,0.4,0.2
			l0.1,0.1l0.2-0.1c3.4-1.7,6.4-3.3,8.6-4.5c2.2-1.2,3.5-1.9,3.4-2c0-0.1-1.4,0.5-3.7,1.6c-2.2,1.1-5.3,2.6-8.6,4.3h0.3
			c-0.1-0.1-0.2-0.1-0.4-0.2c-3.3-1.9-5.9-4.4-7.3-6.4C466.8,242.7,466.4,241.1,466.3,241.1L466.3,241.1z"/>
		<path class="st4" d="M489.8,149.1c0.2,0.1,1.2-4,3.8-8.4c2.5-4.4,5.6-7.3,5.4-7.5c0-0.1-0.9,0.6-2.1,1.8c-1.2,1.2-2.6,3.1-4,5.3
			c-1.3,2.2-2.2,4.4-2.7,6.1C489.9,148,489.8,149.1,489.8,149.1L489.8,149.1z"/>
		<path class="st4" d="M379.5,224.6c0,0,0.3,0.3,1,0.7c0.7,0.4,1.7,1.1,2.9,1.8c2.5,1.5,6,3.6,9.8,5.9c2.7,1.6,5.2,3,7.4,4.3h0l0,0
			c1.1,0.4,2.2,0.6,3.2,0.5c1-0.1,1.8-0.5,2.3-0.9c0.5-0.4,0.9-0.8,1.1-1.1c0.2-0.3,0.3-0.5,0.3-0.5c-0.1-0.1-0.5,0.6-1.6,1.4
			c-0.5,0.4-1.3,0.7-2.2,0.7c-0.9,0-1.9-0.2-3-0.6l0,0c-2.2-1.3-4.7-2.8-7.3-4.4c-3.9-2.3-7.4-4.3-9.9-5.7c-1.3-0.7-2.3-1.3-3.1-1.7
			C379.9,224.7,379.5,224.5,379.5,224.6L379.5,224.6z"/>
		<path class="st4" d="M490.4,255.7c-1.3,0.4-29,7.1-29,7.1l4.4,13l29.9-7.9L490.4,255.7z"/>
		<path class="st4" d="M490.4,255.7c0,0,0.1,0.3,0.3,0.9c0.3,0.6,0.6,1.5,1,2.5c0.9,2.2,2.2,5.2,3.8,8.9l0.1-0.3
			c-7.7,2-18.1,4.7-29.6,7.8l-0.3,0.1l0.4,0.2c-1.6-4.6-3.1-9-4.4-13l-0.2,0.4c8.3-2.1,15.5-3.9,20.7-5.3c2.5-0.7,4.5-1.2,6-1.6
			c0.7-0.2,1.2-0.3,1.6-0.4C490.2,255.8,490.3,255.7,490.4,255.7c0,0-0.2,0-0.5,0.1c-0.4,0.1-0.9,0.2-1.6,0.3
			c-1.5,0.3-3.5,0.8-6,1.4c-5.2,1.3-12.5,3-21,5l-0.3,0.1l0.1,0.3c1.4,4,2.8,8.4,4.4,13l0.1,0.3l0.3-0.1l0.3-0.1
			c11.5-3.1,21.9-5.9,29.5-7.9l0.3-0.1l-0.1-0.2c-1.7-3.7-3-6.8-4-9c-0.5-1-0.8-1.8-1.1-2.4C490.5,256,490.4,255.7,490.4,255.7
			L490.4,255.7z"/>
		<path class="st4" d="M394.8,253.3c0.8,0.4,17.4,7.1,17.4,7.1l-3.6,12.6l-18.2-8L394.8,253.3z"/>
		<path class="st4" d="M394.8,253.3c0,0-0.1,0.2-0.3,0.8c-0.2,0.6-0.5,1.4-0.9,2.3c-0.8,2.1-2,5-3.3,8.6l-0.1,0.2l0.2,0.1
			c4.9,2.2,11.1,5,17.9,8l0.2,0.1l0.3,0.1l0.1-0.4c1.3-4.5,2.5-8.8,3.5-12.6l0.1-0.2l-0.2-0.1c-5.2-2.1-9.6-3.9-12.7-5.1
			c-1.5-0.6-2.7-1-3.6-1.4C395.3,253.4,394.9,253.3,394.8,253.3c0,0,0.5,0.2,1.3,0.6c0.9,0.4,2.1,0.9,3.6,1.6
			c3,1.3,7.3,3.1,12.4,5.3l-0.2-0.3c-1.1,3.8-2.3,8.1-3.6,12.6l0.4-0.2l-0.2-0.1c-6.8-3-13-5.7-18-7.9l0.1,0.3
			c1.2-3.5,2.3-6.4,3-8.5c0.3-1,0.6-1.8,0.8-2.4C394.8,253.6,394.9,253.3,394.8,253.3L394.8,253.3z"/>
		<path class="st4" d="M432.1,244.6c-0.1,0-0.1,1.6,0.1,4.2c0.1,2.6,0.4,6.2,0.8,10.1c0.4,3.9,0.8,7.5,1.3,10.1
			c0.4,2.6,0.9,4.1,1,4.1c0.1,0-0.2-1.6-0.5-4.2c-0.3-2.6-0.7-6.1-1.1-10.1c-0.4-3.8-0.7-7.3-1-10.1
			C432.4,246.1,432.2,244.5,432.1,244.6L432.1,244.6z"/>
		<path class="st12" d="M402.9,192.2l48.9,4.3l12.3,51l-5.4,8.2l-43.9-4.7l-17-51C398.1,197,400.8,193.6,402.9,192.2L402.9,192.2z"
			/>
		<path class="st8" d="M456.9,254.3c-1-0.1-14.8-50.6-14.8-50.6l-46.1-5.1l17,51L456.9,254.3L456.9,254.3z"/>
		<path class="st3" d="M402.9,193.3c-0.4,0-3.9,5.7-3.9,5.7l45.9,4.5l14.6,50.9l3.4-5l-12.6-51.5L402.9,193.3z"/>
		<path class="st13" d="M451.8,196.5l-7.9,8.6l-46.1-5.1c0,0,0.2-3.8,5.1-7.8L451.8,196.5L451.8,196.5z"/>
		<path class="st10" d="M474.2,223.8c-0.2-0.2-3.7-1.6-3.7-1.6s0.7-5.3-5.1-6.4c-5.9-1.2-8-1.5-9.3-2.3c-1.2-0.8-2.4-0.1-1.6,1.6
			c0.8,1.7,0.9,3.9,4.4,4.3c0,0-2.3,1.6-4.7,1.6s-5.7-0.7-6.5,0.6c-0.7,1.3,0,2.9,0,2.9s-7.8-1-9,0c-1.1,1,0,3.7,0,3.7
			s-1.9-0.7-2.2,1.1c-0.3,1.7,2.3,3.7,3.5,4.3c1.1,0.7,13.2,7.9,15.4,7.9c2,0,11-2.7,14.2-3.3c3.2-0.6,8.8-3,8.8-3
			C479.3,229.3,476.2,225.2,474.2,223.8z"/>
		<path class="st11" d="M467.3,236c0.1,0.1,1.8-1.8,2.4-4.8c0.7-3,0-5.4-0.2-5.4c-0.2,0,0.2,2.4-0.4,5.2
			C468.5,233.9,467.2,235.9,467.3,236L467.3,236z"/>
		<path class="st11" d="M447.8,224.5c0,0.1,0.9,0.4,2.4,0.8c1.5,0.4,3.6,0.8,6,1.1c2.4,0.2,4.5,0.3,6.1,0.2c1.5,0,2.5-0.1,2.5-0.2
			c0-0.2-3.8-0.2-8.5-0.7C451.6,225.3,447.9,224.3,447.8,224.5L447.8,224.5z"/>
		<path class="st11" d="M438.8,228.2c0,0.1,1.2,0.6,3.3,1.2c2.1,0.6,5,1.5,8.2,2.2c3.3,0.7,6.3,1.1,8.5,1.3c2.2,0.1,3.5,0.1,3.5,0
			c0-0.1-1.3-0.2-3.5-0.4c-2.2-0.3-5.1-0.7-8.4-1.5c-3.2-0.7-6.2-1.5-8.3-2C440.2,228.4,438.9,228.1,438.8,228.2L438.8,228.2z"/>
		<path class="st11" d="M443.3,235.2c-0.1,0.2,3.4,1.6,7.8,2.4c4.4,0.8,8.1,0.8,8.1,0.6c0-0.2-3.6-0.5-8-1.3
			C446.9,236.1,443.4,235,443.3,235.2L443.3,235.2z"/>
		<path class="st11" d="M458,219.6c0,0.2,1.2,0.2,2.5-0.6c1.3-0.7,1.9-1.7,1.8-1.8c-0.1-0.1-0.9,0.6-2.1,1.3
			C459,219.2,458,219.4,458,219.6L458,219.6z"/>
		<path class="st3" d="M398.7,230.5c0,0-5.7-3.1-6.4-5c-0.7-1.9-6.1-17.2,3.3-15.9C405.1,210.9,398.7,230.5,398.7,230.5z"/>
		<path class="st10" d="M395.7,209.6l6.5,1.3l3,7.1c0,0,3.8,0.3,6.2,1.7c1.3,0.7,1.1,3.6,1.1,3.6s8.8-0.6,10.5,0
			c1.6,0.6,1.2,3.4,0.9,3.6c-0.3,0.2,3,0.9,1.7,2.6c-1.3,1.7-2,2.1-2,2.1s-8.3,4-10.5,4.2c-2.3,0.2-9.2-1.1-9.8-1.4
			c-0.6-0.3-5.7-4.9-6-5.3c-0.3-0.4-4.6-10-4.6-10S390.1,211.4,395.7,209.6L395.7,209.6z"/>
		<path class="st11" d="M399.4,220.6c0,0-0.2,0.2-0.1,0.6c0.1,0.4,0.4,1,1.1,1.3c1.3,0.5,3.1,0.9,5.2,1.3c2.1,0.3,4,0.3,5.3,0.2
			c1.4-0.2,2.2-0.5,2.1-0.6c0-0.1-0.8,0-2.2,0.1c-1.3,0.1-3.2,0-5.2-0.3c-2-0.3-3.9-0.7-5.1-1.1c-0.6-0.2-0.9-0.6-1.1-0.9
			C399.4,220.8,399.5,220.6,399.4,220.6z"/>
		<path class="st11" d="M401.7,226c0,0,1,0.7,3,1.5c1.9,0.7,4.7,1.4,7.9,1.5c3.2,0.1,6-0.4,7.9-1c2-0.6,3.1-1.2,3.1-1.2
			c0-0.2-4.8,1.8-11,1.6C406.3,228.1,401.7,225.7,401.7,226z"/>
		<path class="st11" d="M403.2,232.4c0,0.1,1.1,0.6,3.1,1.1c2,0.5,4.8,0.8,7.9,0.5c3.1-0.3,5.8-1.1,7.7-1.9c1.9-0.8,2.9-1.5,2.9-1.6
			c-0.1-0.2-4.5,2.3-10.6,2.8C408,233.9,403.2,232.2,403.2,232.4L403.2,232.4z"/>
		<path class="st11" d="M400.3,216.2c-0.1,0.2,1.2,0.7,2.7,1.2c1.5,0.5,2.9,0.8,2.9,0.6c0.1-0.2-1.1-0.7-2.7-1.2
			C401.7,216.4,400.4,216.1,400.3,216.2z"/>
		<path class="st3" d="M478.7,240.7c-0.5,0.3-7.9,1.5-9-2.5l2.6-0.7c0,0,0-12-1.8-15.3c0,0,5.2,1.9,6.4,5.1
			C478.1,230.5,479.9,232.8,478.7,240.7L478.7,240.7z"/>
		<path class="st4" d="M471.5,222.5c-0.1,0.1,1.6,0.7,3.4,2.6c1.8,1.9,3.7,5.3,3.9,9.3c0.3,4.1-0.6,7.7-1.4,10.3
			c-0.3,1.3-0.8,2.3-1.4,2.7c-0.5,0.5-1,0.5-1,0.5c0,0,0.5,0.1,1.1-0.3c0.7-0.5,1.3-1.5,1.7-2.8c0.8-2.6,1.9-6.3,1.6-10.5
			c-0.2-4.2-2.3-7.8-4.3-9.6c-1-1-2-1.5-2.6-1.9C471.9,222.6,471.5,222.5,471.5,222.5z"/>
	</g>
</g>
</svg>
