<svg width="52" height="60" viewBox="0 0 52 60" fill="none" xmlns="http://www.w3.org/2000/svg">
<g clip-path="url(#clip0_165_10324)">
<path d="M51.4662 59.11H51.0403C50.8535 59.11 50.6892 59.0054 50.607 58.841L48.4102 54.5073L46.221 58.841C46.1388 59.0054 45.9744 59.11 45.7876 59.11H45.5784C45.3916 59.11 45.2272 59.0054 45.145 58.841L43.0604 54.7315L40.9757 58.841C40.8935 59.0054 40.7291 59.11 40.5423 59.11H40.363C40.1762 59.11 40.0118 59.0054 39.9296 58.841L37.6582 54.3579L35.3942 58.841C35.312 59.0054 35.1402 59.11 34.9609 59.11H34.647C34.4602 59.11 34.2959 59.0054 34.2137 58.841L31.9422 54.3579L29.6708 58.841C29.5886 59.0054 29.4242 59.11 29.2374 59.11H28.5425C28.3557 59.11 28.1913 59.0054 28.1091 58.841L25.8377 54.3579L23.5737 58.8335C23.4915 58.9979 23.3271 59.1025 23.1404 59.1025C22.9536 59.1025 22.7892 58.9979 22.707 58.8335L20.4355 54.3579L18.1641 58.841C18.0819 59.0054 17.9175 59.11 17.7307 59.11H17.6112C17.4244 59.11 17.26 59.0054 17.1778 58.841L14.9063 54.3579L12.6349 58.841C12.5527 59.0054 12.3883 59.11 12.2015 59.11H12.082C11.9027 59.11 11.7308 59.0054 11.6486 58.841L9.37716 54.3579L7.10571 58.841C7.02352 59.0054 6.85914 59.11 6.67234 59.11H6.35852C6.17172 59.11 6.00734 59.0054 5.92515 58.841L3.6537 54.3579L1.38225 58.841C1.30006 59.0054 1.13568 59.11 0.948883 59.11H0.463211C0.194223 59.11 -0.0224609 58.8933 -0.0224609 58.6243V4.93891C-4.53144e-05 2.21167 1.96506 0 4.38594 0H48.3505C50.338 0 51.9594 1.81567 51.9594 4.04228V58.6243C51.9594 58.8933 51.7427 59.11 51.4737 59.11H51.4662ZM28.8489 58.1387H28.946L31.5088 53.0653C31.591 52.9009 31.7554 52.7963 31.9422 52.7963C32.1215 52.7963 32.2934 52.9009 32.3756 53.0653L34.8039 57.8547L37.2248 53.0653C37.307 52.9009 37.4714 52.7963 37.6582 52.7963C37.8375 52.7963 38.0094 52.9009 38.0916 53.0653L40.4527 57.7202L42.627 53.4388C42.7092 53.2745 42.8736 53.1699 43.0604 53.1699C43.2397 53.1699 43.4115 53.2745 43.4937 53.4388L45.683 57.7501L47.9769 53.2147C48.059 53.0503 48.2234 52.9457 48.4102 52.9457C48.597 52.9457 48.7614 53.0503 48.8436 53.2147L50.9806 57.4363V4.04228C50.9806 2.34617 49.8 0.971344 48.343 0.971344H4.38594C2.50303 0.971344 0.971298 2.74965 0.971298 4.93891V57.5484L3.24275 53.0727C3.32494 52.9083 3.49679 52.8037 3.67612 52.8037C3.86291 52.8037 4.0273 52.9083 4.10949 53.0727L6.53037 57.8622L8.95873 53.0727C9.04092 52.9083 9.2053 52.8037 9.3921 52.8037C9.5789 52.8037 9.74328 52.9083 9.82547 53.0727L12.1567 57.6754L14.4879 53.0727C14.6523 52.744 15.1903 52.744 15.3547 53.0727L17.6859 57.6754L20.0171 53.0727C20.0993 52.9083 20.2637 52.8037 20.4505 52.8037C20.6373 52.8037 20.8017 52.9083 20.8838 53.0727L23.1478 57.5409L25.4118 53.0653C25.5762 52.7365 26.1142 52.7365 26.2785 53.0653L28.8489 58.1387Z" fill="#FDCF6F"/>
<path d="M39.9448 31.1352C35.1777 31.1352 31.2998 27.2648 31.2998 22.4977C31.2998 17.7307 35.1777 13.8528 39.9448 13.8528C44.7118 13.8528 48.5822 17.7307 48.5822 22.4977C48.5822 27.2648 44.7118 31.1352 39.9448 31.1352ZM39.9448 14.8241C35.7157 14.8241 32.2711 18.2687 32.2711 22.4977C32.2711 26.7268 35.7157 30.1639 39.9448 30.1639C44.1738 30.1639 47.6109 26.7268 47.6109 22.4977C47.6109 18.2687 44.1738 14.8241 39.9448 14.8241Z" fill="#FDCF6F"/>
<path d="M24.3344 17.1061H5.60125C5.34127 17.1061 5.13184 16.7245 5.13184 16.2508C5.13184 15.7771 5.34127 15.3955 5.60125 15.3955H24.3344C24.5944 15.3955 24.8038 15.7771 24.8038 16.2508C24.8038 16.7245 24.5944 17.1061 24.3344 17.1061Z" fill="#FDCF6F"/>
<path d="M24.3344 23.9484H5.60125C5.34127 23.9484 5.13184 23.5668 5.13184 23.0931C5.13184 22.6194 5.34127 22.2378 5.60125 22.2378H24.3344C24.5944 22.2378 24.8038 22.6194 24.8038 23.0931C24.8038 23.5668 24.5944 23.9484 24.3344 23.9484Z" fill="#FDCF6F"/>
<path d="M24.3344 30.7909H5.60125C5.34127 30.7909 5.13184 30.4093 5.13184 29.9356C5.13184 29.4619 5.34127 29.0803 5.60125 29.0803H24.3344C24.5944 29.0803 24.8038 29.4619 24.8038 29.9356C24.8038 30.4093 24.5944 30.7909 24.3344 30.7909Z" fill="#FDCF6F"/>
<path d="M24.3344 37.6335H5.60125C5.34127 37.6335 5.13184 37.2519 5.13184 36.7782C5.13184 36.3045 5.34127 35.9229 5.60125 35.9229H24.3344C24.5944 35.9229 24.8038 36.3045 24.8038 36.7782C24.8038 37.2519 24.5944 37.6335 24.3344 37.6335Z" fill="#FDCF6F"/>
<path d="M24.3344 44.4757H5.60125C5.34127 44.4757 5.13184 44.0941 5.13184 43.6204C5.13184 43.1467 5.34127 42.7651 5.60125 42.7651H24.3344C24.5944 42.7651 24.8038 43.1467 24.8038 43.6204C24.8038 44.0941 24.5944 44.4757 24.3344 44.4757Z" fill="#FDCF6F"/>
<path d="M40.4079 25.5911C40.7218 25.5239 40.9833 25.3744 41.185 25.1353C41.3868 24.9037 41.4839 24.6273 41.4839 24.3134C41.4839 24.0295 41.4017 23.7829 41.2298 23.5737C41.058 23.3645 40.7815 23.2076 40.4005 23.103V25.5911H40.4079ZM39.4814 18.8216C39.2349 18.9113 39.0331 19.0532 38.8911 19.2624C38.7417 19.4642 38.6745 19.6883 38.6745 19.9274C38.6745 20.1516 38.7417 20.3608 38.8687 20.5626C39.0032 20.7419 39.205 20.9063 39.4814 21.0183V18.8216ZM39.4814 25.4865V22.8265C38.652 22.5949 38.0543 22.2288 37.6658 21.7506C37.2772 21.2649 37.0904 20.6821 37.0904 20.0022C37.0904 19.3222 37.3146 18.717 37.7405 18.2537C38.1813 17.7755 38.7567 17.5066 39.4814 17.4393V16.8042H40.4079V17.4393C41.0879 17.514 41.6184 17.7457 42.0219 18.1192C42.4253 18.5003 42.6794 19.0084 42.7915 19.6435L41.1775 19.8527C41.0804 19.3596 40.8264 19.0159 40.4079 18.8365V21.3097C41.4316 21.5862 42.1265 21.9448 42.4926 22.3857C42.8662 22.8191 43.0455 23.3794 43.0455 24.0743C43.0455 24.8365 42.8139 25.4865 42.3432 26.0096C41.8799 26.5326 41.2373 26.8613 40.4005 26.9884V28.1764H39.474V27.0108C38.7492 26.9211 38.1514 26.6521 37.6956 26.1963C37.2399 25.748 36.9485 25.1055 36.814 24.2761L38.4652 24.0893C38.5325 24.4255 38.667 24.7169 38.8463 24.9635C39.0406 25.2026 39.2423 25.3819 39.4665 25.494L39.4814 25.4865Z" fill="white"/>
</g>
<defs>
<clipPath id="clip0_165_10324">
<rect width="51.9519" height="59.11" fill="white"/>
</clipPath>
</defs>
</svg>
