<svg width="27" height="20" viewBox="0 0 27 20" fill="none" xmlns="http://www.w3.org/2000/svg">
<g clip-path="url(#clip0_165_10237)">
<path d="M7.47103 15.0896C7.4537 15.0913 7.7467 11.7821 6.67871 4.39768C6.81637 4.34464 11.0065 13.7726 11.9112 13.8774C10.4101 14.2047 8.92877 14.6101 7.47103 15.0896Z" fill="#0C756F"/>
<path d="M19.4295 15.0806C19.4468 15.0819 19.1507 11.7735 20.2114 4.38743C20.0737 4.33482 15.893 13.7688 14.9883 13.8749C16.4897 14.2001 17.9714 14.6028 19.4295 15.0806Z" fill="#0C756F"/>
<path d="M25.7557 6.17141C24.6142 7.8075 21.7587 11.9188 19.4112 13.128C18.9632 13.3622 18.5294 13.4868 18.1313 13.4687C17.4878 13.4273 16.9111 12.8374 16.401 11.9275C14.9256 9.30732 14.0008 4.05192 13.6364 1.83195C13.5317 1.19459 13.4721 0.806485 13.4599 0.803467C13.4481 0.806485 13.393 1.18597 13.2931 1.81125C12.9405 4.0433 12.0324 9.41383 10.5403 12.0107C10.0469 12.8701 9.48929 13.4273 8.8648 13.4661C8.43587 13.4868 7.96879 13.3385 7.48473 13.072C5.15839 11.7946 2.36775 7.77818 1.24497 6.16581C0.949544 5.74191 0.768194 5.48403 0.742188 5.48403C0.875686 5.74191 1.00918 6.0028 1.14268 6.2637C3.08517 10.0697 4.82724 13.9793 6.35988 17.9655C11.0958 17.1415 15.9007 17.1445 20.6338 17.9716C22.1689 13.9849 23.9109 10.0723 25.8583 6.26973C25.9918 6.00884 26.1253 5.75096 26.2588 5.49309C26.23 5.49309 26.0514 5.75096 25.756 6.17184L25.7557 6.17141ZM13.4838 9.69283C14.1916 11.1124 14.547 11.8093 14.4135 12.6334C14.2727 13.4812 13.7033 13.6765 13.4863 14.4683C13.2692 13.677 12.6901 13.4812 12.5521 12.6334C12.4162 11.8093 12.7713 11.1129 13.4842 9.69283H13.4838ZM14.4131 14.3165C14.1701 14.4144 13.7983 14.7788 13.6121 15.1406C13.7384 15.1971 13.8268 15.3394 13.8268 15.5024C13.8244 15.7158 13.6791 15.8849 13.5001 15.8849C13.3212 15.8849 13.1735 15.7158 13.1735 15.5024C13.1711 15.351 13.2474 15.2177 13.3594 15.1557C13.1759 14.7882 12.7969 14.4178 12.549 14.3169C12.1416 14.1509 11.8864 14.3199 11.8864 14.3199C11.8864 14.3229 11.9484 13.3121 12.6298 13.5049C13.3257 13.7093 13.4568 14.6015 13.471 15.1203C13.4783 15.1173 13.4852 15.1173 13.4925 15.1173C13.5067 14.5985 13.6378 13.7093 14.3337 13.5049C15.013 13.3121 15.0772 14.3229 15.0772 14.3199C15.0772 14.3199 14.8199 14.1509 14.4121 14.3169L14.4131 14.3165Z" fill="#0C756F"/>
<path d="M21.0341 20C16.0378 19.0569 10.9555 19.0552 5.95885 19.9944C5.91516 19.636 5.87182 19.2781 5.82812 18.9202C10.9115 17.9646 16.0819 17.9663 21.1649 18.9258C21.1212 19.2837 21.0775 19.6421 21.0338 20H21.0341Z" fill="#0C756F"/>
<path d="M13.4852 9.68677C13.4852 9.68888 13.4831 9.68888 13.4831 9.69099C13.4811 9.68888 13.479 9.68888 13.479 9.68677H13.4852Z" fill="#0C756F"/>
<path d="M14.2342 1.07174C14.2999 0.568189 14.025 0.0937177 13.6201 0.0119798C13.2152 -0.0697581 12.8337 0.27219 12.7679 0.775741C12.7022 1.27929 12.9772 1.75376 13.3821 1.8355C13.787 1.91724 14.1685 1.57529 14.2342 1.07174Z" fill="#0C756F"/>
<path d="M20.9542 4.38781C20.9542 4.89795 20.6217 5.3115 20.2115 5.3115C19.8013 5.3115 19.4688 4.89795 19.4688 4.38781C19.4688 3.87766 19.8013 3.46411 20.2115 3.46411C20.6217 3.46411 20.9542 3.87766 20.9542 4.38781Z" fill="#0C756F"/>
<path d="M26.9792 5.70457C27.0734 5.20807 26.8261 4.71058 26.4269 4.5934C26.0277 4.47621 25.6276 4.78371 25.5334 5.28021C25.4392 5.77671 25.6864 6.2742 26.0857 6.39138C26.4849 6.50857 26.8849 6.20107 26.9792 5.70457Z" fill="#0C756F"/>
<path d="M6.67828 5.32127C7.08849 5.32127 7.42102 4.90771 7.42102 4.39757C7.42102 3.88743 7.08849 3.47388 6.67828 3.47388C6.26808 3.47388 5.93555 3.88743 5.93555 4.39757C5.93555 4.90771 6.26808 5.32127 6.67828 5.32127Z" fill="#0C756F"/>
<path d="M1.46537 5.6979C1.56051 5.20167 1.31416 4.70348 0.91514 4.58517C0.516121 4.46686 0.115532 4.77323 0.0203985 5.26946C-0.0747347 5.76569 0.171613 6.26388 0.570632 6.38219C0.969651 6.5005 1.37024 6.19413 1.46537 5.6979Z" fill="#0C756F"/>
</g>
<defs>
<clipPath id="clip0_165_10237">
<rect width="27" height="20" fill="white"/>
</clipPath>
</defs>
</svg>
