<svg width="27" height="20" viewBox="0 0 27 20" fill="none" xmlns="http://www.w3.org/2000/svg">
<g clip-path="url(#clip0_165_10913)">
<path d="M7.47103 15.0896C7.4537 15.0913 7.7467 11.7821 6.67871 4.39768C6.81637 4.34464 11.0065 13.7726 11.9112 13.8774C10.4101 14.2047 8.92877 14.6101 7.47103 15.0896Z" fill="#1F1D0D"/>
<path d="M19.4295 15.0805C19.4468 15.0818 19.1507 11.7734 20.2114 4.38733C20.0737 4.33472 15.893 13.7687 14.9883 13.8748C16.4897 14.2 17.9714 14.6027 19.4295 15.0805Z" fill="#1F1D0D"/>
<path d="M25.7557 6.17133C24.6142 7.80741 21.7587 11.9188 19.4112 13.1279C18.9632 13.3621 18.5294 13.4867 18.1313 13.4686C17.4878 13.4272 16.9111 12.8373 16.401 11.9274C14.9256 9.30723 14.0008 4.05183 13.6364 1.83186C13.5317 1.1945 13.4721 0.806398 13.4599 0.803379C13.4481 0.806398 13.393 1.18588 13.2931 1.81116C12.9405 4.04321 12.0324 9.41374 10.5403 12.0106C10.0469 12.87 9.48929 13.4272 8.8648 13.466C8.43587 13.4867 7.96879 13.3384 7.48473 13.0719C5.15839 11.7946 2.36775 7.77809 1.24497 6.16572C0.949544 5.74182 0.768194 5.48395 0.742188 5.48395C0.875686 5.74182 1.00918 6.00272 1.14268 6.26361C3.08517 10.0696 4.82724 13.9792 6.35988 17.9655C11.0958 17.1414 15.9007 17.1444 20.6338 17.9715C22.1689 13.9848 23.9109 10.0722 25.8583 6.26965C25.9918 6.00875 26.1253 5.75088 26.2588 5.493C26.23 5.493 26.0514 5.75088 25.756 6.17176L25.7557 6.17133ZM13.4838 9.69275C14.1916 11.1124 14.547 11.8092 14.4135 12.6333C14.2727 13.4811 13.7033 13.6764 13.4863 14.4682C13.2692 13.6769 12.6901 13.4811 12.5521 12.6333C12.4162 11.8092 12.7713 11.1128 13.4842 9.69275H13.4838ZM14.4131 14.3164C14.1701 14.4143 13.7983 14.7787 13.6121 15.1405C13.7384 15.197 13.8268 15.3393 13.8268 15.5023C13.8244 15.7157 13.6791 15.8848 13.5001 15.8848C13.3212 15.8848 13.1735 15.7157 13.1735 15.5023C13.1711 15.3509 13.2474 15.2177 13.3594 15.1556C13.1759 14.7882 12.7969 14.4177 12.549 14.3168C12.1416 14.1508 11.8864 14.3198 11.8864 14.3198C11.8864 14.3229 11.9484 13.3121 12.6298 13.5048C13.3257 13.7092 13.4568 14.6014 13.471 15.1202C13.4783 15.1172 13.4852 15.1172 13.4925 15.1172C13.5067 14.5984 13.6378 13.7092 14.3337 13.5048C15.013 13.3121 15.0772 14.3229 15.0772 14.3198C15.0772 14.3198 14.8199 14.1508 14.4121 14.3168L14.4131 14.3164Z" fill="#1F1D0D"/>
<path d="M21.0341 20C16.0378 19.0569 10.9555 19.0552 5.95885 19.9944C5.91516 19.636 5.87182 19.2781 5.82812 18.9202C10.9115 17.9646 16.0819 17.9663 21.1649 18.9258C21.1212 19.2837 21.0775 19.6421 21.0338 20H21.0341Z" fill="#1F1D0D"/>
<path d="M13.4852 9.68671C13.4852 9.68883 13.4831 9.68883 13.4831 9.69094C13.4811 9.68883 13.479 9.68883 13.479 9.68671H13.4852Z" fill="#1F1D0D"/>
<path d="M14.2342 1.07178C14.2999 0.568231 14.025 0.0937597 13.6201 0.0120218C13.2152 -0.0697161 12.8337 0.272232 12.7679 0.775783C12.7022 1.27933 12.9772 1.7538 13.3821 1.83554C13.787 1.91728 14.1685 1.57533 14.2342 1.07178Z" fill="#1F1D0D"/>
<path d="M20.9542 4.38776C20.9542 4.89791 20.6217 5.31146 20.2115 5.31146C19.8013 5.31146 19.4688 4.89791 19.4688 4.38776C19.4688 3.87762 19.8013 3.46407 20.2115 3.46407C20.6217 3.46407 20.9542 3.87762 20.9542 4.38776Z" fill="#1F1D0D"/>
<path d="M26.9792 5.70465C27.0734 5.20815 26.8261 4.71066 26.4269 4.59347C26.0277 4.47629 25.6276 4.78378 25.5334 5.28028C25.4392 5.77678 25.6864 6.27427 26.0857 6.39146C26.4849 6.50864 26.8849 6.20115 26.9792 5.70465Z" fill="#1F1D0D"/>
<path d="M6.67828 5.32138C7.08849 5.32138 7.42102 4.90782 7.42102 4.39768C7.42102 3.88754 7.08849 3.47399 6.67828 3.47399C6.26808 3.47399 5.93555 3.88754 5.93555 4.39768C5.93555 4.90782 6.26808 5.32138 6.67828 5.32138Z" fill="#1F1D0D"/>
<path d="M1.46537 5.69794C1.56051 5.20171 1.31416 4.70352 0.91514 4.58521C0.516121 4.4669 0.115532 4.77326 0.0203985 5.2695C-0.0747347 5.76573 0.171613 6.26392 0.570632 6.38223C0.969651 6.50054 1.37024 6.19417 1.46537 5.69794Z" fill="#1F1D0D"/>
</g>
<defs>
<clipPath id="clip0_165_10913">
<rect width="27" height="20" fill="white"/>
</clipPath>
</defs>
</svg>
