<svg width="60" height="64" viewBox="0 0 60 64" fill="none" xmlns="http://www.w3.org/2000/svg">
<g clip-path="url(#clip0_165_10357)">
<path d="M38.4835 63.11H6.15863C2.76021 63.11 0 60.3418 0 56.9514V13.5937C0 10.1953 2.76021 7.43506 6.15863 7.43506H12.3173C12.6044 7.43506 12.8358 7.66641 12.8358 7.9536V9.62089C12.8358 10.1155 13.2347 10.5144 13.7293 10.5144H30.9128C31.4074 10.5144 31.8063 10.1155 31.8063 9.62089V7.9536C31.8063 7.66641 32.0376 7.43506 32.3248 7.43506H38.4835C41.8819 7.43506 44.6421 10.2033 44.6421 13.5937V16.7209C44.6421 16.8086 44.6181 16.9044 44.5703 16.9841L36.4731 31.0086L37.6697 37.5342L43.5093 35.0931L43.6688 34.8059C43.7805 34.5984 44.0198 34.4947 44.2512 34.5586C44.4825 34.6224 44.6341 34.8218 44.6341 35.0611V56.9514C44.6341 60.3498 41.8739 63.11 38.4755 63.11H38.4835ZM6.15863 8.47213C3.33459 8.47213 1.03707 10.7697 1.03707 13.5937V56.9434C1.03707 59.7675 3.33459 62.065 6.15863 62.065H38.4755C41.2995 62.065 43.597 59.7675 43.597 56.9434V36.17L37.4703 38.7308C37.3267 38.7946 37.1592 38.7866 37.0236 38.7069C36.888 38.6351 36.7922 38.4994 36.7603 38.3479L35.4121 31.0006C35.3882 30.8809 35.4121 30.7533 35.4759 30.6496L43.597 16.5853V13.5937C43.597 10.7697 41.2995 8.47213 38.4755 8.47213H32.8354V9.62089C32.8354 10.6899 31.9738 11.5514 30.9048 11.5514H13.7213C12.6603 11.5514 11.7907 10.6819 11.7907 9.62089V8.47213H6.15065H6.15863Z" fill="#FDCF6F"/>
<path d="M30.9207 11.5513H13.7372C12.6762 11.5513 11.8066 10.6818 11.8066 9.62079V6.28619C11.8066 5.22518 12.6762 4.35564 13.7372 4.35564H17.4786C17.7419 1.90654 19.816 -0.00805664 22.329 -0.00805664C24.8419 -0.00805664 26.924 1.90654 27.1793 4.35564H30.9207C31.9817 4.35564 32.8513 5.21721 32.8513 6.28619V9.62079C32.8513 10.6898 31.9897 11.5513 30.9207 11.5513ZM13.7292 5.40069C13.2346 5.40069 12.8357 5.79956 12.8357 6.29417V9.62876C12.8357 10.1234 13.2346 10.5222 13.7292 10.5222H30.9128C31.4074 10.5222 31.8062 10.1234 31.8062 9.62876V6.29417C31.8062 5.79956 31.4074 5.40069 30.9128 5.40069H26.6767C26.3895 5.40069 26.1582 5.16934 26.1582 4.88215C26.1582 2.76014 24.435 1.037 22.313 1.037C20.191 1.037 18.4758 2.76014 18.4758 4.88215C18.4758 5.16934 18.2445 5.40069 17.9573 5.40069H13.7292Z" fill="#FDCF6F"/>
<path d="M36.6884 23.2146H7.96141C7.67422 23.2146 7.44287 22.9832 7.44287 22.696C7.44287 22.4088 7.67422 22.1775 7.96141 22.1775H36.6884C36.9756 22.1775 37.2069 22.4088 37.2069 22.696C37.2069 22.9832 36.9756 23.2146 36.6884 23.2146Z" fill="#FDCF6F"/>
<path d="M37.279 38.7786C37.1912 38.7786 37.1115 38.7546 37.0317 38.7147C36.8961 38.643 36.8003 38.5073 36.7684 38.3558L35.4202 31.0085C35.3963 30.8888 35.4202 30.7612 35.4841 30.6575L50.386 4.85027C50.9205 3.93286 51.9097 3.36646 52.9787 3.36646C53.4972 3.36646 54.0078 3.50207 54.4625 3.76533L58.1402 5.88734C59.5601 6.70105 60.0548 8.5279 59.2331 9.95587L44.3311 35.7551C44.2753 35.8508 44.1875 35.9306 44.0838 35.9705L37.4864 38.7307C37.4226 38.7546 37.3508 38.7706 37.287 38.7706L37.279 38.7786ZM36.4812 31.0085L37.6779 37.5341L43.5174 35.093L58.3236 9.44531C58.8581 8.51194 58.539 7.32329 57.6136 6.7888L53.936 4.65881C53.0425 4.14825 51.798 4.48331 51.2795 5.36881L36.4733 31.0005L36.4812 31.0085Z" fill="#FDCF6F"/>
<path d="M57.5019 12.421C57.4141 12.421 57.3264 12.3971 57.2466 12.3492L49.309 7.76212C49.0617 7.61853 48.9739 7.29943 49.1175 7.05213C49.2611 6.80483 49.5802 6.71707 49.8275 6.86067L57.7651 11.4477C58.0124 11.5913 58.1002 11.9104 57.9566 12.1577C57.8608 12.3253 57.6853 12.421 57.5098 12.421H57.5019Z" fill="#FDCF6F"/>
<path d="M43.876 36.0184C43.7883 36.0184 43.7005 35.9945 43.6208 35.9466L35.6752 31.3595C35.4279 31.2159 35.3401 30.8968 35.4837 30.6495C35.6273 30.4022 35.9464 30.3145 36.1937 30.4581L44.1393 35.0451C44.3866 35.1887 44.4744 35.5078 44.3308 35.7551C44.235 35.9227 44.0595 36.0184 43.884 36.0184H43.876Z" fill="#FDCF6F"/>
<path d="M39.9114 33.7209C39.8237 33.7209 39.7359 33.697 39.6561 33.6491C39.4088 33.5055 39.3211 33.1864 39.4647 32.9391L53.0823 9.34168C53.2259 9.09438 53.545 9.00662 53.7923 9.15022C54.0396 9.29381 54.1273 9.61291 53.9837 9.86022L40.3661 33.4577C40.2704 33.6252 40.0949 33.7209 39.9194 33.7209H39.9114Z" fill="#FDCF6F"/>
<path d="M37.2787 38.7785H8.55174C8.26455 38.7785 8.0332 38.5472 8.0332 38.26C8.0332 37.9728 8.26455 37.7415 8.55174 37.7415H37.2787C37.5659 37.7415 37.7973 37.9728 37.7973 38.26C37.7973 38.5472 37.5659 38.7785 37.2787 38.7785Z" fill="#FDCF6F"/>
<path d="M8.71918 57.2066C8.58356 57.2066 8.45592 57.1587 8.35221 57.055C8.15278 56.8556 8.15278 56.5205 8.35221 56.3211L14.2237 50.4576C14.3752 50.3061 14.6066 50.2582 14.806 50.3539L20.5498 53.0025L24.9135 48.8223C25.0172 48.7186 25.1608 48.6787 25.3044 48.6787L28.5353 48.8621L33.7606 43.6369C33.96 43.4374 34.2871 43.4374 34.4945 43.6369C34.6939 43.8363 34.6939 44.1714 34.4945 44.3708L29.1097 49.7556C29.006 49.8593 28.8624 49.9072 28.7108 49.9072L25.4719 49.7237L21.0205 53.9917C20.8689 54.1432 20.6376 54.1752 20.4461 54.0874L14.7103 51.4469L9.09412 57.055C8.99041 57.1587 8.86277 57.2066 8.72716 57.2066H8.71918Z" fill="white"/>
<path d="M34.694 47.2986C34.4068 47.2986 34.1755 47.0672 34.1755 46.78V44.0278H31.6626C31.3754 44.0278 31.144 43.7965 31.144 43.5093C31.144 43.2221 31.3754 42.9907 31.6626 42.9907H34.694C34.9812 42.9907 35.2126 43.2221 35.2126 43.5093V46.78C35.2126 47.0672 34.9812 47.2986 34.694 47.2986Z" fill="white"/>
</g>
<defs>
<clipPath id="clip0_165_10357">
<rect width="59.6238" height="63.11" fill="white"/>
</clipPath>
</defs>
</svg>
