<svg width="274" height="290" viewBox="0 0 274 290" fill="none" xmlns="http://www.w3.org/2000/svg">
<path d="M228.775 188.079C228.775 179.257 240.757 168.971 238.577 160.836C236.324 152.423 220.758 149.512 216.486 142.138C212.155 134.661 217.378 119.738 211.321 113.666C205.25 107.594 190.327 112.817 182.851 108.501C175.478 104.244 172.581 88.6618 164.154 86.4086C156.02 84.2286 145.735 96.2114 136.914 96.2114C128.092 96.2114 117.822 84.2286 109.687 86.4086C101.275 88.6618 98.3638 104.229 90.9903 108.501C83.5145 112.832 68.592 107.609 62.5206 113.666C56.4492 119.738 61.672 134.661 57.3562 142.138C53.0989 149.512 37.5181 152.409 35.2651 160.836C33.0852 168.971 45.0671 179.257 45.0671 188.079C45.0671 196.902 33.0852 207.172 35.2651 215.307C37.5181 223.72 53.0843 226.632 57.3562 234.006C61.6867 241.482 56.4638 256.406 62.5206 262.477C68.592 268.549 83.5145 263.326 90.9903 267.642C98.3638 271.9 101.261 287.482 109.687 289.735C117.822 291.915 128.106 279.932 136.928 279.932C145.75 279.932 156.035 291.915 164.169 289.735C172.581 287.482 175.493 271.914 182.866 267.642C190.342 263.311 205.264 268.549 211.336 262.477C217.407 256.406 212.184 241.482 216.5 234.006C220.758 226.632 236.338 223.735 238.591 215.307C240.771 207.172 228.789 196.887 228.789 188.064L228.775 188.079Z" fill="#0C756F"/>
<path d="M177.42 161.482L122.16 216.139L97.042 191.295" stroke="white" stroke-width="17" stroke-linecap="round" stroke-linejoin="round"/>
<g clip-path="url(#clip0_302_21)">
<path d="M135.959 51.9638C134.919 43.3076 134.678 34.6514 134.625 25.9685C134.652 17.3123 134.892 8.65616 135.959 -0.0267334C137.027 8.62945 137.267 17.2856 137.293 25.9685C137.24 34.6247 137 43.2809 135.959 51.9638Z" fill="#0C756F"/>
<path d="M83.0962 67.2724C77.866 60.2994 73.3295 52.9256 68.9532 45.445C64.657 37.9109 60.5475 30.2967 57.1318 22.2817C62.3621 29.2547 66.8985 36.6285 71.2748 44.1091C75.5711 51.6432 79.6805 59.2575 83.0962 67.2724Z" fill="#0C756F"/>
<path d="M44.9636 107C36.9582 103.58 29.3263 99.4659 21.8279 95.1646C14.3561 90.8098 6.99111 86.2679 0.0263672 81.0048C8.05851 84.4245 15.6637 88.5388 23.1621 92.8402C30.6339 97.2217 37.9989 101.737 44.9636 107Z" fill="#0C756F"/>
<path d="M229.036 103.367C236.001 98.1301 243.366 93.5883 250.838 89.2067C258.363 84.9054 265.968 80.791 273.973 77.3713C267.009 82.6077 259.644 87.1496 252.172 91.5311C244.647 95.8325 237.042 99.9468 229.036 103.367Z" fill="#0C756F"/>
<path d="M189.383 65.1885C192.798 57.1735 196.908 49.5326 201.204 42.0252C205.554 34.5446 210.09 27.1708 215.347 20.1978C211.931 28.2395 207.822 35.8537 203.526 43.361C199.149 50.8417 194.64 58.2155 189.383 65.1885Z" fill="#0C756F"/>
</g>
<defs>
<clipPath id="clip0_302_21">
<rect width="274" height="107" fill="white"/>
</clipPath>
</defs>
</svg>
