<svg width="680" height="509" viewBox="0 0 680 509" fill="none" xmlns="http://www.w3.org/2000/svg">
<g clip-path="url(#clip0_302_22)">
<path d="M393.601 415.003L380.946 417.357L378.122 430.697L375.262 417.357L362.607 415.003L375.227 411.935L378.122 399.344L380.982 411.935L393.601 415.003Z" fill="#FDCF6F"/>
<path d="M303.659 149.551L290.969 151.905L288.145 165.21L285.32 151.905L272.63 149.551L285.249 146.484L288.145 133.892L291.04 146.484L303.659 149.551Z" fill="#FDCF6F"/>
<path d="M181.15 389.535L168.496 391.889L165.671 405.194L162.812 391.889L150.157 389.535L162.776 386.467L165.671 373.876L168.531 386.467L181.15 389.535Z" fill="#FDCF6F"/>
<path d="M588 265.298L580.922 266.618L579.349 274.073L577.74 266.618L570.662 265.298L577.705 263.586L579.349 256.524L580.958 263.586L588 265.298Z" fill="#FDCF6F"/>
<path d="M304.231 465.261L297.153 466.545L295.58 474L294.007 466.545L286.894 465.261L293.972 463.513L295.58 456.486L297.189 463.513L304.231 465.261Z" fill="#FDCF6F"/>
<path d="M418.375 158.932L411.297 160.252L409.688 167.707L408.115 160.252L401.037 158.932L408.08 157.22L409.688 150.157L411.333 157.22L418.375 158.932Z" fill="#FDCF6F"/>
<path d="M556.542 355.042L549.464 356.327L547.891 363.782L546.318 356.327L539.204 355.042L546.282 353.295L547.891 346.268L549.5 353.295L556.542 355.042Z" fill="#FDCF6F"/>
<path d="M188.693 217.323L181.615 218.607L180.042 226.062L178.469 218.607L171.391 217.323L178.433 215.611L180.042 208.548L181.651 215.611L188.693 217.323Z" fill="#FDCF6F"/>
<path d="M469.71 402.661C467.064 402.661 467.064 406.763 469.71 406.763C472.355 406.763 472.355 402.661 469.71 402.661Z" fill="#FDCF6F"/>
<path d="M211.858 105C209.213 105 209.213 109.102 211.858 109.102C214.503 109.102 214.503 105 211.858 105Z" fill="#FDCF6F"/>
<path d="M539.204 207.05C536.558 207.05 536.558 211.152 539.204 211.152C541.849 211.152 541.849 207.05 539.204 207.05Z" fill="#FDCF6F"/>
<path d="M99.3942 259.52C97.5353 259.52 97.5353 262.409 99.3942 262.409C101.253 262.409 101.253 259.52 99.3942 259.52Z" fill="#FDCF6F"/>
<path d="M331.185 448.496C329.326 448.496 329.326 451.386 331.185 451.386C333.044 451.386 333.044 448.496 331.185 448.496Z" fill="#FDCF6F"/>
<path d="M426.061 422.814C420.985 422.814 420.985 430.662 426.061 430.662C431.137 430.662 431.137 422.814 426.061 422.814Z" fill="#FDCF6F"/>
<path d="M329.755 121.836C324.679 121.836 324.679 129.683 329.755 129.683C334.832 129.683 334.832 121.836 329.755 121.836Z" fill="#FDCF6F"/>
<path d="M248.964 422.814C243.888 422.814 243.888 430.662 248.964 430.662C254.041 430.662 254.041 422.814 248.964 422.814Z" fill="#FDCF6F"/>
</g>
<g clip-path="url(#clip1_302_22)">
<path d="M252.058 34.0182L269.774 47.8832L275.761 27.2391L252.058 34.0182Z" fill="#EBEBEB"/>
<path d="M283.678 25.1072L302.417 36.825L304.25 17.4539L283.678 25.1072Z" fill="#EBEBEB"/>
<path d="M109.512 44.9998L122.865 71.9935L138.424 45.3679L109.512 44.9998Z" fill="#EBEBEB"/>
<path d="M140.614 45.5212L161.997 67.929L174.425 43.696L140.614 45.5212Z" fill="#EBEBEB"/>
<path d="M179.146 43.5734L198.761 62.1009L206.759 40.4139L179.146 43.5734Z" fill="#EBEBEB"/>
<path d="M214.888 39.8924L239.11 57.4997L245.357 35.598L214.888 39.8924Z" fill="#EBEBEB"/>
<path d="M209.68 41.4721C136.185 49.8617 62.0731 44.831 60.8726 44.739L61.1159 41.6869C63.0628 41.8249 256.616 54.9843 326.964 2.96011L328.959 5.38341C301.492 25.7054 255.691 36.2268 209.68 41.4875V41.4721Z" fill="#E0E0E0"/>
<path d="M434.708 34.0182L416.975 47.8832L411.005 27.2391L434.708 34.0182Z" fill="#EBEBEB"/>
<path d="M403.088 25.1072L384.349 36.825L382.516 17.4539L403.088 25.1072Z" fill="#EBEBEB"/>
<path d="M577.254 44.9998L563.885 71.9935L548.326 45.3679L577.254 44.9998Z" fill="#EBEBEB"/>
<path d="M546.152 45.5212L524.752 67.929L512.341 43.696L546.152 45.5212Z" fill="#EBEBEB"/>
<path d="M507.619 43.5734L488.004 62.1009L480.006 40.4139L507.619 43.5734Z" fill="#EBEBEB"/>
<path d="M471.878 39.8924L447.655 57.4997L441.393 35.598L471.878 39.8924Z" fill="#EBEBEB"/>
<path d="M477.069 41.4721C550.565 49.8617 624.676 44.831 625.877 44.739L625.633 41.6869C623.687 41.8249 430.133 54.9843 359.786 2.96011L357.79 5.38341C385.257 25.7054 431.058 36.2268 477.069 41.4875V41.4721Z" fill="#E0E0E0"/>
<path d="M72.1488 163.22C66.2756 163.22 59.9645 161.655 55.7787 156.195C51.3819 150.444 51.5766 144.984 53.4911 141.088C52.3878 140.26 51.3008 139.263 50.2625 138.067C46.9365 134.248 46.1253 129.739 47.9749 125.383C48.3805 124.416 48.9159 123.496 49.5486 122.653C42.8805 117.944 40.0089 111.211 41.8097 103.987C42.3451 101.809 43.2374 99.9687 44.3894 98.5117C37.9808 85.9197 44.941 64.018 45.2655 63.0364L48.3643 63.9413C48.2994 64.1561 41.8097 84.5701 46.8716 96.2418C49.3377 94.6007 52.5176 94.0485 56.1518 94.708C61.814 95.7356 68.1576 100.03 67.5573 103.803C67.2491 105.751 65.2211 107.898 57.3362 107.085C52.5987 106.594 48.8834 104.693 46.2551 101.41C45.736 102.315 45.2979 103.389 44.9734 104.693C43.0428 112.453 47.6179 117.499 51.6902 120.337C53.848 118.435 56.525 117.131 59.2344 116.824C62.9984 116.395 66.3568 117.821 68.6606 120.843C70.8508 123.711 69.9423 125.49 69.2122 126.303C66.6488 129.125 59.3642 127.821 53.7993 125.153C53.2639 124.892 52.7448 124.631 52.2418 124.355C51.7389 125.03 51.3008 125.766 50.9763 126.548C49.5973 129.815 50.23 133.22 52.761 136.149C53.556 137.07 54.3672 137.837 55.1946 138.496C55.3082 138.358 55.438 138.22 55.5515 138.097C58.991 134.432 64.1665 133.312 68.109 135.383C71.0455 136.932 71.2889 138.849 71.1753 139.861C70.9644 141.748 69.1635 143.389 66.5028 144.14C63.8258 144.892 60.0294 144.769 56.1843 142.821C54.8539 145.858 54.9512 149.968 58.3583 154.416C66.4703 165.014 85.7445 157.622 85.9392 157.545L87.1885 160.382C86.6855 160.582 79.7579 163.251 72.0839 163.251L72.1488 163.22ZM57.9365 140.183C60.8568 141.61 63.6473 141.717 65.6267 141.165C67.1031 140.751 67.9305 140.015 67.9954 139.493C68.0441 139.079 67.4924 138.511 66.5677 138.021C63.9232 136.625 60.4836 137.453 58.0014 140.091C57.9689 140.122 57.9527 140.153 57.9202 140.183H57.9365ZM54.5294 122.024C54.789 122.162 55.0486 122.285 55.2757 122.407C60.9866 125.137 65.9512 125.183 66.7624 124.294C66.8597 124.186 66.811 123.634 66.0485 122.622C64.0205 119.953 61.4409 119.647 59.6562 119.846C57.8553 120.061 56.0707 120.843 54.5456 122.024H54.5294ZM48.3967 98.9411C50.5221 101.932 53.556 103.588 57.6931 104.018C62.9822 104.57 64.2963 103.604 64.345 103.328C64.5234 102.193 60.8892 98.6651 55.5353 97.6988C53.2477 97.2847 50.5545 97.3461 48.3967 98.9411Z" fill="#E0E0E0"/>
<path d="M21.9351 166.456C13.4336 163.864 9.4263 154.815 9.29651 147.499C9.24783 145.106 9.58854 142.913 10.2537 140.981C6.78177 136.855 6.39239 131.226 7.38206 126.886C7.93368 124.478 8.87468 122.331 10.0915 120.567C8.84223 116.502 8.9558 111.456 10.3186 107.07C11.0812 104.647 12.1357 102.637 13.4336 101.134C13.1741 88.6038 30.7447 73.5732 31.6208 72.837L33.7786 75.1222C33.584 75.2756 18.8363 87.8982 16.8569 98.5117C18.382 97.8368 20.0693 97.6374 21.8539 97.9442C26.7861 98.8031 28.7816 102.147 29.0088 104.984C29.2684 108.297 27.435 111.364 24.6445 112.269C22.8761 112.837 19.323 113.005 15.5103 107.591C15.0398 106.932 14.6667 106.257 14.3584 105.551C13.9204 106.441 13.6121 107.3 13.4174 107.944C12.444 111.058 12.2006 114.631 12.7036 117.714C14.2124 116.518 15.8835 115.812 17.6195 115.735C20.8481 115.582 23.525 117.039 24.7743 119.616C25.9424 122.054 25.5368 124.969 23.7684 126.717C21.9351 128.511 19.0472 128.834 15.8186 127.576C14.1151 126.916 12.7522 125.705 11.7301 124.14C11.2272 125.183 10.8378 126.318 10.5458 127.53C9.79945 130.797 9.92924 134.662 11.8275 137.76C13.1578 135.797 14.9749 134.34 17.1652 133.603C20.7669 132.376 23.9793 133.128 25.7477 135.597C27.5486 138.128 27.3377 141.717 25.2286 143.941C24.1415 145.106 20.9454 147.484 14.8289 144.493C14.1475 144.156 13.4985 143.787 12.9145 143.389C12.6224 144.723 12.4927 146.119 12.5251 147.438C12.6387 153.695 15.9322 161.395 22.9247 163.527L21.9351 166.441V166.456ZM14.0339 140.321C14.6991 140.873 15.4617 141.364 16.3378 141.794C19.2581 143.22 21.5619 143.266 22.8274 141.932C23.9306 140.751 24.0442 138.695 23.087 137.33C22.1784 136.057 20.4749 135.766 18.2846 136.502C16.3215 137.162 14.9587 138.573 14.0502 140.306L14.0339 140.321ZM13.6932 121.15C14.4558 122.883 15.5752 124.186 17.0516 124.754C19.0147 125.505 20.5722 125.459 21.4321 124.6C22.292 123.757 22.4542 122.208 21.8377 120.904C21.4321 120.076 20.3938 118.711 17.7979 118.803C16.3702 118.864 14.9263 119.739 13.6932 121.15ZM16.7596 102.269C16.9543 103.558 17.4248 104.769 18.2198 105.904C20.1017 108.573 22.1135 109.861 23.6061 109.386C24.9527 108.941 25.9424 107.085 25.7964 105.229C25.7153 104.171 25.115 101.656 21.2861 100.981C19.4041 100.659 17.9277 101.257 16.7596 102.269Z" fill="#E0E0E0"/>
<path d="M96.1603 73.2971C65.7563 104.34 21.3186 51.7482 40.7875 27.1164C60.2564 2.48465 127.018 41.8096 96.1603 73.2971Z" fill="#E0E0E0"/>
<path d="M36.8127 95.5823C-7.60883 90.4443 11.4869 25.6134 44.0162 26.1042C76.5293 26.6103 81.8832 100.797 36.8127 95.5823Z" fill="#EBEBEB"/>
<path d="M377.908 33.8035C358.844 53.2665 330.988 20.2913 343.204 4.84659C355.405 -10.5981 397.263 14.049 377.908 33.8035Z" fill="#E0E0E0"/>
<path d="M311.356 33.8035C330.42 53.2665 358.276 20.2913 346.06 4.84659C333.859 -10.5981 292.001 14.049 311.356 33.8035Z" fill="#E0E0E0"/>
<path d="M349.645 46.7635C377.485 43.5427 365.512 2.89875 345.135 3.20549C324.757 3.51224 321.399 50.0304 349.645 46.7635Z" fill="#EBEBEB"/>
<path d="M613.076 163.22C605.419 163.22 598.475 160.551 597.972 160.352L599.221 157.514C599.416 157.591 618.69 164.999 626.802 154.386C630.225 149.922 630.322 145.827 628.976 142.791C625.131 144.738 621.334 144.861 618.657 144.11C615.997 143.358 614.212 141.717 613.985 139.83C613.871 138.818 614.115 136.901 617.051 135.352C620.994 133.281 626.169 134.401 629.609 138.067C629.738 138.205 629.852 138.327 629.966 138.465C630.793 137.806 631.62 137.039 632.399 136.119C634.93 133.205 635.563 129.8 634.184 126.518C633.859 125.751 633.437 125.015 632.918 124.324C632.415 124.6 631.896 124.861 631.361 125.122C625.796 127.791 618.511 129.094 615.948 126.272C615.218 125.459 614.309 123.68 616.5 120.812C618.803 117.775 622.162 116.364 625.926 116.794C628.635 117.101 631.328 118.404 633.47 120.306C637.542 117.484 642.117 112.423 640.187 104.662C639.862 103.358 639.424 102.269 638.905 101.38C636.277 104.662 632.545 106.564 627.824 107.055C619.939 107.867 617.927 105.72 617.603 103.772C617.003 99.9994 623.346 95.7049 629.008 94.6773C632.643 94.0178 635.806 94.57 638.289 96.2111C643.35 84.5393 636.861 64.1407 636.796 63.9106L639.895 63.0057C640.219 63.9873 647.179 85.8737 640.771 98.481C641.939 99.938 642.815 101.779 643.35 103.956C645.151 111.18 642.28 117.913 635.612 122.622C636.244 123.481 636.78 124.401 637.185 125.352C639.035 129.708 638.224 134.217 634.898 138.036C633.859 139.232 632.772 140.229 631.669 141.057C633.584 144.953 633.794 150.413 629.381 156.165C625.196 161.625 618.901 163.189 613.011 163.189L613.076 163.22ZM621.415 137.361C620.458 137.361 619.517 137.576 618.657 138.036C617.733 138.527 617.197 139.079 617.23 139.508C617.295 140.03 618.122 140.766 619.598 141.18C621.561 141.732 624.368 141.625 627.289 140.199C627.256 140.168 627.24 140.137 627.207 140.106C625.536 138.327 623.427 137.376 621.399 137.376L621.415 137.361ZM624.677 119.8C622.989 119.8 620.88 120.367 619.177 122.622C618.414 123.634 618.365 124.186 618.463 124.294C619.274 125.183 624.238 125.137 629.949 122.407C630.176 122.3 630.436 122.177 630.696 122.024C629.171 120.843 627.386 120.061 625.585 119.846C625.309 119.815 625.001 119.8 624.693 119.8H624.677ZM631.994 97.4841C631.199 97.4841 630.42 97.5761 629.69 97.6988C624.336 98.6804 620.702 102.193 620.88 103.328C620.929 103.604 622.243 104.57 627.532 104.018C631.669 103.588 634.719 101.932 636.828 98.9411C635.352 97.8522 633.648 97.4841 631.994 97.4841Z" fill="#E0E0E0"/>
<path d="M663.289 166.456L662.299 163.542C669.276 161.41 672.585 153.711 672.699 147.453C672.715 146.134 672.602 144.754 672.31 143.404C671.725 143.803 671.093 144.171 670.395 144.508C664.279 147.499 661.082 145.122 659.995 143.956C657.886 141.717 657.675 138.128 659.476 135.613C661.245 133.143 664.457 132.392 668.059 133.619C670.249 134.37 672.066 135.812 673.396 137.775C675.295 134.677 675.425 130.812 674.678 127.545C674.402 126.334 673.997 125.183 673.494 124.156C672.455 125.72 671.093 126.932 669.405 127.591C666.177 128.834 663.289 128.527 661.456 126.732C659.687 124.984 659.265 122.07 660.45 119.631C661.699 117.039 664.376 115.582 667.604 115.751C669.34 115.828 671.028 116.548 672.52 117.729C673.023 114.647 672.78 111.073 671.807 107.959C671.612 107.331 671.304 106.472 670.866 105.582C670.557 106.272 670.184 106.963 669.714 107.622C665.901 113.036 662.348 112.883 660.579 112.3C657.789 111.395 655.956 108.328 656.215 105.015C656.442 102.177 658.438 98.8491 663.37 97.9749C665.155 97.6681 666.842 97.8675 668.367 98.5424C666.388 87.9289 651.64 75.3063 651.445 75.1529L653.603 72.8677C654.479 73.6039 672.05 88.6345 671.79 101.165C673.088 102.668 674.143 104.677 674.905 107.101C676.268 111.487 676.382 116.533 675.132 120.597C676.349 122.361 677.29 124.508 677.842 126.916C678.832 131.257 678.442 136.886 674.97 141.011C675.635 142.944 675.976 145.137 675.927 147.53C675.798 154.846 671.79 163.895 663.289 166.487V166.456ZM664.782 136.103C663.63 136.103 662.737 136.518 662.153 137.33C661.18 138.68 661.293 140.751 662.413 141.932C663.678 143.266 665.982 143.22 668.902 141.794C669.779 141.364 670.541 140.873 671.19 140.321C670.281 138.588 668.902 137.177 666.956 136.518C666.161 136.257 665.447 136.119 664.798 136.119L664.782 136.103ZM667.102 118.803C664.749 118.803 663.776 120.107 663.386 120.904C662.754 122.208 662.932 123.757 663.792 124.6C664.668 125.459 666.225 125.505 668.172 124.754C669.649 124.186 670.768 122.867 671.531 121.15C670.281 119.739 668.838 118.88 667.426 118.818C667.312 118.818 667.215 118.818 667.118 118.818L667.102 118.803ZM664.944 100.889C664.619 100.889 664.295 100.92 663.938 100.981C660.125 101.656 659.509 104.171 659.428 105.229C659.282 107.085 660.271 108.941 661.618 109.386C663.11 109.861 665.122 108.573 667.004 105.904C667.799 104.769 668.27 103.558 668.464 102.269C667.523 101.441 666.355 100.889 664.944 100.889Z" fill="#E0E0E0"/>
<path d="M591.482 73.2971C621.886 104.34 666.323 51.7482 646.854 27.1164C627.385 2.48465 560.623 41.8096 591.482 73.2971Z" fill="#E0E0E0"/>
<path d="M650.83 95.5823C695.251 90.4443 676.155 25.6134 643.626 26.1042C611.113 26.6103 605.759 100.797 650.83 95.5823Z" fill="#EBEBEB"/>
<path d="M378.946 134.416L372.505 142.33L385.371 147.806L378.946 134.416Z" fill="#F0F0F0"/>
<path d="M420.658 299.4L428.932 293.219L417.867 284.922L420.658 299.4Z" fill="#F0F0F0"/>
<path d="M316.645 124.861L316.028 114.907L302.514 118.742L316.645 124.861Z" fill="#F0F0F0"/>
<path d="M355.778 288.342L349.337 296.256L362.203 301.731L355.778 288.342Z" fill="#F0F0F0"/>
<path d="M346.757 181.87L357.06 182.484L355.778 193.434L343.545 190.382L346.757 181.87Z" fill="#F0F0F0"/>
<path d="M380.503 247.253L375.62 255.842L365.626 250.167L373.657 240.934L380.503 247.253Z" fill="#F0F0F0"/>
<path d="M316.532 312.406L326.834 313.02L325.552 323.97L313.319 320.934L316.532 312.406Z" fill="#F0F0F0"/>
<path d="M402.746 197.683L409.187 198.895C409.187 198.895 399.534 204.983 404.044 209.845C408.555 214.707 400.832 218.971 400.832 218.971L395.04 215.321C395.04 215.321 400.183 211.671 397.62 206.809C395.04 201.947 402.763 197.683 402.763 197.683H402.746Z" fill="#F0F0F0"/>
<path d="M415.905 118.312L409.999 126.579L423.205 131.303L415.905 118.312Z" fill="#F0F0F0"/>
<path d="M463.311 96.4719L466.896 87.0854L452.879 85.567L463.311 96.4719Z" fill="#F0F0F0"/>
<path d="M460.634 133.818L462.532 124.232L473.873 126.763L469.2 137.867L460.634 133.818Z" fill="#F0F0F0"/>
<path d="M471.617 185.812L465.095 186.502C465.095 186.502 472.331 177.928 466.49 174.585C460.65 171.241 466.62 164.968 466.62 164.968L473.305 166.778C473.305 166.778 469.573 171.732 473.58 175.628C477.588 179.523 471.601 185.796 471.601 185.796L471.617 185.812Z" fill="#F0F0F0"/>
<path d="M364.02 340.688L370.461 341.9C370.461 341.9 360.808 347.989 365.318 352.851C369.828 357.713 362.105 361.976 362.105 361.976L356.313 358.326C356.313 358.326 361.457 354.676 358.893 349.814C356.313 344.952 364.036 340.688 364.036 340.688H364.02Z" fill="#F0F0F0"/>
<path d="M456.756 319.891L450.315 327.805L463.181 333.28L456.756 319.891Z" fill="#F0F0F0"/>
<path d="M479.535 251.271L489.821 251.87L488.54 262.82L476.307 259.784L479.535 251.271Z" fill="#F0F0F0"/>
<path d="M412.4 337.268L418.841 338.48C418.841 338.48 409.187 344.569 413.698 349.43C418.208 354.292 410.485 358.556 410.485 358.556L404.693 354.906C404.693 354.906 409.836 351.256 407.273 346.394C404.693 341.532 412.416 337.268 412.416 337.268H412.4Z" fill="#F0F0F0"/>
<path d="M364.831 106.963L360.791 107.852C360.791 107.852 362.527 99.7387 357.481 96.932C352.452 94.1252 354.171 88.159 354.171 88.159L359.217 89.5394C359.217 89.5394 358.519 94.2019 362.543 97.5915C366.567 100.981 364.847 106.947 364.847 106.947L364.831 106.963Z" fill="#F0F0F0"/>
<path d="M320.961 254.661L314.876 256.992C314.876 256.992 319.403 246.885 312.8 245.167C306.197 243.449 310.171 235.873 310.171 235.873L317.132 235.903C317.132 235.903 314.958 241.624 319.938 244.354C324.919 247.084 320.944 254.646 320.944 254.646L320.961 254.661Z" fill="#F0F0F0"/>
<path d="M294.63 195.566C294.63 198.082 292.472 200.137 289.795 200.137C287.118 200.137 284.96 198.097 284.96 195.566C284.96 193.036 287.118 190.996 289.795 190.996C292.472 190.996 294.63 193.036 294.63 195.566Z" fill="#F0F0F0"/>
<path d="M418.062 83.9719C418.062 86.4872 415.904 88.5424 413.227 88.5424C410.55 88.5424 408.393 86.5026 408.393 83.9719C408.393 81.4412 410.55 79.4014 413.227 79.4014C415.904 79.4014 418.062 81.4412 418.062 83.9719Z" fill="#F0F0F0"/>
<path d="M265.523 122.024L257.833 128.88L269.628 136.211L265.523 122.024Z" fill="#F0F0F0"/>
<path d="M242.128 289.523L247.238 280.796L233.643 277.192L242.128 289.523Z" fill="#F0F0F0"/>
<path d="M177.767 303.035L175.058 312.682L189.173 313.02L177.767 303.035Z" fill="#F0F0F0"/>
<path d="M183.786 256.103L182.797 265.811L171.261 264.216L174.879 252.775L183.786 256.103Z" fill="#F0F0F0"/>
<path d="M231.972 204.677L238.413 203.45C238.413 203.45 231.988 212.591 238.137 215.428C244.286 218.266 238.899 225.014 238.899 225.014L232.069 223.756C232.069 223.756 235.33 218.511 230.966 214.953C226.602 211.394 231.988 204.661 231.988 204.661L231.972 204.677Z" fill="#F0F0F0"/>
<path d="M180.785 198.664L186.463 190.244L173.127 185.873L180.785 198.664Z" fill="#F0F0F0"/>
<path d="M218.295 162.116L207.977 162.361L208.236 151.349L220.712 153.358L218.295 162.116Z" fill="#F0F0F0"/>
<path d="M208.803 97.7141L202.281 97.0393C202.281 97.0393 211.334 90.1682 206.386 85.705C201.438 81.2265 208.738 76.3492 208.738 76.3492L214.855 79.5087C214.855 79.5087 210.069 83.5731 213.086 88.205C216.104 92.8369 208.803 97.7295 208.803 97.7295V97.7141Z" fill="#F0F0F0"/>
<path d="M262.684 324.538C262.457 322.023 264.404 319.814 267.065 319.584C269.725 319.369 272.062 321.21 272.305 323.725C272.532 326.24 270.569 328.449 267.924 328.679C265.264 328.894 262.927 327.053 262.684 324.538Z" fill="#F0F0F0"/>
</g>
<defs>
<clipPath id="clip0_302_22">
<rect width="490" height="369" fill="white" transform="translate(98 105)"/>
</clipPath>
<clipPath id="clip1_302_22">
<rect width="680" height="509" fill="white"/>
</clipPath>
</defs>
</svg>
