<svg width="212" height="219" viewBox="0 0 212 219" fill="none" xmlns="http://www.w3.org/2000/svg">
<g clip-path="url(#clip0_165_10429)">
<path d="M42.6907 182.619L41.8399 183.532L16.3926 213.97L72.8146 214.003L88.3291 182.782L42.6907 182.619Z" fill="#EFEADC"/>
<path d="M31.7876 184.043L30.9368 184.989L2.59033 216.455L57.571 216.488L77.4314 184.212L31.7876 184.043Z" fill="#FAFAFA"/>
<path d="M31.7876 184.043C31.7876 184.043 31.858 184.038 31.9935 184.032C32.1398 184.032 32.3457 184.032 32.6167 184.027C33.1748 184.027 33.9931 184.027 35.0552 184.016C37.2011 184.016 40.3332 184.016 44.3216 184.016C52.3199 184.032 63.7377 184.054 77.4313 184.087H77.6481L77.5343 184.272C71.6873 193.787 64.919 204.798 57.6901 216.559L57.6468 216.624H57.5709C55.1757 216.624 52.618 216.624 50.0386 216.624C32.5841 216.608 16.284 216.586 2.59028 216.575H2.31934L2.50358 216.374C11.2985 206.646 18.6087 198.556 23.7242 192.89C26.2819 190.068 28.2923 187.855 29.6688 186.338C30.357 185.588 30.8826 185.011 31.2402 184.62C31.5979 184.234 31.7876 184.043 31.7876 184.043C31.7876 184.043 31.6087 184.255 31.2673 184.652C30.9151 185.049 30.3949 185.636 29.7229 186.392C28.3574 187.92 26.3632 190.149 23.8271 192.988C18.7279 198.67 11.4394 206.782 2.67699 216.537L2.59028 216.336C16.284 216.336 32.5841 216.341 50.0386 216.347C52.618 216.347 55.1757 216.347 57.5709 216.347L57.4517 216.412C64.6914 204.662 71.4651 193.657 77.3284 184.141L77.4313 184.326C63.7539 184.255 52.3525 184.19 44.3649 184.152C40.3712 184.125 37.2336 184.098 35.0877 184.087C34.0202 184.076 33.2019 184.065 32.6383 184.06C32.3674 184.06 32.156 184.049 32.0097 184.049C31.8688 184.049 31.793 184.038 31.793 184.038L31.7876 184.043Z" fill="#0F0F14"/>
<path d="M52.7424 210.659C52.7424 210.659 52.6069 210.675 52.3522 210.686C52.0705 210.686 51.702 210.697 51.2414 210.703C50.2443 210.703 48.857 210.703 47.1555 210.708C43.6765 210.686 38.9241 210.659 33.6786 210.626C28.4276 210.561 23.6752 210.507 20.2016 210.463C18.5001 210.431 17.1128 210.404 16.1157 210.382C15.6551 210.366 15.2866 210.355 15.0049 210.344C14.7502 210.333 14.6201 210.322 14.6201 210.311C14.6201 210.3 14.7556 210.295 15.0049 210.284C15.2866 210.284 15.6551 210.273 16.1157 210.268C17.1128 210.268 18.5001 210.268 20.2016 210.262C23.6806 210.284 28.433 210.311 33.684 210.344C38.9349 210.409 43.6819 210.463 47.1609 210.507C48.8624 210.54 50.2497 210.567 51.2468 210.588C51.7074 210.605 52.0759 210.616 52.3577 210.626C52.6123 210.637 52.7424 210.648 52.7424 210.659Z" fill="#0F0F14"/>
<path d="M54.3793 207.288C54.3793 207.288 54.2492 207.304 54 207.315C53.7236 207.315 53.3659 207.326 52.9162 207.331C51.9408 207.331 50.586 207.331 48.9278 207.342C45.5356 207.321 40.8969 207.293 35.776 207.266C30.6551 207.201 26.0165 207.147 22.6243 207.103C20.9661 207.07 19.6113 207.043 18.6413 207.022C18.1916 207.005 17.8339 206.994 17.5575 206.983C17.3083 206.973 17.1782 206.962 17.1782 206.951C17.1782 206.94 17.3083 206.935 17.5575 206.924C17.8339 206.924 18.1916 206.913 18.6413 206.907C19.6167 206.907 20.9715 206.907 22.6297 206.896C26.0219 206.918 30.6606 206.945 35.7815 206.973C40.9024 207.038 45.5356 207.092 48.9332 207.136C50.5914 207.168 51.9462 207.196 52.9162 207.217C53.3659 207.234 53.7236 207.244 54 207.255C54.2492 207.266 54.3793 207.277 54.3793 207.288Z" fill="#0F0F14"/>
<path d="M56.8341 203.884C56.8341 203.884 56.7041 203.9 56.4602 203.911C56.1893 203.911 55.8371 203.922 55.3981 203.928C54.439 203.928 53.1113 203.928 51.4856 203.939C48.153 203.917 43.6011 203.89 38.5777 203.862C33.5489 203.803 29.0024 203.743 25.6644 203.705C24.0387 203.672 22.711 203.645 21.7519 203.623C21.313 203.607 20.9607 203.596 20.6898 203.585C20.4459 203.574 20.3213 203.563 20.3213 203.552C20.3213 203.542 20.4513 203.536 20.6898 203.525C20.9607 203.525 21.313 203.514 21.7519 203.509C22.711 203.509 24.0387 203.504 25.6644 203.498C28.997 203.52 33.5489 203.547 38.5777 203.574C43.6065 203.634 48.153 203.694 51.4856 203.732C53.1113 203.765 54.439 203.792 55.3981 203.813C55.8371 203.83 56.1893 203.841 56.4602 203.852C56.7041 203.862 56.8287 203.873 56.8287 203.884H56.8341Z" fill="#0F0F14"/>
<path d="M59.6732 200.725C59.6732 200.725 59.5486 200.741 59.3102 200.752C59.0446 200.752 58.6978 200.763 58.2697 200.769C57.3323 200.769 56.0317 200.774 54.4385 200.779C51.1709 200.763 46.7165 200.736 41.7907 200.703C36.8649 200.644 32.4105 200.589 29.1429 200.546C27.5497 200.513 26.2492 200.486 25.3117 200.464C24.8836 200.448 24.5368 200.437 24.2713 200.426C24.0328 200.415 23.9082 200.404 23.9082 200.393C23.9082 200.383 24.0328 200.377 24.2713 200.366C24.5368 200.366 24.8836 200.355 25.3117 200.35C26.2492 200.35 27.5497 200.344 29.1429 200.339C32.4105 200.361 36.8649 200.383 41.7907 200.415C46.7165 200.475 51.1709 200.529 54.4385 200.573C56.0317 200.605 57.3323 200.633 58.2697 200.654C58.6978 200.671 59.0446 200.682 59.3102 200.692C59.5486 200.703 59.6732 200.714 59.6732 200.725Z" fill="#0F0F14"/>
<path d="M61.7704 197.414C61.7704 197.414 61.6458 197.43 61.4073 197.441C61.1418 197.441 60.795 197.452 60.3669 197.457C59.4294 197.457 58.1289 197.463 56.5357 197.468C53.2681 197.446 48.8137 197.425 43.8879 197.392C38.9621 197.332 34.5077 197.278 31.2401 197.234C29.6469 197.202 28.3464 197.174 27.4089 197.153C26.9808 197.136 26.634 197.126 26.3684 197.115C26.13 197.104 26.0054 197.093 26.0054 197.082C26.0054 197.071 26.13 197.066 26.3684 197.055C26.634 197.055 26.9808 197.044 27.4089 197.039C28.3464 197.039 29.6469 197.033 31.2401 197.028C34.5077 197.049 38.9621 197.071 43.8879 197.104C48.8083 197.164 53.2681 197.218 56.5357 197.261C58.1289 197.294 59.4294 197.321 60.3669 197.343C60.795 197.359 61.1418 197.37 61.4073 197.381C61.6458 197.392 61.7704 197.403 61.7704 197.414Z" fill="#0F0F14"/>
<path d="M64.8647 194.119C64.8647 194.119 64.74 194.135 64.5016 194.146C64.2361 194.146 63.8892 194.157 63.4611 194.162C62.5237 194.162 61.2231 194.168 59.6299 194.173C56.3623 194.157 51.9079 194.13 46.9821 194.097C42.0563 194.037 37.6019 193.983 34.3343 193.939C32.7411 193.907 31.4406 193.879 30.5031 193.858C30.075 193.841 29.7282 193.831 29.4627 193.82C29.2242 193.809 29.0996 193.798 29.0996 193.787C29.0996 193.776 29.2242 193.771 29.4627 193.76C29.7282 193.76 30.075 193.749 30.5031 193.744C31.4406 193.744 32.7411 193.738 34.3343 193.733C37.6019 193.754 42.0563 193.776 46.9821 193.809C51.9025 193.869 56.3623 193.923 59.6299 193.966C61.2231 193.999 62.5237 194.026 63.4611 194.048C63.8892 194.064 64.2361 194.075 64.5016 194.086C64.74 194.097 64.8647 194.108 64.8647 194.119Z" fill="#0F0F14"/>
<path d="M67.1351 190.905C67.1351 190.905 67.0105 190.922 66.772 190.927C66.5065 190.927 66.1597 190.932 65.7316 190.938C64.7941 190.938 63.4936 190.938 61.9004 190.932C58.6328 190.9 54.1784 190.851 49.258 190.802C44.3322 190.72 39.8778 190.644 36.6102 190.59C35.017 190.552 33.7165 190.519 32.779 190.492C32.3509 190.476 32.0041 190.459 31.7386 190.449C31.5001 190.438 31.3755 190.427 31.3755 190.416C31.3755 190.405 31.5001 190.4 31.7386 190.394C32.0041 190.394 32.3509 190.389 32.779 190.383C33.7165 190.383 35.017 190.383 36.6102 190.389C39.8778 190.421 44.3322 190.47 49.258 190.519C54.1784 190.601 58.6382 190.677 61.9004 190.731C63.4936 190.769 64.7941 190.802 65.7316 190.829C66.1597 190.845 66.5065 190.862 66.772 190.873C67.0105 190.884 67.1351 190.894 67.1351 190.905Z" fill="#0F0F14"/>
<path d="M70.6307 187.839C70.6307 187.839 70.5061 187.855 70.2677 187.86C70.0021 187.86 69.6553 187.866 69.2272 187.871C68.2897 187.871 66.9892 187.871 65.396 187.866C62.1284 187.833 57.674 187.784 52.7536 187.735C47.8278 187.654 43.3734 187.578 40.1058 187.523C38.5126 187.485 37.2121 187.453 36.2746 187.425C35.8465 187.409 35.4997 187.393 35.2342 187.382C34.9957 187.371 34.8711 187.36 34.8711 187.349C34.8711 187.338 34.9957 187.333 35.2342 187.327C35.4997 187.327 35.8465 187.322 36.2746 187.317C37.2121 187.317 38.5126 187.317 40.1058 187.322C43.3734 187.355 47.8278 187.404 52.7536 187.453C57.674 187.534 62.1338 187.61 65.396 187.665C66.9892 187.703 68.2897 187.735 69.2272 187.762C69.6553 187.779 70.0021 187.795 70.2677 187.801C70.5061 187.811 70.6307 187.822 70.6307 187.833V187.839Z" fill="#0F0F14"/>
<path d="M16.062 85.8394C16.062 82.0061 18.3596 79.5701 21.6219 79.5701C24.8841 79.5701 27.1492 81.9734 27.1492 85.8394C27.1492 89.7053 24.8786 92.1086 21.6219 92.1086C18.3651 92.1086 16.062 89.6727 16.062 85.8394ZM23.952 85.8394C23.952 83.4035 23.0254 82.2344 21.6219 82.2344C20.2183 82.2344 19.2917 83.4361 19.2917 85.8394C19.2917 88.2427 20.2509 89.4444 21.6219 89.4444C22.9928 89.4444 23.952 88.2753 23.952 85.8394ZM34.9416 79.8311H38.7457L23.4751 102.57H19.671L34.9416 79.8311ZM31.2676 96.5618C31.2676 92.7285 33.5652 90.2926 36.7949 90.2926C40.0246 90.2926 42.3547 92.7285 42.3547 96.5618C42.3547 100.395 40.0517 102.831 36.7949 102.831C33.5381 102.831 31.2676 100.395 31.2676 96.5618ZM39.125 96.5618C39.125 94.1585 38.1984 92.9569 36.7949 92.9569C35.3914 92.9569 34.4648 94.1259 34.4648 96.5618C34.4648 98.9978 35.4239 100.167 36.7949 100.167C38.1659 100.167 39.125 98.9651 39.125 96.5618Z" fill="#EBEBEB"/>
<path d="M212 212.231L163.658 213.802L126.175 178.9H173.146L212 212.231Z" fill="#EFEADC"/>
<path d="M194.697 217.429L146.355 219L108.867 184.098H155.838L194.697 217.429Z" fill="#F5F5F5"/>
<path d="M202.831 213.965L154.489 215.536L117 180.64H163.972L202.831 213.965Z" fill="#DED5BB"/>
<path d="M157.989 178.9H111.018L148.501 213.802L198.388 212.176L157.989 178.9Z" fill="#F5F5F5"/>
<path d="M157.989 178.9C157.989 178.9 158.054 178.943 158.179 179.046C158.309 179.15 158.493 179.302 158.737 179.498C159.236 179.905 159.967 180.498 160.916 181.27C162.823 182.831 165.614 185.114 169.158 188.018C176.257 193.847 186.368 202.155 198.463 212.089L198.718 212.301L198.388 212.312C184.363 212.774 167.971 213.313 150.544 213.883C149.855 213.905 149.173 213.927 148.501 213.949H148.441L148.398 213.911C134.596 201.051 121.747 189.078 110.931 178.997L110.709 178.791H111.012C125.156 178.813 136.899 178.829 145.119 178.845C149.216 178.862 152.429 178.872 154.63 178.878C155.719 178.883 156.559 178.889 157.128 178.894C157.691 178.9 157.978 178.91 157.978 178.91C157.978 178.91 157.68 178.921 157.111 178.927C156.537 178.927 155.697 178.938 154.602 178.943C152.402 178.949 149.178 178.959 145.076 178.976C136.866 178.987 125.129 179.008 111.002 179.03L111.083 178.823C121.91 188.893 134.769 200.861 148.582 213.704L148.479 213.666C149.151 213.644 149.834 213.622 150.522 213.601C167.949 213.041 184.342 212.513 198.366 212.062L198.29 212.279C186.233 202.324 176.154 193.994 169.076 188.149C165.549 185.223 162.769 182.918 160.867 181.341C159.924 180.553 159.198 179.949 158.705 179.536C158.466 179.335 158.282 179.177 158.152 179.068C158.027 178.965 157.968 178.905 157.968 178.905L157.989 178.9Z" fill="#0F0F14"/>
<path d="M174.831 199.029C174.831 199.105 167.342 199.404 158.098 199.697C148.853 199.986 141.353 200.16 141.353 200.083C141.353 200.007 148.842 199.708 158.087 199.415C167.331 199.126 174.826 198.953 174.831 199.029Z" fill="#0F0F14"/>
<path d="M178.825 202.008C178.825 202.084 171.217 202.383 161.826 202.672C152.435 202.96 144.816 203.128 144.816 203.052C144.816 202.976 152.424 202.677 161.815 202.389C171.206 202.101 178.82 201.932 178.825 202.008Z" fill="#0F0F14"/>
<path d="M183.047 204.993C183.047 205.07 175.384 205.385 165.928 205.689C156.467 205.994 148.799 206.184 148.799 206.103C148.799 206.026 156.461 205.711 165.917 205.407C175.373 205.102 183.041 204.912 183.047 204.993Z" fill="#0F0F14"/>
<path d="M172.523 196.332C172.523 196.408 164.812 196.718 155.302 197.022C145.786 197.327 138.075 197.506 138.069 197.43C138.069 197.354 145.775 197.044 155.291 196.74C164.801 196.435 172.518 196.256 172.523 196.332Z" fill="#0F0F14"/>
<path d="M156.591 185.174C156.591 185.25 149.438 185.452 140.611 185.626C131.783 185.794 124.625 185.87 124.625 185.794C124.625 185.718 131.778 185.517 140.605 185.343C149.433 185.174 156.586 185.098 156.591 185.174Z" fill="#0F0F14"/>
<path d="M160.585 188.148C160.585 188.225 153.21 188.431 144.117 188.605C135.018 188.779 127.643 188.861 127.638 188.779C127.638 188.703 135.007 188.496 144.111 188.322C153.21 188.148 160.585 188.067 160.585 188.148Z" fill="#0F0F14"/>
<path d="M164.579 191.128C164.579 191.204 156.84 191.416 147.298 191.601C137.749 191.786 130.011 191.873 130.011 191.792C130.011 191.715 137.744 191.503 147.292 191.318C156.835 191.134 164.579 191.047 164.579 191.128Z" fill="#0F0F14"/>
<path d="M168.573 194.108C168.573 194.184 160.835 194.396 151.292 194.581C141.744 194.766 134.005 194.853 134.005 194.771C134.005 194.695 141.738 194.483 151.286 194.298C160.829 194.113 168.573 194.026 168.573 194.108Z" fill="#0F0F14"/>
<path d="M154.283 182.477C154.283 182.477 154.169 182.499 153.947 182.51C153.698 182.521 153.378 182.532 152.988 182.548C152.115 182.57 150.918 182.602 149.455 182.646C146.442 182.7 142.334 182.776 137.798 182.858C133.263 182.907 129.155 182.95 126.142 182.983C124.679 182.983 123.482 182.983 122.609 182.988C122.219 182.988 121.899 182.978 121.65 182.978C121.428 182.972 121.314 182.961 121.314 182.956C121.314 182.95 121.428 182.934 121.65 182.923C121.899 182.912 122.219 182.901 122.609 182.885C123.482 182.863 124.679 182.831 126.142 182.787C129.155 182.733 133.263 182.657 137.798 182.575C142.334 182.526 146.436 182.483 149.455 182.45C150.918 182.45 152.115 182.45 152.988 182.445C153.378 182.445 153.698 182.456 153.947 182.456C154.169 182.461 154.283 182.472 154.283 182.477Z" fill="#0F0F14"/>
<path d="M139.207 190.981L126.885 179.655L169.559 177.959L182.104 184.924L139.207 190.981Z" fill="#455A64"/>
<path d="M131.859 181.238L134.254 183.304L134.249 181.83L131.713 179.933L131.859 181.238Z" fill="#0F0F14"/>
<path d="M134.222 181.928L137.679 181.809L134.899 179.78L131.713 179.933L134.222 181.928Z" fill="#0C756F"/>
<path d="M134.222 181.928L134.255 183.304L137.631 183.081L137.679 181.809L134.222 181.928Z" fill="#0F0F14"/>
<path d="M137.679 181.809C137.636 181.874 136.389 181.069 134.894 180.014C134.84 179.976 134.78 179.933 134.731 179.9L134.818 179.927C133.084 180.009 131.713 180.009 131.708 179.938C131.702 179.867 133.068 179.737 134.802 179.645H134.851L134.888 179.672C134.943 179.71 134.997 179.748 135.051 179.786C136.541 180.841 137.717 181.749 137.668 181.814L137.679 181.809Z" fill="#0F0F14"/>
<path d="M134.243 183.304C134.168 183.304 134.097 183.005 134.086 182.624C134.076 182.249 134.13 181.939 134.211 181.939C134.287 181.939 134.357 182.238 134.368 182.619C134.379 182.994 134.325 183.304 134.243 183.304Z" fill="#455A64"/>
<path d="M137.641 181.129L140.042 183.19L140.031 181.722L137.495 179.818L137.641 181.129Z" fill="#0F0F14"/>
<path d="M140.004 181.819L143.461 181.7L140.681 179.672L137.495 179.818L140.004 181.819Z" fill="#E0E0E0"/>
<path d="M140.004 181.819L140.042 183.19L143.418 182.972L143.461 181.7L140.004 181.819Z" fill="#0F0F14"/>
<path d="M143.461 181.7C143.418 181.765 142.172 180.96 140.676 179.905C140.622 179.867 140.562 179.824 140.514 179.791L140.6 179.818C138.866 179.9 137.495 179.9 137.49 179.829C137.49 179.753 138.85 179.628 140.584 179.536H140.633L140.671 179.563C140.725 179.601 140.779 179.639 140.833 179.677C142.323 180.732 143.499 181.64 143.456 181.705L143.461 181.7Z" fill="#0F0F14"/>
<path d="M140.031 183.19C139.955 183.19 139.885 182.891 139.874 182.51C139.863 182.135 139.917 181.825 139.999 181.825C140.074 181.825 140.145 182.124 140.156 182.505C140.167 182.88 140.112 183.19 140.031 183.19Z" fill="#455A64"/>
<path d="M143.18 181.058L145.58 183.119L145.569 181.651L143.033 179.748L143.18 181.058Z" fill="#0F0F14"/>
<path d="M145.542 181.743L148.999 181.624L146.22 179.601L143.033 179.748L145.542 181.743Z" fill="#455A64"/>
<path d="M145.542 181.743L145.58 183.119L148.956 182.901L148.999 181.624L145.542 181.743Z" fill="#0F0F14"/>
<path d="M149 181.624C148.956 181.689 147.71 180.884 146.214 179.829C146.16 179.791 146.1 179.748 146.052 179.715L146.138 179.742C144.404 179.824 143.033 179.824 143.028 179.753C143.028 179.677 144.388 179.552 146.122 179.46H146.171L146.209 179.487C146.263 179.525 146.317 179.563 146.371 179.601C147.862 180.656 149.037 181.564 148.994 181.629L149 181.624Z" fill="#0F0F14"/>
<path d="M145.564 183.119C145.488 183.119 145.417 182.82 145.407 182.439C145.396 182.064 145.45 181.754 145.531 181.754C145.607 181.754 145.678 182.053 145.688 182.434C145.699 182.809 145.645 183.119 145.564 183.119Z" fill="#455A64"/>
<path d="M148.945 180.89L151.346 182.95L151.335 181.482L148.799 179.579L148.945 180.89Z" fill="#0F0F14"/>
<path d="M151.308 181.58L154.765 181.461L151.985 179.432L148.799 179.579L151.308 181.58Z" fill="#455A64"/>
<path d="M151.308 181.58L151.346 182.95L154.722 182.733L154.765 181.461L151.308 181.58Z" fill="#0F0F14"/>
<path d="M154.765 181.461C154.722 181.526 153.475 180.721 151.98 179.666C151.926 179.628 151.866 179.585 151.817 179.552L151.904 179.579C150.17 179.661 148.799 179.661 148.793 179.59C148.793 179.514 150.154 179.389 151.888 179.297H151.936L151.974 179.324C152.029 179.362 152.083 179.4 152.137 179.438C153.627 180.493 154.803 181.401 154.76 181.466L154.765 181.461Z" fill="#0F0F14"/>
<path d="M151.335 182.95C151.259 182.95 151.188 182.651 151.178 182.271C151.167 181.896 151.221 181.586 151.302 181.586C151.378 181.586 151.449 181.885 151.459 182.265C151.47 182.64 151.416 182.95 151.335 182.95Z" fill="#455A64"/>
<path d="M154.798 180.743L157.193 182.809L157.182 181.335L154.646 179.438L154.798 180.743Z" fill="#0F0F14"/>
<path d="M157.16 181.433L160.612 181.314L157.832 179.291L154.646 179.438L157.16 181.433Z" fill="#455A64"/>
<path d="M157.161 181.433L157.193 182.809L160.569 182.586L160.613 181.314L157.161 181.433Z" fill="#0F0F14"/>
<path d="M160.612 181.314C160.569 181.379 159.323 180.574 157.827 179.519C157.773 179.481 157.713 179.438 157.664 179.405L157.751 179.432C156.017 179.514 154.646 179.514 154.641 179.443C154.641 179.367 156.001 179.242 157.735 179.15H157.784L157.822 179.177C157.876 179.215 157.93 179.253 157.984 179.291C159.474 180.346 160.65 181.254 160.607 181.319L160.612 181.314Z" fill="#0F0F14"/>
<path d="M157.182 182.809C157.106 182.809 157.036 182.51 157.025 182.129C157.014 181.754 157.068 181.444 157.149 181.444C157.225 181.444 157.296 181.743 157.307 182.124C157.317 182.499 157.263 182.809 157.182 182.809Z" fill="#455A64"/>
<path d="M160.379 180.482L162.774 182.543L162.769 181.075L160.233 179.177L160.379 180.482Z" fill="#0F0F14"/>
<path d="M162.742 181.172L166.199 181.053L163.419 179.025L160.233 179.177L162.742 181.172Z" fill="#455A64"/>
<path d="M162.742 181.172L162.774 182.543L166.15 182.325L166.199 181.053L162.742 181.172Z" fill="#0F0F14"/>
<path d="M166.199 181.053C166.156 181.118 164.91 180.313 163.414 179.258C163.36 179.22 163.3 179.177 163.251 179.144L163.338 179.171C161.604 179.253 160.233 179.253 160.228 179.182C160.228 179.106 161.588 178.981 163.322 178.889H163.371L163.408 178.916C163.463 178.954 163.517 178.992 163.571 179.03C165.061 180.085 166.237 180.993 166.194 181.058L166.199 181.053Z" fill="#0F0F14"/>
<path d="M162.763 182.548C162.688 182.548 162.617 182.249 162.606 181.868C162.596 181.493 162.65 181.183 162.731 181.183C162.807 181.183 162.877 181.482 162.888 181.863C162.899 182.238 162.845 182.548 162.763 182.548Z" fill="#455A64"/>
<path d="M165.842 180.166L168.237 182.227L168.226 180.759L165.69 178.856L165.842 180.166Z" fill="#0F0F14"/>
<path d="M168.204 180.852L171.656 180.737L168.876 178.709L165.69 178.856L168.204 180.852Z" fill="#455A64"/>
<path d="M168.205 180.852L168.237 182.227L171.613 182.01L171.656 180.737L168.205 180.852Z" fill="#0F0F14"/>
<path d="M171.656 180.737C171.613 180.803 170.367 179.998 168.871 178.943C168.817 178.905 168.757 178.862 168.708 178.829L168.795 178.856C167.061 178.938 165.69 178.938 165.685 178.867C165.685 178.791 167.045 178.666 168.779 178.573H168.828L168.865 178.601C168.92 178.639 168.974 178.677 169.028 178.715C170.518 179.77 171.694 180.678 171.651 180.743L171.656 180.737Z" fill="#0F0F14"/>
<path d="M168.226 182.227C168.15 182.227 168.08 181.928 168.069 181.548C168.058 181.172 168.112 180.862 168.193 180.862C168.269 180.862 168.34 181.162 168.351 181.542C168.361 181.917 168.307 182.227 168.226 182.227Z" fill="#455A64"/>
<path d="M135.718 185.109L138.113 187.17L138.107 185.702L135.571 183.799L135.718 185.109Z" fill="#0F0F14"/>
<path d="M138.08 185.8L141.538 185.68L138.758 183.652L135.571 183.799L138.08 185.8Z" fill="#455A64"/>
<path d="M138.08 185.8L138.113 187.17L141.489 186.952L141.537 185.68L138.08 185.8Z" fill="#0F0F14"/>
<path d="M141.538 185.68C141.494 185.745 140.248 184.94 138.752 183.886C138.698 183.848 138.638 183.804 138.59 183.771L138.676 183.799C136.942 183.88 135.571 183.88 135.566 183.81C135.566 183.733 136.926 183.608 138.66 183.516H138.709L138.747 183.543C138.801 183.581 138.855 183.619 138.909 183.657C140.4 184.712 141.576 185.62 141.527 185.685L141.538 185.68Z" fill="#0F0F14"/>
<path d="M138.102 187.175C138.026 187.175 137.956 186.876 137.945 186.496C137.934 186.12 137.988 185.81 138.069 185.81C138.145 185.81 138.216 186.11 138.227 186.49C138.237 186.865 138.183 187.175 138.102 187.175Z" fill="#455A64"/>
<path d="M141.5 185L143.9 187.061L143.89 185.593L141.354 183.69L141.5 185Z" fill="#0F0F14"/>
<path d="M143.862 185.691L147.32 185.571L144.54 183.543L141.354 183.69L143.862 185.691Z" fill="#455A64"/>
<path d="M143.862 185.691L143.9 187.061L147.276 186.844L147.32 185.571L143.862 185.691Z" fill="#0F0F14"/>
<path d="M147.32 185.571C147.276 185.636 146.03 184.832 144.534 183.777C144.48 183.739 144.421 183.695 144.372 183.663L144.459 183.69C142.725 183.771 141.354 183.771 141.348 183.701C141.348 183.625 142.708 183.5 144.442 183.407H144.491L144.529 183.434C144.583 183.472 144.637 183.51 144.692 183.549C146.182 184.603 147.358 185.511 147.314 185.577L147.32 185.571Z" fill="#0F0F14"/>
<path d="M143.889 187.061C143.814 187.061 143.743 186.762 143.732 186.381C143.721 186.006 143.776 185.696 143.857 185.696C143.933 185.696 144.003 185.995 144.014 186.376C144.025 186.751 143.971 187.061 143.889 187.061Z" fill="#455A64"/>
<path d="M147.038 184.93L149.438 186.99L149.428 185.522L146.892 183.619L147.038 184.93Z" fill="#0F0F14"/>
<path d="M149.401 185.615L152.858 185.495L150.078 183.472L146.892 183.619L149.401 185.615Z" fill="#455A64"/>
<path d="M149.4 185.615L149.438 186.99L152.814 186.773L152.858 185.495L149.4 185.615Z" fill="#0F0F14"/>
<path d="M152.858 185.495C152.815 185.56 151.568 184.756 150.073 183.701C150.018 183.663 149.959 183.619 149.91 183.587L149.997 183.614C148.263 183.695 146.892 183.695 146.886 183.625C146.886 183.549 148.246 183.423 149.98 183.331H150.029L150.067 183.358C150.121 183.396 150.176 183.434 150.23 183.472C151.72 184.527 152.896 185.435 152.847 185.501L152.858 185.495Z" fill="#0F0F14"/>
<path d="M149.422 186.99C149.346 186.99 149.276 186.691 149.265 186.311C149.254 185.935 149.308 185.626 149.39 185.626C149.466 185.626 149.536 185.925 149.547 186.305C149.558 186.68 149.503 186.99 149.422 186.99Z" fill="#455A64"/>
<path d="M152.804 184.761L155.204 186.822L155.193 185.354L152.657 183.451L152.804 184.761Z" fill="#0F0F14"/>
<path d="M155.166 185.452L158.623 185.332L155.844 183.304L152.657 183.451L155.166 185.452Z" fill="#455A64"/>
<path d="M155.166 185.452L155.204 186.822L158.58 186.604L158.623 185.332L155.166 185.452Z" fill="#0F0F14"/>
<path d="M158.624 185.332C158.58 185.397 157.334 184.592 155.838 183.538C155.784 183.5 155.724 183.456 155.676 183.423L155.762 183.451C154.028 183.532 152.657 183.532 152.652 183.462C152.652 183.385 154.012 183.26 155.746 183.168H155.795L155.833 183.195C155.887 183.233 155.941 183.271 155.995 183.309C157.486 184.364 158.661 185.272 158.618 185.337L158.624 185.332Z" fill="#0F0F14"/>
<path d="M155.193 186.822C155.117 186.822 155.047 186.523 155.036 186.142C155.025 185.767 155.079 185.457 155.161 185.457C155.237 185.457 155.307 185.756 155.318 186.137C155.329 186.512 155.274 186.822 155.193 186.822Z" fill="#455A64"/>
<path d="M158.656 184.614L161.051 186.68L161.04 185.207L158.504 183.309L158.656 184.614Z" fill="#0F0F14"/>
<path d="M161.019 185.305L164.471 185.185L161.691 183.162L158.504 183.309L161.019 185.305Z" fill="#455A64"/>
<path d="M161.019 185.305L161.052 186.68L164.428 186.458L164.471 185.185L161.019 185.305Z" fill="#0F0F14"/>
<path d="M164.471 185.185C164.427 185.25 163.181 184.446 161.685 183.391C161.631 183.353 161.572 183.309 161.523 183.277L161.61 183.304C159.875 183.385 158.504 183.385 158.499 183.315C158.499 183.239 159.859 183.114 161.593 183.021H161.642L161.68 183.048C161.734 183.086 161.788 183.124 161.843 183.162C163.333 184.217 164.509 185.125 164.465 185.191L164.471 185.185Z" fill="#0F0F14"/>
<path d="M161.04 186.68C160.964 186.68 160.894 186.381 160.883 186.001C160.872 185.626 160.927 185.316 161.008 185.316C161.084 185.316 161.154 185.615 161.165 185.995C161.176 186.37 161.122 186.68 161.04 186.68Z" fill="#455A64"/>
<path d="M164.238 184.353L166.633 186.414L166.627 184.946L164.091 183.043L164.238 184.353Z" fill="#0F0F14"/>
<path d="M166.6 185.044L170.058 184.924L167.278 182.896L164.091 183.043L166.6 185.044Z" fill="#455A64"/>
<path d="M166.601 185.044L166.633 186.414L170.009 186.197L170.058 184.924L166.601 185.044Z" fill="#0F0F14"/>
<path d="M170.058 184.924C170.014 184.989 168.768 184.185 167.272 183.13C167.218 183.092 167.159 183.048 167.11 183.016L167.196 183.043C165.462 183.124 164.091 183.124 164.086 183.054C164.081 182.983 165.446 182.853 167.18 182.76H167.229L167.267 182.787C167.321 182.825 167.375 182.863 167.429 182.901C168.92 183.956 170.096 184.864 170.052 184.93L170.058 184.924Z" fill="#0F0F14"/>
<path d="M166.622 186.414C166.546 186.414 166.476 186.115 166.465 185.734C166.454 185.359 166.508 185.049 166.589 185.049C166.665 185.049 166.736 185.348 166.747 185.729C166.757 186.104 166.703 186.414 166.622 186.414Z" fill="#455A64"/>
<path d="M169.7 184.038L172.095 186.099L172.084 184.631L169.548 182.727L169.7 184.038Z" fill="#0F0F14"/>
<path d="M172.062 184.723L175.514 184.609L172.734 182.581L169.548 182.727L172.062 184.723Z" fill="#455A64"/>
<path d="M172.062 184.723L172.095 186.099L175.471 185.881L175.514 184.609L172.062 184.723Z" fill="#0F0F14"/>
<path d="M175.514 184.609C175.471 184.674 174.224 183.869 172.729 182.814C172.675 182.776 172.615 182.733 172.566 182.7L172.653 182.727C170.919 182.809 169.548 182.809 169.542 182.738C169.542 182.662 170.903 182.537 172.637 182.445H172.685L172.723 182.472C172.778 182.51 172.832 182.548 172.886 182.586C174.376 183.641 175.552 184.549 175.509 184.614L175.514 184.609Z" fill="#0F0F14"/>
<path d="M172.084 186.099C172.008 186.099 171.938 185.8 171.927 185.419C171.916 185.044 171.97 184.734 172.051 184.734C172.127 184.734 172.198 185.033 172.208 185.414C172.219 185.789 172.165 186.099 172.084 186.099Z" fill="#455A64"/>
<path d="M194.091 181.814L145.694 184.451L139.272 190.552L126.885 179.655V182.814L139.717 195.157L146.799 188.241L194.828 185.37L194.091 181.814Z" fill="#0F0F14"/>
<path d="M139.717 195.157L183.437 192.585L194.827 185.37L145.64 187.306L139.717 195.157Z" fill="#0F0F14"/>
<path d="M194.828 185.37C194.828 185.37 194.779 185.381 194.681 185.392C194.567 185.403 194.421 185.414 194.242 185.43C193.836 185.462 193.272 185.501 192.557 185.555C191.072 185.653 188.959 185.794 186.358 185.974C181.101 186.3 173.878 186.746 165.896 187.24C158.553 187.665 151.85 188.056 146.805 188.35L146.87 188.323C144.686 190.427 142.909 192.14 141.657 193.341C141.05 193.918 140.568 194.374 140.226 194.701C140.069 194.842 139.944 194.956 139.847 195.049C139.76 195.125 139.717 195.163 139.711 195.157C139.711 195.157 139.744 195.108 139.825 195.021C139.917 194.923 140.037 194.804 140.183 194.652C140.519 194.314 140.985 193.847 141.576 193.254C142.806 192.036 144.561 190.302 146.718 188.17L146.745 188.143H146.783C151.823 187.828 158.526 187.414 165.869 186.963C173.851 186.501 181.08 186.082 186.336 185.778C188.943 185.642 191.056 185.528 192.541 185.452C193.256 185.419 193.82 185.397 194.231 185.375C194.41 185.375 194.557 185.365 194.67 185.365C194.768 185.365 194.822 185.365 194.822 185.37H194.828Z" fill="#455A64"/>
<path d="M146.799 188.241C146.723 188.263 146.42 187.431 146.111 186.387C145.808 185.337 145.623 184.473 145.694 184.451C145.77 184.429 146.073 185.261 146.382 186.305C146.685 187.349 146.87 188.219 146.799 188.241Z" fill="#455A64"/>
<path d="M104.7 78.9122L98.4354 86.7257L72.2998 94.028L76.2014 136.385C77.4044 152.985 79.1006 157.058 80.2657 168.096V177.094H154.494L164.855 91.1082L139.256 85.2032L133.751 78.9177H104.694L104.7 78.9122Z" fill="#0C756F"/>
<path d="M103.589 94.0389L106.786 136.456L110.205 157.988L135.301 87.7153L115.055 111.792L103.589 94.0389Z" fill="white"/>
<path d="M109.842 161.016C109.842 161.016 109.869 160.945 109.94 160.81C110.016 160.663 110.119 160.467 110.254 160.217C110.541 159.689 110.959 158.928 111.484 157.96C112.573 155.992 114.134 153.165 116.058 149.679C119.949 142.692 125.319 133.057 131.242 122.411C134.179 117.159 136.98 112.156 139.522 107.616L139.549 107.779C138.303 106.724 137.1 105.707 135.945 104.723L135.815 104.609L135.962 104.522C137.777 103.446 139.495 102.429 141.093 101.483L141.039 101.591C140.476 96.5727 140.02 92.4784 139.701 89.6238C139.549 88.2155 139.43 87.1117 139.348 86.3451C139.311 85.9808 139.283 85.6926 139.267 85.486C139.251 85.2902 139.251 85.1924 139.251 85.1924C139.251 85.1924 139.273 85.2902 139.3 85.4805C139.327 85.6872 139.365 85.9699 139.414 86.3342C139.511 87.1009 139.647 88.1992 139.825 89.6075C140.167 92.4621 140.66 96.551 141.261 101.564L141.272 101.635L141.213 101.673C139.619 102.624 137.907 103.652 136.092 104.734L136.108 104.533C137.268 105.512 138.471 106.523 139.722 107.578L139.804 107.649L139.75 107.741C137.213 112.281 134.423 117.289 131.491 122.547C125.536 133.172 120.144 142.796 116.231 149.772C114.27 153.241 112.682 156.052 111.576 158.009C111.029 158.966 110.601 159.717 110.298 160.244C110.157 160.489 110.043 160.679 109.962 160.82C109.886 160.951 109.842 161.016 109.837 161.011L109.842 161.016Z" fill="#0F0F14"/>
<path d="M109.842 161.016C109.842 161.016 109.815 160.951 109.772 160.815C109.728 160.668 109.663 160.472 109.588 160.222C109.425 159.684 109.197 158.917 108.905 157.939C108.32 155.938 107.485 153.061 106.45 149.516C105.431 145.955 104.169 141.735 102.874 137.005C101.665 132.253 100.511 126.995 99.2916 121.476C97.6388 113.907 96.1378 106.822 94.8968 100.825L94.8752 100.721L94.9727 100.689C96.1649 100.27 97.3029 99.8732 98.3921 99.4871L98.3758 99.6938C96.8747 98.8945 95.4929 98.1604 94.214 97.4808L94.1382 97.4373L94.1707 97.3557C95.4767 94.0607 96.5334 91.4018 97.2649 89.5531C97.628 88.6505 97.9152 87.9437 98.1157 87.4489C98.2132 87.2205 98.2837 87.0411 98.3433 86.9051C98.3975 86.7855 98.4246 86.7202 98.43 86.7257C98.43 86.7257 98.4137 86.7909 98.3704 86.916C98.3216 87.0519 98.2512 87.2368 98.1699 87.4706C97.9802 87.9708 97.7147 88.6831 97.3679 89.5966C96.6526 91.4562 95.6284 94.1259 94.3549 97.4318L94.3116 97.3068C95.5959 97.981 96.9831 98.7042 98.4896 99.4926L98.7172 99.6122L98.4733 99.6992C97.3841 100.085 96.2516 100.493 95.0594 100.917L95.1353 100.776C96.4033 106.768 97.9152 113.853 99.568 121.416C100.787 126.929 101.936 132.193 103.128 136.94C104.407 141.654 105.653 145.895 106.645 149.462C107.642 153.018 108.45 155.9 109.013 157.906C109.284 158.896 109.495 159.668 109.642 160.206C109.707 160.462 109.761 160.657 109.799 160.804C109.831 160.94 109.848 161.011 109.842 161.011V161.016Z" fill="#0F0F14"/>
<path d="M72.2944 94.0226C72.2944 94.0226 66.5449 96.8283 62.4969 109.758C59.5544 119.154 47.5894 151.501 47.5894 151.501L34.3347 147.624C34.3347 147.624 24.5806 159.815 26.7861 164.061C28.997 168.308 45.14 177.094 45.14 177.094H64.0468C66.6316 175.093 68.5228 172.331 69.4494 169.188L80.2602 132.66L72.2944 94.0226Z" fill="#0C756F"/>
<path d="M164.855 91.1028C164.855 91.1028 169.873 93.7888 173.174 99.6775C176.474 105.566 202.826 148.597 205.01 158.798C208.272 174.033 201.753 177.073 201.753 177.073H192.649L170.112 176.948L167.267 159.249L177.286 157.101L158.716 136.439L157.486 138.549L153.855 109.051L164.855 91.1028Z" fill="#0C756F"/>
<path d="M74.6843 111.792C74.7601 111.786 75.4321 119.105 76.1853 128.137C76.9385 137.168 77.4804 144.498 77.4046 144.503C77.3287 144.508 76.6568 137.195 75.9035 128.158C75.1557 119.127 74.6084 111.797 74.6843 111.792Z" fill="#0F0F14"/>
<path d="M163.533 103.603C163.609 103.614 162.574 112.743 161.214 123.993C159.854 135.249 158.694 144.362 158.613 144.351C158.537 144.34 159.572 135.211 160.932 123.961C162.292 112.711 163.452 103.598 163.533 103.603Z" fill="#0F0F14"/>
<path d="M170.388 177.094C170.388 177.094 170.475 176.98 170.643 176.768C170.805 176.556 171.049 176.235 171.32 175.8C171.862 174.936 172.55 173.604 173.065 171.842C173.325 170.967 173.553 169.982 173.694 168.917C173.84 167.851 173.97 166.693 173.84 165.502C173.704 164.311 173.298 163.088 172.583 162C171.867 160.918 170.897 159.929 169.727 159.195C169.646 159.146 169.559 159.091 169.483 159.053L169.18 158.89L169.505 158.792C174.837 157.221 179.817 156.476 183.426 156.188C185.231 156.036 186.694 155.965 187.702 155.932C188.206 155.916 188.601 155.91 188.867 155.91C189.132 155.91 189.273 155.911 189.273 155.921C189.273 155.932 189.132 155.949 188.867 155.965C188.574 155.987 188.189 156.008 187.707 156.041C186.699 156.106 185.241 156.204 183.442 156.384C179.85 156.726 174.897 157.498 169.581 159.064L169.608 158.803C169.694 158.852 169.781 158.901 169.868 158.955C171.076 159.711 172.068 160.728 172.81 161.848C173.547 162.979 173.965 164.246 174.095 165.475C174.219 166.709 174.078 167.878 173.921 168.949C173.77 170.026 173.526 171.015 173.255 171.902C172.713 173.674 171.987 175.006 171.412 175.86C171.125 176.29 170.865 176.6 170.686 176.801C170.502 177.002 170.394 177.094 170.388 177.089V177.094Z" fill="#0F0F14"/>
<path d="M109.907 177.094C109.832 177.094 109.767 173.451 109.767 168.96C109.767 164.469 109.832 160.82 109.907 160.82C109.983 160.82 110.048 164.463 110.048 168.96C110.048 173.457 109.983 177.094 109.907 177.094Z" fill="#0F0F14"/>
<path d="M152.202 141.001C152.202 141.001 152.191 140.865 152.186 140.615C152.186 140.349 152.175 139.99 152.164 139.528C152.153 138.571 152.137 137.206 152.115 135.488L152.197 135.569C147.135 135.58 138.964 135.602 129.74 135.629C129.806 135.564 129.6 135.771 129.881 135.488V136.195V136.896C129.881 137.364 129.881 137.826 129.881 138.288C129.881 139.207 129.881 140.115 129.881 141.001L129.74 140.86C136.113 140.887 141.706 140.909 145.726 140.925C147.721 140.941 149.33 140.958 150.463 140.963C151.004 140.969 151.433 140.98 151.747 140.98C151.882 140.98 151.991 140.985 152.083 140.99C152.159 140.99 152.202 140.996 152.202 141.001C152.207 141.007 152.061 141.012 151.779 141.018C151.47 141.018 151.053 141.028 150.528 141.034C149.406 141.045 147.807 141.056 145.824 141.072C141.776 141.088 136.157 141.11 129.74 141.137H129.6V140.996C129.6 140.104 129.6 139.202 129.6 138.283C129.6 137.82 129.6 137.358 129.6 136.891V136.189V135.836V135.493V135.482C129.881 135.2 129.681 135.401 129.74 135.341C138.964 135.363 147.135 135.385 152.197 135.401H152.283V135.482C152.262 137.222 152.245 138.598 152.235 139.571C152.224 140.023 152.218 140.376 152.213 140.637C152.207 140.876 152.202 140.996 152.197 140.99L152.202 141.001Z" fill="#0F0F14"/>
<path d="M74.6843 109.367C74.6085 109.383 73.8715 106.24 73.0424 102.347C72.2079 98.454 71.5955 95.2841 71.6714 95.2678C71.7473 95.2515 72.4842 98.3942 73.3133 102.287C74.1478 106.181 74.7602 109.35 74.6843 109.367Z" fill="#0F0F14"/>
<g opacity="0.3">
<path d="M111.088 158.787L143.141 109.459L138.514 104.973L141.158 101.586L136.032 104.636L139.641 107.681L111.088 158.787Z" fill="black"/>
</g>
<g opacity="0.3">
<path d="M31.9067 160.44V163.18L68.2895 163.3V160.44H31.9067Z" fill="black"/>
</g>
<path d="M76.2448 59.664C78.1739 59.925 80.2169 59.0115 81.3115 57.3966C80.0055 57.5978 78.5966 57.7827 77.4207 57.1791C76.2448 56.5756 75.5783 54.8356 76.4995 53.8895C77.2202 53.1501 78.4069 53.2751 79.4365 53.199C81.8317 53.025 84.0481 51.3177 84.8392 49.0394C85.7117 46.5274 84.9151 43.7924 84.6008 41.1498C83.6904 33.4886 87.3211 25.4577 93.6667 21.1023L110.146 11.5435C116.123 19.2156 117.987 29.5629 116.746 39.2196C115.505 48.8763 111.425 57.9567 106.515 66.3628C105.084 68.8096 103.562 71.2401 101.546 73.2248C99.53 75.2148 96.9506 76.7427 94.1382 77.0363C93.3958 74.7146 93.8672 72.0394 95.3574 70.12C90.903 70.4028 86.362 68.7716 83.1052 65.7158C84.2811 64.8077 85.457 63.9051 86.6383 62.9971C82.9155 63.4973 78.9976 62.2413 76.2556 59.664H76.2448Z" fill="#0F0F14"/>
<path d="M139.701 32.6948C139.408 25.7839 135.122 20.004 128.494 18.1009L107.837 12.1797C98.8742 10.9454 92.5503 21.8744 91.705 30.9168C90.7675 40.9595 90.0576 51.5678 91.0168 59.1094C92.9459 74.2796 104.418 76.5578 104.418 76.5578C104.418 76.5361 104.033 90.2328 103.919 94.6424L114.427 116.685L134.786 88.4874L139.749 32.8796C139.76 32.6241 139.717 33.0373 139.701 32.6948Z" fill="#DBA68F"/>
<path d="M95.677 43.4281C95.612 44.4503 96.414 45.3475 97.4761 45.4399C98.5328 45.5323 99.4486 44.7766 99.5191 43.7543C99.5841 42.7321 98.7821 41.8349 97.72 41.7425C96.6579 41.6501 95.7421 42.4059 95.677 43.4281Z" fill="#0F0F14"/>
<path d="M93.7966 36.8978C94.0296 37.1588 95.5252 36.1149 97.6007 36.1856C99.6761 36.2236 101.166 37.3437 101.399 37.0936C101.513 36.9848 101.286 36.5227 100.635 36.017C99.9958 35.5168 98.8958 35.0111 97.6061 34.9785C96.311 34.9458 95.2109 35.3917 94.5715 35.8593C93.9158 36.3324 93.6882 36.7837 93.802 36.8978H93.7966Z" fill="#0F0F14"/>
<path d="M113.235 43.4281C113.17 44.4503 113.972 45.3475 115.034 45.4399C116.09 45.5269 117.006 44.7766 117.077 43.7543C117.142 42.7321 116.34 41.8349 115.278 41.7425C114.215 41.6501 113.3 42.4059 113.235 43.4281Z" fill="#0F0F14"/>
<path d="M113.516 37.4579C113.749 37.7189 115.245 36.6803 117.321 36.7456C119.396 36.7837 120.886 37.9037 121.119 37.6536C121.233 37.5449 121.005 37.0827 120.355 36.577C119.716 36.0714 118.616 35.5711 117.326 35.5331C116.031 35.5004 114.931 35.9463 114.291 36.4139C113.641 36.887 113.408 37.3383 113.522 37.4524L113.516 37.4579Z" fill="#0F0F14"/>
<path d="M106.558 53.6394C106.569 53.5198 105.29 53.2588 103.204 52.9271C102.678 52.8564 102.174 52.7368 102.098 52.3671C101.985 51.981 102.223 51.4101 102.499 50.8011C103.036 49.5288 103.599 48.1966 104.19 46.7992C106.542 41.1009 108.265 36.403 108.037 36.3106C107.81 36.2182 105.713 40.7638 103.361 46.4621C102.792 47.8704 102.25 49.208 101.735 50.4912C101.519 51.0893 101.15 51.7635 101.394 52.5683C101.524 52.9706 101.903 53.2697 102.239 53.373C102.575 53.4872 102.873 53.5035 103.133 53.5252C105.236 53.7047 106.542 53.7536 106.553 53.634L106.558 53.6394Z" fill="#0F0F14"/>
<path d="M124.528 71.7567C124.528 71.7567 119.336 81.9843 104.32 80.1084L104.418 76.5578C104.418 76.5578 114.313 77.4931 124.528 71.7567Z" fill="#7C5142"/>
<path d="M114.383 30.7373C114.573 31.3082 116.654 31.1071 119.076 31.4768C121.509 31.7976 123.454 32.5752 123.79 32.0749C123.942 31.8357 123.617 31.2919 122.837 30.721C122.067 30.1501 120.826 29.59 119.369 29.3834C117.911 29.1768 116.567 29.3671 115.667 29.7042C114.762 30.0359 114.296 30.4709 114.378 30.7428L114.383 30.7373Z" fill="#0F0F14"/>
<path d="M94.6581 30.5416C95.0104 31.0255 96.4518 30.5796 98.175 30.6068C99.8982 30.5742 101.34 31.0201 101.692 30.5361C101.844 30.3023 101.632 29.8184 101.009 29.3508C100.397 28.8832 99.3564 28.4863 98.175 28.4863C96.9937 28.4863 95.9533 28.8832 95.3409 29.3508C94.7177 29.8184 94.501 30.2969 94.6581 30.5361V30.5416Z" fill="#0F0F14"/>
<path d="M114.351 57.7066C114.112 56.456 112.872 55.4718 111.609 55.5642C110.682 55.6295 109.826 56.233 109.387 57.0541C108.943 57.8751 108.899 58.881 109.187 59.7673L109.225 59.9631C110.048 60.9309 111.511 61.3006 112.676 60.8058C113.841 60.3056 114.589 58.9517 114.351 57.7066Z" fill="#7C5142"/>
<path d="M107.718 59.9685C107.723 59.6531 109.821 59.8108 111.452 58.1307C113.088 56.4506 113.023 54.1886 113.321 54.194C113.457 54.1777 113.69 54.7269 113.641 55.673C113.598 56.6028 113.197 57.9349 112.199 58.968C111.202 59.9957 109.945 60.3709 109.078 60.3763C108.195 60.3872 107.696 60.1099 107.718 59.9685Z" fill="#0F0F14"/>
<path d="M132.754 8.64538C130.429 4.94255 124.94 1.07116 120.642 0.320805C115.744 -0.538295 112.79 0.304493 109.571 3.25697C109.571 3.25697 107.063 5.68203 104.716 6.1442C102.364 6.60094 100.403 6.21489 97.6011 7.65035C93.7753 9.61323 92.0954 14.7515 90.318 18.6827C88.1125 23.5655 84.9695 28.0621 83.5335 33.2276C82.0974 38.3931 82.8615 44.7385 87.1967 47.8704C86.4543 43.912 85.8311 39.5621 87.4568 35.9789C87.2725 37.4198 87.3105 38.8607 87.7169 40.2635C88.5297 37.9418 89.3859 35.5439 91.0658 33.7496C92.6536 32.0586 94.8428 31.0472 96.4793 29.3997C98.8799 26.9801 99.9854 23.299 102.901 21.5428C105.935 19.7158 109.772 20.6293 113.311 20.6456C119.25 20.6728 125.14 17.8291 128.82 13.1475L127.942 13.0714C129.535 11.9785 131.139 10.5376 132.754 8.64538Z" fill="#0F0F14"/>
<path d="M154.884 45.5758C153.535 41.1335 151.162 37.0718 149.677 32.673C148.23 28.3884 147.634 23.8101 145.715 19.7213C143.136 14.2187 138.308 7.0903 130.792 7.48179L130.277 7.93309C127.719 7.63947 125.107 7.91678 122.701 8.84113L122.587 14.7189L121.146 15.9912C121.747 17.1603 122.322 18.2858 122.875 19.395C123.357 21.5971 123.92 23.7884 124.793 25.8655C125.649 27.899 126.83 29.8293 128.402 31.3681C141.353 62.4751 129.605 64.4434 135.441 82.2725L139.11 72.0666C142.242 70.2614 144.805 67.4883 146.366 64.2205C146.583 65.2971 146.799 66.3791 147.011 67.4557C149.964 64.3401 151.79 60.1642 152.067 55.8687C152.63 56.9018 153.188 57.9404 153.752 58.9735C156.418 55.1782 156.228 50.0182 154.879 45.5758H154.884Z" fill="#0F0F14"/>
<path d="M132.792 44.4449C132.992 43.9392 142.356 40.8508 142.193 50.7359C142.042 60.3382 132.439 58.1742 132.428 57.8969C132.418 57.6196 132.792 44.4449 132.792 44.4449Z" fill="#DBA68F"/>
<path d="M135.452 54.3137C135.495 54.2865 135.615 54.4333 135.896 54.5692C136.167 54.6997 136.639 54.7976 137.143 54.6181C138.162 54.2647 139.045 52.6716 139.121 50.9425C139.164 50.0671 138.996 49.2352 138.698 48.5392C138.422 47.8323 137.977 47.3321 137.468 47.2288C136.964 47.1037 136.595 47.3974 136.476 47.6692C136.341 47.9356 136.4 48.126 136.346 48.1423C136.319 48.164 136.146 47.9792 136.227 47.5822C136.27 47.3919 136.384 47.169 136.617 46.9896C136.85 46.8047 137.192 46.7177 137.544 46.7612C138.281 46.8264 138.931 47.5224 139.256 48.2836C139.619 49.0503 139.831 49.991 139.782 50.9697C139.684 52.9054 138.66 54.6943 137.273 55.0694C136.595 55.2326 136.037 55.0205 135.756 54.7867C135.463 54.542 135.42 54.33 135.452 54.3137Z" fill="#7C5142"/>
<path d="M136.487 56.0373C137.425 55.8905 138.416 56.5701 138.617 57.4999C138.823 58.4297 138.211 59.4628 137.295 59.7238C136.384 59.9848 135.317 59.4356 134.997 58.5385C134.677 57.6413 135.16 56.5375 136.032 56.1623" fill="white"/>
<path d="M136.037 56.1678C136.092 56.2276 135.403 56.4831 135.138 57.4347C135.013 57.886 135.056 58.495 135.468 58.9517C135.858 59.4084 136.574 59.7021 137.235 59.5172C137.896 59.3214 138.346 58.6907 138.438 58.098C138.546 57.4945 138.259 56.9562 137.918 56.6354C137.192 55.972 136.476 56.1188 136.487 56.0427C136.487 56.021 136.639 55.9503 136.937 55.9503C137.235 55.9503 137.685 56.0536 138.118 56.4016C138.546 56.7278 138.947 57.3912 138.839 58.1524C138.747 58.8865 138.221 59.6749 137.36 59.9359C136.493 60.1751 135.631 59.7836 135.165 59.2127C134.666 58.62 134.661 57.8479 134.845 57.3422C135.029 56.8148 135.355 56.4886 135.609 56.3309C135.864 56.1678 136.032 56.146 136.043 56.1678H136.037Z" fill="#0F0F14"/>
<path d="M121.91 18.4054C122.1 18.4815 122.983 15.2246 125.649 12.2069C128.272 9.14563 131.366 7.82979 131.263 7.65036C131.236 7.57967 130.429 7.81348 129.247 8.46052C128.066 9.10757 126.538 10.2277 125.172 11.7882C123.812 13.3541 122.913 15.0288 122.436 16.2903C121.954 17.5572 121.834 18.3891 121.91 18.4054Z" fill="#455A64"/>
<path d="M36.1064 163.18L28.9643 154.758C28.9643 154.758 23.9517 154.758 21.4482 152.371C18.9446 149.984 14.306 147.722 16.1864 143.443C16.1864 143.443 13.9321 140.8 15.7475 137.913L15.8071 137.157C15.8071 137.157 10.1714 134.77 11.7971 131.877C13.4227 128.985 16.5603 130.241 16.5603 130.241C16.5603 130.241 10.4044 126.065 9.2935 124.923C6.32934 121.867 9.51568 119.807 12.8158 121.639C18.2727 124.668 36.7296 133.384 37.9814 139.669V142.41C37.9814 142.41 43.1186 148.722 43.1186 149.098C43.1186 149.473 42.7447 159.282 36.101 163.18H36.1064Z" fill="#DBA68F"/>
<path d="M0.000391093 99.6992C-0.227205 99.4165 28.0272 145.112 28.0272 145.112L29.3115 160.445H73.4L69.3087 142.991C69.3087 142.991 61.6843 122.493 61.771 122.253C61.9389 121.786 47.5083 99.0087 47.5083 99.0087L0.000391093 99.6992Z" fill="white"/>
<path d="M0.000156581 99.6992C0.000156581 99.6992 0.298199 99.6829 0.861769 99.672C1.43618 99.6611 2.27611 99.6448 3.37074 99.6176C5.57625 99.5796 8.80594 99.5198 12.9406 99.4491C21.2099 99.3132 33.0774 99.1228 47.5026 98.889H47.5677L47.6002 98.9434C51.3772 104.919 55.5281 111.466 59.8362 118.545C60.3726 119.431 60.9091 120.328 61.4239 121.242C61.554 121.47 61.6786 121.704 61.7978 121.949C61.8249 122.014 61.8574 122.068 61.8845 122.15C61.8845 122.166 61.9008 122.188 61.9008 122.248C61.8899 122.319 61.9008 122.291 61.9062 122.297L61.917 122.34L62.0363 122.71C62.2097 123.21 62.3831 123.711 62.5565 124.216C63.2826 126.223 64.0196 128.256 64.7674 130.317C66.2847 134.428 67.8399 138.641 69.4277 142.937V142.948V142.959C70.6686 148.255 71.9692 153.806 73.2968 159.456C73.3727 159.776 73.4485 160.097 73.519 160.413L73.5623 160.587H73.3835C57.6957 160.587 42.7719 160.581 29.295 160.576H29.1758L29.1649 160.456C28.7206 155.095 28.2979 149.978 27.8915 145.123L27.9077 145.177C19.4813 131.502 12.4854 120.144 7.5921 112.2C5.15899 108.225 3.25152 105.109 1.94556 102.978C1.3007 101.918 0.80758 101.102 0.471605 100.542C0.309037 100.27 0.184401 100.058 0.0976976 99.9167C0.0164134 99.7753 -0.0269381 99.7046 -0.0215192 99.6992C0.509538 100.553 11.2065 117.806 28.1082 145.047L28.1245 145.068V145.096C28.5363 149.946 28.9698 155.062 29.4196 160.429L29.2896 160.309C42.7665 160.309 57.6903 160.304 73.3781 160.298L73.2426 160.472C73.1668 160.157 73.0963 159.836 73.0205 159.515C71.6982 153.866 70.3977 148.309 69.1568 143.019V143.035C67.5744 138.734 66.0192 134.52 64.5073 130.409C63.7649 128.349 63.0279 126.315 62.3018 124.309C62.1284 123.803 61.955 123.303 61.7816 122.797L61.6623 122.411L61.6461 122.362C61.6407 122.335 61.6353 122.297 61.6353 122.264V122.215C61.5377 122.172 61.7816 122.248 61.722 122.232C61.6949 122.221 61.6732 122.221 61.6461 122.221C61.6082 122.221 61.6407 122.242 61.6298 122.237V122.221C61.6082 122.177 61.5811 122.112 61.554 122.058C61.4402 121.829 61.3155 121.595 61.1855 121.367C60.6707 120.454 60.1342 119.562 59.6031 118.676C55.3113 111.602 51.1658 105.044 47.3997 99.063L47.4972 99.1174C33.0503 99.3077 21.1666 99.46 12.8918 99.5687C8.76801 99.6176 5.53832 99.6503 3.33823 99.6775C2.24902 99.6883 1.40908 99.6938 0.840093 99.6992C0.276523 99.6992 -0.0106813 99.6992 -0.0106813 99.6992H0.000156581Z" fill="#0F0F14"/>
<path d="M57.8255 123.384C57.8255 123.384 57.69 123.401 57.4299 123.401C57.1427 123.401 56.7688 123.401 56.3028 123.401C55.2894 123.379 53.8805 123.357 52.1573 123.324C48.6566 123.243 43.8175 123.112 38.4799 123.025C33.1368 122.944 28.2977 122.949 24.8024 123.058C23.0521 123.107 21.6378 123.178 20.6624 123.232C20.1963 123.259 19.8224 123.281 19.5352 123.297C19.2751 123.308 19.1396 123.308 19.1396 123.297C19.1396 123.286 19.2751 123.265 19.5298 123.237C19.8116 123.205 20.1855 123.167 20.6515 123.118C21.6269 123.031 23.0413 122.922 24.7916 122.851C28.2922 122.688 33.1368 122.656 38.4799 122.732C43.8229 122.819 48.6621 122.982 52.1627 123.112C53.8913 123.183 55.2949 123.237 56.3082 123.281C56.7742 123.303 57.1481 123.324 57.4353 123.341C57.6954 123.357 57.8255 123.368 57.8255 123.379V123.384Z" fill="#0F0F14"/>
<path d="M63.2447 143.736C63.2339 143.812 57.0021 143.133 49.318 142.208C41.634 141.289 35.413 140.479 35.4238 140.403C35.4347 140.327 41.6665 141.007 49.3505 141.931C57.0292 142.85 63.2501 143.66 63.2447 143.736Z" fill="#0F0F14"/>
<path d="M22.624 146.825C25.3714 146.651 28.1243 146.471 30.8717 146.297C31.7387 146.243 32.6924 146.15 33.2939 145.52C34.0472 144.737 33.6787 142.97 32.7304 142.448L23.2797 140.164" fill="#DBA68F"/>
<path d="M23.2798 140.164C23.2798 140.164 23.5399 140.191 24.0113 140.289C24.5207 140.403 25.1927 140.55 26.0055 140.729C27.745 141.137 30.0914 141.686 32.7629 142.312H32.7846L32.8008 142.323C33.1585 142.529 33.4294 142.866 33.592 143.236C33.76 143.611 33.8521 144.024 33.8359 144.443C33.825 144.878 33.6787 145.346 33.3482 145.656C33.0339 145.96 32.6329 146.14 32.2373 146.243C31.4407 146.439 30.682 146.422 29.9667 146.477C28.5416 146.558 27.2464 146.629 26.1464 146.689C25.0951 146.738 24.2227 146.776 23.567 146.808C22.96 146.83 22.6187 146.836 22.6187 146.808C22.6187 146.787 22.9546 146.749 23.5615 146.694C24.2172 146.64 25.0843 146.569 26.1355 146.482C27.2356 146.401 28.5253 146.308 29.9505 146.21C30.6658 146.145 31.4353 146.156 32.1668 145.971C32.5299 145.873 32.8821 145.715 33.1531 145.449C33.4186 145.199 33.5432 144.818 33.5541 144.427C33.5758 143.687 33.2506 142.899 32.6654 142.556L32.6979 142.567C30.0372 141.904 27.6962 141.322 25.9621 140.887C25.1547 140.675 24.4936 140.501 23.9842 140.365C23.5236 140.24 23.2743 140.158 23.2743 140.142L23.2798 140.164Z" fill="#7C5142"/>
<path d="M26.4444 137.195C28.9696 137.647 31.3702 138.353 33.7708 139.267C34.692 139.615 34.9467 140.338 34.8546 141.165C34.8112 141.567 34.6541 141.964 34.3127 142.176C33.9713 142.393 33.5595 142.459 33.1585 142.497C30.785 142.725 28.509 142.399 26.1463 142.067C23.7837 141.735 20.5106 142.067 19.1396 142.79" fill="#DBA68F"/>
<path d="M19.1396 142.79C19.1396 142.79 19.2155 142.736 19.3727 142.649C19.5352 142.573 19.7791 142.469 20.0988 142.366C20.7437 142.165 21.7082 141.969 22.9167 141.877C23.5182 141.833 24.1793 141.811 24.8946 141.833C25.6099 141.85 26.3631 141.964 27.1488 142.067C28.7203 142.268 30.4544 142.48 32.2752 142.41C32.7249 142.382 33.1856 142.366 33.6028 142.29C34.0201 142.208 34.4102 142.034 34.5728 141.676C34.8817 140.958 34.7733 139.985 34.1339 139.593C33.8358 139.386 33.4457 139.289 33.0989 139.147C32.7466 139.022 32.4052 138.897 32.0693 138.777C31.4027 138.544 30.7795 138.348 30.2051 138.174C29.0563 137.831 28.1134 137.598 27.4577 137.445C26.802 137.293 26.439 137.211 26.4444 137.195C26.4444 137.184 26.5365 137.195 26.7153 137.217C26.8887 137.239 27.1488 137.282 27.4794 137.342C28.1405 137.462 29.0943 137.663 30.2593 137.984C30.8392 138.147 31.4732 138.337 32.1451 138.554C32.4811 138.669 32.8279 138.788 33.1856 138.913C33.5324 139.055 33.9171 139.142 34.2802 139.381C34.6433 139.615 34.9088 140.023 34.9792 140.468C35.0443 140.909 35.028 141.366 34.8221 141.806C34.7191 142.018 34.5403 142.219 34.3235 142.333C34.1122 142.453 33.8846 142.524 33.657 142.567C33.1964 142.654 32.7466 142.671 32.286 142.698C30.4382 142.774 28.6878 142.551 27.1109 142.333C26.3198 142.219 25.5828 142.105 24.8837 142.078C24.1847 142.04 23.529 142.051 22.9329 142.083C21.7407 142.149 20.7816 142.312 20.1367 142.475C19.4865 142.638 19.1613 142.817 19.1451 142.79H19.1396Z" fill="#7C5142"/>
<path d="M16.9837 130.333C19.1512 131.546 21.3188 132.758 23.4864 133.971C24.4672 134.52 25.4914 135.113 26.0821 136.075C26.6727 137.037 26.6185 138.489 25.6811 139.109C24.9441 139.593 23.9687 139.414 23.1125 139.196C20.6848 138.582 18.295 137.815 15.9595 136.918" fill="#DBA68F"/>
<path d="M15.9536 136.913C15.9536 136.913 16.2842 137 16.8694 137.201C17.4547 137.396 18.2946 137.685 19.3459 138.005C20.3971 138.332 21.6543 138.696 23.0633 139.044C23.7569 139.213 24.5264 139.397 25.2363 139.169C25.5831 139.055 25.8865 138.81 26.0762 138.484C26.2659 138.158 26.3417 137.755 26.3255 137.358C26.3038 136.548 25.854 135.841 25.2796 135.33C24.7106 134.808 24.0441 134.439 23.4101 134.08C22.1529 133.362 21.0203 132.715 20.0503 132.166C19.1291 131.627 18.3705 131.187 17.7961 130.855C17.265 130.54 16.9778 130.355 16.9886 130.339C16.9995 130.322 17.3029 130.469 17.8502 130.757C18.4355 131.073 19.2104 131.486 20.1479 131.992C21.1287 132.53 22.2721 133.161 23.5401 133.857C24.1742 134.21 24.8624 134.585 25.4693 135.135C25.7673 135.406 26.0491 135.727 26.2604 136.102C26.4718 136.478 26.591 136.913 26.6127 137.353C26.6344 137.793 26.5477 138.245 26.3255 138.631C26.1087 139.017 25.7348 139.31 25.3338 139.441C24.5101 139.702 23.7081 139.484 23.0091 139.31C21.6002 138.941 20.343 138.56 19.2971 138.207C18.2512 137.859 17.4167 137.543 16.8423 137.315C16.5551 137.201 16.3329 137.108 16.1866 137.043C16.0403 136.978 15.9645 136.94 15.9645 136.929L15.9536 136.913Z" fill="#7C5142"/>
<path d="M171.548 175.545L168.459 174.669L158.64 173.75L155.893 170.086L157.805 162.18L170.079 159.249C175.748 163.294 174.219 170.037 171.553 175.545H171.548Z" fill="#DBA68F"/>
<path d="M142.99 155.704C141.987 155.606 140.481 155.601 139.543 155.976C138.102 156.552 137.007 158.02 136.812 159.564C136.492 162.098 136.395 164.153 136.216 166.513C136.167 167.117 136.438 167.748 136.861 168.183C137.63 168.976 139.039 168.71 139.836 167.943C140.633 167.177 140.99 166.078 141.375 165.04C141.76 164.001 142.166 161.516 142.768 161.299C144.475 160.679 146.805 163.637 148.089 162.185L150.419 156.476C146.805 156.123 146.604 156.057 142.99 155.704Z" fill="#DBA68F"/>
<path d="M142.99 155.704C142.99 155.704 143.033 155.698 143.12 155.704C143.223 155.709 143.353 155.72 143.504 155.726C143.868 155.758 144.361 155.796 144.984 155.851C146.295 155.976 148.143 156.155 150.419 156.373L150.555 156.384L150.5 156.514C149.828 158.178 149.048 160.114 148.192 162.229V162.25L148.17 162.267C147.905 162.577 147.46 162.751 147.048 162.707C146.637 162.669 146.257 162.522 145.894 162.359C145.174 162.027 144.474 161.593 143.705 161.408L143.418 161.359H143.131C143.033 161.364 142.946 161.402 142.854 161.419C142.757 161.435 142.73 161.478 142.665 161.544C142.442 161.837 142.307 162.261 142.182 162.658C141.928 163.474 141.765 164.333 141.456 165.181C141.174 165.942 140.909 166.72 140.454 167.4C140.226 167.737 139.955 168.047 139.619 168.291C139.283 168.525 138.904 168.688 138.508 168.759C138.113 168.83 137.695 168.808 137.316 168.656C136.937 168.498 136.639 168.193 136.438 167.873C136.232 167.541 136.102 167.166 136.081 166.78C136.07 166.383 136.124 166.057 136.146 165.692C136.249 164.289 136.341 162.952 136.465 161.701C136.525 161.076 136.59 160.472 136.666 159.896C136.72 159.32 136.855 158.743 137.094 158.254C137.554 157.264 138.286 156.547 139.039 156.133C139.798 155.704 140.562 155.649 141.153 155.611C141.749 155.584 142.215 155.611 142.524 155.639C142.681 155.655 142.8 155.666 142.876 155.677C142.957 155.688 142.995 155.698 142.995 155.704C142.995 155.715 142.833 155.704 142.518 155.698C142.204 155.693 141.743 155.682 141.158 155.726C140.578 155.78 139.836 155.851 139.115 156.275C138.4 156.683 137.701 157.389 137.273 158.341C137.051 158.819 136.931 159.347 136.883 159.923C136.818 160.5 136.758 161.103 136.698 161.723C136.584 162.968 136.503 164.306 136.406 165.709C136.389 166.051 136.335 166.432 136.346 166.758C136.368 167.095 136.482 167.427 136.671 167.72C136.855 168.014 137.11 168.27 137.424 168.395C137.744 168.525 138.107 168.547 138.465 168.482C139.186 168.357 139.82 167.889 140.231 167.242C140.66 166.6 140.925 165.844 141.207 165.083C141.499 164.268 141.667 163.403 141.928 162.571C142.063 162.158 142.182 161.745 142.464 161.359C142.513 161.315 142.54 161.261 142.605 161.228C142.67 161.185 142.73 161.152 142.784 161.147C142.898 161.125 143.006 161.087 143.12 161.081C143.234 161.081 143.347 161.081 143.456 161.081L143.781 161.136C144.621 161.348 145.314 161.794 146.019 162.114C146.371 162.278 146.729 162.414 147.081 162.446C147.433 162.484 147.758 162.354 147.991 162.098L147.97 162.136C148.842 160.021 149.639 158.096 150.327 156.438L150.414 156.579C148.121 156.345 146.268 156.112 144.984 155.965C144.361 155.889 143.873 155.829 143.51 155.785C143.358 155.764 143.228 155.747 143.125 155.731C143.038 155.72 142.995 155.709 142.995 155.704H142.99Z" fill="#7C5142"/>
<path d="M163.695 156.427C163.695 156.427 162.476 156.046 160.829 157.248C160.829 157.248 160.211 154.529 158.049 153.997C156.477 153.61 154.483 155.225 154.483 155.225C154.483 155.225 153.128 152.507 149.514 153.638C146.523 154.573 140.253 173.179 139.711 174.43C139.093 175.86 141.629 177.649 143.027 176.208C144.496 174.697 149.422 166.432 149.422 166.432L146.143 178.024C146.057 178.405 146.067 178.796 146.176 179.171C146.528 180.351 148.842 181.732 150.473 179.509C152.505 176.746 154.575 171.048 154.575 171.048L156.575 166.676C156.575 166.676 152.846 178.258 154.201 179.313C155.556 180.368 157.295 179.96 158.536 177.241C159.777 174.523 164.297 165.91 164.297 165.91L166.443 164.779L165.651 167.497C165.651 167.497 161.544 169.651 162.465 171.575C163.386 173.5 165.326 172.929 167.228 172.027C169.13 171.124 170.789 166.649 171.802 164.811C172.712 163.164 172.799 158.325 168.903 158.14C168.068 158.102 167.261 158.439 166.67 159.032L166.475 159.227C166.475 159.227 165.836 156.813 163.679 156.432L163.695 156.427Z" fill="#DBA68F"/>
<path d="M163.695 156.427C163.695 156.427 163.782 156.438 163.956 156.476C164.042 156.492 164.145 156.525 164.27 156.574C164.395 156.612 164.535 156.683 164.687 156.764C165.294 157.09 166.112 157.873 166.535 159.211L166.459 159.189C166.909 158.684 167.586 158.194 168.459 158.096C169.309 158.036 170.312 158.221 171.103 158.912C171.889 159.602 172.306 160.723 172.387 161.897C172.425 162.49 172.398 163.104 172.274 163.719C172.209 164.028 172.122 164.338 171.986 164.637C171.851 164.942 171.688 165.208 171.548 165.513C170.968 166.693 170.415 167.971 169.705 169.248C169.347 169.884 168.957 170.526 168.459 171.119C168.215 171.418 167.928 171.69 167.603 171.923C167.256 172.146 166.898 172.288 166.53 172.451C165.793 172.745 164.996 173.027 164.134 172.946C163.706 172.902 163.278 172.723 162.958 172.424C162.796 172.277 162.66 172.097 162.541 171.913L162.379 171.624C162.341 171.516 162.308 171.407 162.27 171.298C162.167 170.841 162.308 170.374 162.53 169.982C162.753 169.585 163.067 169.265 163.387 168.949C164.048 168.34 164.796 167.829 165.603 167.383L165.543 167.454C165.787 166.617 166.058 165.681 166.329 164.735L166.497 164.877C165.836 165.225 165.099 165.616 164.351 166.013L164.4 165.964C163.332 168.036 162.222 170.184 161.078 172.397C160.52 173.511 159.951 174.637 159.377 175.784C159.1 176.36 158.818 176.942 158.537 177.529C158.244 178.122 157.886 178.693 157.404 179.171C156.927 179.65 156.261 180.009 155.54 179.982C155.182 179.965 154.841 179.857 154.532 179.688C154.375 179.606 154.234 179.509 154.088 179.394C153.925 179.242 153.871 179.052 153.828 178.878C153.698 178.171 153.784 177.486 153.865 176.806C153.958 176.127 154.082 175.447 154.223 174.773C154.803 172.07 155.578 169.368 156.434 166.638L156.694 166.742C156.06 168.123 155.383 169.613 154.695 171.113V171.102C154.245 172.331 153.708 173.631 153.134 174.919C152.706 175.871 152.251 176.806 151.752 177.714C151.503 178.166 151.237 178.611 150.956 179.046C150.657 179.465 150.381 179.922 149.953 180.253C149.541 180.591 149.016 180.814 148.474 180.83C147.932 180.841 147.406 180.661 146.967 180.373C146.534 180.079 146.154 179.661 146.008 179.128C145.943 178.867 145.921 178.601 145.943 178.334C145.959 178.062 146.051 177.818 146.116 177.584C147.2 173.745 148.262 170.01 149.281 166.399L149.525 166.508C148.273 168.596 147.021 170.624 145.759 172.581C145.125 173.56 144.491 174.517 143.813 175.436C143.461 175.876 143.147 176.382 142.6 176.67C142.063 176.964 141.413 176.899 140.887 176.687C140.356 176.464 139.895 176.067 139.635 175.545C139.511 175.278 139.462 174.979 139.5 174.68C139.576 174.376 139.684 174.158 139.776 173.897C140.145 172.891 140.508 171.902 140.865 170.923C141.581 168.976 142.296 167.095 143.011 165.301C143.727 163.506 144.442 161.794 145.179 160.173C145.921 158.558 146.664 157.031 147.52 155.66C147.953 154.986 148.398 154.317 149.01 153.828C149.156 153.697 149.352 153.616 149.53 153.551C149.715 153.502 149.893 153.458 150.072 153.409C150.435 153.339 150.804 153.29 151.167 153.295C152.63 153.262 153.931 154.1 154.537 155.204L154.429 155.182C155.193 154.611 155.984 154.181 156.797 153.98C157.198 153.882 157.61 153.855 157.995 153.942C158.369 154.035 158.715 154.176 159.008 154.383C159.604 154.769 159.989 155.312 160.282 155.807C160.563 156.318 160.748 156.802 160.861 157.253L160.802 157.232C161.663 156.606 162.449 156.405 162.948 156.373C163.457 156.34 163.69 156.438 163.69 156.438C163.69 156.438 163.63 156.427 163.511 156.411C163.392 156.4 163.202 156.384 162.953 156.411C162.46 156.454 161.696 156.661 160.845 157.292L160.802 157.324L160.785 157.27C160.672 156.835 160.482 156.351 160.2 155.851C159.908 155.367 159.523 154.839 158.943 154.47C158.661 154.274 158.325 154.143 157.968 154.056C157.61 153.98 157.214 154.007 156.824 154.1C156.044 154.296 155.258 154.725 154.521 155.291L154.456 155.34L154.413 155.263C153.828 154.219 152.576 153.415 151.172 153.458C150.825 153.458 150.468 153.507 150.116 153.578C149.942 153.621 149.763 153.67 149.585 153.714C149.417 153.779 149.259 153.844 149.118 153.969C148.544 154.426 148.1 155.089 147.677 155.758C146.837 157.118 146.1 158.645 145.369 160.255C144.642 161.87 143.927 163.583 143.223 165.382C142.513 167.177 141.808 169.053 141.093 171.005C140.741 171.978 140.378 172.973 140.015 173.979C139.928 174.229 139.809 174.495 139.755 174.718C139.727 174.957 139.76 175.208 139.868 175.436C140.091 175.887 140.513 176.252 140.996 176.453C141.472 176.643 142.041 176.697 142.497 176.442C142.952 176.208 143.271 175.719 143.618 175.284C144.285 174.376 144.919 173.413 145.547 172.44C146.805 170.488 148.051 168.454 149.303 166.372L149.823 165.502L149.547 166.475C148.528 170.08 147.477 173.821 146.393 177.654C146.328 177.899 146.246 178.127 146.23 178.361C146.209 178.595 146.23 178.834 146.29 179.057C146.409 179.498 146.74 179.878 147.135 180.139C147.531 180.4 148.002 180.558 148.479 180.547C148.956 180.536 149.411 180.34 149.785 180.036C150.17 179.737 150.435 179.307 150.728 178.894C151.004 178.465 151.264 178.03 151.514 177.578C152.007 176.681 152.457 175.751 152.885 174.805C153.459 173.522 153.99 172.228 154.445 171.005V170.994C155.134 169.493 155.811 168.003 156.445 166.622L156.705 166.725C155.854 169.444 155.079 172.146 154.5 174.832C154.359 175.507 154.234 176.175 154.142 176.844C154.061 177.508 153.979 178.198 154.099 178.818C154.131 178.97 154.185 179.117 154.272 179.193C154.386 179.286 154.527 179.384 154.662 179.454C154.938 179.606 155.242 179.699 155.556 179.715C156.179 179.737 156.775 179.427 157.225 178.981C158.146 178.084 158.547 176.801 159.149 175.67C159.729 174.523 160.298 173.392 160.856 172.282C162.005 170.069 163.116 167.927 164.189 165.855L164.205 165.823L164.237 165.806C164.985 165.415 165.728 165.023 166.383 164.675L166.633 164.545L166.551 164.817C166.275 165.763 166.004 166.698 165.76 167.536L165.749 167.584L165.706 167.606C164.92 168.036 164.178 168.541 163.538 169.129C163.229 169.428 162.926 169.743 162.72 170.107C162.514 170.466 162.395 170.874 162.476 171.26C162.688 172.032 163.359 172.69 164.151 172.745C164.942 172.821 165.722 172.554 166.448 172.271C166.806 172.119 167.18 171.967 167.483 171.771C167.787 171.554 168.063 171.293 168.302 171.005C168.784 170.428 169.174 169.797 169.532 169.167C170.242 167.905 170.8 166.633 171.39 165.448C171.526 165.154 171.705 164.86 171.829 164.583C171.959 164.3 172.046 163.996 172.111 163.697C172.236 163.093 172.268 162.495 172.23 161.919C172.154 160.771 171.753 159.689 171.006 159.021C170.258 158.357 169.277 158.172 168.459 158.221C167.619 158.314 166.963 158.771 166.513 159.271L166.465 159.325L166.443 159.249C166.036 157.939 165.245 157.15 164.655 156.819C164.048 156.481 163.679 156.465 163.685 156.443L163.695 156.427Z" fill="#7C5142"/>
<path d="M158.612 161.016C158.694 161.032 158.347 162.702 157.577 164.643C157.203 165.616 156.835 166.481 156.558 167.106C156.282 167.731 156.103 168.112 156.065 168.096C155.984 168.063 156.553 166.475 157.312 164.545C157.686 163.577 158.005 162.696 158.222 162.055C158.439 161.413 158.569 161.011 158.607 161.022L158.612 161.016Z" fill="#7C5142"/>
<path d="M152.202 159.847C152.278 159.885 151.589 161.408 150.825 163.316C150.078 165.236 149.411 166.774 149.33 166.742C149.292 166.725 149.422 166.328 149.644 165.687C149.866 165.051 150.181 164.17 150.565 163.207C150.95 162.245 151.34 161.397 151.644 160.793C151.947 160.19 152.164 159.831 152.202 159.847Z" fill="#7C5142"/>
</g>
<defs>
<clipPath id="clip0_165_10429">
<rect width="212" height="219" fill="white"/>
</clipPath>
</defs>
</svg>
