<svg width="543" height="427" viewBox="0 0 543 427" fill="none" xmlns="http://www.w3.org/2000/svg">
<path d="M267.151 241.021C268.217 242.183 259.597 256.16 256.125 264.963C252.653 273.779 235.389 314.716 220.699 314.979C206.021 315.243 194.804 308.572 185.202 294.954C175.588 281.336 159.582 209.234 159.582 209.234L185.741 183.065L215.898 268.245C215.898 268.245 240.262 238.015 245.158 234.698C250.055 231.392 267.139 240.997 267.139 240.997L267.151 241.021Z" fill="#AE7461"/>
<path d="M23.0634 370.54L29.672 321.327L167.1 325.195C167.1 325.195 179.06 396.638 178.45 426.341H99.0145L98.356 416.388L94.1179 417.311C94.1179 417.311 93.1362 421.299 92.0108 426.341L14.9582 426.485L23.0634 370.528V370.54Z" fill="#0F0F14"/>
<path d="M165.029 240.518L205.063 226.865C205.063 226.865 183.107 140.007 152.458 140.007L165.029 240.518Z" fill="#0C756F"/>
<path d="M35.8497 266.64L40.6026 136.594C48.0972 133.168 80.1944 129.048 80.1944 129.048L121.953 134.929L156.732 140.894L166.058 229.715L169.985 352.563C125.293 369.067 70.7604 363.51 22.8001 351.306L35.8377 266.64H35.8497Z" fill="#0C756F"/>
<g opacity="0.3">
<path d="M115.177 192.203C115.177 192.203 91.8431 241.848 71.1672 260.28C50.4794 278.725 33.3713 282.737 33.3713 282.737L35.8495 266.628L115.177 192.191V192.203Z" fill="#0F0F14"/>
</g>
<path d="M164.933 174.477C164.765 174.477 165.173 188.059 165.843 204.791C166.513 221.535 167.208 235.093 167.375 235.081C167.543 235.069 167.136 221.499 166.466 204.767C165.795 188.035 165.101 174.465 164.933 174.477Z" fill="#0F0F14"/>
<path d="M48.7793 134.33C48.7793 134.33 11.7854 137.636 6.86488 176.226C4.59018 194.071 0.375973 222.241 0.375973 222.241L36.7114 225.415L41.7277 221.702C44.5172 213.366 49.354 196.191 48.6716 195.58C47.7497 194.754 48.7793 134.342 48.7793 134.342V134.33Z" fill="#0C756F"/>
<path d="M128.442 303.397C128.442 303.397 127.891 302.906 126.826 302.128C125.76 301.337 124.204 300.235 122.252 298.906C118.349 296.247 112.842 292.714 106.581 289.133C100.319 285.552 94.477 282.605 90.2029 280.593C88.0599 279.587 86.324 278.797 85.1028 278.282C83.8817 277.767 83.2112 277.491 83.1873 277.539C83.1753 277.575 83.8218 277.922 84.995 278.509C86.2761 279.144 87.9641 279.982 89.9994 280.988C94.2256 283.096 100.008 286.103 106.258 289.672C112.507 293.241 118.038 296.702 121.989 299.265C123.904 300.511 125.473 301.541 126.67 302.319C127.771 303.038 128.394 303.421 128.418 303.385L128.442 303.397Z" fill="#0F0F14"/>
<path d="M107.682 296.391C107.718 296.319 106.677 295.589 104.893 294.583C103.097 293.565 100.547 292.307 97.6136 291.193C94.6685 290.079 91.9269 289.325 89.9156 288.893C87.9042 288.462 86.6352 288.319 86.6232 288.39C86.6113 288.486 87.8444 288.774 89.8078 289.325C91.7832 289.864 94.4769 290.678 97.3862 291.78C100.295 292.894 102.857 294.068 104.689 294.978C106.521 295.888 107.634 296.475 107.682 296.403V296.391Z" fill="#0F0F14"/>
<path d="M43.7152 220.373C43.8829 220.373 43.416 208.683 42.6497 194.275C41.8835 179.867 41.1293 168.201 40.9617 168.213C40.7941 168.213 41.261 179.903 42.0272 194.311C42.7814 208.707 43.5476 220.385 43.7152 220.373Z" fill="#0F0F14"/>
<path d="M160.599 58.1444C165.029 59.953 170.62 58.2642 173.314 54.3118C174.128 53.1141 174.69 51.7008 174.583 50.2636C174.475 48.8263 173.553 47.4011 172.176 46.9819C174.367 46.1674 176.271 44.5266 177.193 42.3827C178.103 40.2388 177.911 37.6039 176.51 35.7355C175.11 33.8671 172.476 32.9568 170.285 33.7593C170.943 31.3279 170.057 28.5493 168.118 26.9443L157.594 26.7288L160.611 58.1444H160.599Z" fill="#0F0F14"/>
<path d="M124.935 136.33L126.766 129.192C126.766 129.192 148.436 131.037 153.787 110.221C156.373 100.16 160.001 79.0205 163.066 59.8573C166.358 39.2449 153.285 19.5547 133.016 14.6202L131.004 14.1291C108.976 10.1049 93.2444 26.5612 89.8323 48.7067L78.5426 129.827L111.777 154.823L124.935 136.33Z" fill="#AE7461"/>
<path d="M126.766 129.192C126.766 129.192 113.333 127.084 100.954 116.76C100.954 116.76 104.115 131.3 125.401 134.498L126.766 129.18V129.192Z" fill="#6F4439"/>
<path d="M152.207 80.2302C151.884 81.8231 150.267 82.8532 148.603 82.5418C146.939 82.2304 145.862 80.6973 146.185 79.1044C146.508 77.5114 148.124 76.4814 149.789 76.7928C151.453 77.1042 152.542 78.6492 152.207 80.2302Z" fill="#0F0F14"/>
<path d="M156.086 68.9718C155.619 69.2712 153.775 67.0435 150.555 66.277C147.358 65.4625 144.605 66.5405 144.353 66.0614C144.222 65.8458 144.772 65.235 145.982 64.7439C147.167 64.2409 149.07 63.9415 151.07 64.4325C153.069 64.9355 154.566 66.0734 155.344 67.0675C156.146 68.0616 156.314 68.852 156.086 68.9838V68.9718Z" fill="#0F0F14"/>
<path d="M124.887 74.0979C124.563 75.6908 122.947 76.7208 121.283 76.4094C119.619 76.098 118.541 74.565 118.865 72.972C119.188 71.3791 120.804 70.3491 122.468 70.6605C124.132 70.9719 125.222 72.5169 124.887 74.0979Z" fill="#0F0F14"/>
<path d="M124.408 61.8812C123.941 62.1807 122.085 59.9529 118.877 59.1864C115.68 58.372 112.927 59.4499 112.675 58.9708C112.543 58.7552 113.094 58.1444 114.303 57.6534C115.489 57.1503 117.392 56.8509 119.392 57.3419C121.391 57.845 122.887 58.9828 123.678 59.9769C124.48 60.971 124.635 61.7615 124.42 61.8932L124.408 61.8812Z" fill="#0F0F14"/>
<path d="M130.25 88.5302C130.274 88.3386 132.357 88.4823 135.685 88.8656C136.524 88.9853 137.338 89.0093 137.613 88.4823C137.948 87.9433 137.828 86.9732 137.661 85.9192C137.374 83.7514 137.074 81.4757 136.763 79.0923C135.566 69.3909 134.907 61.4861 135.302 61.4382C135.697 61.3903 136.978 69.2233 138.176 78.9246C138.451 81.3081 138.714 83.5957 138.966 85.7635C139.05 86.7696 139.325 87.9553 138.607 89.0811C138.236 89.644 137.529 89.9435 136.966 89.9555C136.404 89.9914 135.937 89.8836 135.53 89.8117C132.237 89.1889 130.214 88.7218 130.25 88.5302Z" fill="#0F0F14"/>
<path d="M127.257 57.0427C126.562 57.7015 123.797 55.869 120.109 54.5755C116.458 53.2101 113.154 52.8508 113.046 51.9046C113.01 51.4615 113.872 50.9345 115.392 50.7189C116.901 50.4913 119.056 50.635 121.259 51.4255C123.462 52.228 125.21 53.4975 126.215 54.6354C127.233 55.7732 127.568 56.7313 127.257 57.0427Z" fill="#0F0F14"/>
<path d="M157.175 59.4022C156.433 59.989 154.41 58.6955 151.764 58.0128C149.142 57.2343 146.736 57.3062 146.4 56.4199C146.269 55.9887 146.795 55.3539 147.945 54.8988C149.082 54.4437 150.842 54.276 152.65 54.779C154.458 55.2821 155.882 56.3241 156.625 57.3062C157.379 58.2883 157.51 59.1147 157.175 59.4022Z" fill="#0F0F14"/>
<path d="M163.389 49.7845C163.389 49.7845 161.066 35.3642 155.511 30.777C148.783 25.2197 143.455 32.8011 136.679 28.9924C129.903 25.1837 123.486 19.866 114.674 23.6746C105.037 27.8426 107.802 33.1005 105.037 42.239C93.8426 79.3078 84.3966 88.2666 86.7551 70.0855C87.0185 68.0973 82.0141 65.2468 83.2113 56.8509C84.7677 45.9758 87.4974 32.9808 91.7115 26.0221C95.2553 20.1534 99.9484 16.6441 107.622 13.3984C119.738 8.26024 133.853 11.53 143.18 14.8236C152.506 18.1173 168.261 33.6155 163.401 49.7845H163.389Z" fill="#0F0F14"/>
<path d="M88.2277 69.8461C88.8862 66.5883 86.7192 63.3665 83.4389 62.8874C79.4522 62.3125 74.5795 63.4623 72.8795 71.5708C69.8506 85.9551 84.9234 86.027 85.0312 85.6198C85.103 85.3443 87.0186 75.8705 88.2277 69.8341V69.8461Z" fill="#AE7461"/>
<path d="M83.0438 79.5594C83.0438 79.5594 82.7565 79.6792 82.2896 79.787C81.8346 79.8948 81.1043 79.8708 80.4099 79.4277C79.0092 78.5533 78.231 75.8705 78.7099 73.2595C78.9494 71.942 79.4881 70.7563 80.1705 69.8221C80.829 68.8639 81.667 68.2651 82.4572 68.289C83.2593 68.2771 83.7023 68.84 83.7861 69.2831C83.8938 69.7263 83.7382 69.9898 83.81 70.0377C83.8459 70.0856 84.1692 69.858 84.1812 69.2472C84.1812 68.9478 84.0854 68.5765 83.81 68.2292C83.5227 67.8699 83.0438 67.6303 82.5051 67.5704C81.3797 67.4147 80.1705 68.2292 79.4163 69.2472C78.6022 70.2652 77.9677 71.5947 77.7043 73.0798C77.1895 76.0022 78.0993 79.0204 80.0508 80.0624C81.0086 80.5415 81.9185 80.4098 82.4213 80.1702C82.9361 79.9067 83.0797 79.6073 83.0438 79.5714V79.5594Z" fill="#6F4439"/>
<path d="M144.497 42.3828C144.497 42.3828 144.557 42.4068 144.593 42.4188C144.677 42.4427 144.76 42.4667 144.844 42.5026L144.497 42.3828Z" fill="#0C756F"/>
<path d="M176.69 23.8424C176.295 19.9139 173.457 16.5125 169.962 14.668C166.466 12.8235 162.407 12.3445 158.456 12.4403C159.953 7.30215 155.092 2.09215 149.824 1.14597C144.569 0.199787 139.277 2.22391 134.321 4.21209C128.813 -1.05779 118.733 -0.2194 114.171 5.88887C110.831 2.97846 105.923 2.03227 101.732 3.46951C97.5542 4.90675 94.2618 8.69148 93.4238 13.0391C89.88 12.9673 86.3842 14.9674 84.6482 18.0575C82.9242 21.1476 83.0439 25.1838 84.9595 28.1661C82.2298 29.1722 80.3143 32.0706 80.446 34.981C80.5777 37.8914 82.7566 40.5982 85.5701 41.3528L97.9373 34.3462C103.409 36.5739 110.46 33.0886 111.993 27.3756C115.979 29.9986 121.57 29.9147 125.485 27.184C125.868 30.0704 127.76 32.7054 130.358 33.9989C132.968 35.2804 136.212 35.1726 138.726 33.7234C138.259 37.6638 140.259 41.7839 143.647 43.856C147.023 45.928 151.608 45.8322 154.913 43.6284C157.87 47.4011 163.856 48.3234 167.819 45.6166C171.781 42.9218 173.11 37.0051 170.68 32.8731C174.535 32.0227 177.061 27.7708 176.666 23.8424H176.69Z" fill="#0F0F14"/>
<path d="M110.783 29.6154C110.783 29.6154 110.711 30.0705 110.256 30.7412C109.801 31.4119 108.987 32.3222 107.658 33.0168C106.354 33.7115 104.462 34.1786 102.451 33.6636C100.475 33.1725 98.428 31.7832 97.3265 29.5555L98.1646 29.7112C97.2307 30.5975 96.0695 31.3041 94.7765 31.7353C92.0349 32.6336 89.0658 32.2263 86.9467 30.8729C84.7917 29.5315 83.6424 27.4236 83.1635 25.651C82.6727 23.8425 82.8283 22.3094 83.0677 21.3153C83.3311 20.3212 83.6424 19.8421 83.6903 19.8661C83.9058 19.89 82.8283 22.0818 83.8818 25.4354C84.4206 27.0403 85.534 28.8967 87.4615 30.0346C89.3531 31.1844 91.9989 31.5197 94.4412 30.7172C95.5906 30.334 96.6082 29.7232 97.4343 28.9566L97.9611 28.4656L98.2723 29.1123C99.1822 31.0287 100.954 32.3102 102.69 32.7893C104.438 33.3043 106.126 32.9809 107.359 32.418C109.885 31.2442 110.64 29.4956 110.783 29.6273V29.6154Z" fill="#0F0F14"/>
<path d="M118.805 94.5665C118.805 94.7462 120.565 94.7582 122.301 95.9199C124.06 97.0338 124.791 98.6507 124.958 98.5669C125.03 98.5429 124.958 98.0878 124.599 97.453C124.252 96.8182 123.582 96.0158 122.648 95.4049C121.702 94.7941 120.708 94.5186 119.978 94.4588C119.248 94.3989 118.805 94.5067 118.805 94.5905V94.5665Z" fill="#0F0F14"/>
<path d="M131.196 183.448L133.938 187.029C135.877 188.131 137.553 187.281 138.487 184.837L161.042 142.942L154.35 139.469L128.933 179.975C128.933 179.975 128.706 182.023 131.196 183.448Z" fill="#0F0F14"/>
<path d="M187.956 139.911C192.792 136.594 196.683 131.779 198.826 125.85C201.472 118.545 201.113 110.652 197.809 103.609C194.516 96.5787 188.674 91.2489 181.371 88.602C166.298 83.1405 149.597 90.9734 144.138 106.052C141.492 113.358 141.851 121.251 145.155 128.294C148.448 135.324 154.29 140.654 161.593 143.301C170.74 146.607 180.485 145.026 187.956 139.911ZM156.122 93.5964C163.089 88.8176 172.188 87.3444 180.724 90.4345C187.537 92.9017 192.984 97.8722 196.061 104.436C199.138 110.999 199.473 118.365 197.007 125.18C194.54 131.995 189.572 137.444 183.011 140.522C176.45 143.6 169.088 143.936 162.275 141.468C155.463 139.001 150.016 134.031 146.939 127.467C143.862 120.904 143.527 113.538 145.993 106.723C147.993 101.19 151.62 96.6985 156.134 93.6084L156.122 93.5964Z" fill="#0F0F14"/>
<path d="M186.626 138.81C191.463 135.492 195.354 130.677 197.497 124.749C200.143 117.443 199.784 109.55 196.48 102.507C193.187 95.4769 187.345 90.1471 180.042 87.5002C164.969 82.0387 148.268 89.8716 142.809 104.951C140.163 112.257 140.522 120.15 143.826 127.192C147.13 134.234 152.961 139.552 160.264 142.199C169.411 145.505 179.156 143.924 186.626 138.81ZM154.781 92.4946C161.748 87.7158 170.847 86.2426 179.383 89.3327C186.195 91.7999 191.643 96.7704 194.72 103.334C197.796 109.897 198.132 117.263 195.665 124.078C193.199 130.893 188.231 136.342 181.67 139.42C175.109 142.499 167.746 142.834 160.934 140.367C154.122 137.899 148.675 132.929 145.598 126.366C142.521 119.802 142.186 112.436 144.652 105.621C146.652 100.088 150.279 95.5966 154.793 92.5066L154.781 92.4946Z" fill="#0F0F14"/>
<path d="M178.39 138.307C178.366 138.235 177.085 138.846 174.882 139.349C174.607 139.409 174.32 139.468 174.02 139.528C173.721 139.588 173.398 139.612 173.074 139.672C172.416 139.78 171.71 139.816 170.967 139.864C169.483 139.9 167.831 139.828 166.143 139.528C164.454 139.217 162.874 138.726 161.497 138.175C160.815 137.876 160.156 137.6 159.582 137.277C159.294 137.121 158.995 136.977 158.744 136.822C158.48 136.654 158.229 136.498 157.99 136.354C156.098 135.121 155.104 134.115 155.056 134.175C155.044 134.187 155.284 134.438 155.751 134.869C155.978 135.097 156.266 135.36 156.637 135.624C156.996 135.899 157.391 136.235 157.87 136.534C158.109 136.69 158.361 136.857 158.624 137.025C158.887 137.193 159.175 137.337 159.474 137.504C160.049 137.852 160.707 138.127 161.402 138.45C162.802 139.025 164.395 139.528 166.107 139.852C167.831 140.151 169.495 140.223 171.003 140.163C171.757 140.103 172.476 140.067 173.134 139.948C173.469 139.888 173.793 139.852 174.092 139.792C174.391 139.72 174.691 139.648 174.966 139.588C175.529 139.48 176.008 139.289 176.439 139.157C176.87 139.025 177.229 138.882 177.528 138.75C178.115 138.498 178.438 138.355 178.426 138.331L178.39 138.307Z" fill="white"/>
<path d="M90.1073 186.562C97.0512 179.903 129.939 146.906 130.741 146.439C131.746 145.852 147.358 138.714 150.614 140.283C153.859 141.852 163.042 151.517 163.042 151.517C163.042 151.517 162.826 158.045 155.2 154.056C149.381 151.014 148.483 150.535 148.376 150.487L140.857 152.955C140.857 152.955 150.555 156.045 152.722 157.925C154.877 159.805 158.696 167.411 156.9 169.387C155.104 171.375 152.853 171.723 152.853 171.723C152.853 171.723 157.199 176.873 150.638 180.789C150.638 180.789 150.04 185.496 146.819 187.592C143.599 189.7 137.242 189.604 137.242 189.604C137.242 189.604 134.165 188.131 136.092 185.077C138.008 182.023 141.983 181.28 141.983 181.28L136.763 178.825C136.763 178.825 134.249 179.843 130.681 183.137C130.681 183.137 120.229 194.383 115.416 191.509L108.616 199.605C103.432 196.443 90.0954 186.562 90.0954 186.562H90.1073Z" fill="#AE7461"/>
<path d="M137.936 169.495C137.936 169.495 138.199 169.459 138.678 169.471C139.157 169.495 139.839 169.567 140.678 169.758C142.342 170.118 144.604 171.052 146.556 172.836C148.507 174.621 149.633 176.789 150.147 178.406C150.411 179.22 150.555 179.903 150.614 180.37C150.674 180.837 150.686 181.113 150.662 181.113C150.59 181.113 150.483 180.071 149.908 178.49C149.345 176.921 148.208 174.825 146.316 173.1C144.425 171.375 142.246 170.429 140.63 170.01C139.001 169.579 137.948 169.567 137.948 169.495H137.936Z" fill="#6F4439"/>
<path d="M136.882 161.171C136.882 161.171 137.17 161.147 137.673 161.159C137.924 161.159 138.235 161.183 138.595 161.231C138.954 161.279 139.373 161.315 139.816 161.41C140.714 161.566 141.767 161.854 142.904 162.273C144.03 162.716 145.239 163.291 146.412 164.033C147.586 164.8 148.615 165.65 149.489 166.489C150.339 167.339 151.046 168.177 151.572 168.932C151.848 169.291 152.051 169.663 152.243 169.962C152.434 170.261 152.578 170.549 152.698 170.776C152.925 171.232 153.045 171.495 153.021 171.507C152.961 171.543 152.458 170.525 151.369 169.088C150.83 168.369 150.112 167.567 149.262 166.728C148.388 165.914 147.37 165.087 146.221 164.345C145.059 163.614 143.731 162.788 142.629 162.345C141.516 161.913 140.654 161.854 139.768 161.662C138.008 161.279 136.882 161.243 136.882 161.171Z" fill="#6F4439"/>
<path d="M134.631 151.697C134.631 151.697 134.991 151.469 135.649 151.374C136.308 151.266 137.253 151.29 138.235 151.601C139.552 152.032 140.055 152.523 140.462 152.931C140.941 153.398 141.132 153.769 141.096 153.793C141.013 153.877 140.007 152.535 138.127 151.948C136.26 151.314 134.655 151.805 134.631 151.697Z" fill="#6F4439"/>
<g opacity="0.1">
<path d="M150.004 103.693C150.603 102.555 151.429 101.357 152.686 101.106C154.003 100.831 155.332 101.729 156.002 102.891C156.673 104.052 156.828 105.43 156.972 106.771C157.343 110.173 157.75 113.61 158.995 116.796C160.24 119.982 162.455 122.916 165.568 124.329C168.082 125.467 170.943 125.527 173.709 125.647C176.474 125.767 179.36 126.03 181.706 127.503C181.73 127.515 181.754 127.527 181.778 127.551C185.082 129.659 184.615 134.654 181.036 136.246C172.799 139.923 162.383 138.678 155.511 132.737C147.466 125.791 145.06 113.119 150.004 103.705V103.693Z" fill="#0F0F14"/>
</g>
<path d="M2.83084 221.738L36.8437 224.601C44.6854 219.415 99.3621 177.004 100.954 175.89L115.177 192.203C85.3427 228.386 64.4394 254.807 39.3219 273.371C26.9068 282.546 6.68587 277.587 1.45406 260.855C-1.10798 252.663 2.83084 221.738 2.83084 221.738Z" fill="#AE7461"/>
<g opacity="0.3">
<path d="M174.678 424.94C174.678 424.94 162.455 426.641 161.581 426.916C161.293 427 128.442 427 128.442 427L129.304 411.777L166.657 412.604L174.678 424.94Z" fill="#0F0F14"/>
</g>
<g opacity="0.3">
<path d="M173.816 410.891C173.816 410.891 161.413 413.454 160.719 412.867C160.025 412.269 129.304 411.766 129.304 411.766L130.166 399.549L167.567 398.315L173.816 410.891Z" fill="#0F0F14"/>
</g>
<g opacity="0.3">
<path d="M173.816 397.549C173.816 397.549 162.431 399.046 161.737 398.459C161.042 397.86 130.166 399.549 130.166 399.549L131.83 372.481L167.77 382.206L173.804 397.549H173.816Z" fill="#0F0F14"/>
</g>
<path d="M289.826 183.077C289.826 183.077 207.65 310.38 213.42 396.986L164.394 426.988H128.442C130.405 404.495 130.13 367.69 141.108 316.057C169.339 183.22 219.49 182.849 219.49 182.849L289.826 183.065V183.077Z" fill="#DED5BB"/>
<path d="M131.878 385.56L213.971 399.597C213.289 402.22 214.593 405.514 216.401 407.31C218.209 409.119 220.747 409.957 223.213 410.604C228.05 411.873 233.031 412.616 238.035 412.808C240.669 412.915 243.339 412.867 245.877 413.55C248.415 414.233 250.881 415.802 251.911 418.221C252.94 420.64 252.054 426.88 245.805 426.88H162.443C168.692 426.88 169.578 420.652 168.549 418.221C167.519 415.802 165.053 414.233 162.515 413.55C159.977 412.867 157.295 412.903 154.673 412.808C149.669 412.616 144.7 411.873 139.852 410.604C137.385 409.957 134.847 409.107 133.039 407.31C131.232 405.502 131.495 388.59 131.878 385.548V385.56Z" fill="#DED5BB"/>
<path d="M131.95 373.415L212.666 385.392C211.983 388.015 213.288 391.309 215.096 393.105C216.904 394.914 219.442 395.752 221.908 396.399C226.745 397.668 231.725 398.411 236.73 398.603C239.364 398.71 242.033 398.663 244.571 399.345C247.11 400.028 249.576 401.597 250.605 404.016C251.635 406.436 250.749 412.676 244.5 412.676H161.138C167.387 412.676 168.273 406.448 167.244 404.016C166.214 401.597 163.748 400.028 161.21 399.345C158.671 398.663 155.99 398.698 153.368 398.603C148.363 398.411 143.395 397.668 138.546 396.399C136.08 395.752 133.542 394.902 131.734 393.105C129.926 391.297 131.567 376.445 131.95 373.415Z" fill="#DED5BB"/>
<path d="M132.285 370.481L213.971 373.176C213.289 375.655 214.593 378.745 216.401 380.446C218.209 382.146 220.747 382.937 223.213 383.56C228.05 384.757 233.031 385.452 238.035 385.644C240.669 385.739 243.339 385.703 245.877 386.35C248.415 386.997 250.881 388.47 251.911 390.758C252.94 393.045 252.054 398.914 245.805 398.914L162.694 397.98C168.944 397.98 169.578 393.033 168.549 390.758C167.519 388.47 165.053 386.997 162.515 386.35C159.977 385.703 157.295 385.739 154.673 385.644C149.669 385.464 144.7 384.757 139.852 383.56C137.385 382.949 134.847 382.146 133.039 380.446C131.232 378.745 131.902 373.331 132.285 370.481Z" fill="#DED5BB"/>
<path d="M259.549 245.393C259.549 245.393 269.162 224.577 271.03 218.828C272.898 213.079 268.097 209.869 263.559 206.396C259.022 202.923 242.465 201.593 241.662 204.527C240.86 207.462 241.124 211.738 243.53 212.001C245.936 212.265 255.011 211.75 260.351 218.816C260.351 218.816 238.191 213.882 232.851 218.816C227.511 223.751 237.388 225.619 237.388 225.619C237.388 225.619 234.455 230.422 237.125 231.763C239.795 233.093 254.485 236.039 254.485 236.039L254.748 238.171C254.748 238.171 247.541 237.632 242.728 238.973C237.927 240.315 235.784 245.381 235.784 245.381C236.85 249.393 238.717 249.393 241.387 247.513C244.057 245.645 245.925 245.381 245.925 245.381C245.925 245.381 250.199 250.723 253.132 250.986C256.065 251.25 259.537 245.381 259.537 245.381L259.549 245.393Z" fill="#AE7461"/>
<g opacity="0.3">
<path d="M223.5 182.849C223.5 182.849 240.453 201.545 237.508 230.757C234.563 259.957 234.611 292.391 234.611 292.391L244.452 268.58L251.348 200.036L237.424 184.753L223.5 182.849Z" fill="#0F0F14"/>
</g>
<path d="M223.501 182.849H293.43C293.43 182.849 322.307 183.46 322.307 240.399C322.307 314.153 305.378 339.341 350.333 381.44L277.77 390.554C277.77 390.554 243.446 387.249 243.482 325.807C243.494 297.768 244.775 247.992 246.308 224.014C247.421 206.54 234.539 184.035 223.501 182.837V182.849Z" fill="white"/>
<path d="M223.501 182.849C223.656 182.885 223.956 182.945 224.614 183.077C225.345 183.268 226.422 183.604 227.715 184.322C230.313 185.724 233.653 188.694 236.862 193.353C240.046 198.012 243.219 204.324 245.063 212.217C247.218 220.145 245.518 229.487 245.29 239.776C244.392 260.388 243.638 285.157 243.291 313.063C243.255 320.034 243.051 327.208 243.47 334.574C243.889 341.916 244.859 349.449 246.966 356.887C249.025 364.301 252.246 371.702 257.31 378.002C259.86 381.116 262.829 383.967 266.277 386.207C269.725 388.434 273.544 390.219 277.746 390.854H277.77H277.806C298.758 388.219 320.798 385.464 343.426 382.613C345.796 382.314 348.167 382.015 350.357 381.739L351.004 381.655L350.525 381.2C346.897 377.727 343.33 374.218 340.085 370.457C336.841 366.708 333.812 362.815 331.166 358.707C325.862 350.503 322.367 341.353 320.834 332.023C319.266 322.692 319.314 313.338 319.685 304.26C320.056 295.157 320.762 286.27 321.277 277.587C321.816 268.904 322.223 260.424 322.403 252.196C322.498 248.076 322.546 244.016 322.534 240.027C322.462 238.027 322.403 236.051 322.343 234.075C322.271 232.11 322.259 230.158 321.995 228.23C321.792 226.302 321.588 224.397 321.397 222.505C321.325 221.559 321.121 220.624 320.954 219.702C320.786 218.78 320.607 217.858 320.439 216.936C320.271 216.013 320.092 215.103 319.924 214.193C319.733 213.295 319.433 212.408 319.206 211.522C318.955 210.636 318.703 209.761 318.464 208.887C318.224 208.013 317.997 207.138 317.626 206.312C315.291 199.533 311.675 193.365 306.743 188.957C304.337 186.694 301.523 184.981 298.59 183.855C297.129 183.28 295.609 182.885 294.088 182.693C292.532 182.574 291.059 182.657 289.563 182.633C283.637 182.633 278.058 182.657 272.838 182.669C262.422 182.705 253.443 182.741 246.116 182.765C231.678 182.801 224.339 182.813 223.501 182.813C224.339 182.813 231.75 182.837 246.32 182.873C253.635 182.897 262.578 182.933 272.958 182.981C278.142 182.993 283.697 183.005 289.575 183.017C295.477 182.346 301.691 184.849 306.444 189.269C311.304 193.628 314.872 199.725 317.171 206.456C317.53 207.27 317.757 208.144 317.997 209.019C318.236 209.881 318.488 210.755 318.727 211.642C318.955 212.516 319.254 213.39 319.445 214.289C319.613 215.199 319.781 216.097 319.948 217.019C320.116 217.93 320.283 218.852 320.463 219.774C320.631 220.696 320.834 221.619 320.906 222.565C321.098 224.445 321.301 226.349 321.493 228.266C321.744 230.182 321.756 232.122 321.828 234.087C321.888 236.051 321.948 238.027 322.019 240.015C322.019 244.004 321.972 248.064 321.876 252.172C321.672 260.4 321.265 268.868 320.726 277.551C320.2 286.235 319.493 295.121 319.11 304.236C318.727 313.338 318.679 322.728 320.259 332.13C321.792 341.52 325.324 350.767 330.663 359.043C333.333 363.175 336.374 367.103 339.642 370.864C342.911 374.637 346.478 378.158 350.118 381.643L350.298 381.104C348.107 381.38 345.736 381.679 343.366 381.979C320.738 384.829 298.698 387.596 277.746 390.231H277.818C273.808 389.62 269.989 387.859 266.624 385.68C263.236 383.476 260.303 380.673 257.789 377.595C252.785 371.391 249.588 364.061 247.541 356.707C245.446 349.329 244.476 341.832 244.045 334.514C243.626 327.196 243.817 320.01 243.841 313.039C244.153 285.145 244.847 260.376 245.697 239.764C245.925 234.614 246.152 229.715 246.439 225.104C246.811 220.469 246.296 216.073 245.386 212.121C243.506 204.192 240.274 197.868 237.053 193.209C233.809 188.55 230.421 185.58 227.787 184.202C226.47 183.496 225.38 183.184 224.65 182.993C224.291 182.921 224.016 182.897 223.812 182.861C223.656 182.837 223.585 182.825 223.513 182.813L223.501 182.849Z" fill="#0F0F14"/>
<g opacity="0.3">
<path d="M298.458 374.709H286.713C286.713 374.709 286.079 390.315 273.508 389.249C273.508 389.249 276.166 390.997 279.758 390.542C283.349 390.087 294.543 392.842 298.458 374.697V374.709Z" fill="#0F0F14"/>
</g>
<path d="M383.963 366.84C383.963 366.84 385.819 389.201 357.984 390.542C330.16 391.884 279.686 390.542 279.686 390.542C279.686 390.542 297.213 387.38 297.213 368.313L383.963 366.852V366.84Z" fill="#DED5BB"/>
<path d="M383.963 366.84C383.963 366.84 383.831 366.84 383.556 366.828C383.257 366.828 382.85 366.828 382.323 366.828C381.197 366.828 379.593 366.852 377.51 366.864C373.272 366.912 367.142 366.996 359.456 367.079C343.976 367.307 322.271 367.63 297.201 367.99H296.902V368.289C296.902 373.056 295.645 378.098 292.544 382.134C289.479 386.171 284.726 389.021 279.626 390.207L277.244 390.758L279.674 390.818C279.674 390.818 279.77 390.818 279.83 390.818C296.076 391.213 311.556 391.405 325.635 391.381C332.674 391.369 339.367 391.309 345.628 391.165C351.89 390.961 357.72 390.938 363.036 390.207C368.315 389.357 372.937 387.404 376.241 384.698C379.581 382.015 381.485 378.697 382.538 375.918C383.592 373.104 383.867 370.768 383.975 369.211C384.023 368.433 384.023 367.822 384.011 367.427C384.011 367.031 383.963 366.804 383.963 366.816C383.963 366.828 383.963 367.019 383.951 367.427C383.951 367.822 383.927 368.421 383.855 369.199C383.712 370.744 383.4 373.068 382.323 375.835C381.257 378.577 379.354 381.811 376.037 384.434C372.769 387.069 368.208 388.973 362.976 389.788C357.732 390.482 351.878 390.494 345.628 390.674C339.367 390.794 332.686 390.83 325.647 390.83C311.568 390.818 296.088 390.614 279.853 390.219C279.806 390.219 279.746 390.219 279.698 390.219L279.746 390.842C282.427 390.243 284.918 389.189 287.18 387.788C289.443 386.386 291.478 384.626 293.047 382.53C296.243 378.362 297.536 373.164 297.512 368.313L297.213 368.612C322.199 368.133 343.844 367.726 359.265 367.427C366.975 367.259 373.128 367.127 377.378 367.031C379.485 366.984 381.114 366.936 382.251 366.912C382.79 366.9 383.209 366.876 383.52 366.876C383.807 366.876 383.951 366.852 383.963 366.852V366.84Z" fill="#0F0F14"/>
<path d="M260.686 282.653C260.686 282.977 266.996 283.24 274.777 283.24C282.559 283.24 288.869 282.977 288.869 282.653C288.869 282.33 282.559 282.066 274.777 282.066C266.996 282.066 260.686 282.33 260.686 282.653Z" fill="#0F0F14"/>
<path d="M309.401 282.749C309.401 282.426 307.641 282.162 305.474 282.162C303.307 282.162 301.547 282.426 301.547 282.749C301.547 283.073 303.307 283.336 305.474 283.336C307.641 283.336 309.401 283.073 309.401 282.749Z" fill="#0F0F14"/>
<path d="M258.95 272.365C258.95 272.689 265.259 272.952 273.041 272.952C280.823 272.952 287.132 272.689 287.132 272.365C287.132 272.042 280.823 271.778 273.041 271.778C265.259 271.778 258.95 272.042 258.95 272.365Z" fill="#0F0F14"/>
<path d="M309.401 272.952C309.401 272.629 307.641 272.365 305.474 272.365C303.307 272.365 301.547 272.629 301.547 272.952C301.547 273.276 303.307 273.539 305.474 273.539C307.641 273.539 309.401 273.276 309.401 272.952Z" fill="#0F0F14"/>
<path d="M259.273 263.67C259.273 263.993 265.582 264.257 273.364 264.257C281.146 264.257 287.456 263.993 287.456 263.67C287.456 263.347 281.146 263.083 273.364 263.083C265.582 263.083 259.273 263.347 259.273 263.67Z" fill="#0F0F14"/>
<path d="M309.401 263.754C309.401 263.43 307.641 263.167 305.474 263.167C303.307 263.167 301.547 263.43 301.547 263.754C301.547 264.077 303.307 264.341 305.474 264.341C307.641 264.341 309.401 264.077 309.401 263.754Z" fill="#0F0F14"/>
<path d="M260.375 253.441C260.375 253.765 266.684 254.028 274.466 254.028C282.248 254.028 288.557 253.765 288.557 253.441C288.557 253.118 282.248 252.854 274.466 252.854C266.684 252.854 260.375 253.118 260.375 253.441Z" fill="#0F0F14"/>
<path d="M310.825 254.028C310.825 253.705 309.065 253.441 306.898 253.441C304.731 253.441 302.971 253.705 302.971 254.028C302.971 254.352 304.731 254.615 306.898 254.615C309.065 254.615 310.825 254.352 310.825 254.028Z" fill="#0F0F14"/>
<path d="M260.686 244.734C260.686 245.057 266.996 245.321 274.777 245.321C282.559 245.321 288.869 245.057 288.869 244.734C288.869 244.411 282.559 244.147 274.777 244.147C266.996 244.147 260.686 244.411 260.686 244.734Z" fill="#0F0F14"/>
<path d="M310.825 244.83C310.825 244.507 309.065 244.243 306.898 244.243C304.731 244.243 302.971 244.507 302.971 244.83C302.971 245.153 304.731 245.417 306.898 245.417C309.065 245.417 310.825 245.153 310.825 244.83Z" fill="#0F0F14"/>
<path d="M261.692 234.518C261.692 234.841 268.001 235.105 275.783 235.105C283.565 235.105 289.874 234.841 289.874 234.518C289.874 234.194 283.565 233.931 275.783 233.931C268.001 233.931 261.692 234.194 261.692 234.518Z" fill="#0F0F14"/>
<path d="M312.142 235.105C312.142 234.781 310.382 234.518 308.215 234.518C306.048 234.518 304.288 234.781 304.288 235.105C304.288 235.428 306.048 235.692 308.215 235.692C310.382 235.692 312.142 235.428 312.142 235.105Z" fill="#0F0F14"/>
<path d="M262.015 225.81C262.015 226.134 268.324 226.397 276.106 226.397C283.888 226.397 290.197 226.134 290.197 225.81C290.197 225.487 283.888 225.224 276.106 225.224C268.324 225.224 262.015 225.487 262.015 225.81Z" fill="#0F0F14"/>
<path d="M260.267 216.9C260.267 217.223 266.576 217.486 274.358 217.486C282.14 217.486 288.449 217.223 288.449 216.9C288.449 216.576 282.14 216.313 274.358 216.313C266.576 216.313 260.267 216.576 260.267 216.9Z" fill="#0F0F14"/>
<path d="M312.142 225.906C312.142 225.583 310.382 225.32 308.215 225.32C306.048 225.32 304.288 225.583 304.288 225.906C304.288 226.23 306.048 226.493 308.215 226.493C310.382 226.493 312.142 226.23 312.142 225.906Z" fill="#0F0F14"/>
<path d="M310.825 216.325C310.825 216.001 309.065 215.738 306.898 215.738C304.731 215.738 302.971 216.001 302.971 216.325C302.971 216.648 304.731 216.912 306.898 216.912C309.065 216.912 310.825 216.648 310.825 216.325Z" fill="#0F0F14"/>
<path d="M258.448 208.168C258.448 208.492 264.757 208.755 272.539 208.755C280.321 208.755 286.63 208.492 286.63 208.168C286.63 207.845 280.321 207.582 272.539 207.582C264.757 207.582 258.448 207.845 258.448 208.168Z" fill="#0F0F14"/>
<path d="M309.005 207.605C309.005 207.282 307.245 207.019 305.079 207.019C302.912 207.019 301.152 207.282 301.152 207.605C301.152 207.929 302.912 208.192 305.079 208.192C307.245 208.192 309.005 207.929 309.005 207.605Z" fill="#0F0F14"/>
<path d="M256.628 199.449C256.628 199.773 262.937 200.036 270.719 200.036C278.501 200.036 284.81 199.773 284.81 199.449C284.81 199.126 278.501 198.862 270.719 198.862C262.937 198.862 256.628 199.126 256.628 199.449Z" fill="#0F0F14"/>
<path d="M307.186 198.874C307.186 198.551 305.426 198.287 303.259 198.287C301.092 198.287 299.332 198.551 299.332 198.874C299.332 199.198 301.092 199.461 303.259 199.461C305.426 199.461 307.186 199.198 307.186 198.874Z" fill="#0F0F14"/>
<path d="M250.043 191.592C250.043 191.916 256.352 192.179 264.134 192.179C271.916 192.179 278.225 191.916 278.225 191.592C278.225 191.269 271.916 191.005 264.134 191.005C256.352 191.005 250.043 191.269 250.043 191.592Z" fill="#0F0F14"/>
<path d="M300.601 191.029C300.601 190.706 298.841 190.442 296.674 190.442C294.507 190.442 292.747 190.706 292.747 191.029C292.747 191.353 294.507 191.616 296.674 191.616C298.841 191.616 300.601 191.353 300.601 191.029Z" fill="#0F0F14"/>
<path d="M260.686 293.888C260.686 294.211 266.996 294.475 274.777 294.475C282.559 294.475 288.869 294.211 288.869 293.888C288.869 293.565 282.559 293.301 274.777 293.301C266.996 293.301 260.686 293.565 260.686 293.888Z" fill="#0F0F14"/>
<path d="M309.401 293.972C309.401 293.648 307.641 293.385 305.474 293.385C303.307 293.385 301.547 293.648 301.547 293.972C301.547 294.295 303.307 294.558 305.474 294.558C307.641 294.558 309.401 294.295 309.401 293.972Z" fill="#0F0F14"/>
<path d="M259.273 304.895C259.273 305.218 265.582 305.482 273.364 305.482C281.146 305.482 287.456 305.218 287.456 304.895C287.456 304.571 281.146 304.308 273.364 304.308C265.582 304.308 259.273 304.571 259.273 304.895Z" fill="#0F0F14"/>
<path d="M307.976 304.99C307.976 304.667 306.216 304.404 304.049 304.404C301.882 304.404 300.122 304.667 300.122 304.99C300.122 305.314 301.882 305.577 304.049 305.577C306.216 305.577 307.976 305.314 307.976 304.99Z" fill="#0F0F14"/>
<path d="M258.819 314.416C258.819 314.74 265.128 315.003 272.91 315.003C280.692 315.003 287.001 314.74 287.001 314.416C287.001 314.093 280.692 313.83 272.91 313.83C265.128 313.83 258.819 314.093 258.819 314.416Z" fill="#0F0F14"/>
<path d="M307.533 314.5C307.533 314.177 305.773 313.913 303.606 313.913C301.439 313.913 299.679 314.177 299.679 314.5C299.679 314.824 301.439 315.087 303.606 315.087C305.773 315.087 307.533 314.824 307.533 314.5Z" fill="#0F0F14"/>
<path d="M258.375 323.926C258.375 324.25 264.685 324.513 272.466 324.513C280.248 324.513 286.558 324.25 286.558 323.926C286.558 323.603 280.248 323.339 272.466 323.339C264.685 323.339 258.375 323.603 258.375 323.926Z" fill="#0F0F14"/>
<path d="M307.09 324.01C307.09 323.687 305.33 323.423 303.163 323.423C300.996 323.423 299.236 323.687 299.236 324.01C299.236 324.333 300.996 324.597 303.163 324.597C305.33 324.597 307.09 324.333 307.09 324.01Z" fill="#0F0F14"/>
<path d="M257.932 333.436C257.932 333.759 264.242 334.023 272.024 334.023C279.805 334.023 286.115 333.759 286.115 333.436C286.115 333.112 279.805 332.849 272.024 332.849C264.242 332.849 257.932 333.112 257.932 333.436Z" fill="#0F0F14"/>
<path d="M306.635 333.532C306.635 333.208 304.875 332.945 302.708 332.945C300.541 332.945 298.782 333.208 298.782 333.532C298.782 333.855 300.541 334.119 302.708 334.119C304.875 334.119 306.635 333.855 306.635 333.532Z" fill="#0F0F14"/>
<path d="M257.765 342.682C257.765 343.005 264.074 343.269 271.856 343.269C279.638 343.269 285.947 343.005 285.947 342.682C285.947 342.359 279.638 342.095 271.856 342.095C264.074 342.095 257.765 342.359 257.765 342.682Z" fill="#0F0F14"/>
<path d="M306.479 342.778C306.479 342.455 304.72 342.191 302.553 342.191C300.386 342.191 298.626 342.455 298.626 342.778C298.626 343.101 300.386 343.365 302.553 343.365C304.72 343.365 306.479 343.101 306.479 342.778Z" fill="#0F0F14"/>
<path d="M259.273 351.892C259.273 352.216 265.582 352.479 273.364 352.479C281.146 352.479 287.456 352.216 287.456 351.892C287.456 351.569 281.146 351.305 273.364 351.305C265.582 351.305 259.273 351.569 259.273 351.892Z" fill="#0F0F14"/>
<path d="M307.976 351.976C307.976 351.653 306.216 351.389 304.049 351.389C301.882 351.389 300.122 351.653 300.122 351.976C300.122 352.3 301.882 352.563 304.049 352.563C306.216 352.563 307.976 352.3 307.976 351.976Z" fill="#0F0F14"/>
<path d="M262.889 361.666C262.889 361.989 269.198 362.253 276.98 362.253C284.762 362.253 291.071 361.989 291.071 361.666C291.071 361.342 284.762 361.079 276.98 361.079C269.198 361.079 262.889 361.342 262.889 361.666Z" fill="#0F0F14"/>
<path d="M311.592 361.749C311.592 361.426 309.832 361.163 307.665 361.163C305.498 361.163 303.738 361.426 303.738 361.749C303.738 362.073 305.498 362.336 307.665 362.336C309.832 362.336 311.592 362.073 311.592 361.749Z" fill="#0F0F14"/>
<path d="M265.607 370.565C265.607 370.888 271.916 371.152 279.698 371.152C287.48 371.152 293.789 370.888 293.789 370.565C293.789 370.241 287.48 369.978 279.698 369.978C271.916 369.978 265.607 370.241 265.607 370.565Z" fill="#0F0F14"/>
<path d="M130.166 399.549C130.166 399.549 130.262 399.561 130.465 399.561C130.693 399.561 130.98 399.549 131.327 399.537C132.129 399.501 133.231 399.453 134.62 399.393C137.481 399.25 141.611 399.07 146.735 398.878C156.96 398.495 171.099 398.22 186.722 398.291C202.346 398.363 216.485 398.639 226.721 398.782C231.797 398.842 235.928 398.89 238.849 398.926C240.238 398.926 241.339 398.926 242.141 398.926C242.488 398.926 242.764 398.926 243.003 398.914C243.195 398.914 243.291 398.902 243.291 398.89C243.291 398.89 243.195 398.866 243.003 398.854C242.776 398.842 242.488 398.83 242.141 398.806C241.339 398.782 240.238 398.735 238.849 398.687C235.928 398.603 231.809 398.495 226.733 398.351C216.497 398.1 202.358 397.752 186.722 397.681C171.099 397.609 156.948 397.944 146.723 398.447C141.611 398.699 137.469 398.938 134.62 399.166C133.231 399.274 132.129 399.357 131.327 399.429C130.98 399.465 130.705 399.489 130.477 399.513C130.286 399.537 130.19 399.549 130.19 399.561L130.166 399.549Z" fill="#0F0F14"/>
<path d="M133.734 412.376C133.734 412.544 156.78 412.759 185.202 412.855C213.636 412.951 236.682 412.879 236.682 412.711C236.682 412.544 213.636 412.328 185.202 412.232C156.78 412.137 133.734 412.208 133.734 412.376Z" fill="#0F0F14"/>
<path d="M143.551 374.709C143.551 374.709 143.251 374.768 142.689 374.924C142.078 375.116 141.264 375.367 140.258 375.679C139.72 375.846 139.145 376.038 138.498 376.23C137.9 376.457 137.038 376.565 136.559 377.391C136.343 377.811 136.487 378.397 136.858 378.697C137.205 379.02 137.636 379.188 138.079 379.32C138.953 379.523 139.875 379.739 140.845 379.966C144.724 380.793 149.393 381.535 154.613 382.003C159.833 382.482 165.591 382.721 171.625 382.841C183.669 382.997 194.576 383.152 202.549 383.26C206.452 383.284 209.637 383.296 211.923 383.308C212.977 383.308 213.827 383.296 214.473 383.296C215.06 383.296 215.359 383.272 215.359 383.248C215.359 383.224 215.06 383.2 214.473 383.176C213.827 383.152 212.989 383.116 211.923 383.08C209.637 383.021 206.464 382.937 202.549 382.829C194.576 382.673 183.681 382.47 171.625 382.23C165.591 382.11 159.845 381.895 154.649 381.44C149.441 380.996 144.784 380.314 140.917 379.547C139.959 379.344 139.037 379.14 138.175 378.948C137.768 378.841 137.373 378.673 137.098 378.433C136.81 378.194 136.726 377.835 136.858 377.535C137.169 376.936 137.96 376.733 138.57 376.505C139.205 376.289 139.779 376.086 140.306 375.894C141.3 375.535 142.102 375.247 142.701 375.032C143.251 374.828 143.527 374.709 143.527 374.697L143.551 374.709Z" fill="#0F0F14"/>
<path d="M536.273 60.5505H354.249C351.102 60.5505 348.55 63.1025 348.55 66.2504V176.869C348.55 180.017 351.102 182.569 354.249 182.569H536.273C539.42 182.569 541.971 180.017 541.971 176.869V66.2504C541.971 63.1025 539.42 60.5505 536.273 60.5505Z" fill="#EFEADC"/>
<path d="M536.273 183.109H354.238C350.806 183.109 348 180.313 348 176.88V66.2396C348 62.8068 350.795 60 354.238 60H536.273C539.705 60 542.511 62.796 542.511 66.2396V176.869C542.511 180.302 539.716 183.098 536.273 183.098V183.109ZM354.238 61.0903C351.4 61.0903 349.079 63.4005 349.079 66.2504V176.88C349.079 179.719 351.389 182.029 354.238 182.029H536.273C539.112 182.029 541.432 179.719 541.432 176.88V66.2396C541.432 63.4005 539.122 61.0795 536.273 61.0795H354.238V61.0903Z" fill="#0F0F14"/>
<path d="M532.054 161.691H359.408V87.7654H532.054V161.691ZM359.796 161.335H531.665V88.1108H359.796V161.335Z" fill="#CDA95D"/>
<path d="M531.859 149.071H359.602V149.428H531.859V149.071Z" fill="#CDA95D"/>
<path d="M531.859 136.808H359.602V137.164H531.859V136.808Z" fill="#CDA95D"/>
<path d="M531.859 124.555H359.602V124.912H531.859V124.555Z" fill="#CDA95D"/>
<path d="M531.859 112.292H359.602V112.648H531.859V112.292Z" fill="#CDA95D"/>
<path d="M531.859 100.029H359.602V100.385H531.859V100.029Z" fill="#CDA95D"/>
<path d="M381.597 111.526H375.92V161.259H381.597V111.526Z" fill="#0C756F"/>
<path d="M391.914 99.4998H384.899V161.259H391.914V99.4998Z" fill="#0F0F14"/>
<path d="M421.324 147.139H415.647V161.248H421.324V147.139Z" fill="#0C756F"/>
<path d="M430.303 118.089H424.626V161.259H430.303V118.089Z" fill="#0F0F14"/>
<path d="M458.363 90.2808H452.687V161.259H458.363V90.2808Z" fill="#0C756F"/>
<path d="M468.681 144.332H463.004V161.259H468.681V144.332Z" fill="#0F0F14"/>
<path d="M495.414 97.4595H489.737V161.248H495.414V97.4595Z" fill="#0C756F"/>
<path d="M504.393 124.588H498.716V161.259H504.393V124.588Z" fill="#0F0F14"/>
<path d="M523.183 156.304H517.506V161.259H523.183V156.304Z" fill="#0C756F"/>
<path d="M388.515 167.369H376.967C376.472 167.369 376.071 167.77 376.071 168.265V168.816C376.071 169.311 376.472 169.712 376.967 169.712H388.515C389.01 169.712 389.411 169.311 389.411 168.816V168.265C389.411 167.77 389.01 167.369 388.515 167.369Z" fill="#E0E0E0"/>
<path d="M427.173 167.369H415.625C415.131 167.369 414.729 167.77 414.729 168.265V168.816C414.729 169.311 415.131 169.712 415.625 169.712H427.173C427.668 169.712 428.069 169.311 428.069 168.816V168.265C428.069 167.77 427.668 167.369 427.173 167.369Z" fill="#E0E0E0"/>
<path d="M461.299 167.369H449.751C449.256 167.369 448.855 167.77 448.855 168.265V168.816C448.855 169.311 449.256 169.712 449.751 169.712H461.299C461.793 169.712 462.194 169.311 462.194 168.816V168.265C462.194 167.77 461.793 167.369 461.299 167.369Z" fill="#E0E0E0"/>
<path d="M496.449 167.369H484.902C484.407 167.369 484.006 167.77 484.006 168.265V168.816C484.006 169.311 484.407 169.712 484.902 169.712H496.449C496.944 169.712 497.345 169.311 497.345 168.816V168.265C497.345 167.77 496.944 167.369 496.449 167.369Z" fill="#E0E0E0"/>
<path d="M526.226 167.369H514.678C514.183 167.369 513.782 167.77 513.782 168.265V168.816C513.782 169.311 514.183 169.712 514.678 169.712H526.226C526.721 169.712 527.122 169.311 527.122 168.816V168.265C527.122 167.77 526.721 167.369 526.226 167.369Z" fill="#E0E0E0"/>
<path d="M364.685 74.0662C364.685 75.5236 363.498 76.711 362.041 76.711C360.584 76.711 359.397 75.5236 359.397 74.0662C359.397 72.6089 360.584 71.4214 362.041 71.4214C363.498 71.4214 364.685 72.6089 364.685 74.0662Z" fill="#0C756F"/>
<path d="M372.056 74.0662C372.056 75.5236 370.869 76.711 369.412 76.711C367.955 76.711 366.768 75.5236 366.768 74.0662C366.768 72.6089 367.955 71.4214 369.412 71.4214C370.869 71.4214 372.056 72.6089 372.056 74.0662Z" fill="#0C756F"/>
<path d="M379.417 74.0662C379.417 75.5236 378.23 76.711 376.773 76.711C375.316 76.711 374.128 75.5236 374.128 74.0662C374.128 72.6089 375.316 71.4214 376.773 71.4214C378.23 71.4214 379.417 72.6089 379.417 74.0662Z" fill="#0C756F"/>
</svg>
