<?xml version="1.0" encoding="utf-8"?>
<!-- Generator: Adobe Illustrator 28.3.0, SVG Export Plug-In . SVG Version: 6.00 Build 0)  -->
<svg version="1.1" id="Layer_1" xmlns="http://www.w3.org/2000/svg" xmlns:xlink="http://www.w3.org/1999/xlink" x="0px" y="0px"
	 viewBox="0 0 586 584.9" style="enable-background:new 0 0 586 584.9;" xml:space="preserve">
<style type="text/css">
	.st0{fill:#DED5BB;}
	.st1{fill:#EFEADC;}
	.st2{fill:#FFFFFF;}
	.st3{fill:none;stroke:#0F0F14;stroke-linecap:round;stroke-linejoin:round;}
	.st4{fill:#0F0F14;stroke:#0F0F14;stroke-linecap:round;stroke-linejoin:round;}
	.st5{fill:none;stroke:#FFFFFF;stroke-linecap:round;stroke-linejoin:round;}
	.st6{fill:#FFFFFF;stroke:#0F0F14;stroke-linecap:round;stroke-linejoin:round;}
	.st7{fill:#0F0F14;}
	.st8{fill:#FDCF6F;stroke:#0F0F14;stroke-linecap:round;stroke-linejoin:round;}
	.st9{fill:#FDCF6F;}
	.st10{fill:#DED5BB;stroke:#0F0F14;stroke-linecap:round;stroke-miterlimit:10;}
	.st11{fill:#FFFFFF;stroke:#525150;stroke-linecap:round;stroke-miterlimit:10;}
	.st12{fill:#8C8C8C;stroke:#525150;stroke-linecap:round;stroke-miterlimit:10;}
	.st13{fill:#525150;stroke:#525150;stroke-linecap:round;stroke-miterlimit:10;}
	.st14{fill:#043633;}
	.st15{fill:#0C756F;}
	.st16{opacity:0.3;}
</style>
<path class="st0" d="M372.8,84.9v81.5h105.3l3.8-80.9L372.8,84.9z"/>
<path class="st1" d="M481.9,85.4v81H376.6v-81H481.9z"/>
<path class="st0" d="M376.2,166.8h106.1V85H376.2V166.8z M481.5,166H377V85.8h104.5V166z"/>
<path class="st0" d="M481.9,85.2c0,0-0.7,0.4-1.8,1.1c-1.1,0.7-2.5,1.7-4.1,2.9c-1.6,1.2-3,2.3-4,3.1c-1,0.8-1.6,1.4-1.5,1.4
	c0,0,0.7-0.4,1.7-1.2c1.1-0.9,2.5-1.9,4-3c1.5-1.1,2.9-2.1,4-3C481.3,85.8,481.9,85.3,481.9,85.2L481.9,85.2z"/>
<path class="st0" d="M376.6,85.4c-0.1,0.1,2.4,2,5.6,4.3c3.2,2.3,5.8,4.1,5.8,4c0.1-0.1-2.4-2-5.6-4.3
	C379.3,87.1,376.7,85.3,376.6,85.4z"/>
<path class="st0" d="M481.9,166.4c0.1-0.1-2.4-2.4-5.5-5.3c-3.1-2.8-5.7-5-5.8-4.9c-0.1,0.1,2.4,2.4,5.5,5.3
	C479.2,164.3,481.8,166.5,481.9,166.4z"/>
<path class="st0" d="M388.4,155.7c-0.1-0.1-2.8,2.2-6.1,5.2c-3.3,2.9-5.9,5.4-5.8,5.5c0.1,0.1,2.8-2.2,6.1-5.2
	S388.5,155.8,388.4,155.7z"/>
<path class="st2" d="M388,93.7h82.5v62H388V93.7z"/>
<path class="st0" d="M388,93.7c0,0,0.1,0,0.4,0c0.3,0,0.7,0,1.2,0c1,0,2.5,0,4.5,0c3.9,0,9.7,0,16.9,0c14.5,0,35.1,0,59.5,0.1
	l-0.2-0.2c0,18.6,0,39.7,0,62l0.2-0.2c-30.7,0-59.2,0-82.5,0l0.2,0.2c0-18.7-0.1-34.2-0.1-45c0-5.4,0-9.6,0-12.5c0-1.4,0-2.5,0-3.3
	C388,94.1,388,93.7,388,93.7c0,0,0,0.4,0,1.1c0,0.7,0,1.8,0,3.3c0,2.9,0,7.1,0,12.5c0,10.8,0,26.3-0.1,45.1v0.2h0.2
	c23.3,0,51.8,0,82.5,0h0.2v-0.2c0-22.3,0-43.4,0-62v-0.2h-0.2c-24.5,0-45.1,0.1-59.7,0.1c-7.2,0-13,0-16.9,0c-1.9,0-3.4,0-4.5,0
	c-0.5,0-0.9,0-1.1,0C388.1,93.7,388,93.7,388,93.7L388,93.7z"/>
<path class="st0" d="M410.1,105.2c0,0.1,8.2,0.2,18.2,0.2c10.1,0,18.2-0.1,18.2-0.2s-8.2-0.2-18.2-0.2
	C418.3,104.9,410.1,105,410.1,105.2z"/>
<path class="st0" d="M401.9,125.7c0,0.1,12.2,0.2,27.3,0.2c15.1,0,27.3-0.1,27.3-0.2s-12.2-0.2-27.3-0.2
	C414.2,125.5,401.9,125.6,401.9,125.7z"/>
<path class="st0" d="M401.9,115.3c0,0.1,12.2,0.2,27.3,0.2c15.1,0,27.3-0.1,27.3-0.2s-12.2-0.2-27.3-0.2
	C414.2,115.1,401.9,115.2,401.9,115.3z"/>
<path class="st0" d="M401.9,130.7c0,0.1,12.2,0.2,27.3,0.2c15.1,0,27.3-0.1,27.3-0.2s-12.2-0.2-27.3-0.2
	C414.2,130.5,401.9,130.6,401.9,130.7z"/>
<path class="st0" d="M422.1,143.3c0,3.5,2.8,6.3,6.4,6.3s6.4-2.8,6.4-6.3c0-3.5-2.8-6.3-6.4-6.3S422.1,139.8,422.1,143.3z"/>
<path class="st0" d="M428.4,149.7c3.5,0,6.4-2.9,6.4-6.4s-2.9-6.4-6.4-6.4s-6.4,2.9-6.4,6.4S424.9,149.7,428.4,149.7z M428.4,137
	c3.5,0,6.3,2.8,6.3,6.3c0,3.5-2.8,6.3-6.3,6.3s-6.3-2.8-6.3-6.3C422.1,139.8,424.9,137,428.4,137z"/>
<path class="st0" d="M441.4,143.3c0,0.1,3.4,0.2,7.7,0.2c4.2,0,7.7-0.1,7.7-0.2s-3.4-0.2-7.7-0.2
	C444.8,143.1,441.4,143.2,441.4,143.3z"/>
<path class="st0" d="M399.4,143.3c0,0.1,3.8,0.2,8.6,0.2s8.6-0.1,8.6-0.2s-3.8-0.2-8.6-0.2S399.4,143.2,399.4,143.3z"/>
<path class="st0" d="M445.3,142.1c0,0,0.1-0.2,0.1-0.5c0-0.3,0-0.9-0.1-1.5c-0.1-0.6-0.4-1.4-1-2.2c-0.2-0.2-0.4-0.4-0.6-0.4
	c-0.3-0.1-0.6,0-0.8,0.2c-0.5,0.3-0.7,1-0.5,1.7c0.2,0.6,0.5,1.1,0.9,1.7c0.4,0.5,0.8,1,1.4,1.5c0.6,0.4,1.2,0.8,2,0.9
	c0.8,0.1,1.6,0,2.3-0.5c0.7-0.5,1.1-1.4,1-2.3c-0.1-0.9-0.3-1.7-0.7-2.5c-0.2-0.4-0.4-0.8-0.8-1.1c-0.4-0.3-0.9-0.4-1.4-0.3
	c-0.5,0.1-0.9,0.5-1,1c-0.1,0.5,0,1,0.1,1.4c0.3,0.9,0.7,1.7,1.3,2.4c0.5,0.7,1.2,1.4,2,1.7c0.8,0.4,1.7,0.5,2.6,0.3
	c0.9-0.2,1.6-0.7,2-1.4c0.4-0.7,0.6-1.5,0.5-2.3c0-0.8-0.3-1.5-0.6-2.1c-0.3-0.6-0.6-1.3-1.4-1.5c-0.4-0.1-0.8,0.1-1,0.4
	c-0.2,0.3-0.2,0.6-0.2,0.9c0,1.2,0.3,2.3,0.8,3.1c0.4,0.8,1,1.5,1.5,1.9c0.5,0.4,1,0.7,1.3,0.8c0.3,0.1,0.5,0.2,0.5,0.2
	c0,0-0.7-0.3-1.7-1.1c-0.5-0.4-1-1-1.4-1.9c-0.4-0.8-0.7-1.9-0.7-3c0-0.3,0.1-0.6,0.2-0.8c0.1-0.2,0.4-0.3,0.6-0.3
	c0.2,0,0.5,0.3,0.7,0.5c0.2,0.2,0.3,0.5,0.5,0.9c0.5,1.2,0.8,2.8,0,4.1c-0.4,0.6-1,1.1-1.8,1.2c-0.7,0.1-1.6,0-2.3-0.3
	c-1.5-0.7-2.5-2.3-3-3.9c-0.1-0.4-0.2-0.8-0.1-1.2c0.1-0.4,0.4-0.7,0.7-0.7c0.3-0.1,0.8,0,1.1,0.3c0.3,0.2,0.5,0.6,0.7,0.9
	c0.3,0.7,0.6,1.5,0.7,2.3c0,0.8-0.2,1.5-0.8,1.9c-0.6,0.4-1.3,0.5-2,0.5c-0.7-0.1-1.3-0.4-1.8-0.8c-0.5-0.4-1-0.9-1.4-1.4
	c-0.4-0.5-0.8-1-0.9-1.5c-0.2-0.5,0-1.1,0.4-1.4c0.4-0.3,0.9-0.1,1.1,0.2c0.6,0.7,0.8,1.5,1,2.1
	C445.5,141.4,445.3,142.1,445.3,142.1L445.3,142.1z"/>
<path class="st0" d="M401.4,141.1c0,0,0,0,0.2,0.1c0.1,0,0.3,0.1,0.5,0.2c0.4,0.2,1.1,0.4,2,0.7s2,0.5,3.4,0.6
	c0.7,0.1,1.4,0.1,2.1,0.1c0.8,0,1.6-0.1,2.4-0.1c0.4,0,0.8,0.2,1,0.5c0.3,0.3,0.3,0.7,0.1,1.1c-0.2,0.4-0.5,0.7-0.8,1.1
	c-0.3,0.4-0.6,0.7-0.9,1.1c-0.3,0.4-0.7,0.7-1,1.1c-0.4,0.4-0.7,0.7-1.2,0.9c-0.4,0.2-0.9,0-1.2-0.4c-0.3-0.4-0.4-0.9-0.4-1.5
	c0.5-4.4,0.1-9.5-1.6-14.5l-0.2-0.5l-0.2,0.5c-0.5,1.2-0.8,2.5-0.9,3.8c-0.1,1.8,0.2,3.6,0.9,5.3c0.3,0.8,0.7,1.6,1.2,2.3
	c0.5,0.7,1.1,1.4,2,1.7c0.5,0.1,1,0,1.3-0.5c0.3-0.4,0.3-0.9,0.3-1.3c0-0.8,0-1.6-0.1-2.4c-0.2-1.6-0.7-3-1.3-4.4l-0.1-0.3l-0.2,0.2
	c-1,1.4-0.6,3.5,0.8,4.3c1.4,0.8,3.2,0.3,3.9-0.9c0.8-1.2,0.5-2.7-0.3-3.6c-0.2-0.2-0.4-0.4-0.7-0.5c-0.3-0.1-0.7,0-0.9,0.2
	c-0.2,0.2-0.2,0.5-0.2,0.8c0,0.3,0.1,0.5,0.2,0.7c0.6,1.8,1.6,3,2.4,3.7c0.4,0.3,0.7,0.6,0.9,0.7c0.2,0.1,0.3,0.2,0.3,0.2
	c0,0-0.1-0.1-0.3-0.3c-0.2-0.2-0.5-0.4-0.8-0.8c-0.7-0.7-1.6-1.9-2.2-3.7c-0.1-0.4-0.2-1,0-1.3c0.3-0.4,0.9-0.1,1.2,0.3
	c0.7,0.8,0.9,2.2,0.2,3.2c-0.7,1-2.3,1.4-3.5,0.7c-1.2-0.7-1.6-2.6-0.7-3.8l-0.3,0c0.6,1.3,1.1,2.7,1.3,4.2c0.1,0.8,0.1,1.5,0.1,2.3
	c0,0.4-0.1,0.8-0.3,1.1c-0.2,0.3-0.5,0.4-0.9,0.3c-0.3-0.1-0.7-0.3-1-0.6c-0.3-0.3-0.5-0.6-0.8-0.9c-0.5-0.7-0.9-1.4-1.2-2.2
	c-0.6-1.6-0.9-3.3-0.8-5.1c0.1-1.3,0.4-2.5,0.8-3.6h-0.4c1.7,4.9,2.1,9.9,1.6,14.4c0,0.6,0.1,1.2,0.4,1.7c0.2,0.2,0.4,0.4,0.7,0.5
	c0.3,0.1,0.6,0.1,0.9,0c0.6-0.2,0.9-0.6,1.3-1c0.4-0.4,0.7-0.7,1-1.1c0.3-0.4,0.6-0.7,0.9-1.1c0.3-0.4,0.6-0.7,0.8-1.2
	c0.2-0.4,0.2-1.1-0.2-1.4c-0.3-0.4-0.8-0.6-1.2-0.6c-0.4-0.1-0.9,0-1.3,0c-0.4,0-0.8,0.1-1.2,0.1c-0.7,0-1.5,0-2.1,0
	c-1.3-0.1-2.4-0.3-3.3-0.5c-0.9-0.2-1.6-0.5-2-0.6S401.4,141.1,401.4,141.1L401.4,141.1z"/>
<path class="st0" d="M107,104.9v61.6h79.6l2.9-61.1L107,104.9z"/>
<path class="st1" d="M189.5,105.3v61.2h-79.6v-61.2H189.5z"/>
<path class="st0" d="M109.6,166.8h80.2V105h-80.2V166.8L109.6,166.8z M189.1,166.2h-79v-60.6h79V166.2z"/>
<path class="st0" d="M189.4,105.2c0,0-0.5,0.3-1.3,0.8c-0.8,0.5-1.9,1.3-3.1,2.2c-1.2,0.9-2.3,1.7-3,2.3c-0.7,0.6-1.2,1-1.2,1.1
	c0,0,0.5-0.3,1.3-0.9c0.9-0.6,1.9-1.4,3.1-2.3c1.1-0.8,2.2-1.6,3.1-2.3C189,105.6,189.5,105.2,189.4,105.2L189.4,105.2z"/>
<path class="st0" d="M109.9,105.3c0,0.1,1.8,1.5,4.2,3.3c2.4,1.7,4.3,3.1,4.4,3c0-0.1-1.8-1.5-4.2-3.3S109.9,105.2,109.9,105.3z"/>
<path class="st0" d="M189.4,166.5c0.1-0.1-1.8-1.8-4.2-4c-2.4-2.1-4.3-3.8-4.4-3.7c-0.1,0.1,1.8,1.8,4.2,4
	C187.4,164.9,189.4,166.6,189.4,166.5L189.4,166.5z"/>
<path class="st0" d="M118.8,158.4c-0.1-0.1-2.1,1.7-4.6,3.9c-2.5,2.2-4.4,4.1-4.4,4.1c0.1,0.1,2.1-1.7,4.6-3.9
	C116.9,160.4,118.9,158.5,118.8,158.4z"/>
<path class="st2" d="M118.5,111.6h62.4v46.9h-62.4V111.6z"/>
<path class="st0" d="M118.5,111.6c0,0,0.1,0,0.3,0c0.2,0,0.5,0,0.9,0c0.8,0,1.9,0,3.4,0c3,0,7.3,0,12.8,0c11,0,26.5,0,45,0.1
	l-0.1-0.1c0,14.1,0,30,0,46.8l0.2-0.1c-23.2,0-44.7,0-62.4,0l0.1,0.1c0-14.2-0.1-25.9-0.1-34c0-4.1,0-7.3,0-9.5c0-1.1,0-1.9,0-2.5
	C118.5,111.9,118.5,111.6,118.5,111.6c0,0,0,0.3,0,0.8c0,0.6,0,1.4,0,2.5c0,2.2,0,5.4,0,9.4c0,8.2,0,19.9-0.1,34.1v0.1h0.1
	c17.6,0,39.1,0,62.4,0h0.2v-0.2c0-16.9,0-32.8,0-46.9v-0.1h-0.1c-18.5,0-34.1,0-45.1,0.1c-5.5,0-9.8,0-12.8,0c-1.5,0-2.6,0-3.4,0
	c-0.4,0-0.7,0-0.9,0C118.6,111.5,118.5,111.5,118.5,111.6L118.5,111.6z"/>
<path class="st0" d="M135.2,120.2c0,0.1,6.2,0.2,13.8,0.2s13.8-0.1,13.8-0.2c0-0.1-6.2-0.2-13.8-0.2S135.2,120.1,135.2,120.2z"/>
<path class="st0" d="M129,135.7c0,0.1,9.2,0.2,20.6,0.2c11.4,0,20.6-0.1,20.6-0.2s-9.2-0.2-20.6-0.2
	C138.3,135.6,129,135.6,129,135.7z"/>
<path class="st0" d="M129,128.4c0,0.1,9.2,0.2,20.6,0.2c11.4,0,20.6-0.1,20.6-0.2c0-0.1-9.2-0.2-20.6-0.2
	C138.3,128.2,129,128.3,129,128.4z"/>
<path class="st0" d="M129,139.6c0,0.1,9.2,0.2,20.6,0.2c11.4,0,20.6-0.1,20.6-0.2s-9.2-0.2-20.6-0.2
	C138.3,139.4,129,139.5,129,139.6z"/>
<path class="st0" d="M149,153.9c-2.7,0-4.8-2.2-4.8-4.8s2.2-4.8,4.8-4.8c2.7,0,4.8,2.2,4.8,4.8S151.7,153.9,149,153.9z"/>
<path class="st0" d="M149,153.9c2.7,0,4.8-2.2,4.8-4.8c0-2.7-2.2-4.8-4.8-4.8c-2.7,0-4.8,2.2-4.8,4.8
	C144.2,151.7,146.4,153.9,149,153.9z M149,144.3c2.6,0,4.8,2.1,4.8,4.8c0,2.6-2.1,4.8-4.8,4.8c-2.6,0-4.8-2.1-4.8-4.8
	C144.3,146.4,146.4,144.3,149,144.3z"/>
<path class="st0" d="M158.8,149.1c0,0.1,2.6,0.2,5.8,0.2c3.2,0,5.8-0.1,5.8-0.2s-2.6-0.2-5.8-0.2C161.4,148.9,158.8,149,158.8,149.1
	z"/>
<path class="st0" d="M127.1,149.1c0,0.1,2.9,0.2,6.5,0.2c3.6,0,6.5-0.1,6.5-0.2s-2.9-0.2-6.5-0.2C130,148.9,127.1,149,127.1,149.1z"
	/>
<path class="st0" d="M161.8,148.2c0,0,0-0.1,0.1-0.4c0-0.3,0-0.7-0.1-1.2c-0.1-0.5-0.3-1.1-0.7-1.7c-0.1-0.1-0.3-0.3-0.5-0.3
	c-0.2-0.1-0.5,0-0.6,0.1c-0.4,0.3-0.5,0.8-0.4,1.3c0.1,0.5,0.4,0.9,0.7,1.2c0.3,0.4,0.6,0.8,1.1,1.1c0.4,0.3,0.9,0.6,1.5,0.7
	c0.6,0.1,1.2,0,1.7-0.4c0.5-0.4,0.8-1.1,0.8-1.7c-0.1-0.7-0.2-1.3-0.5-1.9c-0.1-0.3-0.3-0.6-0.6-0.8c-0.3-0.2-0.7-0.3-1.1-0.3
	c-0.4,0.1-0.7,0.4-0.8,0.8c-0.1,0.4,0,0.7,0.1,1.1c0.2,0.7,0.5,1.3,0.9,1.8c0.4,0.5,0.9,1,1.5,1.3c0.6,0.3,1.3,0.4,1.9,0.2
	c0.6-0.1,1.2-0.5,1.5-1.1c0.3-0.5,0.4-1.2,0.4-1.7c0-0.6-0.2-1.1-0.4-1.6c-0.2-0.5-0.5-1-1.1-1.2c-0.3-0.1-0.6,0.1-0.7,0.3
	c-0.1,0.2-0.2,0.5-0.2,0.7c0,0.9,0.2,1.7,0.6,2.4c0.3,0.6,0.8,1.1,1.1,1.4c0.4,0.3,0.7,0.5,1,0.6c0.2,0.1,0.4,0.1,0.4,0.1
	c0,0-0.5-0.2-1.3-0.9c-0.4-0.3-0.8-0.8-1.1-1.4c-0.3-0.6-0.5-1.4-0.5-2.3c0-0.2,0.1-0.4,0.2-0.6c0.1-0.2,0.3-0.3,0.5-0.2
	c0.2,0,0.4,0.2,0.5,0.4c0.1,0.2,0.2,0.4,0.3,0.6c0.4,0.9,0.6,2.1,0,3.1c-0.3,0.5-0.8,0.8-1.3,0.9c-0.6,0.1-1.2,0-1.7-0.2
	c-1.1-0.5-1.9-1.7-2.3-2.9c-0.1-0.3-0.1-0.6-0.1-0.9c0.1-0.3,0.3-0.5,0.5-0.5c0.3,0,0.6,0,0.8,0.2c0.2,0.2,0.4,0.4,0.5,0.7
	c0.2,0.6,0.5,1.2,0.5,1.7c0,0.6-0.2,1.1-0.6,1.4c-0.4,0.3-1,0.4-1.5,0.3s-1-0.3-1.4-0.6c-0.4-0.3-0.7-0.7-1-1.1
	c-0.3-0.4-0.6-0.7-0.7-1.2c-0.1-0.4,0-0.8,0.3-1c0.3-0.2,0.7-0.1,0.9,0.1c0.4,0.5,0.6,1.1,0.7,1.6
	C161.8,147.6,161.7,148.1,161.8,148.2L161.8,148.2z"/>
<path class="st0" d="M128.6,147.4c0,0,0,0,0.1,0.1c0.1,0,0.2,0.1,0.4,0.2c0.3,0.1,0.9,0.3,1.5,0.5c0.7,0.2,1.5,0.4,2.5,0.5
	c0.5,0,1,0.1,1.6,0.1c0.6,0,1.2-0.1,1.8,0c0.3,0,0.6,0.2,0.8,0.4c0.2,0.2,0.2,0.5,0.1,0.8c-0.1,0.3-0.4,0.6-0.6,0.8
	c-0.2,0.3-0.5,0.6-0.7,0.8c-0.2,0.3-0.5,0.5-0.8,0.8c-0.3,0.3-0.5,0.6-0.9,0.7c-0.3,0.1-0.7,0-0.9-0.3c-0.2-0.3-0.3-0.7-0.3-1.1
	c0.3-3.4,0.1-7.2-1.2-11l-0.1-0.4l-0.2,0.4c-0.4,0.9-0.6,1.9-0.6,2.9c-0.1,1.4,0.2,2.8,0.7,4c0.2,0.6,0.6,1.2,0.9,1.7
	c0.4,0.5,0.8,1.1,1.5,1.3c0.3,0.1,0.8,0,1-0.3c0.2-0.3,0.2-0.6,0.3-1c0-0.6,0-1.2-0.1-1.8c-0.1-1.2-0.5-2.3-1-3.3l-0.1-0.2l-0.1,0.2
	c-0.8,1.1-0.4,2.7,0.6,3.2c1,0.6,2.4,0.2,3-0.6c0.6-0.9,0.4-2-0.2-2.7c-0.1-0.2-0.3-0.3-0.5-0.4c-0.2-0.1-0.5,0-0.6,0.2
	c-0.1,0.2-0.2,0.4-0.1,0.6c0,0.2,0.1,0.4,0.1,0.6c0.5,1.4,1.2,2.2,1.8,2.8c0.3,0.3,0.5,0.4,0.7,0.6s0.2,0.2,0.2,0.2
	s-0.1-0.1-0.2-0.2c-0.1-0.1-0.4-0.3-0.6-0.6c-0.5-0.5-1.2-1.4-1.7-2.8c-0.1-0.3-0.2-0.7,0-1c0.2-0.3,0.7-0.1,0.9,0.2
	c0.5,0.6,0.7,1.7,0.2,2.4c-0.5,0.8-1.7,1.1-2.6,0.5c-0.9-0.5-1.2-1.9-0.5-2.8l-0.2,0c0.5,1,0.8,2.1,1,3.2c0.1,0.6,0.1,1.2,0.1,1.8
	c0,0.3-0.1,0.6-0.2,0.8c-0.1,0.2-0.4,0.3-0.7,0.2c-0.3-0.1-0.5-0.2-0.7-0.4c-0.2-0.2-0.4-0.5-0.6-0.7c-0.3-0.5-0.7-1.1-0.9-1.7
	c-0.5-1.2-0.7-2.5-0.6-3.9c0.1-1,0.3-1.9,0.6-2.8h-0.3c1.3,3.7,1.5,7.5,1.2,10.9c0,0.4,0,0.9,0.3,1.3c0.1,0.2,0.3,0.3,0.5,0.4
	c0.2,0.1,0.5,0.1,0.7,0c0.4-0.2,0.7-0.5,1-0.7c0.3-0.3,0.5-0.6,0.8-0.8c0.2-0.3,0.5-0.6,0.7-0.8c0.2-0.3,0.5-0.5,0.6-0.9
	c0.2-0.3,0.1-0.8-0.1-1.1c-0.2-0.3-0.6-0.4-0.9-0.5c-0.3,0-0.6,0-0.9,0c-0.3,0-0.6,0-0.9,0c-0.6,0-1.1,0-1.6,0
	c-1-0.1-1.8-0.2-2.5-0.4c-0.7-0.2-1.2-0.3-1.5-0.5C128.9,147.4,128.7,147.4,128.6,147.4L128.6,147.4z"/>
<path class="st0" d="M227.2,84.9v81.5h105.3l3.8-80.9L227.2,84.9z"/>
<path class="st1" d="M336.3,85.4v81H231v-81H336.3z"/>
<path class="st0" d="M230.6,166.8h106.1V85H230.6V166.8z M335.9,166H231.4V85.8h104.5V166z"/>
<path class="st0" d="M336.3,85.2c0,0-0.7,0.4-1.8,1.1c-1.1,0.7-2.5,1.7-4.1,2.9c-1.6,1.2-3,2.3-4,3.1c-1,0.8-1.6,1.4-1.5,1.4
	c0,0,0.7-0.4,1.7-1.2c1.1-0.9,2.5-1.9,4-3c1.5-1.1,2.9-2.1,4-3C335.7,85.8,336.3,85.3,336.3,85.2L336.3,85.2z"/>
<path class="st0" d="M231,85.4c-0.1,0.1,2.4,2,5.6,4.3c3.2,2.3,5.8,4.1,5.8,4c0.1-0.1-2.4-2-5.6-4.3C233.6,87.1,231,85.3,231,85.4z"
	/>
<path class="st0" d="M336.3,166.4c0.1-0.1-2.4-2.4-5.5-5.3c-3.1-2.8-5.7-5-5.8-4.9c-0.1,0.1,2.4,2.4,5.5,5.3
	C333.6,164.3,336.2,166.5,336.3,166.4z"/>
<path class="st0" d="M242.8,155.7c-0.1-0.1-2.8,2.2-6.1,5.2c-3.3,2.9-5.9,5.4-5.8,5.5c0.1,0.1,2.8-2.2,6.1-5.2
	C240.3,158.3,242.9,155.8,242.8,155.7z"/>
<path class="st2" d="M242.4,93.7h82.5v62h-82.5V93.7z"/>
<path class="st0" d="M242.4,93.7c0,0,0.1,0,0.4,0c0.3,0,0.7,0,1.2,0c1,0,2.5,0,4.5,0c3.9,0,9.7,0,16.9,0c14.5,0,35.1,0,59.5,0.1
	l-0.2-0.2c0,18.6,0,39.7,0,62l0.2-0.2c-30.7,0-59.2,0-82.5,0l0.2,0.2c0-18.7-0.1-34.2-0.1-45c0-5.4,0-9.6-0.1-12.5
	c0-1.4,0-2.6,0-3.3C242.4,94.1,242.4,93.7,242.4,93.7c0,0,0,0.4,0,1.1c0,0.7,0,1.8,0,3.3c0,2.9,0,7.1-0.1,12.5
	c0,10.8-0.1,26.3-0.1,45.1v0.2h0.2c23.3,0,51.8,0,82.5,0h0.2v-0.2c0-22.3,0-43.4,0-62v-0.2h-0.2c-24.5,0-45.1,0.1-59.7,0.1
	c-7.2,0-13,0-16.9,0c-1.9,0-3.4,0-4.5,0c-0.5,0-0.9,0-1.1,0C242.5,93.7,242.4,93.7,242.4,93.7L242.4,93.7z"/>
<path class="st0" d="M264.5,105.2c0,0.1,8.2,0.2,18.2,0.2c10.1,0,18.2-0.1,18.2-0.2s-8.2-0.2-18.2-0.2
	C272.7,104.9,264.5,105,264.5,105.2z"/>
<path class="st0" d="M256.3,125.7c0,0.1,12.2,0.2,27.3,0.2c15.1,0,27.3-0.1,27.3-0.2s-12.2-0.2-27.3-0.2
	C268.5,125.5,256.3,125.6,256.3,125.7z"/>
<path class="st0" d="M256.3,115.3c0,0.1,12.2,0.2,27.3,0.2c15.1,0,27.3-0.1,27.3-0.2s-12.2-0.2-27.3-0.2
	C268.5,115.1,256.3,115.2,256.3,115.3z"/>
<path class="st0" d="M256.3,130.7c0,0.1,12.2,0.2,27.3,0.2c15.1,0,27.3-0.1,27.3-0.2s-12.2-0.2-27.3-0.2
	C268.5,130.5,256.3,130.6,256.3,130.7z"/>
<path class="st0" d="M276.4,143.3c0,3.5,2.8,6.3,6.4,6.3s6.4-2.8,6.4-6.3c0-3.5-2.8-6.3-6.4-6.3S276.4,139.8,276.4,143.3z"/>
<path class="st0" d="M282.8,149.7c3.5,0,6.4-2.9,6.4-6.4s-2.9-6.4-6.4-6.4s-6.4,2.9-6.4,6.4S279.3,149.7,282.8,149.7z M282.8,137
	c3.5,0,6.3,2.8,6.3,6.3c0,3.5-2.8,6.3-6.3,6.3c-3.5,0-6.3-2.8-6.3-6.3C276.5,139.8,279.3,137,282.8,137z"/>
<path class="st0" d="M295.7,143.3c0,0.1,3.4,0.2,7.7,0.2c4.2,0,7.7-0.1,7.7-0.2s-3.4-0.2-7.7-0.2
	C299.2,143.1,295.7,143.2,295.7,143.3z"/>
<path class="st0" d="M253.7,143.3c0,0.1,3.8,0.2,8.6,0.2c4.7,0,8.6-0.1,8.6-0.2s-3.8-0.2-8.6-0.2
	C257.6,143.1,253.7,143.2,253.7,143.3z"/>
<path class="st0" d="M299.7,142.1c0,0,0.1-0.2,0.1-0.5c0-0.3,0-0.9-0.1-1.5c-0.1-0.6-0.4-1.4-1-2.2c-0.2-0.2-0.4-0.4-0.6-0.4
	c-0.3-0.1-0.6,0-0.8,0.2c-0.5,0.3-0.7,1-0.5,1.7c0.2,0.6,0.5,1.1,0.9,1.7c0.4,0.5,0.8,1,1.4,1.5c0.6,0.4,1.2,0.8,2,0.9
	c0.8,0.1,1.6,0,2.3-0.5c0.7-0.5,1.1-1.4,1-2.3c-0.1-0.9-0.3-1.7-0.7-2.5c-0.2-0.4-0.4-0.8-0.8-1.1c-0.4-0.3-0.9-0.4-1.4-0.3
	c-0.5,0.1-0.9,0.5-1,1c-0.1,0.5,0,1,0.1,1.4c0.3,0.9,0.7,1.7,1.3,2.4c0.5,0.7,1.2,1.4,2,1.7c0.8,0.4,1.7,0.5,2.6,0.3
	c0.9-0.2,1.6-0.7,2-1.4c0.4-0.7,0.6-1.5,0.5-2.3c-0.1-0.8-0.3-1.5-0.6-2.1c-0.3-0.6-0.6-1.3-1.4-1.5c-0.4-0.1-0.8,0.1-1,0.4
	c-0.2,0.3-0.2,0.6-0.2,0.9c0,1.2,0.3,2.3,0.8,3.1c0.4,0.8,1,1.5,1.5,1.9c0.5,0.4,1,0.7,1.3,0.8c0.3,0.1,0.5,0.2,0.5,0.2
	c0,0-0.7-0.3-1.7-1.1c-0.5-0.4-1-1-1.4-1.9c-0.4-0.8-0.7-1.9-0.7-3c0-0.3,0.1-0.6,0.2-0.8c0.1-0.2,0.4-0.3,0.6-0.3
	c0.2,0,0.5,0.3,0.7,0.5c0.2,0.2,0.3,0.5,0.5,0.9c0.5,1.2,0.8,2.8,0,4.1c-0.4,0.6-1,1.1-1.8,1.2c-0.7,0.1-1.6,0-2.3-0.3
	c-1.5-0.7-2.5-2.3-3-3.9c-0.1-0.4-0.2-0.8-0.1-1.2c0.1-0.4,0.4-0.7,0.7-0.7c0.3-0.1,0.8,0,1.1,0.3s0.5,0.6,0.7,0.9
	c0.3,0.7,0.6,1.5,0.7,2.3c0,0.8-0.2,1.5-0.8,1.9c-0.6,0.4-1.3,0.5-2,0.5c-0.7-0.1-1.3-0.4-1.8-0.8c-0.5-0.4-1-0.9-1.4-1.4
	c-0.4-0.5-0.8-1-0.9-1.5c-0.2-0.5,0-1.1,0.4-1.4c0.4-0.3,0.9-0.1,1.1,0.2c0.6,0.7,0.8,1.5,1,2.1
	C299.8,141.4,299.7,142.1,299.7,142.1L299.7,142.1z"/>
<path class="st0" d="M255.7,141.1c0,0,0.1,0,0.2,0.1s0.3,0.1,0.5,0.2c0.4,0.2,1.1,0.4,2,0.7s2,0.5,3.4,0.6c0.7,0.1,1.4,0.1,2.1,0.1
	c0.8,0,1.6-0.1,2.4-0.1c0.4,0,0.8,0.2,1,0.5c0.3,0.3,0.3,0.7,0.1,1.1c-0.2,0.4-0.5,0.7-0.8,1.1c-0.3,0.4-0.6,0.7-0.9,1.1
	c-0.3,0.4-0.7,0.7-1,1.1c-0.4,0.4-0.7,0.7-1.2,0.9c-0.4,0.2-0.9,0-1.2-0.4c-0.3-0.4-0.4-0.9-0.4-1.5c0.5-4.4,0.1-9.5-1.6-14.5
	l-0.2-0.5l-0.2,0.5c-0.5,1.2-0.8,2.5-0.9,3.8c-0.1,1.8,0.2,3.6,0.9,5.3c0.3,0.8,0.7,1.6,1.2,2.3c0.5,0.7,1.1,1.4,2,1.7
	c0.5,0.1,1,0,1.3-0.5c0.3-0.4,0.3-0.9,0.3-1.3c0-0.8,0-1.6-0.1-2.4c-0.2-1.6-0.7-3-1.3-4.4l-0.1-0.3l-0.2,0.2
	c-1,1.4-0.6,3.5,0.8,4.3c1.4,0.8,3.2,0.3,3.9-0.9c0.8-1.2,0.5-2.7-0.3-3.6c-0.2-0.2-0.4-0.4-0.7-0.5c-0.3-0.1-0.7,0-0.9,0.2
	c-0.2,0.2-0.2,0.5-0.2,0.8c0,0.3,0.1,0.5,0.2,0.7c0.6,1.8,1.6,3,2.4,3.7c0.4,0.3,0.7,0.6,0.9,0.7c0.2,0.1,0.3,0.2,0.3,0.2
	c0,0-0.1-0.1-0.3-0.3c-0.2-0.2-0.5-0.4-0.8-0.8c-0.7-0.7-1.6-1.9-2.2-3.7c-0.1-0.4-0.2-1,0-1.3c0.3-0.4,0.9-0.1,1.2,0.3
	c0.7,0.8,0.9,2.2,0.2,3.2c-0.7,1-2.3,1.4-3.5,0.7c-1.2-0.7-1.6-2.6-0.7-3.8l-0.3,0c0.6,1.3,1.1,2.7,1.3,4.2c0.1,0.8,0.1,1.5,0.1,2.3
	c0,0.4-0.1,0.8-0.3,1.1s-0.5,0.4-0.9,0.3c-0.3-0.1-0.7-0.3-1-0.6c-0.3-0.3-0.5-0.6-0.8-0.9c-0.5-0.7-0.9-1.4-1.2-2.2
	c-0.6-1.6-0.9-3.3-0.8-5.1c0.1-1.3,0.4-2.5,0.8-3.6H260c1.7,4.9,2.1,9.9,1.6,14.4c0,0.6,0.1,1.2,0.4,1.7c0.2,0.2,0.4,0.4,0.7,0.5
	c0.3,0.1,0.6,0.1,0.9,0c0.6-0.2,0.9-0.6,1.3-1c0.4-0.4,0.7-0.7,1-1.1c0.3-0.4,0.6-0.7,0.9-1.1c0.3-0.4,0.6-0.7,0.8-1.2
	c0.2-0.4,0.2-1.1-0.2-1.4c-0.3-0.4-0.8-0.6-1.2-0.6c-0.4-0.1-0.9,0-1.3,0c-0.4,0-0.8,0.1-1.2,0.1c-0.7,0-1.5,0-2.1,0
	c-1.3-0.1-2.4-0.3-3.3-0.5c-0.9-0.2-1.6-0.5-2-0.6C256,141.2,255.7,141.1,255.7,141.1L255.7,141.1z"/>
<path class="st3" d="M17.6,462.9h548"/>
<path class="st4" d="M304,331.3c0,0,2.1,23.8,2.1,25.2c0,1.4,27.5,67,29.6,73c2.1,6,6.4,17.7,5,22.9c-1.4,5.1-9.2,10.1-13.7,11.5
	c-4.5,1.5-13.4,1.4-15.1,1.1c-1.6-0.3-10.4-0.2-10.4-0.2l-8.5-20.4l7.5-3.7l-11.4-32.8l4.7-39.5L304,331.3L304,331.3z"/>
<path class="st5" d="M300.5,440.7c0,0,17.7-8.1,26.9-7.7"/>
<path class="st4" d="M285.5,434.6l2.3,27.9H165.9c4.3-25.3,4.3-45.1,4.3-45.1s-6.1-49.3-6.1-55.1c0-5.8-4.7-22.7-3.5-25.5
	c1.2-2.9,26.8-10.7,37.9-14.6c11.1-4,26.8-7.5,26.8-7.5l28.9,3.1c0,0,33.8,6.2,41.1,7.4c7.3,1.1,8.2,2.9,8.7,6.2
	c0.6,3.2-10.2,37-10.2,37L285.5,434.6L285.5,434.6z"/>
<path class="st6" d="M257.9,335.3c0,0-2.3,15.4-5.2,28c-2.9,12.6-11.1,31.4-11.1,31.4s-19.8-32.1-22.8-47c-3-14.9-3.9-19.5-3.9-19.5
	l42.7-0.4L257.9,335.3L257.9,335.3z"/>
<path class="st6" d="M253.3,307.9c0,0,4.1,10.2,6.1,14.1c2,3.9,13.9,20.8,13.2,22.1s-6.6-0.5-8.2-1.2c-1.6-0.7-8.9-3.5-8.9-3.5
	s1.6,3.5,0.9,4.6c-0.7,1.1-11.6,11.2-11.6,11.2l-8.6,0.1c0,0-1.4-1.6-3-3.1c-1.6-1.4-12.3-8.2-15-10.1c-2.7-1.9-3-6.9-3-6.9
	s-14.1,7.7-14.8,4.9c-0.7-2.8,2.9-6,6.6-15.4c3.6-9.4,5-15.5,7.9-19.9c2.9-4.4,4.1-4.6,4.1-4.6L253.3,307.9L253.3,307.9z"/>
<path class="st6" d="M250.4,313.7c0,0-0.9,25-1.1,29.3c-0.2,4.3-9.1,23.8-10.6,21.2c-1.6-2.6-11.8-21.8-15-29
	c-3.2-7.2-4.3-21.5-4.8-24.5c-0.5-3-0.9-16.4-0.9-16.4s11.8,18,16.6,20.6C239.3,317.6,250.4,313.7,250.4,313.7L250.4,313.7z"/>
<path class="st4" d="M235.6,320.3l14.3,8.8l0.6-15.5L235.6,320.3z"/>
<path class="st6" d="M293,444.4c0,0-26.9,3.5-28.8,3.4c-1.9-0.1-10.4,4.8-13.4,7.1c-3.1,2.2-9.1,7.5-9.1,7.5l31.3,0.7
	c0,0,3.5-0.8,5.4-0.7c1.9,0.1,4.5,1.6,9.9,1.6c5.4,0,11.6-2.6,11.6-2.6L293,444.4L293,444.4z"/>
<path class="st3" d="M282.9,457.7c0,0-5.8-1.3-7.7-0.4s-9.3,5.2-9.3,5.2"/>
<path class="st3" d="M278.2,453.5c0,0-8.9-0.1-10.3,0.4c-1.5,0.5-10.6,8.5-10.6,8.5"/>
<path class="st3" d="M269.8,450.5c0,0-7.1,0-8.2,1c-1.1,1-11.5,9.4-12.3,10.4"/>
<path class="st6" d="M200,452.7l4.6-10.3l-11-1.2C193.7,441.1,192.7,449.7,200,452.7z"/>
<path class="st7" d="M180.7,357.6c0,0,14.9,19,15.2,23.7c0.3,4.7-6.4,43.3-6.4,43.3l13.1,3.1c0,0-3.5,9.2-3.5,14.5
	c0,5.3,0.9,10.5,0.9,10.5s-25.9,5.2-32.9,4.3c-7-0.9-9-3.6-13.4-9.9c-4.4-6.3,0.9-16.9,3.2-22.7c2.3-5.8,1.5-8.7,1.5-8.7l6.6-59.9"
	/>
<path class="st3" d="M180.7,357.6c0,0,14.9,19,15.2,23.7c0.3,4.7-6.4,43.3-6.4,43.3l13.1,3.1c0,0-3.5,9.2-3.5,14.5
	c0,5.3,0.9,10.5,0.9,10.5s-25.9,5.2-32.9,4.3c-7-0.9-9-3.6-13.4-9.9c-4.4-6.3,0.9-16.9,3.2-22.7c2.3-5.8,1.5-8.7,1.5-8.7l6.6-59.9"
	/>
<path class="st2" d="M189.5,424.5c0,0-15.8-3.5-25.4-3.9L189.5,424.5z"/>
<path class="st3" d="M189.5,424.5c0,0-15.8-3.5-25.4-3.9"/>
<path class="st6" d="M238.7,405.8l4.3-24.1c0,0,25.2,1.2,36.4,1.8c11.2,0.6,44.4-0.4,44.4-0.4s-19.2,50.6-20.8,54.7
	c-1.6,4.1-3.1,7.5-3.1,7.5s-19.4,3.4-38.8,2.9c-19.4-0.5-28.1-5.2-28.1-5.2L238.7,405.8L238.7,405.8z"/>
<path class="st6" d="M202.6,427.7l9.2-3.7c0,0,15.7-12,17.1-13.4c1.4-1.4,9.7-4.8,9.7-4.8l-1.8,9.7c0,0,28.1,12.7,30,14.2
	c1.9,1.5-2.1,2.8-2.1,2.8s3.7,2.4,1.9,3.6c-1.9,1.2-8.3,0.9-8.3,0.9s-3.9,2.1-8.1,2.6c-4.1,0.5-13.6,0.9-13.6,0.9s1,1.7,4.1,2.6
	c3.1,0.9,12.4,4,11.2,5.6c-1.2,1.6-10.1,0-10.1,0s-16.9-3.7-17.6-3.8c-0.6,0-6,1.2-8.7,1.1c-2.7-0.1-8.9-1.2-8.9-1.2l-7.4-0.1
	C199.3,444.8,199.4,432.4,202.6,427.7L202.6,427.7z"/>
<path class="st3" d="M236.8,415.4l-5.2-2.5"/>
<path class="st3" d="M264.7,432.4l-28.3-9.4"/>
<path class="st3" d="M258.4,436.9l-26.5-4.7"/>
<path class="st3" d="M236.7,440.5l-7.4-0.5"/>
<path class="st4" d="M232.8,230.8c0,0-1.7-9.2-4.6-9.8c-2.9-0.6-21,0.8-24.3,6.1c-3.3,5.4-4.6,24-3,26c1.7,2,12,3.8,13.2,3.9
	c1.2,0,5.3-13.2,11.7-18.3C232.4,233.7,232.8,230.8,232.8,230.8z"/>
<path class="st4" d="M264.5,233.7c0,0,7.9,3.9,9.4,8.5c1.4,4.6,1.7,9.7,1.7,9.7s10.1,3.5,8.9,11.1c-1.2,7.6-9.6,12.4-10.3,12.8
	c-0.7,0.5-7.9,12.2-7.9,12.2l-0.7-9.9c0,0,0.5-1.7-10.5-2.6c-11-0.9-18.7,0.3-21.8-0.6c-3.1-0.8-4.3-1.1-4.3-1.1s-0.7,0.9-4.1,2.7
	c-3.4,1.8-7.9,5.7-9.6,4.4c-1.7-1.3-3.8-12.2-3.8-12.2s-1.5-18.5-1.5-21.9s7.4-10,9.3-11.7c1.9-1.6,17.7-8.2,21.3-9.3
	c3.6-1.1,14.1,0.3,18.2,2.9C262.8,231.5,264.5,233.7,264.5,233.7L264.5,233.7z"/>
<path class="st6" d="M270,273.8c0,0-6.7,23-7.4,27.8c-0.6,4.1-5.6,8.3-8.4,11c-2.9,2.8-12.8,13.7-17,9.7
	c-2.6-2.5-12.6-12.2-15.5-16.2c-2.9-3.9-3.4-9.7-4.4-13.4l-1-3.6c0,0-4.8-3.1-5.5-7.2c-0.7-4.1-3.1-13.3,0.5-13s3.8,6.1,4.1,7.8
	c0.2,1.7,2.2,0.1,3.4-1.1c1.2-1.2,4.3-1.3,5.7-2.9c1.4-1.6-1.9-14.2-0.3-13.2c1.7,1,2.9,10,13.7,10.6c10.8,0.6,18.2-1,18.2-1
	S260.9,277,270,273.8L270,273.8z"/>
<path class="st3" d="M246.4,282.9c0,0,20.9-0.8,21.5-0.2c0.6,0.6-1.4,8.1-3.1,10.4c-1.8,2.3-10.9,2-13.6,0.7
	C248.4,292.5,246.4,282.9,246.4,282.9L246.4,282.9z"/>
<path class="st3" d="M242.6,282.8c0,0-3.7,9.9-5.9,11c-2.2,1.1-7.7,1.5-10.7,1c-3-0.5-5.1-2.2-5.5-3c-0.4-0.8-1.4-10.1-1.4-10.1
	L242.6,282.8L242.6,282.8z"/>
<path class="st3" d="M242.6,282.8l3.7,0.1"/>
<path class="st3" d="M219.2,281.7l-3.8-7.8"/>
<path class="st3" d="M259.4,288.7c0,0-4.3,3.6-8.1-0.3"/>
<path class="st3" d="M235.7,288.6c0,0-5.5,2.4-8.3-0.5"/>
<path class="st3" d="M250.3,282.3c0,0,6.9-2.7,12.2-1.1"/>
<path class="st3" d="M239.3,281.2c0,0-8.7-1.7-13.6-0.7"/>
<path class="st3" d="M247.4,298.7c0,0,0.2,3.8-0.2,4.3c-0.4,0.6-2,2.3-3.5,2c-1.6-0.3-4.7-2.4-4.7-2.4"/>
<path class="st3" d="M249.2,307.5c0,0-5.5,3.8-11.6-0.6"/>
<path class="st6" d="M441.6,250.9c0,0,10.7-20.7,14.9-20.6c4.2,0.1,4.2,7.3,4.2,7.3s8.1-6.2,9.2-3.8l1.1,2.4c0,0,19.3,4.9,26.8,14.1
	c7.5,9.1,11.1,19.1,7.8,26.3c-3.4,7.2-9.7,31.1-9.7,31.1l2.6,9.9l-28.9,17.2l-6.8-12.4c0,0-14.8,4.4-16.8,2.6
	c-1.9-1.8-9.7-26-9.7-26l-9.1-6.3c0,0,7.9-17.5,8.6-22.1C436.4,265.9,439.3,256.8,441.6,250.9L441.6,250.9z"/>
<path class="st3" d="M440,304.5c0,0,2.1,1.5,4.8-3.6"/>
<path class="st4" d="M441.6,250.9c0,0,10.7-20.7,14.9-20.6c4.2,0.1,4.2,7.3,4.2,7.3s8.1-6.2,9.2-3.8l1.1,2.4c0,0,19.3,4.9,26.8,14.1
	c7.5,9.1,11.1,19.1,7.8,26.3c-2.6,5.6-7,21.1-8.8,27.9c-2.1,0.9-4.3,1.5-6.4,1.8c-9.3,1-18.3-7.3-18.3-7.3s5.4-3.7,3.4-11.7
	c-2-8-7.5-8.1-7.5-8.1s-2.9,6.4-7.4,5.3c-4.4-1.1,2.9-7.7,3.2-11.3c0.3-3.5-4.1-7-5.4-9.1c-1.3-2,5.5-3.4,7.7-5.4
	c2.1-2-13.3-4.3-16.7-5.4c-3.4-1.1,3-1.6,5.9-4.5C458,246,441.6,250.9,441.6,250.9L441.6,250.9z"/>
<path class="st7" d="M440,277.5c-0.1,1.9,0.5,3.5,1.3,3.5c0.8,0,1.6-1.5,1.7-3.4c0.1-1.9-0.5-3.5-1.3-3.5
	C440.8,274.1,440.1,275.6,440,277.5z"/>
<path class="st3" d="M445.7,270.4c0,0-3.9-8.5-8.4-3"/>
<path class="st3" d="M472,299l-6.5,0.2l-0.2,5.2"/>
<path class="st4" d="M459.1,339.2c0,0-5.3,5-6,8c-0.7,3-1,5.7-1,5.7s-9.6,13.3-10.6,20.6c-1,7.3,2,23.3,2,23.3l19.3-57.2
	L459.1,339.2L459.1,339.2z"/>
<path class="st6" d="M499.1,306.5c0,0-39.8,28.4-40,29.2c-0.2,0.8-0.4,9.1-0.4,9.1l45.9-30.3L499.1,306.5z"/>
<path class="st8" d="M458.7,344.8c0,0-10.9,19.2-11.6,22.1c-0.6,2.9-7.2,44.7-7.2,44.7l-8.2,51.2h103.3c0,0-2.3-20.9-3.5-38
	c-1.3-17.1-1.9-42.2-8.1-64.6c-3.5-12.6-18.9-45.8-18.9-45.8L458.7,344.8L458.7,344.8z"/>
<path class="st6" d="M408.8,407c0,0-5.3-9.6-6.5-10.9c-1.1-1.3-6.5-3.3-8-3.8c-1.5-0.6-14.1-4.8-14.9-4.8s-1.7,1.7-1.5,3.6
	c0.2,1.9,3.4,4.2,4.2,4.4c0.8,0.2-9.7,0.2-13.4,0.6c-3.6,0.4-10.5,1.7-11.1,3.3c-0.6,1.5,0,3.1,2.1,3.3c2.1,0.2,6.1-0.4,6.1-0.4
	l9.9,1c0,0-12.8,1.9-14.7,2.3c-1.9,0.4-3.1,2.9-2.1,4.2c1,1.3,6.5,0.6,6.5,0.6l9.4-0.6c0,0-12.2,3.8-12.8,4.6
	c-0.6,0.8-0.2,3.1,1.5,3.4c1.7,0.4,9.7-0.6,9.7-0.6l4,0.6c0,0-5.7,0.8-5.7,1.5c0,0.8,0,1.9,1.3,1.9c1.3,0,10.1-0.2,10.1-0.2
	s4,2.3,7.5,2.1c3.4-0.2,17.6-1.9,17.6-1.9L408.8,407L408.8,407z"/>
<path class="st3" d="M382.1,395.5l6,3c0,0,0,5.8,5.3,9.6"/>
<path class="st3" d="M375.7,401.6c0,0,1.3,11.8,2.2,14.7"/>
<path class="st8" d="M443.6,409.3l-26.3-1.4v14.6l22.9,3.1L443.6,409.3z"/>
<path class="st6" d="M417.4,407.9l-8.5-1.2l-0.8,14.6l9.4,1.2V407.9z"/>
<path class="st9" d="M492.6,347.1c0,0-7.9-5.7-12.6-4.7c-4.7,1-18.6,5.7-21.8,12c-3.2,6.3-22.4,63.9-22.4,63.9l-73.2-5.4l-2.7,26.5
	c0,0,78.8,16.6,85.1,17.5c6.3,1,13.3,1,16.4-2.2c3.2-3.2,36.3-74.7,36.3-74.7"/>
<path class="st3" d="M492.6,347.1c0,0-7.9-5.7-12.6-4.7c-4.7,1-18.6,5.7-21.8,12c-3.2,6.3-22.4,63.9-22.4,63.9l-73.2-5.4l-2.7,26.5
	c0,0,78.8,16.6,85.1,17.5c6.3,1,13.3,1,16.4-2.2c3.2-3.2,36.3-74.7,36.3-74.7"/>
<path class="st6" d="M362.6,412.9l-11.9-1.7l-1,22.6l10.4,1.6L362.6,412.9z"/>
<path class="st6" d="M350.7,411.2c0,0-6-7.7-7.3-10.9c-1.2-3.1-7.7-3.6-10.6-4.4c-2.9-0.8-7.1-2.5-7.5-1c-0.4,1.5-0.6,4.6,1,5.8
	c1.7,1.2,5.6,2.1,6.7,2.9c1,0.8,2.1,1.7,2.1,1.7l-19,1.9c0,0-8.8-1.2-12.7,0c-4,1.2-7.1,1.2-7.3,2.9c-0.2,1.7,0.2,4,1.2,4.2
	c1,0.2,4.4-0.2,5-0.2c0,0-2.3,2.3-2.1,3.1c0.2,0.8,1.7,3.1,2.5,3.1s6,0.4,6.9,0.6c0.8,0.2,4.6,4,5.4,4.4c0.8,0.4,6.7,2.5,6.7,2.5
	s2.1,1.7,6.3,2.7c4.2,1,21.7,3.2,21.7,3.2L350.7,411.2L350.7,411.2z"/>
<path class="st3" d="M321.9,427.3c0,0,2.1,0.4,4.4,0.7"/>
<path class="st3" d="M302.4,414.1l10.2-0.4l10,1"/>
<path class="st3" d="M309.7,421l5.6,0.4l8.8,0.4"/>
<path class="st4" d="M555.1,463.1l5.8-58.2c0.8-8.2-5.5-15.4-13.7-15.7c-7.3-0.3-13.6,5-14.6,12.3l-8.7,61.7H555.1L555.1,463.1z"/>
<path class="st10" d="M388.5,483l-20.2-10.2h89.5l26,10.2H388.5z"/>
<path class="st10" d="M398.2,482.6l-17.3-8.7h76.6l22.2,8.7H398.2z"/>
<path class="st10" d="M388.5,483h95.3l13-61.5h-95.3L388.5,483z"/>
<path class="st10" d="M438.5,450.4c-2.4,2.4-2.6,6.1-0.4,8.3c2.2,2.2,5.9,2,8.3-0.4c2.4-2.4,2.6-6.1,0.4-8.3
	C444.6,447.8,440.9,448,438.5,450.4z"/>
<path class="st11" d="M121.8,453.8c0-3.2,0.8-6.2,2.2-8.5H53.4c-4.5,0-8.2,3.7-8.2,8.2c0,4.5,3.7,8.2,8.2,8.2h70.3
	C122.6,459.6,121.8,456.8,121.8,453.8L121.8,453.8z"/>
<path class="st12" d="M123.8,463.2H53.4c-5.3,0-9.7-4.3-9.7-9.7s4.3-9.7,9.7-9.7H124c0.8,0,1.4,0.7,1.4,1.5s-0.7,1.5-1.4,1.5H53.4
	c-3.7,0-6.8,3-6.8,6.8c0,3.7,3,6.8,6.8,6.8h70.3c0.8,0,1.4,0.6,1.4,1.5S124.6,463.3,123.8,463.2L123.8,463.2z"/>
<path class="st11" d="M114.2,445.4c-1.4,2.3-2.2,5.2-2.2,8.5c0,3,0.7,5.8,1.9,8h9.8c-1.2-2.2-1.9-5-1.9-8c0-3.2,0.8-6.2,2.2-8.5
	H114.2z"/>
<path class="st11" d="M123.8,473c0-3.2,0.8-6.2,2.2-8.5H55.4c-4.5,0-8.2,3.7-8.2,8.2c0,4.5,3.7,8.2,8.2,8.2h70.3
	C124.5,478.8,123.8,476,123.8,473L123.8,473z"/>
<path class="st13" d="M125.7,482.4H55.4c-5.3,0-9.7-4.3-9.7-9.7c0-5.3,4.3-9.7,9.7-9.7H126c0.8,0,1.4,0.7,1.4,1.5s-0.6,1.5-1.4,1.5
	H55.4c-3.7,0-6.8,3-6.8,6.8c0,3.7,3,6.8,6.8,6.8h70.3c0.8,0,1.4,0.7,1.4,1.5S126.5,482.5,125.7,482.4L125.7,482.4z"/>
<path class="st11" d="M116.2,464.5c-1.4,2.3-2.2,5.2-2.2,8.5c0,3,0.7,5.8,1.9,8h9.8c-1.2-2.2-1.9-5-1.9-8c0-3.2,0.8-6.2,2.2-8.5
	H116.2L116.2,464.5z"/>
<path class="st14" d="M98.8,404.9l14.6-47.5l16.7,47.3l0.2-0.1l-16.9-47.9l-14.7,48.1L98.8,404.9z"/>
<path class="st15" d="M130.1,404.6c0,0-3.9,4.3-10.3,4.3c-6.5,0-12.1,0-12.1,0s-6.2-0.4-9-4.1L130.1,404.6z"/>
<path class="st14" d="M36.2,404.9l14.6-47.5l16.7,47.3l0.2-0.1l-16.9-47.9L36,404.8L36.2,404.9z"/>
<path class="st15" d="M67.5,404.6c0,0-3.8,4.3-10.3,4.3s-12.1,0-12.1,0s-6.2-0.4-9-4.1L67.5,404.6z"/>
<path class="st15" d="M119.9,356.3H43.6c-0.5,0-0.8,0.4-0.8,0.8v0.3c0,0.5,0.4,0.8,0.8,0.8h76.3c0.5,0,0.8-0.4,0.8-0.8v-0.3
	C120.8,356.7,120.4,356.3,119.9,356.3z"/>
<path class="st15" d="M102.3,444.2v-2c0,0-5.4-0.7-7.3-5.7c-0.1,0.3-8.4-3.8-8.8-9H83v16.6L102.3,444.2L102.3,444.2z"/>
<path class="st15" d="M64.4,444.2v-2c0,0,5.4-0.7,7.3-5.7c0.1,0.3,8.4-3.8,8.8-9h3.2v16.6L64.4,444.2L64.4,444.2z"/>
<g class="st16">
	<path class="st14" d="M80,428.5l6.6,0.7c0.1,0.5-0.2,1-0.6,1.4c-0.4,0.3-0.9,0.5-1.3,0.6c-1,0.3-2.2,0.3-3.1-0.1
		C80.6,430.7,79.9,429.6,80,428.5L80,428.5z"/>
</g>
<path class="st15" d="M79.2,426.3c0,2.4,1.9,4.4,4.3,4.4s4.3-2,4.3-4.4c0-2.4-1.9-4.4-4.3-4.4S79.2,423.9,79.2,426.3z"/>
<path class="st15" d="M81.7,408.9l-1.6-2.5l1.6-45.9l1.2-14.2c0-0.6,0.9-0.6,0.9,0l1.2,14.2l1.6,45.9l-1.6,2.5l4.8,6.8l-6.6,8.8
	l-6.6-8.8L81.7,408.9L81.7,408.9z"/>
<path class="st15" d="M80,357.5c0,2,1.6,3.6,3.5,3.6s3.5-1.6,3.5-3.6s-1.6-3.6-3.5-3.6S80,355.6,80,357.5z"/>
<path class="st14" d="M80,357.5c0,0,0-0.3,0.1-0.9c0.1-0.5,0.5-1.3,1.2-1.9c0.4-0.3,0.9-0.6,1.4-0.7c0.6-0.1,1.2-0.1,1.8,0.2
	c0.3,0.1,0.6,0.3,0.9,0.5c0.3,0.2,0.5,0.5,0.7,0.8c0.2,0.3,0.4,0.6,0.5,1c0.1,0.3,0.2,0.7,0.2,1.1c0,0.4-0.1,0.7-0.2,1.1
	c-0.1,0.3-0.3,0.7-0.5,1c-0.2,0.3-0.4,0.5-0.7,0.8c-0.3,0.2-0.6,0.4-0.9,0.5c-0.6,0.2-1.2,0.3-1.8,0.2c-0.6-0.1-1.1-0.4-1.4-0.7
	c-0.8-0.6-1.1-1.4-1.2-1.9C80,357.8,80,357.5,80,357.5c0,0,0,0,0,0.2c0,0.1,0,0.2,0,0.3c0,0.1,0,0.2,0.1,0.4c0,0.3,0.2,0.6,0.4,1
	c0.2,0.3,0.5,0.7,0.9,1c0.4,0.3,0.9,0.6,1.5,0.7c0.6,0.1,1.3,0.1,1.9-0.2c0.3-0.1,0.6-0.3,0.9-0.5c0.3-0.2,0.5-0.5,0.7-0.8
	c0.2-0.3,0.4-0.6,0.5-1c0.1-0.4,0.2-0.7,0.2-1.1c0-0.4-0.1-0.8-0.2-1.1s-0.3-0.7-0.5-1c-0.2-0.3-0.5-0.6-0.7-0.8
	c-0.3-0.2-0.6-0.4-0.9-0.5c-0.6-0.2-1.3-0.3-1.9-0.2c-0.6,0.1-1.1,0.4-1.5,0.7c-0.4,0.3-0.7,0.7-0.9,1c-0.2,0.3-0.3,0.7-0.4,1
	c0,0.1,0,0.3-0.1,0.4c0,0.1,0,0.2,0,0.3C80,357.4,80,357.5,80,357.5L80,357.5z"/>
<g class="st16">
	<path class="st14" d="M86.7,406.5h-6.6l1.6,2.5h3.5L86.7,406.5z"/>
</g>
<path class="st14" d="M80.3,406.5c0,0,0,0-0.2,0v0c0.4,0,1.7,0,3.2,0c0.9,0,1.8,0,2.4,0c0.3,0,0.5,0,0.7,0c0.2,0,0.3,0,0.3,0
	c0,0-0.1,0-0.3,0c-0.2,0-0.4,0-0.7,0c-0.6,0-1.4,0-2.4,0c-1.5,0-2.8,0-3.2,0v0C80.3,406.5,80.3,406.5,80.3,406.5L80.3,406.5z"/>
<path class="st14" d="M81.8,408.9C81.8,408.9,81.8,408.9,81.8,408.9L81.8,408.9c0.1,0,0.8,0.1,1.6,0.1c1,0,1.8,0,1.8-0.1
	c0,0-0.8-0.1-1.8-0.1C82.6,408.8,81.9,408.9,81.8,408.9L81.8,408.9C81.7,408.9,81.8,408.9,81.8,408.9z"/>
<g class="st16">
	<path class="st14" d="M90,415.8l-4.9,6.5c-1.2-0.4-2.3-0.4-3.5,0l-4.8-6.5H90L90,415.8z"/>
</g>
<path class="st14" d="M76.9,415.8c0,0,2.9,0.1,6.6,0.1c3.6,0,6.6,0,6.6-0.1c0,0-2.9-0.1-6.6-0.1C79.8,415.7,76.9,415.8,76.9,415.8z"
	/>
<path class="st14" d="M81.6,422.3c0,0,0.8-0.3,1.8-0.2c1,0,1.8,0.3,1.8,0.2c0,0-0.2-0.1-0.5-0.2c-0.3-0.1-0.8-0.2-1.3-0.2
	c-0.5,0-1,0.1-1.3,0.1C81.8,422.2,81.6,422.3,81.6,422.3L81.6,422.3z"/>
<path class="st14" d="M79.6,428.3c0,0,0,0.1,0.1,0.3c0.1,0.2,0.3,0.5,0.5,0.8c0.3,0.3,0.6,0.6,1.1,0.9c0.5,0.3,1,0.5,1.6,0.5
	c0.6,0.1,1.2,0,1.7-0.2c0.5-0.2,0.9-0.4,1.3-0.6c0.3-0.2,0.5-0.5,0.7-0.6c0.1-0.2,0.2-0.3,0.2-0.3c0,0-0.3,0.4-1,0.8
	c-0.6,0.4-1.7,0.9-2.9,0.7c-1.2-0.1-2.1-0.8-2.6-1.4C79.8,428.7,79.6,428.3,79.6,428.3L79.6,428.3z"/>
<path class="st14" d="M71.7,436.6c0,0,5.2,0.1,11.6,0.1s11.6,0,11.6-0.1c0,0-5.2-0.1-11.6-0.1C76.9,436.5,71.7,436.5,71.7,436.6z"/>
<path class="st14" d="M64.5,442.2c0,0,8.5,0.1,19,0.1s19,0,19-0.1c0,0-8.5-0.1-19-0.1S64.5,442.2,64.5,442.2z"/>
<path class="st15" d="M111.3,356.2c-0.3,1.4,0.6,2.7,2,2.9c1.4,0.3,2.7-0.6,3-2c0.3-1.4-0.6-2.7-2-2.9
	C112.9,353.9,111.5,354.8,111.3,356.2z"/>
<path class="st14" d="M111.3,356.2c0,0,0-0.2,0.2-0.6c0.2-0.3,0.5-0.8,1.2-1.1c0.3-0.1,0.7-0.2,1.1-0.2c0.4,0,0.8,0.1,1.2,0.4
	c0.2,0.1,0.4,0.3,0.5,0.4c0.2,0.2,0.3,0.4,0.4,0.6c0.2,0.4,0.3,1,0.2,1.5c-0.1,0.5-0.4,1-0.7,1.3c-0.2,0.2-0.4,0.3-0.6,0.4
	c-0.2,0.1-0.4,0.2-0.7,0.2c-0.4,0.1-0.9,0-1.3-0.1c-0.4-0.1-0.7-0.4-0.9-0.6c-0.5-0.5-0.6-1.1-0.6-1.5
	C111.2,356.4,111.3,356.2,111.3,356.2c0,0-0.1,0.2-0.1,0.6c0,0.4,0.1,1,0.6,1.6c0.2,0.3,0.6,0.5,1,0.7c0.4,0.2,0.9,0.2,1.3,0.2
	c0.2,0,0.5-0.1,0.7-0.2c0.2-0.1,0.4-0.2,0.6-0.4c0.4-0.3,0.7-0.8,0.8-1.4c0.1-0.5,0-1.1-0.2-1.6c-0.1-0.2-0.3-0.5-0.4-0.6
	c-0.2-0.2-0.4-0.3-0.6-0.5c-0.4-0.3-0.9-0.4-1.3-0.4c-0.4,0-0.8,0.1-1.1,0.3c-0.7,0.3-1,0.8-1.2,1.2
	C111.3,355.9,111.2,356.2,111.3,356.2L111.3,356.2z"/>
<path class="st15" d="M48.6,357.5c-0.3,1.4,0.6,2.7,2,2.9c1.4,0.3,2.7-0.6,3-2c0.3-1.4-0.6-2.7-2-2.9
	C50.2,355.3,48.8,356.2,48.6,357.5z"/>
<path class="st14" d="M48.6,357.5c0,0,0-0.2,0.2-0.6c0.2-0.3,0.5-0.8,1.2-1.1c0.3-0.1,0.7-0.2,1.1-0.2c0.4,0,0.8,0.1,1.2,0.4
	c0.2,0.1,0.4,0.3,0.5,0.4c0.2,0.2,0.3,0.4,0.4,0.6c0.2,0.4,0.3,1,0.2,1.5c-0.1,0.5-0.4,1-0.7,1.3c-0.2,0.2-0.4,0.3-0.6,0.4
	c-0.2,0.1-0.4,0.2-0.7,0.2c-0.4,0.1-0.9,0-1.3-0.1c-0.4-0.1-0.7-0.4-0.9-0.6c-0.5-0.5-0.6-1.1-0.6-1.5
	C48.5,357.7,48.6,357.5,48.6,357.5c0,0-0.1,0.2-0.1,0.6c0,0.4,0.1,1,0.6,1.6c0.2,0.3,0.6,0.5,1,0.7c0.4,0.2,0.9,0.2,1.3,0.2
	c0.2,0,0.5-0.1,0.7-0.2c0.2-0.1,0.4-0.2,0.6-0.4c0.4-0.3,0.7-0.8,0.8-1.4c0.1-0.5,0-1.1-0.2-1.6c-0.1-0.2-0.3-0.5-0.4-0.6
	c-0.2-0.2-0.4-0.3-0.6-0.5c-0.4-0.3-0.9-0.4-1.3-0.4c-0.4,0-0.8,0.1-1.1,0.3c-0.7,0.3-1,0.8-1.2,1.2
	C48.6,357.3,48.5,357.5,48.6,357.5L48.6,357.5z"/>
</svg>
