<svg width="767" height="165" viewBox="0 0 767 165" fill="none" xmlns="http://www.w3.org/2000/svg">
<path d="M20.5442 72.8935C23.8606 72.8826 30.5939 69.7338 30.6067 69.7282C30.6832 69.6945 27.1746 65.9137 26.9288 65.7014C24.0566 63.2275 17.0612 60.143 13.4513 62.3586C10.8458 63.9488 10.5235 67.4025 12.3028 69.7473C14.1173 72.1377 17.7205 72.9162 20.5498 72.9062L20.5442 72.8935Z" fill="#0C756F"/>
<path d="M31.589 91.6072C34.6585 90.7589 39.9552 86.32 40.3782 85.9658C42.8326 88.9443 45.6046 91.8134 48.5638 94.5543C50.2489 96.1318 51.9992 97.6501 53.7751 99.1571C52.8662 98.5807 52.0405 98.0897 51.9246 98.034C48.4993 96.4141 40.9477 95.2838 38.0449 98.3784C35.9516 100.613 36.5683 104.019 38.8928 105.803C41.2655 107.628 44.9534 107.423 47.6686 106.669C50.4405 105.906 55.0272 102.207 56.2236 101.222C56.9145 101.788 57.5855 102.378 58.2764 102.943C61.5798 105.67 64.8959 108.391 68.0476 111.154C69.1622 112.128 70.2258 113.125 71.2894 114.121C70.4765 113.625 69.7852 113.197 69.6877 113.148C66.2624 111.528 58.7108 110.398 55.808 113.492C53.7275 115.721 54.3314 119.133 56.6559 120.917C59.0286 122.742 62.7165 122.537 65.4317 121.783C68.0647 121.051 72.3418 117.687 73.7724 116.507C74.833 117.566 75.9007 118.607 76.8791 119.687C77.5298 120.438 78.2163 121.097 78.8216 121.883C79.4469 122.646 80.0665 123.395 80.6734 124.151C81.8007 125.638 82.9762 127.165 84.0356 128.637C84.7862 129.649 85.4817 130.64 86.1771 131.631C85.0752 130.651 82.8925 128.774 82.6805 128.639C79.5483 126.508 72.2447 124.246 68.9029 126.862C66.5018 128.744 66.5845 132.218 68.6122 134.331C70.688 136.484 74.3545 136.854 77.162 136.517C80.2458 136.151 85.949 132.739 86.6567 132.305C87.8078 133.95 88.9292 135.562 89.9417 137.1C92.2082 140.482 94.1455 143.566 95.7428 146.189L98.2819 145.071C96.5631 142.379 94.4802 139.206 92.0144 135.683C90.8521 134.013 89.5697 132.243 88.2393 130.433C88.6198 130.052 90.7229 127.874 92.4368 125.608C95.3731 126.879 101.566 127.173 102.37 127.2C102.43 129.204 102.473 131.169 102.478 133.013C102.504 136.878 102.425 140.331 102.332 143.302L105.076 142.094C105.093 139.4 105.084 136.337 104.99 132.975C104.945 130.935 104.837 128.754 104.72 126.516C105.515 126.349 112.021 124.933 114.527 123.082C116.8 121.394 119.225 118.632 119.257 115.627C119.292 112.697 116.968 110.118 113.933 110.387C109.712 110.766 105.938 117.418 105.117 121.122C105.063 121.344 104.802 123.763 104.654 125.294C104.604 124.385 104.56 123.489 104.498 122.554C104.382 120.698 104.203 118.839 104.03 116.855C103.913 115.899 103.791 114.93 103.664 113.948C103.567 112.968 103.335 111.957 103.17 110.961C102.745 108.645 102.202 106.305 101.596 103.962C103.225 103.856 108.993 103.391 111.504 102.071C114.003 100.757 116.827 98.3836 117.306 95.4254C117.783 92.5295 115.881 89.6283 112.83 89.4461C108.602 89.1868 103.873 95.1917 102.498 98.712C102.413 98.9328 101.705 101.58 101.354 103.031C100.978 101.625 100.621 100.226 100.201 98.8234C98.9789 94.7681 97.6263 90.6939 96.2864 86.6141C95.872 85.3621 95.4761 84.1172 95.0801 82.8723C95.6622 82.8448 102.525 82.4469 105.345 80.9611C107.843 79.6469 110.668 77.2736 111.147 74.3154C111.624 71.4195 109.721 68.5184 106.67 68.3361C102.443 68.0768 97.7081 74.069 96.3391 77.6021C96.2393 77.8597 95.225 81.6792 95.0156 82.6565C94.1422 79.9126 93.2816 77.1631 92.564 74.4269C91.5533 70.6447 90.7662 66.8861 90.282 63.1925C90.5511 63.1808 97.7259 62.7983 100.603 61.2716C103.102 59.9574 105.926 57.5842 106.406 54.6259C106.882 51.73 104.98 48.8289 101.929 48.6466C97.7011 48.3873 92.9667 54.3795 91.5977 57.9126C91.4907 58.1886 90.4134 62.2801 90.2584 63.0351C90.2377 62.8153 90.1675 62.5867 90.1469 62.3669C89.6691 58.411 89.7065 54.5182 89.9316 50.8784C90.052 48.7651 90.2869 46.7387 90.5556 44.7891C91.895 44.8554 98.0471 45.0912 100.784 44.0076C103.407 42.9746 106.478 40.9199 107.279 38.0339C108.064 35.2158 106.502 32.119 103.486 31.6008C99.3119 30.8753 93.9544 36.3177 92.188 39.6749C92.0855 39.8574 91.3354 41.8207 90.792 43.2504C90.9218 42.3691 91.0531 41.4566 91.1999 40.6137C91.7451 37.4587 92.4326 34.592 93.0724 32.0668C93.4472 30.635 93.809 29.3463 94.1606 28.1384C95.5146 27.5115 100.928 24.9288 102.832 22.7475C104.682 20.6198 106.456 17.3818 105.848 14.4447C105.237 11.57 102.43 9.55563 99.513 10.474C95.4738 11.7494 93.2237 19.0586 93.2163 22.8467C93.2069 23.1713 93.7906 28.3014 93.8544 28.2733C93.8544 28.2733 93.9182 28.2452 93.9309 28.2396C93.5695 29.3907 93.1853 30.6283 92.8078 31.9849C92.1184 34.5014 91.363 37.3522 90.7484 40.5226C90.1281 43.6802 89.5438 47.1271 89.2478 50.8133C88.9574 54.5124 88.8322 58.4134 89.2248 62.4525C89.2289 62.4965 89.2387 62.5532 89.2428 62.5972C88.7673 61.4484 87.3145 58.2882 87.1693 58.0622C85.2083 54.8206 79.5282 49.707 75.3978 50.6716C72.4293 51.3686 71.0457 54.5572 72.0054 57.3241C72.9932 60.1549 76.1629 62.0248 78.8624 62.8961C81.8872 63.8835 88.7685 63.1114 89.3025 63.044C89.7169 66.8905 90.4469 70.7963 91.395 74.7129C91.9426 76.9593 92.5596 79.1904 93.2134 81.4358C92.7672 80.4572 92.3532 79.5865 92.2898 79.4771C90.3288 76.2355 84.6488 71.1219 80.5183 72.0865C77.5498 72.7835 76.1662 75.9721 77.1259 78.739C78.1009 81.5754 81.2834 83.4396 83.9829 84.3109C86.7064 85.2022 92.5774 84.6614 94.1341 84.4946C94.3923 85.3576 94.6449 86.2078 94.8975 87.058C96.1551 91.1588 97.42 95.2411 98.5362 99.2973C98.9359 100.724 99.2733 102.147 99.6051 103.558C99.2095 102.694 98.8575 101.964 98.794 101.854C96.8331 98.6129 91.153 93.4993 87.0226 94.4638C84.0541 95.1608 82.6704 98.3494 83.6301 101.116C84.6052 103.953 87.8004 105.811 90.4871 106.688C93.0875 107.542 98.5108 107.092 100.362 106.902C100.672 108.368 100.983 109.833 101.214 111.258C101.354 112.234 101.553 113.169 101.63 114.173C101.726 115.153 101.835 116.127 101.939 117.089C102.056 118.945 102.201 120.865 102.269 122.682C102.339 123.948 102.369 125.156 102.411 126.358C102.03 124.939 101.233 122.161 101.15 121.938C100.187 119.615 97.7214 116.23 94.9412 114.311C94.7892 113.965 94.6428 113.633 94.4271 113.316C92.8407 110.856 89.4855 109.983 87.0958 111.89C83.7835 114.54 84.3151 122.18 85.6565 125.71C85.7465 125.915 86.8537 128.082 87.575 129.443C87.0233 128.71 86.5084 127.99 85.9327 127.237C84.8053 125.749 83.6452 124.291 82.3963 122.736C81.7695 122.004 81.1371 121.26 80.4864 120.509C79.8668 119.76 79.121 119.035 78.4264 118.288C76.7912 116.582 75.0468 114.939 73.2642 113.313C74.5668 112.327 79.1163 108.751 80.4726 106.261C81.8344 103.784 82.8664 100.247 81.6433 97.5046C80.4355 94.8317 77.2545 93.4552 74.6208 94.9815C70.9532 97.1005 70.318 104.721 71.1137 108.43C71.1711 108.664 72.0392 111.258 72.5395 112.67C71.4616 111.71 70.3781 110.738 69.2493 109.8C65.9954 107.083 62.6197 104.434 59.2566 101.779C58.228 100.965 57.212 100.146 56.1961 99.3269C56.6686 98.9815 62.1627 94.8524 63.6897 92.0585C65.0516 89.5816 66.0836 86.0443 64.8604 83.3018C63.6527 80.6289 60.4717 79.2524 57.838 80.7787C54.1703 82.8977 53.5351 90.5181 54.3308 94.2271C54.3924 94.5052 55.6553 98.2374 56.0167 99.1618C53.7743 97.3566 51.5519 95.5274 49.4314 93.6533C46.5086 91.0642 43.7915 88.3541 41.3295 85.5316C41.5494 85.3737 47.313 81.0954 48.8685 78.2279C50.2304 75.7509 51.2624 72.2136 50.0392 69.4712C48.8443 66.7927 45.6505 65.4218 43.0168 66.948C39.3492 69.0671 38.7139 76.6875 39.5096 80.3965C39.5768 80.6874 40.9325 84.6992 41.2293 85.4078C41.0811 85.2442 40.9201 85.0862 40.7662 84.9098C38.1902 81.8628 36.0806 78.5951 34.2469 75.4348C33.1799 73.6003 32.2615 71.792 31.4167 70.0122C32.5741 69.3193 37.8235 66.1221 39.5067 63.7173C41.123 61.403 42.5482 57.9977 41.6298 55.1515C40.734 52.3565 37.7125 50.6503 34.9125 51.8683C31.0335 53.5767 29.5675 61.0748 29.9481 64.8445C29.9631 65.0516 30.4135 67.1118 30.7535 68.6103C30.3932 67.7922 29.9834 66.9655 29.64 66.1858C28.3452 63.246 27.3544 60.4776 26.4859 58.0215C26.004 56.6161 25.5968 55.3456 25.2305 54.1334C26.0156 52.872 29.0924 47.7167 29.474 44.8474C29.8399 42.0461 29.5426 38.3617 27.4143 36.2621C25.334 34.2024 21.8622 34.0681 19.9554 36.4493C17.2984 39.7561 19.4494 47.0956 21.5323 50.2682C21.7128 50.5397 25.0128 54.504 25.047 54.4432C25.047 54.4432 25.0811 54.3823 25.0882 54.3639C25.4193 55.5306 25.7841 56.7739 26.2194 58.1083C27.0241 60.5925 27.9695 63.3962 29.2062 66.3769C30.4244 69.3504 31.8375 72.5586 33.6299 75.7981C35.428 79.0504 37.4722 82.3774 40.0183 85.5292C40.0352 85.5675 40.0776 85.5946 40.1128 85.6401C39.0782 84.9513 36.1193 83.1106 35.8874 82.9991C32.4749 81.3736 24.9105 80.2489 22.0021 83.3308C19.9216 85.5596 20.5127 88.9772 22.8501 90.7558C25.2227 92.5799 28.9106 92.3749 31.6258 91.6216L31.589 91.6072Z" fill="#0C756F"/>
<path d="M90.0279 44.0753C90.0279 44.0753 89.2727 39.0055 89.1759 38.6819C88.1336 35.0356 84.0034 28.5984 79.7642 28.4511C76.7157 28.3439 74.5504 31.0374 74.7463 33.9728C74.952 36.965 77.5292 39.5994 79.8898 41.1541C82.6617 42.9855 90.0279 44.0753 90.0279 44.0753Z" fill="#0C756F"/>
<path d="M679.687 61.2574C681.865 62.8571 687.804 64.056 687.815 64.0585C687.881 64.0735 687.414 59.8957 687.356 59.6375C686.672 56.6245 683.582 51.2135 680.143 50.9165C677.664 50.6962 675.78 52.8034 675.81 55.2023C675.841 57.6481 677.825 59.9041 679.684 61.2685L679.687 61.2574Z" fill="#0C756F"/>
<path d="M677.857 78.8734C680.28 79.8047 685.902 79.4619 686.351 79.4347C686.516 82.576 686.943 85.7994 687.554 89.0295C687.894 90.8798 688.306 92.7229 688.739 94.571C688.423 93.7529 688.12 93.0311 688.071 92.9384C686.611 90.2171 682.209 85.8174 678.808 86.439C676.353 86.8891 675.107 89.4203 675.766 91.716C676.437 94.061 678.953 95.7136 681.098 96.5355C683.284 97.3785 688.082 97.1767 689.343 97.111C689.511 97.8139 689.676 98.528 689.855 99.2334C690.699 102.621 691.553 106.011 692.28 109.349C692.539 110.527 692.753 111.696 692.967 112.864C692.675 112.145 692.429 111.529 692.389 111.45C690.929 108.729 686.528 104.329 683.126 104.951C680.682 105.404 679.425 107.932 680.084 110.228C680.755 112.573 683.271 114.226 685.416 115.047C687.496 115.843 691.929 115.711 693.438 115.631C693.62 116.839 693.816 118.038 693.934 119.22C693.996 120.028 694.127 120.792 694.143 121.601C694.183 122.403 694.226 123.195 694.258 123.984C694.276 125.505 694.306 127.075 694.287 128.553C694.289 129.58 694.264 130.567 694.24 131.553C693.993 130.377 693.472 128.089 693.398 127.898C692.378 124.984 688.687 119.963 685.23 120.058C682.744 120.128 681.115 122.444 681.42 124.812C681.737 127.229 683.962 129.247 685.964 130.387C688.163 131.641 693.554 132.168 694.228 132.227C694.185 133.863 694.139 135.463 694.057 136.961C693.904 140.276 693.68 143.236 693.455 145.729L695.661 146.226C695.839 143.629 696.011 140.541 696.102 137.037C696.15 135.379 696.167 133.598 696.172 131.767C696.606 131.701 699.04 131.293 701.272 130.641C702.569 132.894 706.497 136.09 707.011 136.498C706.079 137.84 705.155 139.148 704.264 140.359C702.409 142.905 700.684 145.13 699.184 147.032L701.567 147.569C702.884 145.812 704.362 143.8 705.929 141.552C706.888 140.192 707.874 138.711 708.882 137.188C709.484 137.464 714.434 139.688 716.973 139.689C719.28 139.684 722.208 139.049 723.685 137.095C725.128 135.191 724.854 132.376 722.734 131.081C719.785 129.284 714.089 131.816 711.756 133.845C711.612 133.964 710.27 135.424 709.431 136.355C709.838 135.735 710.244 135.126 710.656 134.484C711.479 133.211 712.263 131.906 713.111 130.522C713.498 129.839 713.887 129.145 714.279 128.44C714.679 127.748 715.029 126.975 715.403 126.243C716.246 124.519 717.024 122.722 717.763 120.893C718.882 121.613 722.887 124.102 725.172 124.454C727.446 124.804 730.447 124.617 732.195 122.91C733.91 121.244 734.069 118.42 732.158 116.823C729.513 114.604 723.504 116.248 720.898 117.89C720.735 117.993 718.988 119.384 718.055 120.166C718.49 119.062 718.934 117.972 719.338 116.85C720.502 113.6 721.59 110.274 722.688 106.951C723.023 105.93 723.367 104.922 723.711 103.914C724.106 104.178 728.796 107.243 731.364 107.635C733.638 107.985 736.639 107.798 738.387 106.091C740.102 104.424 740.261 101.601 738.35 100.004C735.705 97.7852 729.699 99.4183 727.089 101.07C726.899 101.191 724.384 103.203 723.773 103.742C724.53 101.52 725.298 99.3013 726.154 97.1604C727.324 94.192 728.629 91.3474 730.102 88.6921C730.284 88.8148 735.171 92.0405 737.796 92.434C740.071 92.7834 743.072 92.5965 744.819 90.8902C746.535 89.2232 746.694 86.4001 744.782 84.8023C742.137 82.584 736.131 84.2171 733.522 85.8693C733.318 85.9983 730.63 88.1577 730.162 88.5774C730.255 88.4234 730.32 88.2396 730.413 88.0855C732.017 85.2615 733.927 82.7283 735.838 80.452C736.941 79.1254 738.077 77.9112 739.198 76.7636C740.044 77.456 743.961 80.5914 746.28 81.2076C748.499 81.8013 751.508 81.9428 753.431 80.4394C755.311 78.9729 755.788 76.1865 754.062 74.3855C751.678 71.8876 745.53 72.8586 742.746 74.2029C742.59 74.2728 741.147 75.196 740.098 75.8697C740.61 75.3551 741.139 74.8207 741.643 74.3394C743.529 72.5358 745.369 70.9902 747.012 69.6453C747.951 68.8886 748.812 68.2193 749.628 67.598C750.819 67.8433 755.618 68.7736 757.923 68.2663C760.167 67.7687 762.898 66.5057 763.922 64.2862C764.915 62.1062 764.051 59.4261 761.695 58.6147C758.43 57.4935 753.413 61.1935 751.573 63.6724C751.41 63.8806 749.307 67.5256 749.362 67.5381C749.362 67.5381 749.418 67.5506 749.429 67.5531C748.634 68.1324 747.783 68.7572 746.878 69.4634C745.207 70.7786 743.33 72.281 741.391 74.0609C739.455 75.8297 737.402 77.8056 735.422 80.0781C733.439 82.3616 731.467 84.8575 729.767 87.6949C729.749 87.7257 729.728 87.7676 729.709 87.7984C729.954 86.8151 730.533 84.0401 730.547 83.8216C730.833 80.7471 729.588 74.6436 726.414 73.2745C724.13 72.293 721.679 73.7122 720.967 75.9906C720.243 78.3244 721.414 81.0857 722.761 82.9647C724.265 85.0774 729.149 87.9055 729.532 88.1201C727.939 90.8418 726.525 93.7552 725.249 96.7814C724.52 98.519 723.843 100.28 723.183 102.068C723.365 101.211 723.516 100.44 723.527 100.337C723.813 97.2627 722.568 91.1593 719.393 89.7901C717.11 88.8086 714.659 90.2279 713.947 92.5062C713.212 94.8376 714.394 97.6013 715.741 99.4803C717.094 101.384 721.204 103.874 722.305 104.519C722.056 105.21 721.809 105.889 721.563 106.569C720.4 109.866 719.251 113.154 718.017 116.353C717.588 117.482 717.12 118.578 716.654 119.663C716.813 118.906 716.936 118.257 716.947 118.154C717.233 115.08 715.988 108.976 712.814 107.607C710.531 106.625 708.079 108.045 707.367 110.323C706.643 112.657 707.825 115.421 709.161 117.297C710.452 119.117 714.224 121.449 715.529 122.222C715.023 123.333 714.516 124.444 713.977 125.489C713.596 126.197 713.273 126.906 712.837 127.601C712.426 128.29 712.025 128.982 711.627 129.662C710.804 130.935 709.969 132.264 709.134 133.487C708.566 134.351 708 135.157 707.445 135.966C707.883 134.851 708.706 132.644 708.76 132.458C709.255 130.469 709.279 127.056 708.387 124.451C708.455 124.151 708.52 123.862 708.532 123.55C708.684 121.169 706.908 118.971 704.418 119.063C700.964 119.195 697.61 124.46 696.779 127.423C696.739 127.601 696.414 129.558 696.227 130.799C696.221 130.051 696.232 129.33 696.22 128.557C696.202 127.036 696.148 125.519 696.083 123.894C696.027 123.111 695.973 122.317 695.91 121.509C695.868 120.718 695.73 119.882 695.637 119.055C695.392 117.145 695.045 115.223 694.664 113.294C695.996 113.279 700.71 113.14 702.805 112.165C704.898 111.202 707.288 109.383 707.815 106.993C708.319 104.656 706.901 102.213 704.435 101.937C701.005 101.549 696.896 106.235 695.621 109.052C695.545 109.233 694.857 111.353 694.5 112.521C694.259 111.37 694.02 110.208 693.735 109.046C692.919 105.689 691.99 102.317 691.072 98.9478C690.792 97.9162 690.524 96.887 690.255 95.8579C690.732 95.8604 696.333 95.8164 698.688 94.7253C700.78 93.7618 703.17 91.9436 703.698 89.5536C704.201 87.2167 702.783 84.7733 700.318 84.4975C696.888 84.1091 692.779 88.7955 691.503 91.6119C691.409 91.8239 690.428 94.8818 690.217 95.6627C689.622 93.3932 689.052 91.1176 688.57 88.8619C687.909 85.749 687.442 82.6563 687.196 79.6136C687.417 79.6167 693.267 79.6054 695.676 78.4798C697.768 77.5164 700.158 75.6982 700.686 73.3082C701.2 70.9738 699.771 68.5279 697.306 68.2521C693.875 67.8637 689.767 72.5502 688.491 75.3665C688.394 75.5897 687.339 78.8757 687.19 79.484C687.172 79.3049 687.143 79.1233 687.128 78.9332C686.916 75.6881 687.117 72.5244 687.446 69.5648C687.636 67.8456 687.91 66.2154 688.219 64.6397C689.313 64.7464 694.303 65.1945 696.571 64.434C698.751 63.7004 701.335 62.1593 702.113 59.849C702.88 57.5832 701.726 55.001 699.301 54.4426C695.931 53.6828 691.337 57.8864 689.76 60.5414C689.67 60.6843 688.967 62.2528 688.464 63.3996C688.624 62.6889 688.756 61.9485 688.908 61.2711C689.484 58.7171 690.176 56.4227 690.797 54.3923C691.162 53.2377 691.511 52.2078 691.858 51.2359C692.984 50.7895 697.498 48.9018 699.139 47.2062C700.736 45.5476 702.326 42.9889 701.949 40.5817C701.583 38.2239 699.384 36.4562 696.97 37.0904C693.626 37.9702 691.48 43.8224 691.307 46.9109C691.294 47.1763 691.536 51.3733 691.588 51.3499C691.588 51.3499 691.64 51.3266 691.653 51.318C691.305 52.243 690.942 53.2346 690.58 54.3201C689.904 56.338 689.165 58.6335 688.532 61.1862C687.889 63.7252 687.261 66.5124 686.866 69.504C686.468 72.5066 686.196 75.6775 686.338 78.9767C686.33 79.01 686.345 79.0483 686.346 79.0952C686.002 78.1424 684.954 75.5025 684.856 75.3171C683.396 72.5958 678.995 68.1961 675.596 68.8066C673.152 69.2593 671.884 71.7855 672.554 74.0836C673.225 76.4287 675.741 78.0812 677.886 78.9031L677.857 78.8734Z" fill="#0C756F"/>
<path d="M739.188 76.0379C739.188 76.0379 741.149 72.3494 741.242 72.0904C742.326 69.1958 742.738 62.9759 740.031 60.8253C738.085 59.278 735.361 59.994 734.067 62.0128C732.753 64.0734 733.165 67.0486 733.959 69.2113C734.888 71.7546 739.188 76.0379 739.188 76.0379Z" fill="#0C756F"/>
</svg>
